<?xml version="1.0" encoding="utf-8"?>
<!-- Generator: Adobe Illustrator 15.1.0, SVG Export Plug-In . SVG Version: 6.00 Build 0)  -->
<!DOCTYPE svg PUBLIC "-//W3C//DTD SVG 1.1//EN" "http://www.w3.org/Graphics/SVG/1.1/DTD/svg11.dtd">
<svg version="1.1" id="Ebene_1" xmlns="http://www.w3.org/2000/svg" xmlns:xlink="http://www.w3.org/1999/xlink" x="0px" y="0px"
	 width="566.93px" height="850.39px" viewBox="0 0 566.93 850.39" enable-background="new 0 0 566.93 850.39" xml:space="preserve">
<g>
	<path fill-rule="evenodd" clip-rule="evenodd" fill="#993500" d="M186.095,403.228c-0.989-12.819-13.365-21.341-5.047-31.838
		c12.574-15.866,30.93,29.138,41.636,35.023c28.905,15.89,60.421-22.567,46.675-60.494c-8.154-22.505-31.219-26.335-35.321-70.043
		c-1.312-13.936,0-36.608,0-62.086c0-22.18-4.027-49.29,8.83-50.942c15.874-2.039,11.354,33.943,11.354,47.757
		c0,34.162-1.764,62.45,5.046,79.598c6.521,16.412,30.87,32.027,34.063,63.677c6.446,63.863-50.577,104.338-90.834,66.86
		c-57.32,50.714-116.87-34.342-82.002-97.106c10.734-19.326,25.674-22.318,29.014-46.167c3.038-21.648-8.806-113.718,10.095-114.618
		c16.281-0.774,13.405,67.341,11.355,103.476c-0.706,12.41-5.378,33.884-10.095,42.983c-10.734,20.711-36.939,30.554-27.753,70.043
		C138.799,403.799,160.498,417.602,186.095,403.228z"/>
	<path fill-rule="evenodd" clip-rule="evenodd" fill="#993500" d="M59.749,277.271c10.432-4.641,40.54,24.956,40.372,34.249
		c-0.096,5.271-3.475,9.237-6.309,10.147c-8.506,2.734-13.528-5.99-22.709-15.22C64.479,299.783,43.021,284.712,59.749,277.271z"/>
	<path fill-rule="evenodd" clip-rule="evenodd" fill="none" stroke="#993500" stroke-width="18" d="M489.414,354.072
		c8.502,11.104,2.527,34.977,4.311,52.007c16.096,4.408,45.166-2.628,58.963,3.806c4.813,21.032,4.661,58.862,0,79.915
		c-14.023,5.387-38.877,1.227-57.524,2.535c-5.209,14.854,3.82,42.27-5.749,53.275c-24.041,4.266-66.522,4.037-90.602,0
		c-6.053-13.264-1.432-35.943-2.877-53.275c-19.305-0.729-42.005,1.533-58.962-1.268c-6.98-19.744-6.98-62.707,0-82.451
		c16.957-2.802,39.657-0.54,58.962-1.269c4.688-19.279-10.01-49.946,8.63-55.813C425.552,344.927,469.428,354.601,489.414,354.072z"
		/>
	<path fill-rule="evenodd" clip-rule="evenodd" fill="#993500" d="M18.655,361.893c13.341-4.896,50.014-5.38,47.939,11.417
		c-1.474,11.939-52.734,14.552-56.772,2.537C6.38,365.601,13.364,363.834,18.655,361.893z"/>
	<path fill-rule="evenodd" clip-rule="evenodd" fill="#993500" d="M40.811,421.342c-5.108,52.111,13.648,97.05,37.847,124.313
		c6.199,6.985,22.086,14.821,21.446,24.1c-1.736,25.249-30.208-3.988-37.848-12.684c-27.622-31.456-51.24-84.494-39.109-138.265
		C28.592,414.431,37.779,416.283,40.811,421.342z"/>
	<path fill-rule="evenodd" clip-rule="evenodd" fill="#993500" d="M201.234,463.389c51.893-43.5,112.484,19.074,87.05,86.025
		c-9.921,26.108-30.783,28.774-34.063,59.437c-1.888,17.654,7.999,105.888-8.831,107.924c-14.315,1.727-11.353-22.667-11.353-48.487
		c0-37.808-3.076-68.952,7.568-92.281c8.92-19.552,31.541-27.069,31.541-57.871c0-34.395-28.081-55.578-55.512-35.975
		c0.757,5.207,14.116,21.142,3.787,31.281c-24,0.641-25.603-35.611-49.202-39.102c-25.315-3.745-46.126,23.036-39.109,56.306
		c6.313,29.94,22.388,26.542,31.54,50.053c8.318,21.374,6.308,55.303,6.308,90.716c0,21.182,1.825,44.564-10.095,45.36
		c-20.934,1.395-8.516-89.305-11.355-111.056c-4.072-31.214-38.416-39.984-39.107-86.022
		C109.602,466.161,156.366,427.575,201.234,463.389z"/>
</g>
</svg>
