<?xml version="1.0" encoding="utf-8"?>
<!-- Generator: Adobe Illustrator 15.1.0, SVG Export Plug-In . SVG Version: 6.00 Build 0)  -->
<!DOCTYPE svg PUBLIC "-//W3C//DTD SVG 1.1//EN" "http://www.w3.org/Graphics/SVG/1.1/DTD/svg11.dtd">
<svg version="1.1" id="Ebene_1" xmlns="http://www.w3.org/2000/svg" xmlns:xlink="http://www.w3.org/1999/xlink" x="0px" y="0px"
	 width="566.93px" height="850.39px" viewBox="0 0 566.93 850.39" enable-background="new 0 0 566.93 850.39" xml:space="preserve">
<path fill-rule="evenodd" clip-rule="evenodd" fill="none" stroke="#215828" stroke-width="6" d="M245.381,207.183
	c5.838-13.573,18.001-26.367,36.223-27.771c16.981-1.308,30.762,7.154,38.638,17.306c28.5,1.086,47.646,20.801,42.662,52.725
	c26.182,5.415,42.294,42.142,23.344,67.213c-2.362,3.125-5.354,5.029-8.05,8.452c13.188,21.454,1.527,52.586-17.307,59.969
	c8.304,28.987-10.885,54.662-38.638,55.943c-8.248,10.211-17.551,19.096-34.21,20.124c-21.548,1.33-36.35-12.258-42.26-28.173
	c-6.139,17.16-25.536,31.357-47.895,27.368c-12.944-2.31-22.101-9.499-28.575-19.319c-28.12-1.382-47.801-26.546-39.041-55.943
	c-18.009-6.772-31.698-37.846-17.307-59.566c-7.844-8.218-15.41-16.423-16.5-30.588c-1.867-24.23,13.531-39.75,31.795-45.077
	c-5.191-27.729,10.684-47.849,32.198-52.322c2.694-0.56,6.573,0.387,10.062-0.805c2.574-0.879,4.102-4.705,6.037-6.439
	c6.115-5.479,14.579-9.52,23.746-10.464C223.201,177.456,237.77,189.445,245.381,207.183z M242.966,217.646
	c-1.697-18.063-15.74-31.867-34.21-33.405c-12.628-1.051-22.606,3.841-28.979,9.66c-2.16,1.972-3.892,6.601-6.842,7.647
	c-2.685,0.951-6.328,0.021-8.854,0.402c-23.168,3.493-36.674,24.439-30.588,51.114c-18.541,4.348-34.112,19.507-32.198,41.455
	c0.803,9.204,5.048,17.34,10.464,22.941c2.357,2.437,5.611,3.024,7.244,6.842c-1.722,3.657-4.013,6.215-5.231,9.659
	c-6.44,18.202,2.147,34.953,12.879,43.065c3.058,2.312,6.69,3.07,8.855,6.037c-9.582,26.506,8.466,54.129,36.222,53.127
	c7.591,10.575,16.52,20.124,33.809,20.124c19.741,0,35.766-14.225,37.43-34.211c2.047-24.58-1.525-56.652,0-84.117
	c-13.553,0.266-28.17-0.534-41.053,0.403c-0.572,7.311,0.791,13.186,0,18.916c-2.187,15.837-20.771,22.138-32.6,14.489
	c-7.093-4.587-10.857-12.827-9.66-25.758c-8.397,2.639-15.631-1.795-14.489-11.27c-3.022-0.332-7.491,0.784-9.257-0.805
	c-0.475-6.896-1.137-20.64,0.402-28.173c2.3-0.786,5.929-0.244,8.854-0.402c-0.622-6.704,2.554-10.556,6.843-11.672
	c2.841-0.739,5.405,0.215,7.646,0c-5.738-29.547,30.594-36.261,40.248-16.501c3.074,6.292,1.771,15.045,2.012,24.953
	c13.685,0,27.368,0,41.053,0C241.237,273.87,245.298,242.458,242.966,217.646z M317.826,201.548
	c-8.333-9.285-17.445-19.033-35.82-17.307c-21.275,2-33.74,18.055-34.21,41.857c-0.457,23.12,0.34,50.797,0,76.067
	c13.684,0,27.367,0,41.052,0c0.435-11.793-1.416-19.796,3.22-26.965c12.133-18.762,44.824-8.552,39.04,19.319
	c8.286-2.761,15.879,1.35,14.489,10.867c1.93,0.453,8.229-0.979,9.66,1.207c0.43,8.248,1.158,20.183-0.403,27.771
	c-2.205,0.88-5.993,0.177-8.854,0.402c0.806,8.007-5.707,14.598-14.892,11.27c1.981,18.39-7.108,29.08-21.331,28.978
	c-18.054-0.129-22.752-16.368-20.929-37.028c-13.685,0-27.368,0-41.052,0c0.587,26.177-0.791,54.796,0,77.678
	c0.844,24.408,14.039,39.221,37.43,40.65c10.317,0.63,21.045-4.946,26.966-10.867c2.263-2.262,4.096-8.029,7.647-9.257
	c2.487-0.86,5.58-0.013,7.646-0.402c21.703-4.099,36.973-26.904,27.771-53.127c15.503-6.866,29.706-26.339,21.732-48.297
	c-0.891-2.452-5.127-8.155-4.829-10.464c0.345-2.671,6.834-6.063,8.854-8.452c17.635-20.85,5.815-51.241-14.489-59.566
	c-3.261-1.337-6.384-0.556-9.257-3.622C364.019,222.736,347.409,201.228,317.826,201.548z M164.483,299.751
	c0,11.572,0,29.38,0,40.247c0,7.016-0.732,14.921,0.805,19.319c4.7,13.445,25.182,13.618,30.588,1.208
	c1.786-4.099,1.207-12.207,1.207-18.916c0-15.589,0-26.09,0-41.053c0-6.611,0.868-15.067-0.804-19.721
	c-2.38-6.622-10.54-11.698-18.917-10.062C163.726,273.438,164.483,285.018,164.483,299.751z M293.678,298.544
	c0,6.347,0,13.155,0,20.929c0,12.406-1.868,32.392,0.805,39.845c2.4,6.691,9.367,12.287,19.318,10.464
	c3.327-0.609,9.519-4.298,11.673-10.062c1.786-4.781,1.207-12.825,1.207-19.318c0-6.916,0-14.211,0-20.526
	c0-12.139,1.905-31.413-1.207-39.442c-2.806-7.235-10.985-10.943-18.514-9.659C293.269,273.109,293.678,284.819,293.678,298.544z
	 M149.994,320.68c0,11.49-2.399,22.246,5.635,21.331c5.089-0.58,4.024-8.97,4.024-19.318c0-9.773,2.445-26.353-6.037-24.149
	C148.023,299.998,149.994,310.817,149.994,320.68z M331.107,323.9c0,9.968-1.005,18.78,5.636,18.111
	c5.938-0.598,4.023-12.618,4.023-20.124c0-8.538,0.314-15.611-0.402-20.929C329.166,290.691,331.107,311.507,331.107,323.9z
	 M202.719,306.996c-0.506,0.165-0.823,0.519-0.806,1.207c0,8.318,0,16.636,0,24.954c8.05,0,16.1,0,24.149,0
	c1.526-8.677,4.364-18.164,5.231-26.161C221.769,306.996,212.244,306.996,202.719,306.996z M236.929,306.996
	c-2.524,8.208-3.828,17.637-6.037,26.161c7.781,0,15.563,0,23.344,0c1.938-8.66,4.079-17.119,5.635-26.161
	C252.224,306.996,244.576,306.996,236.929,306.996z M265.505,306.996c-2.74,7.992-3.954,17.511-6.037,26.161
	c9.793,0,19.586,0,29.38,0c0-8.721,0-17.441,0-26.161C281.067,306.996,273.286,306.996,265.505,306.996z M140.335,310.216
	c0,6.574,0,13.148,0,19.721c1.61,0,3.22,0,4.829,0c0-6.573,0-13.147,0-19.721C143.555,310.216,141.945,310.216,140.335,310.216z
	 M345.597,310.618c0,6.306,0,12.611,0,18.917c1.086,0.792,3.517,0.24,5.232,0.402c0-6.439,0-12.879,0-19.318
	C349.085,310.618,347.341,310.618,345.597,310.618z"/>
<path fill-rule="evenodd" clip-rule="evenodd" fill="none" stroke="#215828" stroke-miterlimit="10" d="M242.966,302.166
	c-13.685,0-27.368,0-41.053,0c-0.241-9.908,1.063-18.661-2.012-24.953c-9.654-19.76-45.986-13.046-40.248,16.501
	c-2.241,0.215-4.806-0.739-7.646,0c-4.289,1.116-7.465,4.968-6.843,11.672c-2.926,0.159-6.555-0.384-8.854,0.402
	c-1.539,7.533-0.877,21.277-0.402,28.173c1.766,1.589,6.234,0.474,9.257,0.805c-1.142,9.475,6.092,13.908,14.489,11.27
	c-1.197,12.931,2.567,21.171,9.66,25.758c11.828,7.648,30.413,1.348,32.6-14.489c0.791-5.73-0.572-11.605,0-18.916
	c12.883-0.937,27.5-0.137,41.053-0.403c-1.525,27.465,2.047,59.537,0,84.117c-1.664,19.986-17.688,34.211-37.43,34.211
	c-17.289,0-26.218-9.549-33.809-20.124c-27.756,1.002-45.804-26.621-36.222-53.127c-2.165-2.967-5.798-3.726-8.855-6.037
	c-10.731-8.112-19.319-24.863-12.879-43.065c1.219-3.444,3.51-6.002,5.231-9.659c-1.633-3.817-4.887-4.405-7.244-6.842
	c-5.416-5.601-9.661-13.737-10.464-22.941c-1.914-21.948,13.657-37.107,32.198-41.455c-6.086-26.675,7.42-47.622,30.588-51.114
	c2.526-0.381,6.17,0.549,8.854-0.402c2.95-1.046,4.682-5.675,6.842-7.647c6.372-5.818,16.351-10.711,28.979-9.66
	c18.47,1.539,32.513,15.343,34.21,33.405C245.298,242.458,241.237,273.87,242.966,302.166z M184.204,205.975
	c1.08,6.293,2.922,13.417,0.402,19.319c-1.003,2.35-3.445,3.419-3.219,6.037c8.793,7.792,11.939-21.694,6.439-26.563
	C186.011,204.561,184.638,204.798,184.204,205.975z M149.994,271.176c0.919-7.486-1.86-17.563-6.037-20.124
	c-5.122,0.329-1.583,4.48-0.402,7.647c0.929,2.487,2.113,6.659,2.013,9.659c-0.175,5.213-3.897,6.321-1.207,10.464
	C148.417,279.339,149.617,274.251,149.994,271.176z M156.031,380.649c0.286,4.331,1.728,7.92,1.61,12.074
	c-0.164,5.805-3.871,9.65-4.025,14.086c9.047,4.901,11.002-22.535,6.037-27.368C157.666,379.064,156.924,379.932,156.031,380.649z
	 M189.839,409.627c0.019,3.582,1.656,7.241,1.61,11.269c-0.064,5.677-3.429,9.543-4.427,14.087
	c8.929,6.342,11.505-22.102,6.439-26.966C191.647,407.947,189.777,407.82,189.839,409.627z"/>
<path fill-rule="evenodd" clip-rule="evenodd" fill="none" stroke="#215828" stroke-miterlimit="10" d="M357.269,252.26
	c2.873,3.066,5.996,2.285,9.257,3.622c20.305,8.325,32.124,38.716,14.489,59.566c-2.021,2.389-8.51,5.781-8.854,8.452
	c-0.298,2.309,3.938,8.012,4.829,10.464c7.974,21.958-6.229,41.431-21.732,48.297c9.201,26.223-6.068,49.028-27.771,53.127
	c-2.066,0.39-5.159-0.458-7.646,0.402c-3.552,1.228-5.385,6.995-7.647,9.257c-5.921,5.921-16.648,11.497-26.966,10.867
	c-23.391-1.43-36.586-16.242-37.43-40.65c-0.791-22.881,0.587-51.5,0-77.678c13.684,0,27.367,0,41.052,0
	c-1.823,20.66,2.875,36.899,20.929,37.028c14.223,0.102,23.313-10.588,21.331-28.978c9.185,3.328,15.697-3.263,14.892-11.27
	c2.861-0.225,6.649,0.478,8.854-0.402c1.562-7.588,0.833-19.523,0.403-27.771c-1.431-2.186-7.73-0.754-9.66-1.207
	c1.39-9.517-6.203-13.628-14.489-10.867c5.784-27.871-26.907-38.081-39.04-19.319c-4.636,7.169-2.785,15.172-3.22,26.965
	c-13.685,0-27.368,0-41.052,0c0.34-25.271-0.457-52.947,0-76.067c0.47-23.802,12.935-39.858,34.21-41.857
	c18.375-1.727,27.487,8.021,35.82,17.307C347.409,201.228,364.019,222.736,357.269,252.26z M300.521,203.963
	c-0.117,7.307,1.048,14.716,4.024,19.318c1.673,2.588,4.845,6.534,8.854,5.635c1.422-4.169-3.234-5.754-4.83-8.452
	c-2.65-4.481-3.145-10.882-3.623-17.306C303.349,202.333,301.308,202.831,300.521,203.963z M340.767,257.492
	c-1.603,12.293,3.014,24.932,12.074,25.758c2.547-2.901-0.787-4.087-2.816-6.439c-4.178-4.841-4.602-12.351-5.635-19.721
	C343.095,256.441,341.722,256.756,340.767,257.492z M341.975,370.989c-3.569,3.306-7.556,13.966-6.439,21.734
	c0.453,3.151,2.633,8.128,5.635,6.037c1.812-2.367-0.458-4.412-0.806-6.842c-1.067-7.474,2.971-13.824,5.232-18.917
	C344.654,372.066,344.31,370.533,341.975,370.989z M302.532,433.775c1.416-4.037,5.98-8.222,9.257-10.464
	c2.167-1.483,5.276-2.473,4.83-4.83c-0.138-0.726-1.866-2.792-3.22-2.013c-5.742,3.306-12.271,8.264-14.893,14.892
	c-0.892,2.255-3.702,8.242,2.014,8.452C303.228,437.415,301.573,436.507,302.532,433.775z"/>
<path fill-rule="evenodd" clip-rule="evenodd" fill="none" stroke="#215828" stroke-width="6" d="M304.946,203.158
	c0.479,6.424,0.973,12.825,3.623,17.306c1.596,2.698,6.252,4.283,4.83,8.452c-4.01,0.899-7.182-3.047-8.854-5.635
	c-2.977-4.603-4.142-12.011-4.024-19.318C301.308,202.831,303.349,202.333,304.946,203.158z"/>
<path fill-rule="evenodd" clip-rule="evenodd" fill="none" stroke="#215828" stroke-width="6" d="M187.827,204.768
	c5.5,4.87,2.354,34.356-6.439,26.563c-0.227-2.618,2.216-3.687,3.219-6.037c2.52-5.902,0.678-13.026-0.402-19.319
	C184.638,204.798,186.011,204.561,187.827,204.768z"/>
<path fill-rule="evenodd" clip-rule="evenodd" fill="none" stroke="#215828" stroke-width="6" d="M144.36,278.823
	c-2.69-4.143,1.032-5.251,1.207-10.464c0.101-3-1.084-7.172-2.013-9.659c-1.181-3.167-4.72-7.318,0.402-7.647
	c4.177,2.561,6.956,12.637,6.037,20.124C149.617,274.251,148.417,279.339,144.36,278.823z"/>
<path fill-rule="evenodd" clip-rule="evenodd" fill="none" stroke="#215828" stroke-width="6" d="M344.39,257.089
	c1.033,7.37,1.457,14.88,5.635,19.721c2.029,2.352,5.363,3.538,2.816,6.439c-9.061-0.826-13.677-13.465-12.074-25.758
	C341.722,256.756,343.095,256.441,344.39,257.089z"/>
<path fill-rule="evenodd" clip-rule="evenodd" fill="none" stroke="#215828" stroke-miterlimit="10" d="M177.362,270.773
	c8.377-1.637,16.537,3.44,18.917,10.062c1.672,4.654,0.804,13.11,0.804,19.721c0,14.962,0,25.464,0,41.053
	c0,6.709,0.579,14.817-1.207,18.916c-5.406,12.411-25.888,12.237-30.588-1.208c-1.537-4.398-0.805-12.303-0.805-19.319
	c0-10.867,0-28.675,0-40.247C164.483,285.018,163.726,273.438,177.362,270.773z M178.973,287.677
	c-0.729,14.261-0.403,35.375-0.403,50.712c0,5.845-1.229,12.231,1.611,15.696c5.312-1.508,3.219-9.34,3.219-14.489
	c0-12.352,0-24.391,0-36.223c0-6.101,0.937-12.339-1.207-16.904c-0.805,0-1.609,0-2.415,0
	C179.271,286.635,178.955,286.989,178.973,287.677z"/>
<path fill-rule="evenodd" clip-rule="evenodd" fill="none" stroke="#215828" stroke-miterlimit="10" d="M306.96,270.773
	c7.528-1.284,15.708,2.424,18.514,9.659c3.112,8.029,1.207,27.303,1.207,39.442c0,6.315,0,13.611,0,20.526
	c0,6.493,0.579,14.537-1.207,19.318c-2.154,5.764-8.346,9.453-11.673,10.062c-9.951,1.822-16.918-3.773-19.318-10.464
	c-2.673-7.453-0.805-27.438-0.805-39.845c0-7.774,0-14.582,0-20.929C293.678,284.819,293.269,273.109,306.96,270.773z
	 M308.167,287.274c-0.723,14.049-0.403,35.419-0.403,51.92c0,3.992-1.483,14.934,2.416,14.891c3.627-0.04,2.414-10.354,2.414-15.294
	c0-12.521,0-23.789,0-35.418c0-6.035,0.931-12.489-1.207-16.904C310.018,286.442,308.577,286.345,308.167,287.274z"/>
<path fill-rule="evenodd" clip-rule="evenodd" fill="none" stroke="#215828" stroke-width="6" d="M179.777,286.47
	c0.806,0,1.61,0,2.415,0c2.144,4.565,1.207,10.803,1.207,16.904c0,11.832,0,23.871,0,36.223c0,5.149,2.093,12.981-3.219,14.489
	c-2.84-3.465-1.611-9.852-1.611-15.696c0-15.336-0.325-36.451,0.403-50.712C178.955,286.989,179.271,286.635,179.777,286.47z"/>
<path fill-rule="evenodd" clip-rule="evenodd" fill="none" stroke="#215828" stroke-width="6" d="M311.387,286.47
	c2.138,4.415,1.207,10.869,1.207,16.904c0,11.629,0,22.897,0,35.418c0,4.94,1.213,15.254-2.414,15.294
	c-3.899,0.042-2.416-10.899-2.416-14.891c0-16.501-0.319-37.871,0.403-51.92C308.577,286.345,310.018,286.442,311.387,286.47z"/>
<path fill-rule="evenodd" clip-rule="evenodd" fill="none" stroke="#215828" stroke-miterlimit="10" d="M153.616,298.544
	c8.482-2.204,6.037,14.376,6.037,24.149c0,10.349,1.064,18.739-4.024,19.318c-8.034,0.915-5.635-9.841-5.635-21.331
	C149.994,310.817,148.023,299.998,153.616,298.544z"/>
<path fill-rule="evenodd" clip-rule="evenodd" fill="none" stroke="#215828" stroke-miterlimit="10" d="M340.364,300.959
	c0.717,5.318,0.402,12.391,0.402,20.929c0,7.505,1.915,19.525-4.023,20.124c-6.641,0.668-5.636-8.143-5.636-18.111
	C331.107,311.507,329.166,290.691,340.364,300.959z"/>
<path fill-rule="evenodd" clip-rule="evenodd" fill="none" stroke="#215828" stroke-miterlimit="10" d="M231.294,306.996
	c-0.867,7.997-3.705,17.484-5.231,26.161c-8.05,0-16.1,0-24.149,0c0-8.318,0-16.636,0-24.954c-0.018-0.688,0.3-1.042,0.806-1.207
	C212.244,306.996,221.769,306.996,231.294,306.996z"/>
<path fill-rule="evenodd" clip-rule="evenodd" fill="none" stroke="#215828" stroke-miterlimit="10" d="M259.87,306.996
	c-1.556,9.042-3.696,17.501-5.635,26.161c-7.781,0-15.563,0-23.344,0c2.209-8.524,3.513-17.953,6.037-26.161
	C244.576,306.996,252.224,306.996,259.87,306.996z"/>
<path fill-rule="evenodd" clip-rule="evenodd" fill="none" stroke="#215828" stroke-miterlimit="10" d="M288.848,306.996
	c0,8.72,0,17.44,0,26.161c-9.794,0-19.587,0-29.38,0c2.083-8.65,3.297-18.169,6.037-26.161
	C273.286,306.996,281.067,306.996,288.848,306.996z"/>
<path fill-rule="evenodd" clip-rule="evenodd" fill="none" stroke="#215828" stroke-miterlimit="10" d="M145.164,310.216
	c0,6.574,0,13.148,0,19.721c-1.609,0-3.219,0-4.829,0c0-6.573,0-13.147,0-19.721C141.945,310.216,143.555,310.216,145.164,310.216z"
	/>
<path fill-rule="evenodd" clip-rule="evenodd" fill="none" stroke="#215828" stroke-miterlimit="10" d="M350.829,310.618
	c0,6.439,0,12.879,0,19.318c-1.716-0.162-4.146,0.391-5.232-0.402c0-6.305,0-12.611,0-18.917
	C347.341,310.618,349.085,310.618,350.829,310.618z"/>
<path fill-rule="evenodd" clip-rule="evenodd" fill="none" stroke="#215828" stroke-width="6" d="M345.597,373.001
	c-2.262,5.092-6.3,11.443-5.232,18.917c0.348,2.43,2.617,4.475,0.806,6.842c-3.002,2.092-5.182-2.886-5.635-6.037
	c-1.116-7.768,2.87-18.428,6.439-21.734C344.31,370.533,344.654,372.066,345.597,373.001z"/>
<path fill-rule="evenodd" clip-rule="evenodd" fill="none" stroke="#215828" stroke-width="6" d="M159.653,379.441
	c4.965,4.833,3.01,32.27-6.037,27.368c0.154-4.436,3.861-8.281,4.025-14.086c0.117-4.154-1.324-7.744-1.61-12.074
	C156.924,379.932,157.666,379.064,159.653,379.441z"/>
<path fill-rule="evenodd" clip-rule="evenodd" fill="none" stroke="#215828" stroke-width="6" d="M193.462,408.017
	c5.065,4.864,2.489,33.308-6.439,26.966c0.998-4.544,4.362-8.41,4.427-14.087c0.046-4.027-1.592-7.687-1.61-11.269
	C189.777,407.82,191.647,407.947,193.462,408.017z"/>
<path fill-rule="evenodd" clip-rule="evenodd" fill="none" stroke="#215828" stroke-width="6" d="M300.521,439.813
	c-5.716-0.21-2.905-6.197-2.014-8.452c2.622-6.628,9.15-11.586,14.893-14.892c1.354-0.779,3.082,1.287,3.22,2.013
	c0.446,2.357-2.663,3.347-4.83,4.83c-3.276,2.242-7.841,6.427-9.257,10.464C301.573,436.507,303.228,437.415,300.521,439.813z"/>
<path fill="none" stroke="#215828" stroke-width="12" d="M73.754,753.748c13.811-32.742,29.877-65.299,36.717-100.424
	c3.383-17.375,4.316-35.32,1.512-52.844c-2.719-17-9.143-33.1-17.93-47.854c-4.379-7.352-9.57-14.105-14.275-21.234
	c-4.885-7.4-9.24-15.146-13.305-23.023c-8.127-15.756-14.959-32.168-20.646-48.957c-11.594-34.225-18.742-70.204-18.885-106.416
	c-0.139-34.85,6.625-69.725,22.037-101.112c14.828-30.199,36.664-56.816,62.367-78.417c26.766-22.493,58.139-38.27,92.219-46.18
	c35.581-8.259,72.223-7.562,107.985-0.803c33.843,6.396,66.538,18.77,94.936,38.453c26.309,18.236,48.236,42.471,63.505,70.626
	c8.027,14.802,14.167,30.614,18.441,46.896c2.26,8.607,3.989,17.354,5.153,26.176c1.159,8.792,2.323,18.089,1.604,26.958
	c-0.678,8.357-4.391,16.368-6.22,24.526c-1.684,7.513-3.089,15.634-1.154,23.239c2.031,7.982,8.329,14.836,12.455,21.84
	c4.747,8.062,9.316,16.227,13.978,24.339c4.676,8.133,9.368,16.256,13.966,24.432c3.914,6.963,8.365,14.008,10.648,21.723
	c2.138,7.223,1.416,14.619-3.71,20.422c-4.313,4.881-10.646,7.01-16.831,8.355c-9.456,2.061-23.851,4.264-20.304,17.482
	c1.013,3.773,3.219,7.039,5.247,10.326c2.049,3.318,4.556,6.574,1.894,10.211c-2.342,3.199-4.592,5.91-4.928,10.061
	c-0.333,4.125,1.444,7.455,2.521,11.285c2.783,9.898-10.478,17.133-17.762,20.389c6.964,14.424,11.932,31.887,9.754,48.033
	c-1.359,6.443-2.985,12.947-6.238,18.639c-4.065,7.318-10.569,13.01-18.7,16.262c-2.439,0.813-4.879,1.627-7.318,2.439
	c-7.317,0.813-14.635,1.627-21.953,0.813c-23.579-3.252-45.532-8.943-69.111-4.879c-6.505,0.814-10.57,5.693-12.196,11.385
	c-8.943,26.018,0.813,51.223,7.318,76.428c0,1.627,0,3.254-0.557,5.027"/>
</svg>
