<?xml version="1.0" encoding="utf-8"?>
<!-- Generator: Adobe Illustrator 15.1.0, SVG Export Plug-In . SVG Version: 6.00 Build 0)  -->
<!DOCTYPE svg PUBLIC "-//W3C//DTD SVG 1.1//EN" "http://www.w3.org/Graphics/SVG/1.1/DTD/svg11.dtd">
<svg version="1.1" id="Ebene_1" xmlns="http://www.w3.org/2000/svg" xmlns:xlink="http://www.w3.org/1999/xlink" x="0px" y="0px"
	 width="120px" height="120px" viewBox="0 0 120 120" enable-background="new 0 0 120 120" xml:space="preserve">
<circle fill-rule="evenodd" clip-rule="evenodd" fill="#D9D4BA" cx="58.342" cy="60.035" r="51.25"/>
<g opacity="0.61">
	<path fill-rule="evenodd" clip-rule="evenodd" fill="#583D43" d="M44.072,44.214c2.422,0.027,3.667,1.24,6.616,0.741
		c-0.537,2.875-5.085,1.782-4.412,5.894c-2.247,0.947-6.161,0.237-6.636,2.957c-0.29,2.744,4.602,0.3,5.173,2.213
		c-1.259,3.737-6.059-0.511-6.649-2.213c0.067-4.107,3.957-4.41,6.649-5.909C45.104,46.125,43.453,46.301,44.072,44.214z"/>
	<path fill-rule="evenodd" clip-rule="evenodd" fill="#583D43" d="M53.639,61.916C49.69,60.96,43.007,61.384,40.382,65.6
		c0.509,1.453,1.962,1.971,3.69,2.209c-1.264,2.46-4.78,0.969-5.908-0.736C37.927,59.667,49.608,56.55,53.639,61.916z"/>
	<path fill-rule="evenodd" clip-rule="evenodd" fill="#583D43" d="M49.212,75.926c0.367,2.314-1.977,1.938-2.189,3.682
		c-1.298-0.175-1.686-1.26-1.482-2.945C47.322,76.963,47.148,75.315,49.212,75.926z"/>
	<path fill-rule="evenodd" clip-rule="evenodd" fill="#583D43" d="M57.339,58.962c0-14.983,0.77-26.188-4.243-31.453
		c-0.121-0.063-0.213-0.158-0.314-0.24c-0.078-0.034-0.16-0.065-0.228-0.111c-7.406-2.582-12.98,1.898-13.649,8.207
		c-9.212-0.925-10.926,8.589-8.107,15.484c-8.572,3.042-3.274,18.374,2.199,20.66c-1.628,1.448-0.591,5.957-0.068,7.851
		c0.098,0.131,0.175,0.281,0.242,0.432c1.657,2.17,4.543,3.085,7.212,4.242c1.758,4.602,3.773,9.105,8.83,8.854
		C59.397,92.374,57.339,72.244,57.339,58.962z M54.984,73.979c-0.01,0.344-0.01,0.688-0.067,1.037
		c-0.005,0.02-0.01,0.039-0.015,0.063c-0.01,1.23-0.063,2.465-0.208,3.695c-0.044,0.388-0.15,0.746-0.218,1.124
		c-0.121,1.812-0.451,4.03-1.168,5.802c-0.387,2.311-1.337,4.021-4.097,4.243c-3.924,0.306-6.389-4.407-6.616-9.6
		c-0.218,0.024-0.378-0.015-0.591,0c-2.034,1.308-4.631,1.298-6.713-0.735c-0.771-0.746-1.163-1.609-1.371-2.5
		c-0.771-2.082,0.121-4.669,1.802-6.543c-2.717-2.475-5.662-4.728-6.819-8.767l-0.024-0.077c-0.087-0.309-0.193-0.596-0.252-0.93
		c-0.213-0.775-0.203-1.501-0.232-2.233c-0.102-0.528-0.106-1.051-0.01-1.582c-0.02-0.552-0.01-1.109,0.194-1.623
		c0-0.024,0-0.046,0-0.073c0.038-0.077,0.106-0.125,0.149-0.198c0.209-0.434,0.509-0.802,0.877-1.117
		c0.659-0.775,1.569-1.431,2.81-1.918c0.193-0.147,0.406-0.283,0.581-0.455c-1.298-4.456-2.131-9.696,0.843-12.656
		c0.102-0.131,0.154-0.269,0.28-0.395c1.851-1.824,4.166-2.201,6.384-0.712c0.18,0.124,0.276,0.278,0.427,0.417
		c0.067,0.034,0.116,0.026,0.193,0.063c-0.538-5.071,1.579-10.902,9.565-9.578c0.16,0.126,0.296,0.31,0.45,0.46
		c0.214,0.157,0.397,0.334,0.538,0.55c5.206,6.444,3.638,27.055,3.463,40.488C55.256,71.451,55.082,72.72,54.984,73.979z"/>
	<path fill-rule="evenodd" clip-rule="evenodd" fill="#583D43" d="M71.719,44.907c-2.422,0.026-3.667,1.24-6.616,0.741
		c0.537,2.875,5.086,1.782,4.412,5.895c2.247,0.947,6.161,0.237,6.636,2.957c0.29,2.744-4.602,0.3-5.173,2.213
		c1.259,3.736,6.059-0.511,6.649-2.213c-0.067-4.107-3.957-4.41-6.649-5.909C70.687,46.817,72.339,46.994,71.719,44.907z"/>
	<path fill-rule="evenodd" clip-rule="evenodd" fill="#583D43" d="M62.153,62.606c3.947-0.954,10.631-0.53,13.256,3.681
		c-0.509,1.463-1.962,1.977-3.69,2.219c1.264,2.451,4.78,0.969,5.908-0.741C77.864,60.359,66.183,57.243,62.153,62.606z"/>
	<path fill-rule="evenodd" clip-rule="evenodd" fill="#583D43" d="M66.58,76.613c-0.368,2.315,1.976,1.947,2.188,3.686
		c1.299-0.174,1.686-1.264,1.482-2.939C68.469,77.66,68.643,76.014,66.58,76.613z"/>
	<path fill-rule="evenodd" clip-rule="evenodd" fill="#583D43" d="M66.58,93.575c5.056,0.252,7.071-4.243,8.829-8.849
		c2.669-1.158,5.556-2.078,7.212-4.248c0.067-0.146,0.146-0.291,0.242-0.426c0.522-1.898,1.56-6.403-0.068-7.856
		c5.474-2.276,10.771-17.613,2.199-20.654c2.818-6.895,1.104-16.409-8.107-15.484c-0.669-6.309-6.243-10.789-13.649-8.207
		c-0.067,0.046-0.149,0.078-0.228,0.111c-0.102,0.083-0.193,0.177-0.314,0.24c-5.013,5.265-4.243,16.47-4.243,31.453
		C58.452,72.933,56.395,93.062,66.58,93.575z M60.651,70.918c-0.174-13.428-1.743-34.039,3.463-40.483
		c0.141-0.215,0.324-0.392,0.538-0.55c0.154-0.15,0.29-0.334,0.45-0.46c7.986-1.325,10.104,4.507,9.565,9.578
		c0.077-0.036,0.126-0.029,0.194-0.063c0.149-0.138,0.246-0.293,0.426-0.417c2.218-1.489,4.533-1.111,6.384,0.712
		c0.126,0.126,0.179,0.264,0.28,0.395c2.975,2.959,2.141,8.2,0.843,12.655c0.175,0.172,0.388,0.308,0.581,0.456
		c1.24,0.487,2.151,1.143,2.81,1.918c0.368,0.315,0.668,0.683,0.877,1.116c0.043,0.073,0.111,0.121,0.149,0.199
		c0,0.026,0,0.048,0,0.073c0.204,0.513,0.214,1.07,0.194,1.623c0.097,0.53,0.092,1.053-0.01,1.581
		c-0.029,0.731-0.02,1.458-0.232,2.232c-0.059,0.334-0.165,0.623-0.252,0.931l-0.024,0.077c-1.157,4.039-4.103,6.291-6.819,8.767
		c1.681,1.87,2.572,4.456,1.802,6.548c-0.208,0.882-0.601,1.749-1.371,2.5c-2.082,2.023-4.678,2.039-6.713,0.727
		c-0.213-0.01-0.372,0.028-0.591,0.004c-0.228,5.188-2.692,9.905-6.615,9.595c-2.761-0.218-3.71-1.928-4.098-4.243
		c-0.717-1.771-1.046-3.98-1.167-5.802c-0.068-0.372-0.175-0.735-0.219-1.118c-0.145-1.235-0.198-2.466-0.208-3.695
		c-0.005-0.02-0.01-0.039-0.015-0.063c-0.058-0.354-0.058-0.692-0.067-1.042C60.71,73.417,60.535,72.143,60.651,70.918z"/>
</g>
</svg>
