<?xml version="1.0" encoding="utf-8"?>
<!-- Generator: Adobe Illustrator 15.1.0, SVG Export Plug-In . SVG Version: 6.00 Build 0)  -->
<!DOCTYPE svg PUBLIC "-//W3C//DTD SVG 1.1//EN" "http://www.w3.org/Graphics/SVG/1.1/DTD/svg11.dtd">
<svg version="1.1" xmlns="http://www.w3.org/2000/svg" xmlns:xlink="http://www.w3.org/1999/xlink" x="0px" y="0px"
	 width="283.46px" height="155.91px" viewBox="0 0 283.46 155.91" enable-background="new 0 0 283.46 155.91" xml:space="preserve">
<g id="Ebene_1">
	<g>
	</g>
	<g>
		<rect x="72.547" y="100.674" fill="none" width="139.499" height="40.5"/>
		<path opacity="0.8" fill="#3D4D22" d="M94.033,107.794c-0.016-0.711-0.07-1.33-0.164-1.857s-0.258-0.965-0.492-1.313
			s-0.551-0.607-0.949-0.779s-0.906-0.258-1.523-0.258l-2.027,0.012l-0.035,13.077c0,0.859-0.023,1.492-0.07,1.899l1.992-0.094
			v1.043h-5.637v-0.785c0.445-0.016,0.781-0.102,1.008-0.258c0.227-0.157,0.387-0.366,0.48-0.628s0.141-0.568,0.141-0.92
			s0-0.731,0-1.139l0.035-12.173l-2.484,0.012c-0.508,0-0.936,0.084-1.283,0.252s-0.631,0.424-0.85,0.768s-0.377,0.775-0.475,1.295
			s-0.146,1.135-0.146,1.846h-0.891l0.141-5.074h13.992l0.141,5.074H94.033z"/>
		<path opacity="0.8" fill="#3D4D22" d="M105.035,110.68c0-0.393,0.008-0.727,0.023-1.004s0.047-0.553,0.094-0.827l-1.723,0.07
			v-0.984h0.738c0.344,0,0.637-0.018,0.879-0.053s0.449-0.084,0.621-0.146s0.314-0.131,0.428-0.205s0.217-0.154,0.311-0.24h0.691
			l-0.023,9.07c0,0.125-0.002,0.283-0.006,0.475s-0.01,0.391-0.018,0.598s-0.018,0.414-0.029,0.621s-0.025,0.393-0.041,0.557
			l1.723-0.094v1.008h-3.434c-0.039-0.273-0.072-0.525-0.1-0.756s-0.049-0.459-0.064-0.686c-0.25,0.25-0.527,0.486-0.832,0.709
			s-0.627,0.416-0.967,0.58s-0.689,0.295-1.049,0.393s-0.715,0.146-1.066,0.146c-0.656,0-1.23-0.088-1.723-0.264
			s-0.902-0.467-1.23-0.873s-0.574-0.943-0.738-1.611s-0.246-1.498-0.246-2.49v-4.266c0-0.25,0.004-0.504,0.012-0.762
			s0.035-0.523,0.082-0.797l-1.652,0.07v-0.984h0.75c0.336,0,0.625-0.018,0.867-0.053s0.449-0.084,0.621-0.146
			s0.314-0.131,0.428-0.205s0.217-0.154,0.311-0.24h0.691v7.319c0,0.697,0.047,1.301,0.141,1.813
			c0.094,0.514,0.244,0.939,0.451,1.279s0.475,0.59,0.803,0.751c0.328,0.16,0.73,0.24,1.207,0.24c0.305,0,0.604-0.051,0.896-0.152
			c0.293-0.103,0.572-0.239,0.838-0.411s0.514-0.367,0.744-0.586s0.428-0.454,0.592-0.705v-0.996V110.68z"/>
		<path opacity="0.8" fill="#3D4D22" d="M111.831,110.407c0-0.25,0.004-0.504,0.012-0.762s0.035-0.523,0.082-0.797l-1.699,0.094
			v-1.008c0.523,0,0.949-0.018,1.277-0.053s0.592-0.084,0.791-0.146s0.354-0.131,0.463-0.205s0.211-0.154,0.305-0.24h0.691
			c0.016,0.18,0.033,0.385,0.053,0.615s0.037,0.51,0.053,0.838c0.258-0.227,0.541-0.438,0.85-0.633s0.631-0.365,0.967-0.51
			s0.682-0.258,1.037-0.34s0.705-0.123,1.049-0.123c1.391,0,2.406,0.436,3.047,1.307s0.961,2.225,0.961,4.061v4.477
			c0,0.32-0.004,0.604-0.012,0.85s-0.035,0.506-0.082,0.779l1.512-0.07v0.984h-4.898v-0.715c0.367,0,0.646-0.072,0.838-0.217
			s0.33-0.346,0.416-0.604s0.135-0.566,0.146-0.926s0.018-0.754,0.018-1.184v-3.352c-0.016-1.383-0.242-2.424-0.68-3.123
			s-1.133-1.049-2.086-1.049c-0.289,0-0.578,0.043-0.867,0.129s-0.566,0.197-0.832,0.334s-0.516,0.299-0.75,0.486
			s-0.438,0.391-0.609,0.609c0.008,0.141,0.012,0.291,0.012,0.451s0,0.322,0,0.486l-0.023,6.129c0,0.32-0.004,0.604-0.012,0.85
			s-0.035,0.506-0.082,0.779l1.512-0.07v0.984h-4.898v-0.715c0.367,0,0.646-0.072,0.838-0.217s0.328-0.346,0.41-0.604
			s0.129-0.566,0.141-0.926s0.021-0.754,0.029-1.184L111.831,110.407z"/>
		<path opacity="0.8" fill="#3D4D22" d="M132.363,116.066c0-0.711,0.182-1.348,0.546-1.911c0.363-0.563,0.84-1.087,1.43-1.573
			c0.589-0.484,1.213-0.966,1.872-1.442c0.658-0.477,1.282-0.976,1.872-1.495c0.589-0.52,1.065-1.092,1.43-1.717
			c0.364-0.623,0.546-1.325,0.546-2.105c0-0.779-0.19-1.382-0.571-1.807c-0.382-0.425-0.867-0.637-1.456-0.637
			c-0.538,0-0.937,0.173-1.196,0.52s-0.39,0.867-0.39,1.561c0,0.936,0.208,1.889,0.624,2.859c0.415,0.971,0.983,1.924,1.702,2.859
			c0.72,0.937,1.525,1.834,2.418,2.691c0.893,0.858,1.816,1.643,2.77,2.354c1.196,0.884,2.253,1.572,3.172,2.066
			s1.629,0.803,2.132,0.924c0.087,0.018,0.121,0.073,0.104,0.168c-0.018,0.096-0.053,0.144-0.104,0.144c-0.485,0-1.062,0-1.729,0
			c-0.668,0-1.339,0-2.016,0c-0.208,0-0.477-0.069-0.806-0.208s-0.763-0.386-1.3-0.741c-0.538-0.354-1.231-0.87-2.08-1.547
			c-0.763-0.624-1.552-1.321-2.366-2.093s-1.564-1.568-2.249-2.393c-0.685-0.822-1.235-1.633-1.651-2.431
			c-0.225-0.45-0.407-0.901-0.546-1.353c-0.139-0.449-0.208-0.936-0.208-1.455c0-0.867,0.195-1.646,0.585-2.34
			c0.391-0.693,0.94-1.239,1.651-1.639c0.711-0.398,1.551-0.598,2.522-0.598c0.624,0,1.187,0.096,1.689,0.286
			s0.901,0.472,1.196,0.845c0.294,0.373,0.441,0.862,0.441,1.469c0,0.711-0.187,1.336-0.559,1.872
			c-0.373,0.538-0.854,1.032-1.443,1.482c-0.589,0.45-1.213,0.893-1.872,1.325c-0.658,0.434-1.282,0.881-1.871,1.34
			c-0.59,0.459-1.071,0.967-1.443,1.521c-0.373,0.555-0.56,1.195-0.56,1.924c0,0.676,0.191,1.313,0.572,1.91
			s0.919,1.088,1.612,1.469c0.693,0.382,1.517,0.572,2.47,0.572c0.745,0,1.408-0.134,1.989-0.402c0.58-0.27,1.065-0.642,1.456-1.118
			c0.39-0.477,0.685-1.049,0.884-1.716c0.199-0.668,0.299-1.4,0.299-2.197c0-0.85-0.143-1.486-0.429-1.911s-0.819-0.638-1.599-0.638
			c-0.035,0-0.057-0.051-0.065-0.155s0.013-0.156,0.065-0.156l5.928-0.026c0.069,0,0.104,0.053,0.104,0.156
			c0,0.104-0.034,0.156-0.104,0.156c-0.538,0-0.945,0.061-1.222,0.182c-0.278,0.122-0.478,0.313-0.599,0.572
			s-0.251,0.615-0.39,1.066c-0.139,0.537-0.33,1.131-0.572,1.781c-0.243,0.649-0.555,1.295-0.936,1.937
			c-0.382,0.642-0.863,1.235-1.443,1.78c-0.581,0.547-1.291,0.98-2.132,1.301s-1.824,0.48-2.951,0.48
			c-1.214,0-2.206-0.182-2.977-0.545c-0.771-0.365-1.34-0.836-1.703-1.418C132.545,117.293,132.363,116.69,132.363,116.066z"/>
		<path opacity="0.8" fill="#3D4D22" d="M157.806,119.712h-1.242l-0.141-5.109h0.926c0.047,0.711,0.199,1.334,0.457,1.869
			s0.596,0.982,1.014,1.342s0.904,0.631,1.459,0.814s1.148,0.275,1.781,0.275c0.469,0,0.912-0.064,1.33-0.193
			s0.785-0.32,1.102-0.574s0.566-0.568,0.75-0.943s0.275-0.805,0.275-1.289c0-0.586-0.129-1.09-0.387-1.512s-0.6-0.795-1.025-1.119
			s-0.91-0.617-1.453-0.879s-1.096-0.523-1.658-0.785s-1.115-0.539-1.658-0.832s-1.027-0.633-1.453-1.02s-0.768-0.838-1.025-1.354
			s-0.387-1.129-0.387-1.84c0-0.273,0.031-0.566,0.094-0.879s0.166-0.625,0.311-0.938s0.336-0.615,0.574-0.908
			s0.537-0.551,0.896-0.773s0.785-0.4,1.277-0.533s1.063-0.199,1.711-0.199c0.313,0,0.645,0.02,0.996,0.059s0.709,0.105,1.072,0.199
			s0.725,0.221,1.084,0.381s0.703,0.361,1.031,0.604l-0.094-1.031h1.219v5.262h-0.867c-0.039-0.579-0.15-1.142-0.334-1.687
			c-0.184-0.543-0.451-1.025-0.803-1.445c-0.352-0.418-0.785-0.756-1.301-1.01s-1.125-0.382-1.828-0.382
			c-0.5,0-0.941,0.076-1.324,0.229c-0.383,0.152-0.703,0.357-0.961,0.615c-0.258,0.259-0.453,0.559-0.586,0.898
			c-0.133,0.341-0.199,0.699-0.199,1.074c0,0.548,0.131,1.023,0.393,1.426c0.262,0.404,0.607,0.762,1.037,1.074
			c0.43,0.314,0.918,0.6,1.465,0.857c0.547,0.259,1.105,0.519,1.676,0.78s1.129,0.543,1.676,0.844s1.035,0.648,1.465,1.043
			s0.775,0.854,1.037,1.377s0.393,1.141,0.393,1.852c0,0.664-0.125,1.275-0.375,1.834s-0.613,1.039-1.09,1.441
			s-1.064,0.717-1.764,0.943s-1.494,0.34-2.385,0.34c-0.359,0-0.729-0.025-1.107-0.076s-0.754-0.127-1.125-0.229
			s-0.73-0.23-1.078-0.387s-0.67-0.336-0.967-0.539L157.806,119.712z"/>
		<path opacity="0.8" fill="#3D4D22" d="M181.067,112.446l-8.449,0.141c-0.008,0.924,0.063,1.761,0.211,2.513
			s0.383,1.393,0.703,1.926c0.32,0.532,0.732,0.943,1.236,1.232c0.504,0.29,1.107,0.435,1.811,0.435
			c0.375,0,0.758-0.052,1.148-0.153s0.768-0.242,1.131-0.418c0.363-0.178,0.697-0.389,1.002-0.637s0.559-0.513,0.762-0.796
			l0.586,0.48c-0.328,0.5-0.709,0.924-1.143,1.271s-0.883,0.631-1.348,0.85s-0.932,0.377-1.4,0.475s-0.906,0.146-1.313,0.146
			c-0.828,0-1.6-0.148-2.314-0.445s-1.334-0.723-1.857-1.277s-0.936-1.223-1.236-2.004s-0.451-1.66-0.451-2.637
			c0-0.844,0.145-1.65,0.434-2.42s0.699-1.451,1.23-2.045s1.168-1.066,1.91-1.418s1.566-0.527,2.473-0.527
			c0.664,0,1.291,0.109,1.881,0.328s1.107,0.547,1.553,0.984s0.797,0.99,1.055,1.658S181.067,111.556,181.067,112.446z
			 M176.216,108.087c-0.938,0-1.711,0.274-2.32,0.823s-1.012,1.439-1.207,2.669h6.117c0-0.421-0.047-0.839-0.141-1.255
			c-0.094-0.418-0.244-0.791-0.451-1.121c-0.207-0.332-0.475-0.6-0.803-0.807S176.685,108.087,176.216,108.087z"/>
		<path opacity="0.8" fill="#3D4D22" d="M185.122,110.407c0-0.25,0.006-0.492,0.018-0.727s0.037-0.512,0.076-0.832l-1.699,0.094
			v-1.008c0.523,0,0.957-0.018,1.301-0.053s0.625-0.084,0.844-0.146s0.389-0.131,0.51-0.205s0.229-0.154,0.322-0.24h0.691v9.691
			c0,0.32-0.004,0.604-0.012,0.85s-0.035,0.506-0.082,0.779l1.512-0.07v0.984h-4.898v-0.715c0.367,0,0.646-0.072,0.838-0.217
			s0.33-0.346,0.416-0.604s0.135-0.566,0.146-0.926s0.018-0.754,0.018-1.184V110.407z M187.407,103.493
			c0,0.195-0.037,0.379-0.111,0.551s-0.17,0.322-0.287,0.451s-0.254,0.229-0.41,0.299s-0.32,0.105-0.492,0.105
			s-0.336-0.035-0.492-0.105s-0.295-0.17-0.416-0.299s-0.215-0.279-0.281-0.451s-0.1-0.355-0.1-0.551
			c0-0.203,0.035-0.393,0.105-0.568s0.166-0.33,0.287-0.463s0.26-0.236,0.416-0.311s0.324-0.111,0.504-0.111
			s0.346,0.037,0.498,0.111s0.287,0.178,0.404,0.311s0.209,0.287,0.275,0.463S187.407,103.29,187.407,103.493z"/>
		<path opacity="0.8" fill="#3D4D22" d="M192.388,110.407c0-0.25,0.004-0.504,0.012-0.762s0.035-0.523,0.082-0.797l-1.699,0.094
			v-1.008c0.523,0,0.949-0.018,1.277-0.053s0.592-0.084,0.791-0.146s0.354-0.131,0.463-0.205s0.211-0.154,0.305-0.24h0.691
			c0.016,0.18,0.033,0.385,0.053,0.615s0.037,0.51,0.053,0.838c0.258-0.227,0.541-0.438,0.85-0.633s0.631-0.365,0.967-0.51
			s0.682-0.258,1.037-0.34s0.705-0.123,1.049-0.123c1.391,0,2.406,0.436,3.047,1.307s0.961,2.225,0.961,4.061v4.477
			c0,0.32-0.004,0.604-0.012,0.85s-0.035,0.506-0.082,0.779l1.512-0.07v0.984h-4.898v-0.715c0.367,0,0.646-0.072,0.838-0.217
			s0.33-0.346,0.416-0.604s0.135-0.566,0.146-0.926s0.018-0.754,0.018-1.184v-3.352c-0.016-1.383-0.242-2.424-0.68-3.123
			s-1.133-1.049-2.086-1.049c-0.289,0-0.578,0.043-0.867,0.129s-0.566,0.197-0.832,0.334s-0.516,0.299-0.75,0.486
			s-0.438,0.391-0.609,0.609c0.008,0.141,0.012,0.291,0.012,0.451s0,0.322,0,0.486l-0.023,6.129c0,0.32-0.004,0.604-0.012,0.85
			s-0.035,0.506-0.082,0.779l1.512-0.07v0.984h-4.898v-0.715c0.367,0,0.646-0.072,0.838-0.217s0.328-0.346,0.41-0.604
			s0.129-0.566,0.141-0.926s0.021-0.754,0.029-1.184L192.388,110.407z"/>
	</g>
	<g>
	</g>
	<g opacity="0.8">
		<g>
			<g>
				<g>
					<g>
						<g>
							<g>
								<g opacity="0.8">
									<g>
										<path fill="#AA7A5A" d="M171.879,57.999c-0.024,1.822-0.074,3.456-0.158,5.144c-0.201,2.624-1.039,4.897-1.999,7.454
											c-0.501,1.265-0.994,2.417-1.581,3.603c-1.357,2.301-3.072,4.656-5.093,6.855c-0.234,0.221-0.962,0.826-0.662,1
											c-2.217,1.926-4.622,3.373-6.967,4.85c-1.011,0.596-2.228,0.867-3.282,1.34c-1.712,0.83-3.596,1.049-5.372,1.473
											c-0.236,0.109-0.748,0.381-0.965,0.4c-2.546,0.109-4.836,0.77-7.31,0.832c-0.962-0.01-1.714-0.016-2.625-0.168
											c-0.106,0.135-0.322,0.072-0.59,0.078c-0.35-0.049-1.471-0.367-2.509-0.771c-1.042-0.396-1.987-0.895-2.121-1.041
											c-0.066-0.078,1.729,0.549,3.592,0.895c1.86,0.365,3.752,0.459,3.692,0.359c-0.083-0.049-1.322-0.158-2.581-0.375
											c-1.26-0.207-2.528-0.547-2.728-0.627c4.456,0.783,7.253,0.373,8.817,0.17c1.571-0.252,1.97-0.408,1.689-0.379
											c-0.555,0.072-3.922,0.563-6.627,0.43c-0.818-0.146-2.043-0.09-3.63-0.512c0.979,0.162,2.993,0.012,3.438,0.031
											c1.055,0.035,1.504-0.049,1.984-0.09c0.479-0.039,0.989-0.051,2.168-0.027c0.968,0.014,2.28-0.16,3.523-0.445
											c1.246-0.279,2.419-0.664,3.193-0.91c-0.739,0.471-2.625,1.414-3.918,1.459c1.399,0.006,2.158-0.318,2.896-0.668
											c0.737-0.367,1.461-0.76,2.823-1.141c0.252-0.076,0.53-0.211,0.826-0.365c0.311-0.064,0.597-0.146,0.963-0.236
											c2.191-0.828,3.893-1.996,5.836-3.184c-0.158,0.117-0.356,0.045-0.534,0.135c-1.795,0.803-3.088,1.896-5.05,2.611
											c-0.382,0.109-0.813,0.535-1.215,0.674c-0.808,0.301-1.591,0.355-2.381,0.473c1.479-0.592,3.246-1.158,4.775-1.906
											c0.309-0.174,0.621-0.502,0.819-0.709c-0.7,0.332-1.412,0.648-2.137,0.943c-1.247,0.557-2.69,1.232-4.12,1.715
											c-1.427,0.475-2.831,0.75-3.844,0.615l-0.231,0.07c-0.031-0.016-0.073-0.023-0.119-0.027
											c-0.385,0.041-0.85,0.043-1.271-0.049c0.354-0.006,0.71-0.006,1.064-0.025c2.703-0.707,5.832-1.133,8.534-2.463
											c0.578-0.314,1.693-0.514,2.247-0.896c1.657-1.037,3.394-2.051,5.033-3.123c2.931-1.98,5.484-4.609,7.479-7.682
											c1.997-3.072,3.447-6.564,4.331-10.231l0.039-0.52l-0.119,0.213l0.139-0.478c0.078-0.959,0.162-1.896,0.355-2.836
											c0.122-0.385,0.006,0.681,0.114,0.98l0.057-0.428l0.145,0.085c-0.029-0.167,0.064-0.263,0.12-0.379
											c-0.028,2.121-0.21,4.264-0.646,6.376c0.247-0.203,0.322-0.844,0.404-1.138c0.068-0.716,0.114-1.429,0.249-2.071
											c0.133-1.806,0.536-3.683,0.543-5.46c0.04-0.329,0.086-0.657,0.147-0.979C171.624,56.526,171.907,57.322,171.879,57.999z
											 M160.274,80.922c0.468-0.314,0.946-0.605,1.422-0.941l0.44-0.416c0.183-0.172,0.353-0.379,0.513-0.605
											c0.78-0.752,1.522-1.545,2.221-2.393c-0.841,0.756-1.698,1.508-2.629,2.475c2.267-2.592,4.374-4.879,6.001-7.863
											c0.412-0.926,0.773-1.892,1.073-2.902c0.193-0.716,0.33-1.43,0.429-2.138c-1.239,4.354-3.512,8.282-6.448,11.415
											c-2.931,3.162-6.477,5.488-10.324,7.266C155.592,83.916,157.966,82.594,160.274,80.922z M159.652,81.773
											c-0.879,0.725-1.774,1.404-2.686,2.039c-2.542,1.67-5.566,2.943-7.296,4.002c2.51-1.016,4.947-2.377,7.296-4.002
											c-1.148,0.727-1.321,0.805-0.79,0.508c0.519-0.313,1.718-1.049,3.123-2.213C159.352,82.037,159.485,81.918,159.652,81.773
											z"/>
										<path fill="#AA7A5A" d="M168.472,67.735c0.548-1.18,0.992-2.432,1.402-3.693c-0.282,0.465-0.556,0.862-0.824,1.397
											c-0.653,1.451-1.084,3.118-1.842,4.545c-2.146,4.086-4.952,7.803-8.527,10.758c-0.186,0.135-0.59,0.436-0.85,0.717
											C162.681,78.125,166.11,73.338,168.472,67.735z"/>
										<path fill="#AA7A5A" d="M151.233,84.895c-0.751,0.383-1.521,0.74-2.294,0.977c0.749-0.072,1.709-0.395,2.46-0.703
											c1.039-0.477,2.049-1.016,3.023-1.58C153.379,84.035,152.32,84.451,151.233,84.895z"/>
										<path fill="#AA7A5A" d="M157.831,81.459c-0.188,0.137-0.388,0.262-0.586,0.391c-0.907,0.582-1.848,1.174-2.822,1.738
											c1.102-0.475,2.186-0.986,3.22-1.615C157.542,81.846,157.654,81.662,157.831,81.459z"/>
									</g>
								</g>
							</g>
						</g>
					</g>
				</g>
				<g>
					<g>
						<g>
							<g>
								<polygon fill="#AA7A5A" points="167.94,54.861 167.938,54.644 167.89,54.649 								"/>
								<path fill="#AA7A5A" d="M168.529,55.067l-0.001-0.07c-0.013,0.008-0.025,0.009-0.039,0.014L168.529,55.067z"/>
								<path fill="#AA7A5A" d="M167.888,54.649c-0.179,0.022-0.356,0.115-0.537,0.013l-0.023-0.46
									c-0.104-0.109-0.195,0.012-0.293,0.017c-0.006-0.113-0.012-0.226-0.06-0.223c-0.134-0.07-0.21,0.067-0.23,0.28
									C167.33,54.712,167.519,56.042,167.888,54.649z"/>
								<path fill="#AA7A5A" d="M168.284,55.611c0.009-0.215,0.001-0.429,0-0.643c-0.113-0.065-0.227-0.152-0.338-0.085
									C168.032,55.208,168.133,55.409,168.284,55.611z"/>
								<path fill="#AA7A5A" d="M135.762,87.102c-0.001,0.031-0.014,0.045-0.126-0.004L135.762,87.102
									c0.003-0.027-0.002-0.068,0.056-0.084c-0.445,0.035-0.966,0.059-1.47,0.043l-0.195,0.146
									c1.247,0.047,2.494,0.109,3.516-0.119C136.953,87.063,136.455,87.127,135.762,87.102z"/>
								<path fill="#AA7A5A" d="M134.038,87.496l-0.127-0.006C134.022,87.541,134.035,87.525,134.038,87.496z"/>
								<path fill="#AA7A5A" d="M154.199,81.434c0.584-0.48,1.037-1.023,1.454-1.555c-1.039,0.973-2.198,1.898-2.979,2.66
									L154.199,81.434z"/>
								<path fill="#AA7A5A" d="M157.577,77.324c-0.676,0.559-1.129,1.109-1.547,1.684c0.506-0.484,0.996-0.977,1.461-1.492
									L157.577,77.324z"/>
								<path fill="#AA7A5A" d="M157.089,78.219c-0.588,0.551-1.005,1.104-1.436,1.66C156.209,79.35,156.716,78.793,157.089,78.219z
									"/>
								<path fill="#AA7A5A" d="M143.75,90.182c-0.615,0.211-0.994,0.301-1.209,0.332c-0.091,0.074-0.212,0.168-0.378,0.281
									l0.112-0.006c0.645-0.127,1.305-0.27,1.973-0.434c0.269-0.1,0.523-0.207,0.73-0.324L143.75,90.182z"/>
								<path fill="#AA7A5A" d="M142.541,90.514C143.313,89.873,141.705,90.635,142.541,90.514L142.541,90.514z"/>
								<polygon fill="#AA7A5A" points="145.915,86.895 145.998,86.873 146.229,86.775 								"/>
								<path fill="#AA7A5A" d="M152.957,85.107l-1.263,0.906c0.887-0.584,1.738-1.213,2.369-1.826
									c-0.106,0.072-0.242,0.105-0.349,0.18C153.556,84.594,153.287,84.895,152.957,85.107z"/>
								<path fill="#AA7A5A" d="M142.087,87.922c1.381-0.207,2.711-0.551,3.911-1.049c2.536-0.67,4.707-2.084,6.37-3.676
									c0.725-0.719,1.805-1.582,2.847-2.514c1.047-0.922,1.907-1.891,2.322-2.842c-0.16,0.127-0.312,0.25-0.448,0.377
									c0.157-0.236,0.297-0.465,0.402-0.703c2.079-2.297,3.771-4.883,5.267-7.725c0.213-0.429,0.253-0.807,0.451-1.238
									c0.202-0.437,0.386-0.874,0.563-1.311c-0.01-0.006-0.022-0.005-0.037,0.003c0.713-1.822,1.243-3.686,1.567-5.662
									c0.178-0.919,0.403-1.822,0.544-2.733c0.05-0.342,0.248-0.315,0.324-0.538c0.361-0.886,0.614-1.57,0.741-2.605l0.146,0.003
									c-0.014-0.16-0.004-0.305,0.007-0.42c0.551,0.488,0.69,1.846,1.117,0.446h0.002l0.043,0.218l-0.001,0.023l0.006-0.001
									c0.077,0.336,0.149,0.545,0.301,0.758l0.033-0.654c0.067,0.043,0.136,0.073,0.205,0.053l0.037,0.06l-0.01,0.18
									c0.036,0.034,0.072,0.059,0.109,0.077c0.188,0.588,0.2,1.522,0.422,1.366c0.111-0.127,0.074-0.567,0.035-1.06
									c0.02-0.028,0.039-0.062,0.054-0.096c0.012,0.648,0.342,0.021,0.368,0.414c-0.042,0.521-0.041,1.045-0.108,1.564
									c-0.275,2.109-0.626,3.86-1.082,5.905l-0.066,0.268c-0.239,0.987-0.561,1.894-0.954,2.806l-0.016-0.219
									c-0.32,0.731-0.64,1.46-0.906,2.217c-0.643,1.858-1.423,3.698-2.563,5.489c-1.209,1.867-2.486,3.605-4.017,5.334l1.751-2.23
									c0.288-0.316,0.547-0.654,0.801-0.98c-0.283,0.322-0.534,0.658-0.801,0.98c-1.083,1.248-2.32,2.379-3.01,3.561
									c-0.133,0.061-0.164,0.023-0.267,0.111c-0.75,0.621-1.513,1.127-2.016,1.74c0.03,0.039-0.286,0.27-0.123,0.271
									c-0.601,0.504-1.349,1.037-1.951,1.566c-0.268,0.221-0.501,0.492-0.732,0.779c-1.14,0.898-2.354,1.771-3.747,2.543
									c-1.386,0.775-2.969,1.42-4.641,1.846c-0.833,0.201-1.797,0.316-2.622,0.379c1.202-0.254,2.467-0.561,3.727-0.992
									c1.258-0.264,2.444-0.697,3.249-1.328l0.569-0.404c-1.193,0.691-2.495,1.285-3.818,1.732
									c-0.742,0.16-1.505,0.264-2.238,0.359l0.043-0.016c0.566-0.141,1.14-0.301,1.711-0.482c1.105-0.209,2.165-0.545,2.956-1.049
									c0.099-0.063,0.194-0.129,0.284-0.195l0.572-0.393c-0.74,0.41-1.518,0.781-2.313,1.1c-0.494,0.197-0.996,0.377-1.5,0.537
									c-0.324,0.061-0.653,0.115-0.98,0.158l0.096-0.055c0.284-0.094,0.941-0.822,0.496-0.879c-2.106,0.486-5.006,0.746-5,0.693
									c-0.067-0.098,0.775-0.219,1.621-0.369c0.846-0.143,1.691-0.326,1.621-0.344l-0.601,0.01
									c0.184-0.059,0.362-0.119,0.525-0.186c0.393-0.096,0.935-0.129,1.184-0.275c0.87-0.451,1.936-0.623,2.875-1.17
									c0.576-0.363,1.222-0.852,1.823-1.371c-0.044-0.088,0.322-0.217,0.163-0.246c0.642-0.326,1.363-0.752,1.477-1.156
									l0.04-0.033c0.043-0.027,0.096-0.078,0.149-0.137c1.037-0.586,1.574-1.283,2.343-2.057c0.287-0.234,0.583-0.469,0.896-0.699
									c-0.204,0.15-0.541,0.334-0.718,0.521l-0.179,0.178l-2.14,1.803c-0.048,0.064-0.125,0.168-0.203,0.254l-0.175,0.094
									c-0.003,0.025-0.008,0.051-0.015,0.076c-0.675,0.576-1.522,1.092-2.144,1.537c-1.217,0.76-2.716,1.174-4.145,1.41
									c0.695-0.217,1.36-0.479,1.987-0.779c-0.796,0.344-1.577,0.613-2.352,0.84l-0.364,0.057l-0.764,0.102
									c0.241-0.006,0.479-0.021,0.716-0.041c-0.467,0.125-0.933,0.238-1.395,0.344c-2.572,0.445-5.266,0.441-7.856,0.229
									c0.054-0.057,0.116-0.113,0.184-0.168c1.253,0.039,2.51,0.092,3.542-0.15c-0.723-0.016-1.226,0.053-1.923,0.035
									c0.002-0.029-0.003-0.07,0.056-0.084c-0.448,0.037-0.971,0.063-1.478,0.051c0.168-0.117,0.356-0.232,0.543-0.35
									c0.261-0.084,0.643-0.066,1.027-0.1c1.655-0.018,3.215,0.039,4.821-0.156c1.433-0.053,2.854-0.209,4.2-0.564
									C144.61,87.369,143.341,87.666,142.087,87.922z M167.789,58.317l0.022,0.392l0.042-0.053
									C167.868,58.538,167.836,58.415,167.789,58.317z M167.258,61.139c0.265-0.809,0.352-1.928,0.399-2.992
									c-0.013-0.007-0.025-0.012-0.036-0.014C167.474,59.011,167.417,60.117,167.258,61.139z M165.41,64.096l0.021-0.014
									l-0.021-0.006V64.096z M159.436,77.727c0.497-0.893,1.293-1.834,1.939-2.896c0.216-0.303,0.271-0.715,0.546-1.121
									c0.3-0.541,0.418-0.9,0.63-1.348l-0.276,0.262c0.493-0.703,0.486-1.271,0.978-1.971c-0.043-0.023-0.071-0.177-0.014-0.283
									c0.24-0.558,0.604-1.058,0.72-1.541c0.219-0.567,0.458-1.126,0.559-1.609c0.046-0.113,0.001-0.393,0.046-0.634l0.274-0.839
									l-0.049,0.021c-0.088,0.222-0.164,0.452-0.225,0.688c-0.179,0.706-0.416,1.525-0.687,2.2
									c-0.68,1.686-1.351,3.257-2.132,4.789c-0.156,0.336-0.296,0.684-0.465,1.016c-0.481,1.016-1.379,2.023-1.615,2.805
									C159.617,77.387,159.449,77.568,159.436,77.727z M159.949,80.242c0.871-1.135,1.813-2.357,2.648-3.375
									c0.691-0.822,2.077-3.525,1.278-3.393c0.128,0.824-1.062,2.648-2.27,4.102C160.406,79.035,159.226,80.156,159.949,80.242z
									 M151.491,87.52c0.474-0.35,0.916-0.691,1.463-1.031C152.482,86.842,151.997,87.186,151.491,87.52z M155.116,82.777
									c-1.148,1.26-2.609,2.328-4.002,3.342c-1.082,0.789-2.512,1.182-3.554,1.885l0.046,0.141l0.113-0.092
									c0.463-0.129,0.853-0.197,1.24-0.316l-0.06,0.039l0.109-0.055c0.258-0.082,0.516-0.191,0.789-0.361l0.369-0.256
									c1.475-0.834,2.864-1.828,3.896-2.916c0.661-0.639,1.143-1.289,1.775-1.941C155.634,82.398,155.295,82.588,155.116,82.777z"
									/>
								<path fill="#AA7A5A" d="M144.452,87.781c-0.539,0.146-1.092,0.271-1.652,0.371l-1.296,0.277
									c-2.077,0.354-4.504,0.164-6.716,0.156c-0.074,0.141-0.09,0.287-0.019,0.441c2.402,0.289,4.835,0.145,7.318,0.086
									l0.058-0.02c1.035-0.344,2.783-0.453,4.026-1.037c1.218-0.609,2.405-1.176,3.448-1.971
									C147.966,86.916,146.282,87.578,144.452,87.781z"/>
								<path fill="#AA7A5A" d="M156.03,79.008c-0.347,0.313-0.654,0.604-1.053,0.938l-2.875,2.604l2.237-1.633
									C155.072,80.314,155.563,79.633,156.03,79.008z"/>
								<path fill="#AA7A5A" d="M151.347,83.223l0.756-0.674c-1.097,0.783-2.187,1.523-3.31,2.145
									c-1.797,1.121-3.776,1.834-5.943,2.281c-0.246,0.051-0.491,0.09-0.737,0.125c2.051-0.096,4.055-0.461,5.826-1.26
									c1.774-0.785,3.317-1.92,4.588-3.154l0.147-0.146c-1.354,0.971-2.692,1.891-4.096,2.629
									C149.543,84.605,150.462,83.947,151.347,83.223z"/>
								<polygon fill="#AA7A5A" points="144.971,87.631 144.606,87.691 144.194,87.809 144.452,87.781 								"/>
								<path fill="#AA7A5A" d="M148.96,87.736l0.05-0.016c0.388-0.195,0.775-0.402,1.158-0.617l1.526-1.09
									C150.739,86.648,149.738,87.217,148.96,87.736z"/>
								<polygon fill="#AA7A5A" points="152.889,87.004 153.354,86.713 153.515,86.506 153.186,86.703 								"/>
								<path fill="#AA7A5A" d="M158.815,81.768c-0.417,0.434-0.884,0.842-1.302,1.229l-1.246,1.109
									c-0.831,0.729-1.666,1.439-2.541,2.131l-0.212,0.27c1.279-0.787,2.426-1.688,3.326-2.689
									c0.181-0.193,0.406-0.545,0.612-0.699c0.986-0.799,1.855-1.738,2.621-2.68c-0.394,0.43-0.789,0.869-1.223,1.295
									L158.815,81.768z"/>
							</g>
						</g>
					</g>
				</g>
				<g>
					<g>
						<g>
							<g>
								<g>
									<path fill="#AA7A5A" d="M147.78,88.49c-2.875,0.881-5.977,1.129-8.725,0.82c1.1,0.117,2.207,0.15,3.31,0.1
										c-1.652,0.063-3.062-0.037-4.711-0.383c0.506,0.049,1.581,0.219,1.852,0.164c4.006,0.373,8.088-0.354,11.689-1.883
										C149.838,88.1,148.824,88.176,147.78,88.49z"/>
									<path fill="#AA7A5A" d="M133.404,87.689c0.376,0.146,0.742,0.291,1.11,0.416C134.12,87.98,133.74,87.832,133.404,87.689z"
										/>
									<path fill="#AA7A5A" d="M166.086,70.975l0.497-1.231C166.438,70.155,166.265,70.567,166.086,70.975z"/>
									<path fill="#AA7A5A" d="M152.459,86.154l0.615-0.369c1.592-0.861,3.123-1.887,4.574-3.063
										C156.083,84.012,154.311,85.297,152.459,86.154z"/>
									<path fill="#AA7A5A" d="M150.623,86.846c-1.684,0.736-3.494,1.258-5.218,1.492
										C147.125,88.084,148.903,87.574,150.623,86.846z"/>
									<path fill="#AA7A5A" d="M167.835,57.715c-0.015,0.008-0.027-0.026-0.039-0.076c-0.006-0.053-0.013-0.1-0.023-0.139
										c-0.009-0.715-0.041-1.43-0.097-2.142c0.027,0.176,0.07,0.337,0.089,0.518C167.81,56.667,167.754,56.835,167.835,57.715z"
										/>
									<polygon fill="#AA7A5A" points="165.883,71.43 165.87,71.475 165.686,71.891 165.657,71.938 									"/>
									<path fill="#AA7A5A" d="M167.843,58.626c-0.028,0.015-0.056,0.029-0.079,0.091c0.009-0.403,0.015-0.806,0.009-1.208
										l0.023,0.13C167.828,57.907,167.804,58.328,167.843,58.626z"/>
									<path fill="#AA7A5A" d="M166.175,67.574c-0.077,0.245-0.099,0.479-0.126,0.598c-0.254,0.616-0.533,1.221-0.862,1.933
										l-0.209,0.586l-0.25,0.394c0.747-1.553,1.376-3.201,1.882-4.945C166.486,66.611,166.343,67.086,166.175,67.574z"/>
									<path fill="#AA7A5A" d="M151.485,32.682c2.29,0.564,4.646,1.955,6.54,3.232c-1.034-0.861-2.395-1.724-3.57-2.324
										c-1.174-0.607-2.146-0.982-2.304-1.157c-0.16-0.176,0.757,0.068,1.908,0.589c1.157,0.511,2.503,1.345,3.384,1.956
										L157,34.619c0.224,0.178,0.444,0.356,0.667,0.48c-0.428-0.378-1.342-1.007-1.583-1.227l0.472,0.207
										c-0.577-0.461-1.485-1.02-2.448-1.483c-0.959-0.472-1.966-0.849-2.671-1.123c3.481,1.166,7.235,3.475,10.205,6.811
										c2.998,3.301,5.224,7.495,6.421,11.655c1.396,4.636,1.83,9.221,1.41,13.506c-0.076,0.809-0.5,2.729-0.94,4.045
										c-0.669,2.373-1.617,4.661-2.731,6.836c-2.492,4.58-6.067,8.381-10.739,11.432c-0.951,0.594-2.374,1.152-0.081-0.318
										c1.848-1.289,3.594-2.746,5.187-4.361c-0.123,0.248-0.938,0.961-1.276,1.34c1.274-1.092,2.253-2.084,3.303-3.354
										c-0.696,0.85-1.435,1.664-2.216,2.438c1.951-1.932,3.862-4.324,5.332-6.943c0.541-0.949,1.227-1.688,1.709-3.184
										c-1.677,3.543-4.035,6.861-6.852,9.703l0.011-0.02c-1.251,1.273-2.487,2.324-3.883,3.338l1.229-0.951
										c-1.995,1.52-4.122,2.816-6.393,3.814c3.143-1.537,6.168-3.682,8.763-6.283c2.599-2.594,4.75-5.648,6.238-8.822
										c-0.957,1.719-2.189,4.041-3.366,5.307c1.918-2.561,3.503-5.395,4.657-8.48l-0.223,0.688
										c0.827-1.874,1.36-4.008,1.716-6.025l0.094-0.541l-0.094,0.541c-0.34,1.854-0.854,3.636-1.493,5.338
										c0.259-0.793,0.529-1.637,0.82-2.654l-0.743,2.095c-0.355,1.021-0.763,2.023-1.217,2.993
										c0.688-1.506,1.212-3.059,1.569-4.509c-0.675,2.133-1.555,4.269-2.641,6.234c0.572-1.092,1.083-2.213,1.53-3.358
										c0.783-1.908,1.404-3.906,1.783-5.981l-0.036,0.238l0.079-0.474c0.142-0.813,0.248-1.635,0.318-2.465
										c0.057-0.746,0.058-1.48,0.021-2.207l-0.001-0.368c0.026,0.232,0.053,0.346,0.062-0.104
										c0.056-1.928-0.263-3.999-0.616-6.175c-0.091-0.573-0.28-1.333-0.529-2.138c-0.042-0.226-0.091-0.337-0.138-0.436
										l-0.174-0.521c-0.137-0.426-0.281-0.852-0.449-1.259l0.449,1.259l0.151,0.478c-0.053-0.103-0.107-0.212-0.186-0.447
										c0.909,2.945,1.404,6.131,1.43,9.343l-0.061-0.577c0.022,0.314,0.05,0.629,0.062,0.945
										c-0.004,1.037-0.055,2.074-0.154,3.108c0.016-0.31,0.029-0.598,0.017-0.851c-0.244,2.943-0.951,5.855-2.027,8.631
										c-1.065,2.581-2.456,4.987-4.102,7.186c0.937-1.148,1.802-2.445,2.571-3.828c-1.963,3.717-4.674,7.076-7.979,9.67
										c0.534-0.543,1.263-1.283,1.524-1.691c-0.058-0.018-1.061,0.867-0.507,0.32c1.979-2.021,3.333-3.547,3.771-4.654
										c0.087-0.189-2.126,2.027-1.534,1.205c0.521-0.656,1.432-1.846,2.289-3.213c0.262-0.385,0.519-0.793,0.772-1.225
										c0.036-0.051,0.073-0.15,0.122-0.273c0.859-1.521,1.53-3.044,1.887-3.893l0.383-0.944c0.075-0.161,0.147-0.297,0.215-0.398
										l0.155-0.624c0.293-0.857,0.546-1.723,0.75-2.584c0.138-0.475,0.259-0.953,0.364-1.433
										c-0.021,0.007-0.062,0.08-0.064-0.015c0.197-1.095,0.313-2.196,0.376-3.299c0.047-0.446,0.095-0.858,0.149-1.225
										c-0.138-1.202-0.209-3.979-0.632-5.872l-0.006,0.004c-0.178-0.954-0.403-1.907-0.678-2.858l-0.074-0.463
										c-0.103-0.224-0.183-0.469-0.233-0.581c-0.228-0.756-0.428-1.394-0.646-2.029c-0.063-0.106-0.199-0.297-0.306-0.533
										c-0.202-0.478-0.413-0.932-0.637-1.367c-0.248-0.517-0.516-1.031-0.802-1.542c-0.957-1.725-2.073-3.326-3.345-4.769
										c-0.024-0.061-0.014-0.091-0.004-0.122c-0.233-0.192-0.503-0.514-0.711-0.685c0.043,0.029,0.074,0.043,0.079,0.027
										c-0.666-0.579-0.742-0.739-1.331-1.27c-0.137-0.116-0.284-0.199-0.428-0.3l-0.2-0.168
										c-0.631-0.651-1.401-1.122-2.263-1.623c-0.848-0.527-1.74-0.983-2.664-1.367C152.271,33.049,152.004,32.882,151.485,32.682
										z"/>
									<path fill="#AA7A5A" d="M167.652,55.099c-0.082-0.93-0.205-1.854-0.369-2.771C167.486,53.308,167.671,54.19,167.652,55.099
										z"/>
									<path fill="#AA7A5A" d="M159.977,78.455c-0.282,0.238-0.588,0.516-0.914,0.82c1.633-1.691,3.062-3.568,4.287-5.619h0.007
										C162.429,75.344,160.654,77.461,159.977,78.455z"/>
									<path fill="#AA7A5A" d="M167.796,57.64l-0.023-0.13V57.5C167.783,57.54,167.79,57.587,167.796,57.64z"/>
									<path fill="#AA7A5A" d="M157.437,82.436l-0.183,0.152c0.451-0.395,0.9-0.793,1.332-1.209
										C158.251,81.723,157.855,82.082,157.437,82.436z"/>
									<path fill="#AA7A5A" d="M152.043,85.934c-1.084,0.561-2.208,1.053-3.362,1.453c-1.494,0.492-3.017,0.799-4.478,0.92
										C146.906,87.982,149.558,87.158,152.043,85.934z"/>
									<path fill="#AA7A5A" d="M156.674,81.568c-0.387,0.293-0.793,0.572-1.201,0.848c0.396-0.293,0.784-0.592,1.161-0.902
										C156.576,81.588,156.653,81.559,156.674,81.568z"/>
									<polygon fill="#AA7A5A" points="160.967,78.871 160.727,79.148 161.298,78.4 									"/>
									<path fill="#AA7A5A" d="M152.312,84.402c0.318-0.166,0.629-0.346,0.938-0.523l-0.521,0.367
										C152.614,84.279,152.472,84.334,152.312,84.402z"/>
									<path fill="#AA7A5A" d="M147.202,86.545c-0.471,0.127-0.93,0.242-1.374,0.328c0.546-0.127,1.104-0.273,1.646-0.443
										C147.355,86.486,147.263,86.533,147.202,86.545z"/>
								</g>
							</g>
						</g>
					</g>
					<g>
						<g>
							<g>
								<g>
									<path fill="#AA7A5A" d="M168.079,71.959c-0.145,0.152-0.229,0.242-0.372,0.369c-0.385,0.535-1.081,1.555-1.358,1.729
										c-0.023-0.043,0.352-0.953,0.45-1.09c0.935-1.473,1.55-2.021,2.396-3.785c0.087-0.15,0.2-0.752,0.323-1.32l-0.164,0.335
										c0.188-0.78,0.627-1.937,0.807-2.899c-0.084,0.193-0.085,0.192-0.147,0.304c0.373-0.709,0.672-2.355,0.815-3.557
										l0.142-0.567c0.092-1.106,0.226-2.171,0.151-3.497c-0.04-1.108-0.025-2.709-0.254-4.166
										c-0.282-2.509-0.835-5.32-1.962-7.356c-0.188-0.338-0.464-1.001-0.665-1.623c-0.859-1.181-2.152-3.489-3.394-5.021
										c-0.448-0.559-0.687-0.995-0.821-1.267c-1.37-1.326-2.963-2.596-4.61-3.7c-2.113-1.403-4.403-2.522-7.049-3.464
										c-0.365-0.129-1.09-0.293-1.47-0.341l-0.476-0.189c-1.594-0.361-3.103-0.433-4.504-0.568
										c-1.93-0.169-2.15-0.417-2.39-0.704c2.095-0.238,4.319-0.645,7.482,0.315c0.855,0.284,2.193,0.574,3.28,0.954
										c0.935,0.288,1.837,0.85,2.668,1.073c1.009,0.708,3.418,2.333,5.07,3.64c0.12,0.13-0.046,0.021,0.172,0.235
										c2.401,1.757,4.559,4.401,6.254,7.357c0.883,1.481,1.636,3.369,2.352,5.363c0.08,0.183,0.268,1.069,0.415,1.622
										l0.201,0.565c0.334,1.461,0.621,3.169,0.612,4.252c0.029,1.274,0.093,2.418,0.016,3.514
										c-0.088,1.639-0.297,4.323-0.786,5.651c-0.062,0.166-0.156,0.727-0.25,1.087l-0.194,0.488
										c-0.096,0.357-0.048,0.623-0.156,0.979c-0.664,2.313-1.911,5.061-2.736,5.911
										C168.002,72.406,168.309,71.713,168.079,71.959z"/>
									<path fill="#AA7A5A" d="M161.988,79.283c0.037-0.096-0.229,0.137-0.383,0.291c0.171-0.1,0.299-0.133,0.62-0.395
										l-0.475,0.434c-0.176,0.311,0.485-0.41,0.235-0.119c-0.268,0.236-0.483,0.41-0.396,0.256
										c0.062-0.021,0.16-0.137,0.322-0.273c-0.024-0.076-0.296,0.137-0.468,0.234c0.242-0.229,0.494-0.447,0.73-0.686
										L161.988,79.283z"/>
									<path fill="#AA7A5A" d="M163.632,77.752l-0.149,0.15c-0.029,0.098,0.128-0.031,0.284-0.164
										c-0.657,0.625-0.105-0.086-0.523,0.262C163.258,78.039,163.662,77.652,163.632,77.752z"/>
									<path fill="#AA7A5A" d="M162.974,78.758c-0.334,0.219-0.57,0.551-0.709,0.537c0.27-0.217,0.541-0.432,0.803-0.66
										L162.974,78.758z"/>
									<path fill="#AA7A5A" d="M167.052,73.266c0.122-0.285,0.068-0.139,0.319-0.574l-0.362,0.629L167.052,73.266z"/>
									<path fill="#AA7A5A" d="M171.231,59.404c-0.083,0.406-0.166,0.732-0.243,1.376
										C171.05,60.126,171.204,59.541,171.231,59.404z"/>
									<path fill="#AA7A5A" d="M171.251,52.895c0.038,0.012,0.017-0.205,0.077,0.094c0.001,0.14-0.115-0.037,0.004,0.418
										L171.251,52.895z"/>
									<path fill="#AA7A5A" d="M171.345,52.329l0.014-0.304C171.348,52.022,171.337,52.14,171.345,52.329z"/>
									<polygon fill="#AA7A5A" points="168.521,69.734 168.557,69.702 168.582,69.604 									"/>
									<path fill="#AA7A5A" d="M168.945,68.845l-0.324,0.608l-0.039,0.15C168.774,69.192,168.771,69.36,168.945,68.845z"/>
									<path fill="#AA7A5A" d="M168.618,69.646l-0.062,0.056c-0.174,0.57-0.398,0.751-0.733,1.525
										C168.158,70.705,168.427,70.118,168.618,69.646z"/>
									<path fill="#AA7A5A" d="M168.418,70.311l-0.059,0.235c-0.098,0.189-0.123,0.158-0.136,0.142l-0.174,0.408
										c-0.006,0.197,0.583-1.042,0.724-1.372L168.418,70.311z"/>
									<polygon fill="#AA7A5A" points="166.977,74.367 166.986,74.352 166.976,74.369 									"/>
									<path fill="#AA7A5A" d="M167.807,73.328l-0.079-0.117c-0.286,0.521-0.413,0.572-0.741,1.141l-0.01,0.016
										C167.21,74.238,167.487,73.684,167.807,73.328z"/>
									<path fill="#AA7A5A" d="M169.347,68.135c-0.199,0.544-0.357,0.948-0.36,1.142l0.413-0.993
										C169.204,68.647,169.359,68.24,169.347,68.135z"/>
									<path fill="#AA7A5A" d="M169.862,67.359l-0.156,0.49l0.112-0.201C169.81,67.624,169.821,67.531,169.862,67.359z"/>
									<path fill="#AA7A5A" d="M169.818,67.648c0.011,0.027,0.054-0.037,0.117-0.22L169.818,67.648z"/>
									<path fill="#AA7A5A" d="M169.571,68.654c0.192-0.277,0.092-0.289,0.297-0.827C169.796,67.754,169.68,68.38,169.571,68.654z
										"/>
									<polygon fill="#AA7A5A" points="170.354,66.378 170.47,66.214 170.395,66.146 									"/>
									<path fill="#AA7A5A" d="M170.858,62.096c0.001,0.556,0.128-0.307,0.181-0.352L170.858,62.096z"/>
									<path fill="#AA7A5A" d="M170.719,65.817l-0.126,0.153l0.019,0.104c-0.036,0.144-0.095,0.363-0.165,0.478
										C170.508,66.698,170.631,66.09,170.719,65.817z"/>
									<line fill="#AA7A5A" x1="171.003" y1="63.575" x2="171.158" y2="63.033"/>
									<path fill="#AA7A5A" d="M170.642,67.192c0.031,0.029,0.383-0.745,0.072,0.163c0.126-0.348,0.258-0.861,0.235-0.517
										c0.17-0.576-0.074-0.069-0.005-0.463C170.902,66.704,170.748,66.922,170.642,67.192z"/>
									<path fill="#AA7A5A" d="M171.115,65.812c0.097-0.274,0.202-0.621,0.209-0.792
										C171.252,65.311,171.124,65.549,171.115,65.812z"/>
									<polygon fill="#AA7A5A" points="171.388,65.604 171.21,65.986 171.364,65.762 									"/>
									<line fill="#AA7A5A" x1="171.674" y1="59.735" x2="171.555" y2="59.742"/>
									<path fill="#AA7A5A" d="M171.763,63.909c-0.061,0.35-0.136,0.695-0.206,1.043l0.248-0.926
										c0.055-0.582-0.028-0.311-0.136,0.089C171.703,64.006,171.735,63.923,171.763,63.909z"/>
									<path fill="#AA7A5A" d="M171.381,64.98l-0.04,0.318c0.018,0.016,0.131-0.447,0.231-0.847
										C171.495,64.716,171.42,64.954,171.381,64.98z"/>
									<path fill="#AA7A5A" d="M171.572,64.452l0.097-0.337L171.572,64.452z"/>
									<path fill="#AA7A5A" d="M171.679,57.188l-0.015,0.954C171.698,57.788,171.698,57.492,171.679,57.188z"/>
									<path fill="#AA7A5A" d="M172.004,63.162l0.025-0.149l-0.082-0.06C171.913,63.26,171.987,63.15,172.004,63.162z"/>
									<path fill="#AA7A5A" d="M172.364,61.921c0.087-0.268,0.098-0.835,0.106-1.066c-0.095,0.339-0.137,0.721-0.212,1.159
										C172.337,61.576,172.33,61.898,172.364,61.921z"/>
									<path fill="#AA7A5A" d="M172.621,60.629l-0.1,0.908C172.645,61.375,172.595,61.014,172.621,60.629z"/>
									<path fill="#AA7A5A" d="M172.683,59.16c-0.005-0.081-0.035-0.021-0.045-0.184c-0.044,0.132-0.04,0.446-0.063,0.668
										L172.683,59.16z"/>
									<path fill="#AA7A5A" d="M170.535,66.634c0.074-0.259,0.135-0.492,0.188-0.717l-0.352,1.03
										C170.428,66.846,170.484,66.749,170.535,66.634z"/>
									<path fill="#AA7A5A" d="M148.162,30.643c1.104-0.016,3.118,0.405,4.204,0.74c1.779,0.56,4.001,1.324,5.908,2.438
										l-0.034,0.022c1.451,0.916,3.3,2.172,4.66,3.496l-0.041-0.108c-0.228-0.224-0.536-0.508-0.31-0.388
										c0.304,0.301,0.692,0.723,0.758,0.836l0.279,0.184c0.159,0.225-0.105,0.167,0.438,0.684
										c0.441,0.209,1.007,1.352,1.184,1.246c0.093,0.308,0.609,0.803,0.817,1.113l-0.07-0.262c0.421,0.659,0.7,1.349,0.919,1.653
										c0.528,0.794,1.174,1.938,1.651,2.868c0.006,0.257-0.479-0.981-0.286-0.33c1.08,1.702,1.736,4.427,2.299,6.729
										c-0.003-0.068-0.035-0.279,0.013-0.131c0.007,0.474,0.217,1.071,0.274,1.847c0.061-0.119-0.092-1.125-0.158-1.478
										c0.222,0.197,0,0.2,0.214,1.152c0-0.069-0.003-0.208,0.016-0.201c0.181,0.954-0.046,0.394,0.079,1.128l0.005-0.414
										c0.086,0.723,0.06,0.226,0.19,1.04c-0.11-0.11-0.146,0.294-0.137,0.508c0.054,0.092,0.078,0.875,0.162,0.771
										c-0.146,1.002,0.111,1.266-0.076,2.194c0.076,0.405,0.096-0.389,0.166-0.354c0.054,0.979-0.104,0.313-0.138,0.662
										c0.04,0.309,0.014,1.568-0.114,2.105l0.069,0.042c-0.142,0.827-0.354,2.184-0.516,2.473
										c0.045,0.356,0.16-0.291,0.239-0.864c0.071-0.11,0.023,0.488-0.047,0.762c0.024-0.143,0.078-0.185,0.069-0.352
										c0.07-0.031-0.036,0.376-0.045,0.531c-0.196,0.989,0.025-0.388-0.086,0.018c-0.034,0.375-0.235,1.296-0.065,0.93
										c-0.165,0.789-0.166,0.287-0.291,0.687c0.198-0.594,0.1-0.834,0.267-1.277c-0.004-0.166-0.043-0.112-0.108,0.082
										c-0.086,0.661-0.462,1.872-0.361,1.873l-0.147,0.304l-0.014,0.332l-0.054,0.127c0.18-0.274,0.388-0.874,0.53-1.095
										c0.055-0.039-0.061,0.375-0.112,0.594l-0.125,0.149c-0.166,0.55,0.034,0.467-0.219,1.218
										c0.045-0.5-0.409,0.786-0.666,1.271c-0.032,0.629,0.163-0.021,0.134,0.521c-0.202,0.549-0.498,1.408-0.848,2.023
										c0.685-1.539-0.447,0.69,0.038-0.569c-0.128,0.252-0.205,0.471-0.325,0.734c-0.224,0.137,0.068-0.429-0.189-0.13
										l0.04,0.152c-0.243,0.326-0.438,0.492-0.825,1.166c-0.002,0.105-0.139,0.477-0.331,0.766
										c-0.119,0.057-0.168,0.098-0.539,0.711c-0.558,1.293,0.942-1.057,1.199-1.242c0.943-1.783,1.418-1.645,2.403-4.01
										c0.068-0.403,0.02-0.273,0.215-1.007c0.009-0.547-0.46,1.026-0.735,1.42c0.058-0.229,0.114-0.456,0.206-0.644l-0.182,0.19
										c0.34-1.147,0.372-0.562,0.638-1.585l-0.041,0.232l0.138-0.592l-0.057,0.128c0.099-0.359,0.044-0.49,0.229-1.029
										l-0.054,0.478c0.03-0.323,0.18-0.371,0.251-0.827c-0.02,0.258,0.018,0.347-0.021,0.5c0.214-0.647,0.36-1.239,0.482-1.818
										c0.328-1.999,0.556-3.941,0.661-5.889l-0.039,0.233c-0.023-0.348,0.017-0.567,0.064-0.773l0.028-1.093
										c-0.052-0.793-0.124-1.425-0.225-2.394c0.048-0.05,0.074,0.011,0.093,0.129c-0.052-0.346-0.097-0.555-0.111-0.207
										c-0.091-0.596-0.075-0.871-0.147-1.312c0.093,0.329,0.165,0.661,0.248,0.993c-0.027-0.431-0.133-0.4-0.189-0.976
										c-0.185-0.892-0.023,0.412-0.125,0.309l-0.05-0.362l-0.046,0.401c-0.096-0.793-0.087-1.202-0.088-1.548l0.072,0.573
										c0.167,0.185-0.172-0.945-0.164-1.214l0.025,0.075c-0.2-0.87-0.014,0.2-0.172-0.383c-0.05-0.354-0.104-0.707-0.168-1.058
										l-0.031,0.198c-0.207-0.585-0.442-1.775-0.796-2.751c-0.189-0.559-0.557-1.254-0.887-1.931
										c0.041,0.136,0.142,0.406,0.081,0.337c-0.176-0.41-0.617-1.276-0.383-1.008l-0.354-0.53
										c-0.104-0.2-0.185-0.361-0.236-0.496l0.051,0.168l-0.403-0.646c0.021-0.001-0.09-0.261,0.108,0.06
										c-0.344-0.784-1.067-1.589-1.823-2.665l0.271,0.29c-0.521-0.584-0.451-0.734-1.036-1.358l0.071,0.188
										c-0.409-0.456-1.128-1.36-0.972-1.266c-0.173,0.048-0.207-0.287-0.567-0.456l-0.159-0.369
										c-0.313-0.248-0.608-0.498-0.472-0.263c-0.405-0.475-0.779-0.819-1.109-0.974c-0.003,0-0.008-0.003-0.015-0.007
										l-0.012-0.006l0.001-0.001c-0.112-0.078-0.56-0.486-0.397-0.262c-1.108-0.878-0.493-0.585-1.593-1.37l-0.106,0.058
										c-0.835-0.61-1.757-1.054-2.468-1.367l-0.046-0.129c-0.48-0.229,0.049,0.123-0.694-0.238
										c-0.096-0.067-0.175-0.139-0.146-0.152c-0.723-0.353-1.668-0.85-2.808-1.275c0.015-0.014,0.17,0.022,0.247,0.044
										c-0.494-0.18-1.3-0.42-1.895-0.56c-1.291-0.556-3.262-1.104-5.139-1.25c-1.462,0.082-2.394,0.355-2.522,0.614
										C144.965,30.069,146.379,30.245,148.162,30.643z"/>
								</g>
							</g>
						</g>
					</g>
					<g>
						<g>
							<g>
								<g>
									<g opacity="0.85">
										<g>
											<path fill="#AA7A5A" d="M163.476,48.746l0.169,0.594c-0.014-0.104-0.018-0.21-0.008-0.323
												C163.622,48.878,163.555,48.826,163.476,48.746z"/>
											<polygon fill="#AA7A5A" points="163.794,49.891 163.819,49.997 163.864,50.082 											"/>
											<path fill="#AA7A5A" d="M164.123,50.916c-0.026-0.189-0.088-0.362-0.145-0.528
												C163.998,50.542,164.051,50.715,164.123,50.916z"/>
											<path fill="#AA7A5A" d="M163.965,50.07c-0.018,0.074-0.045,0.115-0.1,0.016l-0.001-0.004l0.114,0.305
												C163.962,50.271,163.958,50.165,163.965,50.07z"/>
											<path fill="#AA7A5A" d="M163.965,50.07l0.032-0.217C163.981,49.918,163.971,49.991,163.965,50.07z"/>
											<path fill="#AA7A5A" d="M164.854,50.118c0.055,0.102-0.185,0.136-0.076,0.335c0.188,0.484,0.395,0.894,0.491,1.37
												c0.095,0.208-0.101,0.599-0.006,0.804c0.158,0.494,0.663,1.77,0.54,0.994c-0.215-1.167-0.426-1.912-0.712-2.932
												c-0.299-0.813-0.631-1.575-0.989-2.376c-0.089-0.229-0.145-0.45-0.203-0.674l0.2,0.932
												C164.163,49.02,164.629,49.444,164.854,50.118z"/>
											<path fill="#AA7A5A" d="M161.879,44.478l0.218,0.253c0.055,0.51,0.33,0.935,0.589,1.375l0.023-0.255
												c-0.131-0.26-0.209-0.262-0.148-0.007c-0.111-0.595-0.325-1.117-0.613-1.614
												C161.906,44.292,161.836,44.32,161.879,44.478z"/>
											<polygon fill="#AA7A5A" points="161.778,43.939 161.947,44.23 161.961,44.21 161.778,43.926 											"/>
											<path fill="#AA7A5A" d="M164.792,53.119c0.243,1.421,0.357,2.779,0.38,4.104c0.05,0.1,0.105,0.17,0.081,0.308
												c-0.038,0.104-0.062,0.209-0.076,0.313l-0.013,0.579l0.019,0.204l0.001,0.006c0.027,0.108,0.064,0.077,0.1,0.01
												c0.025-0.075,0.056-0.144,0.088-0.202l-0.088,0.202c-0.03,0.091-0.056,0.192-0.069,0.312
												c0.01,0.177,0.011,0.361-0.01,0.551c-0.021-0.213-0.013-0.395,0.01-0.551l-0.031-0.327l-0.021-0.095
												c-0.006,0.441-0.041,0.88-0.067,1.317l0.006,0.276c0.01,0.319,0.021,0.64-0.109,0.825l-0.027,0.234l0.026-0.043
												l-0.032,0.086l-0.134,0.986c0.017,0.218,0.043,0.445,0.048,0.672l-0.148,0.204c0.046,0.099,0.063,0.231,0.059,0.385
												c0.1-0.166,0.208-0.316,0.274-0.462c0.149-0.208-0.172-0.53,0.087-0.765c-0.259,0.234,0.063,0.557-0.087,0.765
												c-0.066,0.146-0.175,0.296-0.274,0.462c-0.011,0.317-0.114,0.716-0.298,1.014c-0.016-0.417,0.127-0.736,0.298-1.014
												c0.005-0.153-0.013-0.286-0.059-0.385l0.148-0.204c-0.005-0.227-0.031-0.454-0.048-0.672
												c-0.1,0.643-0.221,1.286-0.356,1.942c-0.947,4.189-2.381,7.963-4.914,11.612c-1.388,1.979-2.9,3.744-4.58,5.215
												c-3.297,2.926-6.854,5.057-11.367,5.707c-1.701,0.289-4.831,1.066-6.504,1.371c-2.171,0.777-0.847,1.594-0.725,1.633
												c1.546,0.619,2.55-0.02,5.501-0.162c-1.992,0.152,1.284-0.832,3.257-0.836c1.443,0.025,3.084-0.5,4.682-1.326
												c1.609-0.813,3.14-1.926,4.579-2.918c0.721-0.502,1.396-1.146,2.148-1.863c2.027-1.801,3.573-3.891,4.938-6.08
												c1.387-2.232,2.476-4.664,3.414-7.308c0.475-1.415,0.589-2.74,0.727-3.976c0.144-0.895,0.421-1.829,0.509-2.563
												c0.146-1.152,0.142-2.158,0.066-3.112c0.005,1.064,0.006,1.847-0.104,3.032c-0.09,0.787-0.225-0.586-0.254-1.106
												c-0.028-0.225,0.264-0.552,0.224-0.78c0.038-0.485-0.052-0.938-0.104-1.457c-0.046-0.224,0.196-0.193,0.17-0.306
												c-0.047-0.715-0.359-1.253-0.313-1.704l0.063-0.957c0-0.191,0.005-0.382-0.023-0.582l-0.096-0.378
												c-0.064,0.108-0.15,0.153-0.237,0.195l0.021-0.637l-0.021,0.637c0.087-0.042,0.173-0.086,0.237-0.195
												c-0.218-0.915-0.496-1.953-0.776-2.903l-0.019,0.017c0.128,0.562,0.2,1.124,0.128,1.733c0.02-0.262,0.09-0.24,0.141,0.05
												l-0.091,0.239c-0.125-0.501-0.269-0.991-0.178-1.497l-0.135-0.309c0.002-0.165,0.078-0.171,0.135-0.217l-0.084-0.33
												C164.818,52.353,164.798,53.118,164.792,53.119z"/>
											<path fill="#AA7A5A" d="M165.207,58.965l-0.019-0.275c-0.006,0.369-0.042,0.737-0.063,1.106
												C165.249,59.606,165.229,59.285,165.207,58.965z"/>
										</g>
									</g>
								</g>
							</g>
						</g>
					</g>
				</g>
			</g>
			<path fill="none" stroke="#33441C" stroke-width="0.25" d="M172.91,65.897"/>
		</g>
		<g>
			<g>
				<g>
					<g>
						<path fill="#AA7A5A" d="M164.599,44.327c-1.371-1.971-3.059-3.748-4.771-5.138c0.684,0.557,1.34,1.146,1.963,1.767
							c-0.938-0.928-1.766-1.676-2.809-2.539c0.362,0.199,1.012,0.788,1.223,0.868c2.484,2.097,4.485,4.729,5.795,7.566
							C165.282,45.833,165.094,45.06,164.599,44.327z"/>
						<path fill="#AA7A5A" d="M156.041,36.34c0.28,0.169,0.558,0.327,0.821,0.499C156.577,36.663,156.287,36.504,156.041,36.34z"/>
						<path fill="#AA7A5A" d="M167.937,64.957c-0.102,0.366-0.21,0.733-0.329,1.083L167.937,64.957z"/>
						<path fill="#AA7A5A" d="M167.004,47.857c0.092,0.175,0.177,0.354,0.259,0.538c0.539,1.407,0.939,2.888,1.183,4.417
							C168.174,51.145,167.589,49.438,167.004,47.857z"/>
						<path fill="#AA7A5A" d="M166.457,46.309c-0.717-1.371-1.552-2.703-2.41-3.902C164.919,43.595,165.747,44.906,166.457,46.309z"
							/>
						<path fill="#AA7A5A" d="M163.335,75.793c0.016,0.004,0.007,0.035-0.014,0.076c-0.026,0.041-0.048,0.078-0.063,0.113
							c-0.41,0.498-0.834,0.984-1.271,1.457c0.1-0.125,0.173-0.258,0.276-0.383C162.735,76.525,162.887,76.453,163.335,75.793z"/>
						<polygon fill="#AA7A5A" points="168.052,64.549 168.055,64.509 168.147,64.133 168.165,64.09 						"/>
						<path fill="#AA7A5A" d="M163.832,75.141c0.03,0.006,0.062,0.012,0.112-0.02l-0.681,0.855l0.058-0.107
							C163.452,75.666,163.703,75.381,163.832,75.141z"/>
						<path fill="#AA7A5A" d="M168.07,68.005c0.087-0.219,0.109-0.433,0.135-0.541c0.254-0.553,0.495-1.112,0.736-1.791
							c0.019-0.111,0.09-0.336,0.123-0.558c0.06-0.119,0.12-0.25,0.177-0.391c-0.439,1.522-1.006,3.038-1.715,4.541L168.07,68.005z"
							/>
						<path fill="#AA7A5A" d="M138.96,88.342c2.045-0.082,4.438-0.279,6.335-0.949c-1.144,0.254-2.519,0.484-3.656,0.57
							c-1.138,0.088-2.029,0.055-2.204-0.064c-0.175-0.121,0.611-0.146,1.663-0.232c1.052-0.084,2.37-0.254,3.249-0.471
							l-0.478,0.051c0.238-0.021,0.478-0.051,0.678-0.127c-0.476,0.063-1.393,0.193-1.665,0.152l0.403-0.135
							c-1.214,0.066-3.453,0.254-4.646,0.059c2.895,0.271,6.456-0.234,9.867-1.609c3.425-1.35,6.662-3.516,9.299-5.922
							c2.925-2.729,5.035-5.848,6.485-8.939c0.295-0.574,1.021-1.941,1.468-2.955c0.739-1.814,1.296-3.699,1.591-5.593
							c0.706-3.994,0.808-8.041-0.551-12.149c-0.28-0.802-0.463-2.018,0.321-0.02c0.627,1.665,1.006,3.453,1.137,5.265
							c-0.088-0.205-0.125-1.068-0.242-1.458c0.129,1.327,0.166,2.427,0.151,3.734c0.013-0.872-0.021-1.742-0.102-2.608
							c0.21,2.164,0.077,4.59-0.343,6.95c-0.166,0.866-0.576,1.548-0.76,2.782c0.993-2.956,1.533-6.198,1.295-9.4l0.008,0.016
							c-0.118-1.424-0.315-2.706-0.66-4.039c0.115,0.412,0.229,0.834,0.286,1.208c-0.32-1.982-0.962-3.884-1.843-5.666
							c1.39,2.443,2.246,5.373,2.467,8.362c0.233,2.994-0.146,6.021-0.856,8.809c0.568-1.534,0.742-3.692,0.988-5.083
							c-0.197,2.638-0.821,5.253-1.811,7.782l0.172-0.57c-0.646,1.553-1.317,3.219-2.153,4.683l-0.228,0.389l0.228-0.389
							c0.771-1.339,1.433-2.714,1.981-4.112c-0.216,0.654-0.494,1.334-0.875,2.122c0.247-0.406,0.544-1.023,0.816-1.652
							c0.332-0.836,0.631-1.685,0.889-2.536c-0.382,1.323-0.826,2.609-1.276,3.778c0.81-1.693,1.439-3.532,1.893-5.364
							c-0.225,1.013-0.504,2.014-0.834,2.996c-0.594,1.638-1.331,3.233-2.192,4.781l0.093-0.181l-0.19,0.356
							c-0.341,0.604-0.7,1.199-1.079,1.787l-0.978,1.58l-0.182,0.252c0.096-0.172,0.132-0.264-0.102,0.035
							c-1.013,1.254-2.049,2.682-3.434,3.924c-0.361,0.326-0.822,0.789-1.335,1.277c-0.155,0.113-0.223,0.189-0.279,0.262
							l-0.339,0.313l-0.854,0.732c0.286-0.23,0.571-0.48,0.854-0.732l0.314-0.279c-0.059,0.078-0.119,0.164-0.275,0.301
							c1.985-1.67,3.859-3.635,5.449-5.832l-0.248,0.426l0.43-0.678c0.505-0.715,0.983-1.449,1.422-2.205
							c-0.121,0.23-0.234,0.445-0.322,0.643c1.349-2.1,2.447-4.379,3.247-6.761c0.803-2.213,1.35-4.502,1.571-6.824
							c-0.179,1.244-0.415,2.534-0.737,3.828c0.773-3.457,0.898-7.059,0.302-10.542c0.213,0.608,0.394,1.473,0.55,1.862
							c0.059-0.031-0.073-1.18,0.048-0.518c0.466,2.429,0.215,4.203,0.459,5.228c0.105,0.21,0.5-2.592,0.529-1.685
							c0.021,0.766-0.017,2.139-0.215,3.604l-0.237,1.304c-0.018,0.055-0.017,0.152-0.022,0.274
							c-0.303,1.572-0.754,3.029-1.048,3.817l-0.335,0.868c-0.074,0.145-0.146,0.266-0.211,0.355
							c-0.051,0.188-0.108,0.375-0.171,0.56c-0.33,0.757-0.681,1.494-1.052,2.213l-0.697,1.148c0.022,0.002,0.08-0.047,0.057,0.037
							c-0.498,0.881-1.027,1.734-1.589,2.563c-0.248,0.322-0.493,0.607-0.729,0.846c-0.474,0.996-2.135,2.891-3.349,4.137
							l0.006,0.002c-0.611,0.629-1.255,1.234-1.928,1.824c-0.121,0.086-0.241,0.16-0.355,0.23c-0.146,0.168-0.325,0.316-0.399,0.398
							c-0.563,0.439-1.061,0.777-1.566,1.107c-0.077,0.078-0.21,0.246-0.399,0.385l-1.121,0.771
							c-0.435,0.281-0.883,0.553-1.343,0.816c-1.548,0.887-3.15,1.617-4.784,2.199c-0.06,0-0.083-0.023-0.106-0.045
							c-0.238,0.131-0.602,0.234-0.823,0.334c0.041-0.025,0.064-0.047,0.053-0.059c-0.733,0.305-0.898,0.285-1.584,0.467
							c-0.154,0.045-0.291,0.113-0.44,0.164l-0.229,0.053c-0.81,0.084-1.576,0.305-2.46,0.455c-0.886,0.123-1.774,0.203-2.665,0.24
							C139.72,88.453,139.446,88.381,138.96,88.342z"/>
						<path fill="#AA7A5A" d="M161.829,77.611c-0.572,0.613-1.168,1.201-1.779,1.768C160.688,78.748,161.203,78.137,161.829,77.611z
							"/>
						<path fill="#AA7A5A" d="M170.252,56.724c0.049-0.337,0.076-0.719,0.079-1.134c0.107,2.182-0.052,4.358-0.465,6.522
							l-0.007,0.002C170.193,60.384,170.469,57.83,170.252,56.724z"/>
						<path fill="#AA7A5A" d="M163.321,75.869l-0.058,0.107l-0.005,0.006C163.273,75.947,163.295,75.91,163.321,75.869z"/>
						<path fill="#AA7A5A" d="M168.8,52.767l-0.034-0.198c0.107,0.499,0.193,1.003,0.264,1.511L168.8,52.767z"/>
						<path fill="#AA7A5A" d="M167.27,47.494c-0.433-0.952-0.926-1.877-1.481-2.762c-0.682-1.159-1.444-2.241-2.222-3.243
							C165.094,43.279,166.343,45.308,167.27,47.494z"/>
						<path fill="#AA7A5A" d="M169.933,52.539c-0.056-0.448-0.119-0.903-0.199-1.357c0.101,0.45,0.19,0.899,0.266,1.35
							C169.964,52.45,169.95,52.527,169.933,52.539z"/>
						<polygon fill="#AA7A5A" points="169.231,57.029 169.229,56.715 169.28,57.521 						"/>
						<path fill="#AA7A5A" d="M168.731,47.815l0.336,0.956c-0.076-0.185-0.158-0.366-0.25-0.544
							C168.806,48.115,168.778,47.973,168.731,47.815z"/>
						<path fill="#AA7A5A" d="M166.273,43.179c-0.258-0.383-0.514-0.756-0.771-1.103c0.33,0.421,0.65,0.87,0.953,1.317
							C166.37,43.301,166.301,43.231,166.273,43.179z"/>
					</g>
				</g>
			</g>
		</g>
	</g>
	<g opacity="0.8">
		<g>
			<g>
				<g>
					<g>
						<g opacity="0.8">
							<g>
								<path fill="#434F32" d="M115.027,56.671c-0.033,1.487,0.122,2.828,0.444,4.157c0.465,2.056,0.659,4.004,1.504,6.109
									c0.405,1.044,0.889,1.964,1.463,2.891c0.987,1.972,2.479,3.978,4.431,5.599c0.191,0.195,0.763,0.773,0.91,0.453
									c1.801,1.643,3.859,3.021,6.172,3.74c0.95,0.33,1.87,0.926,2.869,1.156c1.621,0.316,3.169,0.943,4.809,1.059
									c0.231-0.035,0.73-0.166,0.917-0.137c2.227,0.477,4.319-0.178,6.307-0.732c0.794-0.189,1.387-0.41,2.142-0.576
									c0.031-0.162,0.215-0.188,0.412-0.295l2.136-0.473c0.911-0.207,1.786-0.457,1.966-0.43c0.089,0.008-1.372,0.746-2.929,1.289
									c-1.551,0.555-3.175,0.914-3.102,0.984c0.083,0.033,1.169-0.174,2.254-0.492c1.088-0.307,2.163-0.736,2.349-0.781
									c-3.584,1.793-6.19,2.281-7.646,2.6c-1.48,0.277-1.893,0.33-1.617,0.34c0.271-0.004,1.222-0.08,2.395-0.307
									c1.175-0.219,2.562-0.604,3.728-1.045c0.76-0.152,1.752-0.678,3.13-1.213c-0.76,0.449-2.36,1.469-2.786,1.592
									c-1.899,0.668-1.57,0.842-3.87,1.113c-0.945,0.088-2.227,0.275-3.494,0.377c-1.266,0.105-2.514,0.133-3.34,0.086
									c0.896-0.137,2.887-0.582,4.106-0.551c-1.338-0.143-2.093-0.014-2.888,0.125c-0.791,0.133-1.626,0.291-3.023-0.002
									c-0.26-0.049-0.57-0.066-0.906-0.09c-0.303-0.104-0.59-0.195-0.943-0.328c-2.256-0.59-4.291-1.076-6.335-2.186
									c0.182,0.08,0.222,0.289,0.397,0.395c1.703,1.129,3.456,1.381,5.472,1.996c0.385,0.146,0.992,0.035,1.409,0.123
									c0.853,0.162,1.584,0.459,2.385,0.65c-1.645,0.002-3.539-0.449-5.232-0.939c-0.358-0.08-0.83-0.066-1.133-0.072
									c0.771,0.289,1.563,0.531,2.366,0.742c1.416,0.328,3.097,0.447,4.655,0.467c1.561,0.033,2.996-0.012,4.034,0.188
									l0.244-0.059c0.032,0.018,0.074,0.027,0.122,0.033c0.401-0.016,0.881-0.027,1.325,0.051l-1.114,0.031
									c-2.902,0.658-6.275,0.037-9.381-0.588c-0.708-0.102-1.744-0.717-2.43-0.877c-2.013-0.533-3.976-1.535-5.649-2.814
									c-3.052-2.246-5.554-5.125-7.264-8.314c-1.721-3.189-2.657-6.662-2.876-10.062c-0.038-0.153-0.08-0.305-0.109-0.458
									l-0.06,0.219c-0.002-0.15,0.008-0.303,0.013-0.453c-0.174-0.85-0.235-1.709-0.136-2.563c0.081-0.354,0.068,0.604,0.23,0.848
									l0-0.381l0.155,0.054c-0.051-0.14,0.028-0.235,0.07-0.342c0.199,1.833,0.587,3.649,1.133,5.422
									c0.12-0.261-0.06-0.775-0.102-1.033c-0.204-0.576-0.386-1.164-0.435-1.725c-0.354-1.522-0.184-3.17-0.143-4.65
									c0.052-0.277,0.11-0.551,0.184-0.815C114.832,55.435,115.077,56.136,115.027,56.671z M122.942,78.107
									c-0.392-0.404-0.735-0.834-1.083-1.281l-0.414-0.414c-0.167-0.174-0.364-0.34-0.577-0.504
									c-0.682-0.793-1.307-1.619-1.871-2.48c0.438,0.969,1.005,1.939,1.934,2.887c-2.51-2.355-3.701-5.189-4.644-8.045
									c-0.35-0.84-0.682-1.694-0.981-2.58l-0.675-1.819c0.764,3.954,2.319,7.882,4.93,11.269c2.588,3.387,6.26,6.121,10.444,7.678
									C127.407,81.525,125.017,80.07,122.942,78.107z M123.898,78.518c0.909,0.648,1.868,1.207,2.845,1.686
									c2.602,1.416,5.764,2.387,7.719,2.252c-2.558-0.328-5.205-1.025-7.719-2.252c1.182,0.609,1.359,0.668,0.826,0.404
									c-0.531-0.262-1.765-0.873-3.261-1.85C124.229,78.73,124.08,78.637,123.898,78.518z"/>
								<path fill="#434F32" d="M114.314,65.753c-0.19-1.22-0.334-2.444-0.353-3.649c-0.111,0.485-0.229,0.929-0.248,1.494
									c0.01,1.518,0.562,3.105,1.018,4.622c1.264,4.391,4.266,8.618,8.426,11.506c0.196,0.152,0.64,0.484,1.028,0.641
									C118.942,76.732,115.416,71.455,114.314,65.753z"/>
								<path fill="#434F32" d="M131.462,83.969l2.685,0.539c-0.757-0.314-1.807-0.594-2.645-0.857
									c-1.192-0.314-2.371-0.701-3.499-1.172C129.079,83.074,130.223,83.592,131.462,83.969z"/>
								<path fill="#434F32" d="M124.186,80.367l0.634,0.434c0.99,0.652,2.059,1.207,3.184,1.678
									c-1.135-0.631-2.192-1.344-3.24-2.102C124.686,80.518,124.457,80.48,124.186,80.367z"/>
							</g>
						</g>
					</g>
				</g>
			</g>
		</g>
		<g>
			<g>
				<g>
					<g>
						<g>
							<path fill="#434F32" d="M140.896,79.889c0.441-0.01,0.884-0.037,1.305-0.066l1.391-0.123c0.935-0.082,1.85-0.166,2.742-0.268
								c1.782-0.203,3.473-0.492,4.966-0.955c-1.193,0.369-2.461,0.627-3.764,0.82c1.949-0.299,3.546-0.58,5.337-1.168
								c-0.463,0.363-1.692,0.627-1.943,0.885c-2.28,0.609-4.737,0.791-7.23,0.887c-1.295,0.059-2.398,0.076-3.576-0.023
								c-1.157-0.09-2.292-0.27-3.392-0.531C138.551,79.221,139.589,79.893,140.896,79.889z"/>
							<path fill="#434F32" d="M156.969,75.594c-0.291,0.324-0.588,0.629-0.91,0.902C156.392,76.191,156.682,75.865,156.969,75.594z
								"/>
							<path fill="#434F32" d="M115.689,62.76c-0.231-0.532-0.439-1.079-0.614-1.616L115.689,62.76z"/>
							<path fill="#434F32" d="M134.541,80.084c-0.292-0.047-0.584-0.105-0.877-0.18c-2.132-0.746-4.164-1.844-6.029-3.227
								C129.685,78.18,132.186,79.191,134.541,80.084z"/>
							<path fill="#434F32" d="M136.846,81.025c2.313,0.381,4.68,0.471,6.947,0.455C141.532,81.539,139.188,81.463,136.846,81.025z"
								/>
							<path fill="#434F32" d="M112.629,44.706c-0.04,0-0.054-0.054-0.057-0.131c0.011-0.077,0.016-0.147,0.01-0.208
								c0.165-0.494,0.347-0.981,0.537-1.464c0.095-0.172,0.203-0.644,0.431-0.957l0.352-0.589c-0.087,0.22-0.083,0.372-0.219,0.627
								c-0.44,0.836-0.493,1.049-0.667,1.396C112.869,43.714,112.743,44.074,112.629,44.706z"/>
							<path fill="#434F32" d="M115.936,63.358l0.042,0.048l0.253,0.533l0.018,0.069C116.134,63.797,116.036,63.579,115.936,63.358z
								"/>
							<path fill="#434F32" d="M112.286,45.98c-0.073,0.004-0.147,0.01-0.222,0.085c0.156-0.569,0.324-1.132,0.514-1.688
								c-0.005,0.072-0.008,0.141-0.006,0.197C112.513,44.962,112.295,45.537,112.286,45.98z"/>
							<path fill="#434F32" d="M111.683,59.311c0.085,0.372,0.305,0.666,0.384,0.828c0.143,0.973,0.329,1.943,0.661,3.061
								c0.094,0.157,0.229,0.514,0.427,0.82c0.023,0.218,0.06,0.451,0.113,0.691c-0.957-2.37-1.647-4.913-1.981-7.59
								C111.402,57.835,111.535,58.561,111.683,59.311z"/>
							<path fill="#434F32" d="M148.523,25.435c-3.11-0.541-6.841-1.043-9.889-0.281c1.811-0.097,3.963-0.066,5.702,0.182
								c1.741,0.239,3.054,0.658,3.252,1.009c0.197,0.359-0.97,0.137-2.554-0.063c-1.581-0.214-3.601-0.343-4.969-0.216l0.729,0.088
								c-0.362-0.048-0.73-0.089-1.045,0.01c0.731,0.064,2.132,0.144,2.525,0.358l-0.631,0.156c0.908,0.213,2.19,0.376,3.447,0.643
								c1.258,0.257,2.484,0.615,3.285,1.029c-3.977-1.658-9.501-1.947-14.771-0.352c-5.289,1.532-10.188,4.957-13.274,9.188
								c-0.843,1.209-1.545,2.441-2.043,3.741l-0.819,2.094c-0.128,0.338-0.371,0.828-0.366,0.906l-0.212,0.915
								c-0.576,2.647-0.656,5.254-0.358,7.684c0.055,0.918,0.136,3.118,0.396,4.685c0.601,2.737,1.66,5.376,3.178,7.674
								c1.512,2.502,3.252,4.809,5.334,6.892c2.128,2.104,4.447,3.939,7.236,5.104c0.55,0.232,1.165,0.613,1.293,0.842
								c0.131,0.219-0.258,0.342-1.709-0.178c-2.426-0.832-4.661-2.258-6.683-4.082c0.353,0.064,1.274,1.002,1.82,1.234
								c-1.465-1.313-2.638-2.457-3.935-3.859c0.867,0.943,1.792,1.822,2.775,2.652c-2.46-2.063-4.758-4.792-6.559-7.786
								c-0.638-1.127-0.573-2.362-1.623-3.856c1.375,4.293,3.961,8.46,7.522,11.615c-0.01-0.002-0.02-0.004-0.028-0.004
								c1.621,1.418,3.108,2.539,4.866,3.508c-0.555-0.277-1.117-0.578-1.559-0.908c2.345,1.756,5.05,2.91,7.885,3.469
								c-2.035-0.209-4.097-0.799-6.043-1.742c-1.958-0.941-3.763-2.221-5.453-3.729c-3.371-2.971-6.017-6.701-7.807-10.579
								c0.323,1.172,0.996,2.421,1.725,3.576c0.729,1.159,1.508,2.227,2.011,3.179c-2.457-3.108-4.278-6.744-5.217-10.671
								c0.096,0.284,0.204,0.558,0.318,0.827c-0.492-2.442-1.078-5.036-1.034-7.529l0.024-0.665l-0.024,0.665
								c-0.054,2.278,0.195,4.535,0.716,6.702c-0.332-0.97-0.56-2.041-0.696-3.332c-0.042,0.713,0.074,1.729,0.252,2.738
								c0.299,1.31,0.696,2.598,1.165,3.845c-0.772-1.912-1.39-3.856-1.844-5.688c0.322,2.808,1.229,5.624,2.438,8.21
								c-0.722-1.396-1.333-2.848-1.822-4.341c-0.723-2.537-1.094-5.183-1.102-7.853l0.021,0.305l-0.018-0.608
								c0.007-1.043,0.076-2.091,0.198-3.136l0.261-2.795l0.099-0.46c-0.006,0.304,0.02,0.456,0.182-0.093l0.55-1.78l0.292-0.913
								c0.068-0.275,0.212-0.491,0.374-0.833c0.602-1.231,1.097-2.542,1.89-3.653c0.421-0.594,0.912-1.438,1.511-2.313
								c0.208-0.203,0.281-0.336,0.329-0.472l0.411-0.557l1.09-1.291c-0.378,0.401-0.744,0.84-1.09,1.291
								c-0.132,0.166-0.267,0.328-0.39,0.498c0.047-0.146,0.096-0.303,0.294-0.547c-1.267,1.489-2.41,3.135-3.253,4.972
								l-0.667,1.396c-0.205,0.465-0.521,0.956-0.668,1.353c-0.34,0.953-0.628,1.944-0.854,2.942l0.048-0.75
								c-0.058,0.403-0.105,0.807-0.147,1.21c-0.266,1.296-0.434,2.614-0.483,3.934c-0.009-0.395-0.026-0.764-0.065-1.093
								c-0.443,3.761,0,7.633,1.188,11.247c0.973,3.434,2.574,6.668,4.689,9.524c-1.019-1.629-2.017-3.352-2.868-5.184
								c2.464,4.773,6.164,8.842,10.473,12.018c-0.932-0.342-2.088-1.047-2.745-1.227c-0.074,0.143,1.301,1.279,0.433,0.705
								c-3.223-2.064-4.727-4.416-6.31-5.15c-0.177-0.051,0.251,0.9,0.661,1.725c0.404,0.824,0.766,1.531,0.213,1.053
								c-0.875-0.838-2.341-2.457-3.663-4.416c-0.353-0.583-0.712-1.189-1.067-1.83c-0.031-0.086-0.144-0.198-0.281-0.344
								c-1.271-2.23-2.131-4.543-2.482-5.853c-0.132-0.486-0.256-0.97-0.365-1.456c-0.027-0.263-0.021-0.494,0.007-0.679
								c-0.125-0.29-0.235-0.587-0.327-0.89c-0.237-1.312-0.388-2.623-0.468-3.927c0.012-0.73,0.06-1.455,0.112-2.169
								c-0.05,0.015-0.116,0.132-0.167-0.005c0.013-1.634,0.151-3.255,0.411-4.85c0.164-0.639,0.369-1.213,0.612-1.703
								c-0.027-0.918,0.261-2.273,0.832-3.857c0.059-0.143,0.088-0.303,0.175-0.433l0.189-0.341l0.228-0.431l0.47-0.951l0.958-1.998
								l-0.017-0.004c0.717-1.33,1.5-2.486,2.412-3.647c0.183-0.162,0.363-0.312,0.545-0.438c0.169-0.325,0.416-0.612,0.505-0.772
								c0.813-0.829,1.575-1.448,2.356-2.029c0.107-0.143,0.257-0.478,0.545-0.723c0.586-0.477,1.159-0.929,1.729-1.356
								c0.686-0.477,1.399-0.926,2.138-1.346c2.49-1.411,5.13-2.404,7.801-3.033c0.1,0.031,0.139,0.093,0.179,0.155
								c0.384-0.205,0.979-0.279,1.337-0.416c-0.065,0.04-0.103,0.078-0.083,0.112c1.19-0.396,1.46-0.265,2.566-0.392
								c0.248-0.039,0.471-0.146,0.714-0.198l0.369-0.028c1.29,0.163,2.52-0.031,3.925-0.028c1.398,0.073,2.786,0.241,4.153,0.495
								C147.432,24.881,147.811,25.164,148.523,25.435z"/>
							<path fill="#434F32" d="M114.061,41.075c0.579-1.025,1.141-2.217,1.941-3.404C115.208,38.988,114.85,40.188,114.061,41.075z"
								/>
							<path fill="#434F32" d="M120.538,75.322c0.274,0.479,0.643,0.967,1.078,1.465c-2.52-2.381-4.713-5.107-6.465-8.185
								l0.012-0.011c0.729,1.215,1.638,2.686,2.614,3.946C118.746,73.803,119.77,74.852,120.538,75.322z"/>
							<path fill="#434F32" d="M112.572,44.575c-0.002-0.056,0.001-0.125,0.006-0.197l0.004-0.012
								C112.587,44.428,112.583,44.499,112.572,44.575z"/>
							<path fill="#434F32" d="M127.104,77.393l0.25,0.18c-0.663-0.412-1.306-0.859-1.927-1.338L127.104,77.393z"/>
							<path fill="#434F32" d="M134.616,81.109c1.556,0.391,3.151,0.615,4.749,0.689c2.055,0.197,4.083,0.076,6.014,0.104
								c-1.781,0.107-3.582,0.254-5.401,0.133C138.166,81.926,136.363,81.621,134.616,81.109z"/>
							<path fill="#434F32" d="M125.486,79.787c0.564,0.461,1.146,0.93,1.759,1.367c-0.641-0.391-1.259-0.805-1.86-1.234
								C125.528,79.959,125.469,79.836,125.486,79.787z"/>
							<polygon fill="#434F32" points="122.057,73.219 122.393,73.563 121.447,72.758 							"/>
							<path fill="#434F32" d="M132.429,83.654c-0.527-0.188-1.042-0.398-1.55-0.613c0.317,0.094,0.634,0.174,0.961,0.229
								C131.983,83.4,132.186,83.529,132.429,83.654z"/>
							<path fill="#434F32" d="M140.917,84.965l1.117-0.008l1.06-0.037c-0.39,0.041-0.845,0.072-1.308,0.094
								c-0.44,0.02-0.883,0.029-1.324,0.029C140.664,84.994,140.822,84.949,140.917,84.965z"/>
						</g>
					</g>
				</g>
			</g>
			<g>
				<g>
					<g>
						<g>
							<polygon fill="#434F32" points="123.884,30.881 124.1,30.735 124.086,30.721 							"/>
							<path fill="#434F32" d="M123.809,31.22l0.067-0.046c-0.011,0-0.015-0.003-0.022-0.004L123.809,31.22z"/>
							<path fill="#434F32" d="M124.085,30.721c-0.056-0.049-0.188-0.049-0.115-0.181l0.49-0.315c0.102-0.112-0.042-0.066-0.063-0.1
								c0.123-0.079,0.246-0.158,0.236-0.174c0.052-0.094-0.097-0.041-0.344,0.105C123.861,30.57,122.624,31.558,124.085,30.721z"/>
							<path fill="#434F32" d="M123.234,31.507l0.617-0.436c0.039-0.082,0.102-0.18,0.013-0.173
								C123.562,31.152,123.383,31.314,123.234,31.507z"/>
							<path fill="#434F32" d="M128.668,80.146c0.006-0.01,0.021-0.008,0.123,0.072L128.668,80.146c-0.007,0.01-0.009,0.027-0.068,0
								l1.459,0.762l0.214,0.039c-1.247-0.627-2.433-1.359-3.434-1.922C127.509,79.48,127.998,79.752,128.668,80.146z"/>
							<path fill="#434F32" d="M130.424,80.893l0.126,0.063C130.445,80.883,130.431,80.881,130.424,80.893z"/>
							<path fill="#434F32" d="M113.662,63.147c-0.334-0.805-0.647-1.506-0.931-2.233c0.52,1.569,1.192,3.121,1.804,4.213
								C114.221,64.481,113.928,63.822,113.662,63.147z"/>
							<path fill="#434F32" d="M111.663,57.158c0.109,1.099,0.347,1.982,0.62,2.801c-0.23-0.846-0.422-1.699-0.558-2.56
								L111.663,57.158z"/>
							<path fill="#434F32" d="M111.974,58.342c0.181,0.987,0.458,1.793,0.758,2.571C112.437,60.026,112.183,59.142,111.974,58.342z
								"/>
							<path fill="#434F32" d="M122.741,73.947l0.934,0.771l0.356,0.186l-0.082-0.074c-0.495-0.402-0.983-0.826-1.465-1.271
								l-0.574-0.473C122.182,73.379,122.458,73.67,122.741,73.947z"/>
							<path fill="#434F32" d="M123.675,74.719C122.924,74.342,124.304,75.266,123.675,74.719L123.675,74.719z"/>
							<polygon fill="#434F32" points="119.964,72.654 119.9,72.58 119.705,72.373 							"/>
							<path fill="#434F32" d="M115.955,65.898c0.267,0.483,0.551,0.958,0.848,1.413c-0.597-0.948-1.141-1.938-1.592-2.763
								c0.061,0.126,0.101,0.263,0.164,0.388C115.533,65.17,115.755,65.527,115.955,65.898z"/>
							<path fill="#434F32" d="M123.184,75.688c-1.172-0.998-2.271-2.041-3.284-3.107c-1.958-2.253-3.596-4.631-4.915-6.879
								c-0.591-0.985-1.271-2.418-1.819-3.909c-0.557-1.489-0.977-3.03-1.302-4.167c0.03,0.25,0.066,0.49,0.109,0.718l-0.249-0.944
								c-0.583-3.845-0.312-7.723,0.792-11.528c0.161-0.564,0.248-1,0.44-1.556c0.194-0.563,0.407-1.109,0.628-1.649
								c-0.003-0.004-0.01,0.001-0.021,0.014c0.923-2.241,2.091-4.344,3.573-6.387c0.706-0.951,1.502-1.834,2.335-2.674
								c0.316-0.313,0.365-0.263,0.595-0.45c0.922-0.743,1.646-1.254,2.724-2.014l0.035,0.047c0.156-0.128,0.304-0.233,0.43-0.312
								c-0.391,0.542-1.588,1.565-0.166,0.675l0,0l-0.192,0.168l-0.022,0.017l0.002,0c-0.295,0.258-0.453,0.442-0.595,0.638
								c0.195-0.157,0.387-0.317,0.59-0.465c-0.021,0.05-0.029,0.09,0.008,0.097l-0.043,0.052l-0.162,0.125
								c-0.019,0.035-0.03,0.063-0.035,0.086c-0.463,0.467-1.199,1.177-0.998,1.108c0.144-0.065,0.467-0.413,0.874-0.764
								l0.096-0.053c-0.535,0.458,0.086,0.106-0.229,0.386c-0.43,0.36-0.838,0.744-1.244,1.13c-1.645,1.578-2.87,3.085-4.035,4.994
								l-0.154,0.25c-0.557,0.93-1.041,1.831-1.513,2.78l0.057-0.207c-0.393,0.759-0.724,1.551-1.005,2.359
								c-0.665,1.991-1.106,4.042-1.371,6.246c-0.273,2.307-0.226,4.58,0.174,6.882c-0.19-0.938-0.304-1.892-0.344-2.882
								c-0.017-0.444-0.005-0.886-0.007-1.315c-0.009,0.445-0.018,0.882,0.007,1.315c0.021,1.71,0.263,3.455,0.751,4.686
								c0.018,0.141-0.001,0.146,0.032,0.279c0.231,0.936,0.506,1.865,0.867,2.614c0.019-0.007,0.162,0.381,0.151,0.238
								c0.311,0.765,0.694,1.651,1.094,2.375c0.169,0.315,0.363,0.616,0.572,0.909c1.484,2.55,3.284,4.875,5.515,7.123
								c0.55,0.563,1.192,1.201,1.775,1.742c-0.901-0.748-1.787-1.576-2.636-2.469c-0.778-0.906-1.484-1.8-2.119-2.502l-0.425-0.504
								c0.798,1.063,1.652,2.071,2.544,3.006c0.459,0.533,0.942,1.072,1.44,1.576l-0.033-0.027c-0.408-0.379-0.812-0.77-1.207-1.176
								l-1.936-2.246l-0.218-0.24l-0.432-0.5c0.502,0.651,1.023,1.283,1.562,1.888c0.334,0.375,0.677,0.74,1.023,1.098l0.632,0.703
								l-0.079-0.063c-0.205-0.184-0.896-0.605-0.66-0.258c1.42,1.611,3.771,3.488,3.767,3.488c0.029,0.074-0.682-0.451-1.359-1.02
								c-0.682-0.563-1.326-1.172-1.284-1.115l0.426,0.449l-0.438-0.357c-0.311-0.283-0.686-0.697-0.905-0.877
								c-0.757-0.633-1.467-1.506-2.221-2.34c-0.481-0.516-1.049-1.146-1.591-1.802c-0.032,0.021-0.255-0.341-0.208-0.201
								c-0.448-0.662-0.927-1.451-1.198-1.69l-0.032-0.048c-0.028-0.049-0.074-0.115-0.125-0.186
								c-0.644-1.167-1.157-1.951-1.718-3.035c-0.178-0.379-0.345-0.771-0.503-1.18c0.103,0.267,0.246,0.672,0.376,0.929
								l0.127,0.251c0.458,0.984,0.97,1.883,1.509,2.757l0.208,0.278l0.108,0.195l0.049,0.038c0.543,0.818,1.167,1.733,1.697,2.378
								c0.958,1.244,1.988,2.56,3.068,3.742c-0.566-0.563-1.107-1.133-1.625-1.707c0.637,0.729,1.27,1.387,1.902,2.006l0.28,0.293
								l0.598,0.604l-0.539-0.572c0.384,0.361,0.771,0.711,1.16,1.045c2.116,1.877,4.473,3.604,6.949,5.016l-0.202-0.031
								c-1.207-0.666-2.351-1.432-3.323-2.018c0.645,0.471,1.119,0.756,1.767,1.168c-0.007,0.01-0.009,0.027-0.067-0.002
								l1.414,0.803c-0.181-0.043-0.379-0.102-0.577-0.162c-0.265-0.111-0.625-0.336-0.995-0.551
								c-1.563-0.979-2.938-2.049-4.326-3.221c-1.204-1.082-2.334-2.24-3.377-3.436C121.039,73.807,122.1,74.795,123.184,75.688z
								 M120.689,33.469l-0.311,0.331l0.058-0.038C120.539,33.667,120.626,33.559,120.689,33.469z M118.365,35.911
								c0.657-0.74,1.505-1.73,2.414-2.609c0.001-0.009,0.001-0.016-0.002-0.019C119.984,33.986,119.113,34.962,118.365,35.911z
								 M115.72,38.911l0.018-0.017l-0.009-0.003L115.72,38.911z M112.181,55.894c-0.192-1.134-0.215-2.578-0.148-4.013
								c0.029-0.43-0.01-0.866,0.061-1.44c0.074-0.717,0.101-1.152,0.189-1.724l-0.116,0.421c0.194-0.994,0.209-1.585,0.5-2.56
								c-0.021-0.005-0.021-0.155,0.021-0.295c0.178-0.705,0.437-1.386,0.599-1.945c0.225-0.692,0.496-1.367,0.7-1.914
								c0.061-0.133,0.117-0.426,0.23-0.697c0.147-0.325,0.293-0.651,0.458-0.967l-0.034,0.032
								c-0.138,0.255-0.262,0.523-0.377,0.795c-0.346,0.808-0.707,1.764-0.981,2.594c-0.714,2.068-1.098,4.084-1.289,6.101
								c-0.027,0.435-0.048,0.869-0.055,1.303c-0.038,1.3-0.045,2.889,0.148,3.741C112.115,55.468,112.133,55.754,112.181,55.894z
								 M113.201,57.361c-0.301-1.424-0.41-3.062-0.341-4.445c0.014-0.557,0.06-1.634,0.113-2.508
								c0.058-0.872,0.098-1.543-0.067-1.287c0.071,0.722-0.245,3.014-0.192,5.037C112.74,56.181,113.057,57.874,113.201,57.361z
								 M117.71,67.859c-0.336-0.47-0.652-0.933-0.976-1.504C117.047,66.865,117.372,67.366,117.71,67.859z M114.288,62.959
								c0.799,1.652,1.718,3.392,2.754,4.895c0.787,1.156,1.616,2.465,2.515,3.359l0.046-0.037L119.5,71.08
								c-0.297-0.391-0.513-0.723-0.744-1.062l0.047,0.054l-0.077-0.097c-0.154-0.227-0.32-0.457-0.519-0.717l-0.282-0.359
								c-1.015-1.419-1.932-2.969-2.715-4.351c-0.47-0.861-0.882-1.603-1.271-2.512C114.033,62.301,114.165,62.705,114.288,62.959z"
								/>
							<path fill="#434F32" d="M121.349,73.834c0.439,0.424,0.89,0.842,1.354,1.254c0.364,0.309,0.73,0.611,1.105,0.9
								c1.759,1.414,3.876,3,6.022,4.115c0.09-0.016,0.125-0.063,0.079-0.158c-2.247-1.311-4.428-2.777-6.347-4.557l-0.05-0.037
								c-0.913-0.66-2.174-1.979-3.161-2.977c-1.01-0.982-1.907-2.074-2.784-3.183C118.723,70.877,119.986,72.355,121.349,73.834z"
								/>
							<path fill="#434F32" d="M112.283,59.958c0.153,0.553,0.325,1.103,0.515,1.649c0.545,1.518,1.159,2.809,1.87,4.072
								c-0.485-0.946-0.925-1.924-1.304-2.936C112.965,61.74,112.601,60.89,112.283,59.958z"/>
							<path fill="#434F32" d="M115.266,66.691c-0.209-0.337-0.406-0.673-0.598-1.011c0.721,1.4,1.546,2.729,2.448,3.994
								c1.518,2.056,3.235,3.953,5.139,5.63l0.645,0.566c-3.479-3.197-6.267-7.026-8.248-10.54l-0.116-0.205
								c0.846,1.726,1.848,3.344,2.964,4.863C116.699,68.934,115.953,67.833,115.266,66.691z"/>
							<polygon fill="#434F32" points="120.926,73.42 121.203,73.719 121.542,74.043 121.349,73.834 							"/>
							<path fill="#434F32" d="M118.757,70.018l-0.029-0.043c-0.271-0.348-0.54-0.707-0.801-1.076
								c-0.381-0.495-0.76-1.028-1.124-1.588C117.444,68.336,118.141,69.311,118.757,70.018z"/>
							<polygon fill="#434F32" points="117.04,66.561 116.769,66.083 116.617,65.882 116.802,66.223 							"/>
							<path fill="#434F32" d="M113.706,59.198c0.642,2.354,1.584,4.458,2.716,6.416l0.195,0.269
								c-0.717-1.337-1.357-2.697-1.931-3.966c-0.111-0.251-0.3-0.623-0.384-0.884c-0.414-1.232-0.76-2.424-1.003-3.639
								c0.105,0.582,0.235,1.165,0.395,1.755L113.706,59.198z"/>
						</g>
					</g>
				</g>
			</g>
			<g>
				<g>
					<g>
						<g>
							<path fill="#434F32" d="M133.8,22.128c3.314-0.672,6.802-0.609,9.838-0.044c-1.217-0.219-2.449-0.357-3.686-0.41
								c1.853,0.084,3.41,0.337,5.23,0.817c-0.563-0.088-1.749-0.363-2.055-0.332c-4.439-0.764-9.08-0.401-13.276,0.916
								C131.463,22.367,132.595,22.364,133.8,22.128z"/>
							<path fill="#434F32" d="M149.88,24.139c-0.421-0.163-0.824-0.335-1.232-0.481C149.085,23.807,149.505,23.981,149.88,24.139z"
								/>
							<path fill="#434F32" d="M112.179,40.153l-0.542,1.398C111.798,41.085,111.986,40.617,112.179,40.153z"/>
							<path fill="#434F32" d="M128.283,24.162l-0.734,0.336c-1.887,0.773-3.73,1.716-5.532,2.792
								C123.968,26.112,126.113,24.914,128.283,24.162z"/>
							<path fill="#434F32" d="M130.415,23.583c1.97-0.642,4.06-1.02,6.019-1.117C134.476,22.583,132.424,22.952,130.415,23.583z"/>
							<path fill="#434F32" d="M110.291,55.083c0.015-0.009,0.029,0.027,0.044,0.083c0.009,0.059,0.021,0.111,0.033,0.155
								c0.058,0.803,0.149,1.604,0.273,2.399c-0.046-0.195-0.104-0.374-0.137-0.575C110.392,56.26,110.433,56.068,110.291,55.083z"
								/>
							<polygon fill="#434F32" points="112.399,39.636 112.413,39.585 112.612,39.112 112.643,39.059 							"/>
							<path fill="#434F32" d="M110.23,54.06c0.027-0.018,0.055-0.036,0.075-0.106c0.008,0.454,0.031,0.906,0.063,1.358
								l-0.033-0.146C110.285,54.868,110.282,54.395,110.23,54.06z"/>
							<path fill="#434F32" d="M111.98,43.955c0.089-0.278,0.114-0.543,0.148-0.677c0.28-0.705,0.585-1.398,0.943-2.217l0.231-0.668
								l0.267-0.458c-0.808,1.786-1.509,3.67-2.084,5.652C111.632,45.054,111.791,44.511,111.98,43.955z"/>
							<path fill="#434F32" d="M131.06,82.123c-2.583-0.674-5.294-2.158-7.51-3.496c1.23,0.898,2.804,1.813,4.149,2.461
								c1.344,0.652,2.441,1.072,2.622,1.258c0.183,0.186-0.842-0.104-2.148-0.666c-1.307-0.561-2.858-1.436-3.881-2.076l0.52,0.375
								c-0.265-0.18-0.519-0.377-0.778-0.5c0.507,0.393,1.567,1.051,1.849,1.283l-0.533-0.221c0.673,0.48,1.709,1.072,2.795,1.57
								c1.083,0.506,2.206,0.928,2.992,1.232c-3.867-1.332-8.146-3.713-11.788-7.166c-3.662-3.416-6.671-7.829-8.454-12.38
								c-2.043-5.062-2.903-10.23-2.379-15.123c0.102-0.913,0.589-3.051,1.076-4.532c0.759-2.655,1.765-5.227,2.96-7.697
								c1.332-2.6,2.958-5.048,5.158-7.155c0.548-0.527,1.148-1.018,1.79-1.474c0.646-0.451,1.239-0.82,1.883-1.22
								c1.27-0.779,2.595-1.524,3.999-2.208c1.127-0.54,2.774-1.003,0.031,0.329c-1.114,0.59-2.208,1.224-3.28,1.893
								c-1.066,0.682-2.132,1.331-3.18,2.181c0.177-0.262,1.245-0.984,1.677-1.312c-1.642,0.966-2.9,2.106-4.108,3.522
								c0.81-0.959,1.708-1.861,2.727-2.655c-2.545,1.995-4.603,4.829-6.185,7.801c-0.58,1.084-1.296,1.947-1.823,3.622
								c0.898-2.001,1.959-3.969,3.214-5.839c1.26-1.865,2.715-3.646,4.499-5.14l-0.014,0.02c0.398-0.329,0.813-0.64,1.223-0.915
								c0.401-0.263,0.793-0.527,1.194-0.774c0.795-0.504,1.604-0.973,2.449-1.439l-1.504,0.874
								c2.443-1.377,4.963-2.571,7.615-3.431c-3.698,1.374-7.313,3.298-10.684,5.783c-1.646,1.335-2.989,2.962-4.149,4.655
								c-1.157,1.699-2.12,3.487-2.919,5.288c1.019-1.961,2.336-4.617,3.644-6.076c-2.135,2.929-3.771,6.191-5.044,9.665
								l0.246-0.774c-0.892,2.121-1.51,4.509-1.929,6.777l-0.111,0.61l0.111-0.61c0.399-2.083,0.984-4.081,1.683-6.003
								c-0.284,0.895-0.591,1.841-0.917,2.988l0.82-2.362c0.391-1.152,0.836-2.286,1.323-3.387c-0.739,1.71-1.321,3.458-1.729,5.091
								c0.752-2.405,1.708-4.824,2.869-7.071c-0.617,1.245-1.163,2.522-1.653,3.817c-0.853,2.163-1.545,4.413-2.002,6.747
								l0.047-0.268l-0.096,0.533c-0.176,0.913-0.285,1.852-0.334,2.79c-0.041,0.844-0.013,1.673,0.059,2.491l0.021,0.416
								c-0.037-0.261-0.067-0.388-0.057,0.121c0.056,2.178,0.566,4.492,1.187,6.9c0.162,0.634,0.449,1.47,0.811,2.349
								c0.077,0.247,0.138,0.37,0.199,0.476l0.25,0.567c0.2,0.464,0.41,0.925,0.64,1.365l-0.64-1.365l-0.222-0.521
								c0.069,0.111,0.144,0.228,0.253,0.484c-1.342-3.206-2.217-6.753-2.42-10.376l0.096,0.647
								c-0.047-0.353-0.086-0.707-0.117-1.063c-0.05-1.17-0.029-2.344,0.063-3.513c-0.015,0.35-0.023,0.675-0.006,0.96
								c0.216-3.336,1.117-6.594,2.269-9.74c1.164-2.921,2.615-5.7,4.437-8.211c-1.037,1.313-1.959,2.812-2.784,4.394
								c1.057-2.121,2.298-4.168,3.829-5.999c0.77-0.909,1.604-1.772,2.543-2.514c0.947-0.743,1.964-1.341,2.979-1.948
								c-0.687,0.513-1.634,1.203-2.003,1.601c0.052,0.02,1.333-0.789,0.613-0.279c-2.574,1.859-4.004,3.701-4.542,4.896
								c-0.036,0.124,0.527-0.485,1.046-0.965c0.521-0.48,0.983-0.842,0.634-0.41c-0.597,0.713-1.61,2.048-2.543,3.614
								c-0.281,0.444-0.56,0.914-0.834,1.409c-0.039,0.059-0.08,0.172-0.133,0.313c-0.929,1.749-1.656,3.499-2.049,4.47l-0.42,1.081
								c-0.083,0.185-0.161,0.34-0.233,0.458l-0.181,0.708c-0.329,0.978-0.613,1.958-0.851,2.939
								c-0.151,0.541-0.297,1.082-0.416,1.624c0.021-0.008,0.063-0.091,0.064,0.017c-0.242,1.227-0.337,2.445-0.364,3.696
								l-0.096,1.384c0.111,0.674,0.21,1.786,0.388,2.996c0.179,1.208,0.444,2.511,0.754,3.554l0.005-0.004
								c0.29,1.056,0.644,2.104,1.052,3.146l0.142,0.509l0.321,0.631c0.34,0.824,0.641,1.519,0.963,2.206
								c0.08,0.113,0.25,0.316,0.397,0.569c0.279,0.517,0.575,1,0.872,1.468c0.343,0.551,0.701,1.102,1.082,1.646
								c1.28,1.834,2.717,3.518,4.293,5.032c0.037,0.063,0.03,0.096,0.024,0.129c0.276,0.201,0.616,0.537,0.862,0.717
								c-0.05-0.029-0.085-0.045-0.088-0.027c0.801,0.604,0.905,0.773,1.613,1.332c0.166,0.117,0.337,0.205,0.504,0.314l0.24,0.174
								c0.771,0.68,1.661,1.186,2.664,1.717c0.988,0.559,2.011,1.059,3.066,1.482C130.167,81.717,130.472,81.896,131.06,82.123z"/>
							<path fill="#434F32" d="M110.688,58.011c0.171,1.038,0.401,2.064,0.677,3.079C111.042,60.008,110.755,59.031,110.688,58.011z
								"/>
							<path fill="#434F32" d="M118.803,31.577l1.042-0.848c-1.912,1.706-3.458,3.895-4.786,6.246l-0.007,0
								c0.516-0.956,1.231-2.067,1.942-3.044C117.7,32.947,118.412,32.117,118.803,31.577z"/>
							<path fill="#434F32" d="M110.335,55.167l0.033,0.146l0,0.009C110.356,55.278,110.345,55.225,110.335,55.167z"/>
							<path fill="#434F32" d="M122.184,27.605l0.229-0.137c-0.57,0.363-1.135,0.736-1.694,1.119
								C121.156,28.268,121.658,27.935,122.184,27.605z"/>
							<path fill="#434F32" d="M128.707,24.415c1.284-0.501,2.602-0.924,3.943-1.248c1.732-0.381,3.473-0.584,5.13-0.563
								C134.704,22.684,131.639,23.328,128.707,24.415z"/>
							<path fill="#434F32" d="M122.817,28.571c0.487-0.268,0.984-0.531,1.488-0.781c-0.495,0.269-0.977,0.554-1.458,0.84
								C122.927,28.558,122.837,28.583,122.817,28.571z"/>
							<path fill="#434F32" d="M117.801,31.157l0.28-0.304c-0.227,0.271-0.458,0.539-0.669,0.822
								C117.482,31.567,117.669,31.327,117.801,31.157z"/>
							<path fill="#434F32" d="M128.156,25.956l-1.127,0.478l0.64-0.341C127.801,26.066,127.966,26.013,128.156,25.956z"/>
							<path fill="#434F32" d="M134.189,24.121c0.546-0.099,1.079-0.171,1.591-0.228c-0.632,0.086-1.279,0.191-1.913,0.321
								C134.008,24.162,134.119,24.126,134.189,24.121z"/>
						</g>
					</g>
				</g>
			</g>
		</g>
	</g>
</g>
<g id="Ebene_2">
</g>
</svg>
