<?xml version="1.0" encoding="utf-8"?>
<!-- Generator: Adobe Illustrator 15.1.0, SVG Export Plug-In . SVG Version: 6.00 Build 0)  -->
<!DOCTYPE svg PUBLIC "-//W3C//DTD SVG 1.1//EN" "http://www.w3.org/Graphics/SVG/1.1/DTD/svg11.dtd">
<svg version="1.1" id="Ebene_1" xmlns="http://www.w3.org/2000/svg" xmlns:xlink="http://www.w3.org/1999/xlink" x="0px" y="0px"
	 width="566.93px" height="850.39px" viewBox="0 0 566.93 850.39" enable-background="new 0 0 566.93 850.39" xml:space="preserve">
<g>
	<path fill="none" stroke="#6E482F" stroke-width="12" d="M62.16,739.13c13.811-32.742,29.877-65.299,36.717-100.424
		c3.383-17.375,4.316-35.32,1.512-52.844c-2.719-17-9.143-33.1-17.93-47.854c-4.379-7.352-9.57-14.105-14.275-21.234
		c-4.885-7.4-9.24-15.146-13.305-23.023c-8.127-15.757-14.959-32.169-20.646-48.958C22.639,410.569,15.49,374.59,15.348,338.378
		c-0.139-34.85,6.625-69.725,22.037-101.112c14.828-30.199,36.664-56.816,62.367-78.417c26.766-22.493,58.139-38.27,92.219-46.18
		c35.581-8.259,72.223-7.562,107.985-0.803c33.843,6.396,66.538,18.77,94.936,38.453c26.309,18.236,48.236,42.471,63.505,70.626
		c8.027,14.802,14.167,30.614,18.441,46.896c2.26,8.607,3.989,17.354,5.153,26.176c1.159,8.792,2.323,18.089,1.604,26.958
		c-0.678,8.357-4.391,16.368-6.22,24.526c-1.684,7.513-3.089,15.634-1.154,23.239c2.031,7.982,8.329,14.836,12.455,21.84
		c4.747,8.062,9.316,16.227,13.978,24.337c4.676,8.133,9.368,16.256,13.966,24.432c3.914,6.963,8.365,14.008,10.648,21.723
		c2.138,7.223,1.416,14.619-3.71,20.422c-4.313,4.882-10.646,7.011-16.831,8.356c-9.456,2.061-23.851,4.264-20.304,17.482
		c1.013,3.773,3.219,7.039,5.247,10.326c2.049,3.318,4.556,6.574,1.894,10.211c-2.342,3.199-4.592,5.91-4.928,10.061
		c-0.333,4.125,1.444,7.455,2.521,11.285c2.783,9.898-10.478,17.133-17.762,20.389c6.964,14.424,11.932,31.887,9.754,48.033
		c-1.359,6.443-2.985,12.947-6.238,18.639c-4.065,7.318-10.569,13.01-18.7,16.262c-2.439,0.813-4.879,1.627-7.318,2.439
		c-7.317,0.813-14.635,1.627-21.953,0.813c-23.579-3.252-45.532-8.943-69.111-4.879c-6.505,0.814-10.57,5.693-12.196,11.385
		c-8.943,26.018,0.813,51.223,7.318,76.428c0,1.627,0,3.254-0.557,5.027"/>
	<path fill="#6E482F" d="M71.334,346.193c0.828,16.723,5.348,33.836,12.732,48.189c8.482,16.491,19.172,26.441,29.324,27.302
		c0.49,0.042,0.986,0.063,1.479,0.063c11.021,0.003,22.207-10.401,35.24-30.223c6.48,14.424,22.268,29.037,28.422,34.381
		c24.057,20.886,56.035,37.964,82.864,37.966c8.091,0,15.708-1.551,22.505-5.02c13.802-7.045,23.899-21.654,29.198-42.248
		c1.092-4.243,1.964-8.698,2.617-13.324c11.098,1.462,23.688,1.895,36.372-0.145c12.076,9.313,24.966,15.471,35.529,18.026
		c10.562,2.555,19.313,1.748,25.311-2.332c8.328-5.666,12.886-18.553,12.832-36.287c-0.034-11.411-2.172-24.603-6.583-37.322
		c3.275-9.993,5.04-20.744,5.098-31.74c0.132-24.908-8.33-47.316-23.214-61.478c-1.38-1.313-2.812-2.551-4.294-3.713
		c0.064-5.119-0.484-10.102-1.653-14.911c-4.604-18.931-18.639-35.619-40.592-48.26c-35.952-20.704-85.336-26.354-125.809-14.395
		c-21.004,6.206-41.334,16.431-57.244,28.791c-20,15.537-32.449,33.576-37.006,53.627c-21.939,7.196-39.795,20.808-50.664,39.105
		C74.66,307.628,70.352,326.283,71.334,346.193z M144.438,262.079c5.451-1.375,10.469-2.174,14.637-2.636
		c4.994-0.553,10-0.767,14.93-0.663c2.404,12.849,6.797,26.449,12.766,39.843c-1.555,3.184-3.088,6.312-4.594,9.376
		c-9.191,1.214-20.471,1.158-28.145-5.254C143.332,293.807,142.801,274.67,144.438,262.079z M253.763,305.467
		c10.821-1.862,21.788-3.51,32.609-4.753c7.499,14.773,13.01,31.382,16.21,48.152c-12.897,5.758-25.915,9.37-38.646,11.581
		c-0.61-4.133-1.341-8.598-2.2-13.417C258.706,330.03,256.279,316.417,253.763,305.467z M183.912,247.939
		c-1.27-12.546,0.625-20.32,3.473-22.689c1.678-1.396,4.959-1.831,9.244-1.224c6.203,0.879,14.02,3.852,22.509,8.464
		c-3.395,6.321-6.788,13.251-10.358,20.67C201.057,250.562,192.66,248.791,183.912,247.939z M203.789,263.556
		c-0.822,1.71-1.656,3.442-2.506,5.194c-2.662,5.491-5.256,10.842-7.785,16.05c-3.516-9.027-6.088-17.589-7.711-25.157
		C192.084,260.44,198.141,261.761,203.789,263.556z M231.222,279.545c2.107,2.233,3.927,5.222,5.578,9.046
		c-3.409,3.286-6.739,6.735-9.952,10.305c-8.447,1.693-16.715,3.438-24.689,5.144c-0.934-1.826-1.836-3.653-2.699-5.467
		c3.865-7.937,7.881-16.221,12.066-24.858c0.981-2.023,1.942-4.019,2.887-5.985C221.098,270.926,226.842,274.903,231.222,279.545z
		 M252.663,362.068c-1.569,0.181-3.131,0.343-4.688,0.488c-11.765-9.677-21.903-21.085-30.429-33.095
		c4.496-6.873,9.645-13.668,15.23-20.117c3.226-0.632,6.482-1.256,9.766-1.867c2.503,10.779,4.945,24.486,7.987,41.55
		C251.374,353.763,252.078,358.096,252.663,362.068z M250.893,294.361c-0.26-0.881-0.521-1.737-0.789-2.574
		c2.117-1.873,4.264-3.678,6.428-5.4c4.025-3.205,8.802-6.661,14.155-10.154c2.304,2.898,4.494,5.866,6.543,8.892
		c1.053,1.555,2.078,3.142,3.078,4.762C270.537,291.117,260.67,292.652,250.893,294.361z M231.871,363.523
		c-10.746,0.316-20.986,0.021-30.418-0.341c2.016-7.329,5.344-15.142,9.666-23.035C216.745,347.636,223.646,355.725,231.871,363.523
		z M207.871,314.463c2.449-0.521,4.926-1.045,7.447-1.572c-1.575,2.093-3.102,4.207-4.574,6.334
		C209.76,317.642,208.801,316.052,207.871,314.463z M219.352,257.44c3.316-6.883,6.463-13.291,9.568-19.096
		c11.576,7.548,23.711,17.609,34.313,29.175c-5.188,3.43-9.834,6.81-13.791,9.961c-1.277,1.016-2.549,2.061-3.814,3.131
		c-1.788-3.486-3.795-6.408-6.127-8.879C234.143,266.056,227.272,261.248,219.352,257.44z M234.627,228.363
		c8.074-13.038,16.443-21.516,27.439-23.271c16.631-2.653,35.313,10.115,45.636,23.101c3.461,4.354,5.879,8.931,7.512,13.731
		c-15.128,4.969-29.671,12.056-42.124,19.428C261.225,247.996,247.66,236.716,234.627,228.363z M317.666,253.102
		c1.204,10.405-0.045,21.706-1.625,33.866c-7.6,0.218-15.392,0.75-23.304,1.524c-1.928-3.356-3.957-6.61-6.083-9.75
		c-1.971-2.911-4.042-5.758-6.196-8.532C291.59,263.736,304.38,257.564,317.666,253.102z M252.355,404.832
		c-4.262,3.782-12.238,5.248-21.337,3.921c-12.094-1.764-23.069-7.999-27.96-15.884c-3.119-5.027-4.219-11.312-3.672-18.375
		c13.117,0.515,28.473,0.972,44.943-0.278c3.34,2.583,6.846,5.076,10.522,7.442C256.08,400.17,253.176,404.104,252.355,404.832z
		 M189.881,362.728c-3.992-0.145-7.775-0.248-11.318-0.248c-4.262,0-8.176,0.15-11.689,0.56
		c7.016-12.922,14.594-27.868,22.924-44.745c1.984-0.378,3.781-0.766,5.334-1.101l0.512-0.11c0.129-0.028,0.256-0.055,0.385-0.083
		c2.471,4.379,5.1,8.686,7.869,12.882c-1.416,2.386-2.752,4.773-4.002,7.154C195.146,346.086,191.801,354.712,189.881,362.728z
		 M384.992,241.113c-15.892-7.308-35.823-8.151-58.802-2.377c-2.011-6.078-5.077-11.964-9.578-17.626
		c-12.729-16.011-35.085-30.647-56.339-27.258c-15.241,2.432-25.741,12.891-35.464,28.711c-9.901-5.343-19.124-8.75-26.583-9.807
		c-7.725-1.094-13.824,0.164-18.123,3.743c-7.715,6.419-8.596,19.648-7.668,30.858c-0.201-0.001-0.404-0.002-0.607-0.002
		c-4.629,0-9.311,0.254-14.006,0.773c-3.613,0.4-7.156,0.954-10.623,1.656c11.568-35.098,52.076-58.493,84.738-68.146
		c37.053-10.949,84.033-5.586,116.903,13.343c19.187,11.049,31.363,25.256,35.212,41.085
		C384.459,237.741,384.771,239.422,384.992,241.113z M326.037,298.336c13.057,0.119,25.203,1.357,35.75,4.147
		c-11.071,13.66-24.331,25.39-35.854,33.299c-0.406,0.278-0.814,0.556-1.222,0.829C323.193,323.806,324.436,310.976,326.037,298.336
		z M385.039,254.009c-1.534,13.216-7.651,26.504-15.979,38.722c-12.225-3.855-26.345-5.593-41.532-5.843
		c1.641-12.814,2.887-25.24,1.222-37.057C346.073,245.462,367.822,243.628,385.039,254.009z M412.892,313.42
		c-0.026,5.017-0.449,9.971-1.242,14.799c-5.846-10.569-13.571-19.927-23.3-26.46c-2.635-1.77-5.446-3.359-8.413-4.776
		c7.708-11.822,12.808-23.529,15.22-34.777C406.411,274.201,412.998,293.099,412.892,313.42z M366.818,399.557
		c11.608-3.866,22.825-10.328,32.55-20.534c4.89-5.131,9.138-10.983,12.673-17.37c1.55,7.258,2.316,14.41,2.336,20.924
		c0.04,13.034-3.043,23.569-7.853,26.842c-3.172,2.158-9.087,2.406-16.231,0.68C383.149,408.37,374.944,404.746,366.818,399.557z
		 M333.524,364.794c-2.91-5.346-5.014-10.726-6.488-16.121c1.786-1.122,3.566-2.29,5.338-3.505
		c15.279-10.487,29.727-24.238,40.857-38.738c3.149,1.385,6.085,2.974,8.772,4.779c11.548,7.755,19.838,20.324,25.137,33.971
		c-3.713,9.885-9.137,18.774-16.013,25.991c-10.448,10.964-23.056,16.935-35.922,19.793
		C346.741,383.758,339.023,374.891,333.524,364.794z M315.251,355.379c0.547-0.281,1.094-0.565,1.641-0.854
		c1.621,5.237,3.789,10.484,6.637,15.714c4.648,8.536,10.54,16.145,17.056,22.735c-8.27,0.5-16.35-0.003-23.729-1
		C317.581,380.338,317.049,367.937,315.251,355.379z M298.516,299.493c5.423-0.463,10.783-0.802,16.029-0.992
		c-1.751,14.167-3.011,29.247-0.382,44.573c-0.323,0.18-0.641,0.354-0.964,0.532C309.994,327.964,305.021,313.063,298.516,299.493z
		 M305.591,390.01c-8.039-1.714-14.571-3.765-18.625-5.18c-7.482-2.611-14.552-5.937-21.216-9.835
		c-0.105-1.086-0.222-2.197-0.35-3.347c12.787-2.194,25.942-5.711,39.018-11.22C305.69,370.488,306.104,380.467,305.591,390.01z
		 M158.912,378.206c1.539-4.481,14.672-4.633,29.172-4.148c-0.676,9.596,1.076,18.003,5.301,24.813
		c6.689,10.781,20.479,18.885,35.991,21.147c12.564,1.833,23.692-0.6,30.536-6.672c3.631-3.222,6.853-9.066,6.641-24.929
		c5.26,2.703,10.812,5.119,16.662,7.161c4.585,1.601,12.065,3.934,21.287,5.815c-0.598,4.265-1.404,8.401-2.427,12.374
		c-4.462,17.342-12.536,29.426-23.349,34.944c-24.478,12.494-65.228-7.52-92.731-31.402
		C165.723,399.708,156.91,384.026,158.912,378.206z M93.586,298.06c10.16-17.105,25.043-26.773,39.047-32.226
		c-1.016,13.263,0.068,33.924,14.1,45.647c8.732,7.296,19.709,8.893,29.529,8.483c-10.813,21.733-20.369,40.061-29.115,54.758
		c-17.979,30.21-27.752,36.045-32.795,35.619c-4.826-0.409-12.934-7.112-20.164-21.166C81.545,364.599,76.457,326.895,93.586,298.06
		z"/>
</g>
</svg>
