<?xml version="1.0" encoding="utf-8"?>
<!-- Generator: Adobe Illustrator 15.1.0, SVG Export Plug-In . SVG Version: 6.00 Build 0)  -->
<!DOCTYPE svg PUBLIC "-//W3C//DTD SVG 1.1//EN" "http://www.w3.org/Graphics/SVG/1.1/DTD/svg11.dtd">
<svg version="1.1" id="Ebene_1" xmlns="http://www.w3.org/2000/svg" xmlns:xlink="http://www.w3.org/1999/xlink" x="0px" y="0px"
	 width="566.93px" height="850.39px" viewBox="0 0 566.93 850.39" enable-background="new 0 0 566.93 850.39" xml:space="preserve">
<path fill="none" stroke="#4E5C2B" stroke-width="12" d="M385.338,721.285c49.805-66.4-87.441-150.225-86.951-214.625
	c0.939-122.61,81.678,20.42,115.901-17.547c22.07-24.486-21.074-78.931-45.516-62.117c-56.151,38.619,116.357,64.268,127.255,81.967
	c17.643,28.648-7.211,61.922-30.662,67.311c-26.468,6.078-55.588-21.664-78.62-33.479c-58.135-29.779-99.817-15.24-160.134-6.025
	c-50.434,7.703-89.674-7.838-99.621-72.477c-3.413-22.172-5.505-44.45,7.81-61.538c21.059-27.036,54.456,2.168,31.043,16.559
	c-37.54,23.082-41.174-104.947,7.413-91.026c33.146,9.497,1.606,53.426-13.989,7.51c-12.755-37.555,15.542-64.293,44.203-65.994
	c20.992-1.242,61.18,40.308,32.159,41.496c-26.634,1.093-7.539-34.713,5.464-40.969c44.999-21.65,132.671,110.705,157.551,52.383
	c15.612-36.592-34.823-108.801-63.993-68.833c-12.351,16.924-3.655,39.165,11.559,47.172c30.309,15.957,61.008-37.659,82.949,8.649
	c22.039,46.518-27.981,39.535-48.836,52.644c-40.062,25.185-66.786,81.812-113.304,99.679
	c-37.698,14.475-77.418-29.598-26.814-52.892c34.662-15.959,64.038,34.601,34.378,65.14c-31.63,32.561-76.724-2.656-81.138-44.639
	c-7.302-69.475,45.04-90.547,92.229-85.54c64.989,6.896,89.79,53.082,138.729,92.47c26.566,21.377,72.315,66.326,104.453,47.627
	c32.738-19.047,37.314-81.364,16.716-112.587c-11.39-17.27-45.208-50.053-65.467-44.1c-26.857,7.889-24.277,58.625,4.215,55.688
	c45.948-4.737,15.267-153.958-30.603-158.572c-40.497-4.069-16.13,39.89-10.787,28.685c15.621-32.758-23.032-86.227-46.447-98.058
	c-22.358-11.3-78.217-4.824-85.234,32.067c-4.834,25.363,18.677,37.108,28.835,14.561c24.049-53.383-131.556-112.317-147.325-37.036
	c-9.512,45.456,31.344,26.774,21.081-0.207c-12.431-32.682-63.623-1.634-77.537,13.116c-9.937,10.53-27.132,35.112-29.756,51.027
	c-2.24,13.62-2.585,48.37,15.138,24.369c22.483-30.448-10.112-34.147-28.681-26.796c-29.264,11.591-73.495,79.729-55.345,120.387
	c0.029,0.063,0.055,0.121,0.112,0.249c22.56,50.097,39.722-20.636,9.777-4.574c-71.318,38.258,13.405,167.18,61.531,176.616
	c13.352-82.91-28.937-151.156,26.705-227.457c32.856-45.059,123.561-112.775,168.832-58.184"/>
</svg>
