<?xml version="1.0" encoding="utf-8"?>
<!-- Generator: Adobe Illustrator 15.1.0, SVG Export Plug-In . SVG Version: 6.00 Build 0)  -->
<!DOCTYPE svg PUBLIC "-//W3C//DTD SVG 1.1//EN" "http://www.w3.org/Graphics/SVG/1.1/DTD/svg11.dtd">
<svg version="1.1" id="Ebene_1" xmlns="http://www.w3.org/2000/svg" xmlns:xlink="http://www.w3.org/1999/xlink" x="0px" y="0px"
	 width="566.93px" height="850.39px" viewBox="0 0 566.93 850.39" enable-background="new 0 0 566.93 850.39" xml:space="preserve">
<path fill-rule="evenodd" clip-rule="evenodd" fill="#AB6B40" d="M496.827,297.138c-20.616-18.123-30.673,19.802-35.431,2.753
	c10.575-34.122,9.576-61.23,10.895-89.799c-11.314-22.156-30.369,6.682-38.126-9.51c5.49-21.778,7.312-41.429-17.669-44.904
	c-12.105,10.736-20.087,28.25-32.636,38.134c1.259-13.115,2.796-26.398-16.394-27.238
	c-59.254,52.861-69.276,187.678-137.293,225.972c0.285-46.537,12.759-100.309-35.096-117.907
	c-6.69,4.705-11.602,10.887-14.177,19.285c-2.317,46.381-30.765,86.479-35.079,135.384c-4.784,54.662,37.94,90.158,35.439,136.016
	c-2.25,41.359-40.551,67.959-27.138,108.838c22.126-24.787,36.187-62.881,44.866-110.23c-2.763-37.195-39.813-79.711-36.866-130.557
	c2.786-46.318,30.487-97.988,35.296-141.494c39.082,32.04,1.579,110.138,32.778,146.912c0.757-0.877,1.159-2.258,1.873-3.211
	c4.961-14.887,11.188-28.921,20.354-40.992l0.856-1.976c0.563-0.329,0.891-0.967,1.394-1.306c2.871-3.437,6.479-6.273,9.973-9.263
	c21.773-21.539,33.038-55.958,48.508-90.228c17.1-38.096,30.362-83.143,59.758-100.736
	c-17.568,68.306-42.599,124.194-59.766,193.285c33.962-9.963,34.608-64.377,47.628-98.013
	c17.762-46.054,37.807-87.831,62.477-111.64c4.322,80.339-67.421,171.863-54.292,240.951
	c33.148-57.781,37.496-163.659,88.313-191.973c-3.861,75.87-39.998,143.488-55.67,223.176
	c44.287-16.165,36.968-118.279,84.318-129.292c-22.63,83.554-57.172,172.581-89.632,220.513
	c-21.177,31.123-49.684,39.902-76.209,73.48c-16.107,20.404-62.317,103.162-29.857,119.74
	c9.142-72.314,59.362-117.475,88.363-145.578C429.599,536.195,496.373,385.426,496.827,297.138z"/>
</svg>
