<?xml version="1.0" encoding="utf-8"?>
<!-- Generator: Adobe Illustrator 15.1.0, SVG Export Plug-In . SVG Version: 6.00 Build 0)  -->
<!DOCTYPE svg PUBLIC "-//W3C//DTD SVG 1.1//EN" "http://www.w3.org/Graphics/SVG/1.1/DTD/svg11.dtd">
<svg version="1.1" id="Ebene_1" xmlns="http://www.w3.org/2000/svg" xmlns:xlink="http://www.w3.org/1999/xlink" x="0px" y="0px"
	 width="5669.29px" height="2834.65px" viewBox="0 0 5669.29 2834.65" enable-background="new 0 0 5669.29 2834.65"
	 xml:space="preserve">
<g opacity="0.73">
	<path fill="#D5AA84" d="M5677.794,2843.154V-8.504H3344.653c685.964,227.24,993.069,588.463,1558.3,1380.079
		c585.624,820.497,202.755,847.97,586.387,1365.688c26.533,35.81,54.654,71.137,83.984,105.892H5677.794z"/>
	<g>
		<g>
			<g>
				<path fill="#FFFFFF" d="M4471.972-0.89c-42.904,1.134-137.068,1.59-135.231-0.342c-1.837,1.932-1.837,1.932-66.016,3.311
					c1.363-1.289-56.297-0.938-92.861-0.833c30.223,0.923,71.765,1.076,154.906,1.387c75.794-2.789,233.189,1.434,304.182-1.614
					C4585.514,0.342,4535.32-1.623,4471.972-0.89z"/>
				<path fill="#FFFFFF" d="M4131.285-9.354l-11.199,0.768l131.557-1.208C4224.976-9.167,4135.492-8.447,4131.285-9.354z"/>
				<path fill="#D5AA84" d="M3706.687-7.298c11.853-1.41-55.053-2.225-53.749-3.516c2.43,2.838-104.891,0.579-162.609,0.933
					l-23.171,2.175c55.941,1.582,197.336,0.896,317.101,1.101L3706.687-7.298z"/>
				<path fill="#FFFFFF" d="M3598.833-8.912l-37.867,1.394C3592.552-7.887,3665.738-8.098,3598.833-8.912z"/>
				<path fill="#FFFFFF" d="M3679.724-1.254c93.631,0.187-56.416-0.938,37.867-1.396C3685.945-2.282,3649.382-2.178,3679.724-1.254z
					"/>
				<path fill="#D5AA84" d="M3399.432,7.165c-17.933-6.212-35.926-12.239-53.967-18.119l-0.812,5.03l142.356-0.739l-82.432-0.953
					l-59.925,1.02l0.601-3.72C3363.36-4.649,3381.425,1.165,3399.432,7.165z"/>
				<path fill="#D5AA84" d="M3408.161,15.185c-24.468-8.775-63.008-22.61-27.547-11.314l87.025,32.093
					c26.45,9.9,52.231,19.878,82.486,33.437c-19.539-7.99-39.18-15.724-58.909-23.216c3.699,2.408,34.601,14.099,63.729,26.226
					c29.159,12.047,56.535,24.476,54.353,25.255c19.703,8.391,25.88,10.885,25.743,10.371c-0.143-0.499-6.638-3.914-12.444-6.928
					c-5.803-3.02-10.907-5.66-8.187-4.752c2.706,0.938,13.299,5.29,38.577,16.96c-47.454-22.476-89.308-40.695-129.528-57.331
					c-40.235-16.598-78.863-31.57-120.302-46.545l29.937,11.393c9.623,3.657,20.475,7.776,37.186,14.449
					c-36.093-13.784-80.416-29.306-125.594-43.884l-0.032,0.201l87.304-0.489c-24.251-1.277-53.89-1.062-87.304-0.977l-0.429,2.655
					C3364.365-0.594,3385.874,6.75,3408.161,15.185z"/>
				<path fill="#D5AA84" d="M3699.555,140.358c15.009,7.738,31.956,16.704,49.104,26.075c17.151,9.365,34.502,19.135,50.422,28.293
					c31.859,18.286,57.951,34.195,66.229,38.025c-29.595-19.841-47.726-30.432-61.786-38.241
					c-14.093-7.766-24.193-12.663-38.469-20.076c-8.862-5.203-28.104-15.908-42.175-23.577c-14.058-7.693-22.832-12.571-10.35-6.836
					c4.295,2.532-5.592-2.128-13.255-5.488C3691.609,135.175,3686.207,133.043,3699.555,140.358z"/>
				<path fill="#D5AA84" d="M3926.661,276.731c13.901,8.756,27.692,17.702,41.385,26.813c-8.601-6.137-17.25-12.205-25.948-18.2
					l-2.111-3.381c-2.416-1.459-8.862-5.049-21.705-12.974c-12.861-7.899-32.088-20.17-60.563-38.314
					c14.532,9.907,24.427,16.31,34.398,22.743C3902.079,259.86,3912.12,266.334,3926.661,276.731z"/>
				<path fill="#D5AA84" d="M3946.161,277.325l48.415,35.934c15.305,11.391,31.304,23.301,52.134,39.597
					c-14.37-11.465-30.398-23.959-46.762-36.283c-16.358-12.332-33.047-24.497-48.604-35.473
					c-31.102-21.976-57.693-39.138-67.16-44.759l5.042,2.833c-0.008,0.013-14.591-9.298-34.671-21.309
					c-20.059-12.047-45.695-26.639-67.242-38.083c16.427,8.97,35.778,20.238,55.137,32.11c19.369,11.854,38.729,24.331,55.42,35.345
					c16.692,11.012,30.727,20.549,39.607,26.326C3946.354,279.343,3950.119,281.312,3946.161,277.325z"/>
				<path fill="#D5AA84" d="M3868.141,224.773c15.317,9.256,30.515,18.723,45.586,28.396
					C3898.655,243.496,3883.458,234.029,3868.141,224.773z"/>
				<path fill="#D5AA84" d="M4092.232,404.038c-26.029-22.579-52.594-44.545-79.695-65.839c6.529,5.334,13.022,10.712,19.484,16.124
					C4052.396,370.521,4072.463,387.106,4092.232,404.038z"/>
				<path fill="#D5AA84" d="M4000.071,321.318c16.507,12.656,22.46,17.323,23.245,17.731c0.775,0.419-3.678-3.343-8.271-7.183
					c-4.591-3.842-9.327-7.752-9.017-7.741c0.297,0.029,5.699,3.905,21.113,15.985c8.397,6.488-14.09-11.441-40.02-30.523
					c-12.955-9.554-26.756-19.406-37.725-26.974c-10.958-7.58-19.064-12.899-20.5-13.591c8.297,5.966,24.791,17.158,39.775,27.936
					C3983.678,307.707,3997.191,317.993,4000.071,321.318z"/>
				<path fill="#D5AA84" d="M4142.745,448.795c21.36,18.66,42.398,37.706,63.122,57.1
					C4185.144,486.501,4164.105,467.455,4142.745,448.795z"/>
				<path fill="#D5AA84" d="M4293.412,598.774l12.296,11.442c27.743,30.443,60.183,66.361,89.959,100.893
					c29.808,34.502,57.013,67.549,75.053,91.504c-3.921-5.899,2.089,0.257,3.367,0.857c1.258,0.616-2.099-4.426-25.116-32.449
					c-7.777-8.173-24.496-28.015-22.482-24.208c-19.835-23.795-14.965-19.622-28.105-35.517
					c-17.874-19.754-40.353-45.188-62.338-69.303c-21.962-24.136-43.443-46.937-58.637-61.988
					c14.648,14.999,17.888,18.867,28.3,30.21c-31.642-32.431-49.778-51.873-63.608-66.687
					c-13.86-14.774-23.477-24.849-38.898-37.525c11.891,10.828,27.207,26.36,43.123,43.049
					C4262.254,565.731,4278.775,583.571,4293.412,598.774z"/>
				<path fill="#D5AA84" d="M4294.01,587.943c-16.584-17.751-33.385-35.304-50.405-52.649c8.521,7.477,24.139,23.333,38.588,38.452
					c14.471,15.1,27.803,29.432,32.382,33.324c-1.162-1.919-14.029-16.229-24.422-27.56c-10.377-11.342-18.193-19.782-8.732-10.412
					c-4.352-1.961-21.662-19.833-35.18-33.272c-13.506-13.452-23.035-22.618-11.06-7.89c-16.794-16.59-26.542-26.104-32.675-32.289
					c-6.141-6.177-8.693-8.998-11.352-11.937c-2.659-2.939-5.43-5.991-12.088-12.553c-6.672-6.546-17.206-16.633-35.709-33.29
					c-7.383-5.802-14.797-11.558-22.244-17.266c20.936,18.136,37.177,32.936,51.141,45.972
					c13.953,13.047,25.625,24.339,37.21,35.718c11.575,11.389,23.067,22.863,36.506,36.441
					C4259.402,552.315,4274.801,567.985,4294.01,587.943z"/>
				<path fill="#D5AA84" d="M4478.775,799.837l21.397,28.152l-10.759-15.936c25.664,31.399,47.994,60.099,68.057,86.622
					c20.059,26.526,37.848,50.88,54.324,73.704c32.942,45.657,60.672,85.157,90.238,124.201
					c37.33,48.449,71.895,96.284,106.236,144.641c34.322,48.369,68.492,97.233,104.77,147.944
					c9.066,12.198,11.506,15.31,10.08,12.98c-1.432-2.326-6.759-10.071-13.354-19.49c-13.205-18.827-31.438-44.386-32.914-47.227
					c12.482,12.569,33.322,49.016,51.433,70.904c3.136,2.662-14.708-23.873-37.456-56.329
					c-22.678-32.508-50.014-71.141-65.194-93.224c-27.554-37.641-27.689-36.665-36.983-47.494
					c-5.982-10.23-33.645-48.745-39.742-58.976c-29.398-38.719-51.162-68.664-72.941-98.359
					c-21.798-29.679-43.587-59.131-73.42-96.515c-8.478-12.293,2.523,1.837,13.191,15.934c10.672,14.093,21.01,28.149,11.522,15.476
					c-10.546-13.831-21.136-27.629-31.769-41.394l3.163,4.524c-22.276-27.635-53.37-67.444-82.79-104.568
					c-29.379-37.156-57.111-71.605-71.418-89.459c11.287,13.88,20.609,25.877,23.707,30.348c3.09,4.476,0.008,1.385-13.707-14.742
					c-6.93-9.278-13.893-18.533-20.893-27.763c-20.344-22.706-40.906-45.208-61.732-67.452
					c23.716,25.499,47.742,54.206,67.119,77.66C4458.333,777.442,4473.137,795.603,4478.775,799.837z"/>
				<path fill="#D5AA84" d="M4416.439,720.252c-17.51-20.8-26.002-30.365-29.927-34.568c-3.937-4.194-3.347-2.996-2.974-2.045
					c0.373,0.951,0.526,1.657-4.289-3.508c-4.836-5.148-14.586-16.214-34.41-38.475c28.127,31.005,55.702,62.5,82.825,94.372
					L4416.439,720.252z"/>
				<path fill="#FFFFFF" d="M4733.299,1132.354l30.733,44.051C4748.919,1151.257,4696.016,1085.317,4733.299,1132.354z"/>
				<polygon fill="#FFFFFF" points="4849.798,1292.695 4831.278,1270.976 4861.902,1311.291 				"/>
				<path fill="#D5AA84" d="M4951.987,1441.892c23.612,32.683-2.417-7.896-29.567-45.927
					C4946.537,1430.467,4957.945,1449.308,4951.987,1441.892z"/>
				<path fill="#FFFFFF" d="M5104.734,1697.167c-10.886-19.929-14.098-25.376-13.041-23.362c1.035,2.025,6.218,11.578,11.617,21.916
					c5.41,10.332,11.021,21.457,13.252,26.455c2.22,5.004,1.172,3.822-6.959-10.313c3.241,4.963,10.478,17.475,12.682,20.658
					c1.108,1.589,0.982,0.832-1.521-4.38C5118.252,1722.936,5113.38,1713.265,5104.734,1697.167z"/>
				<path fill="#D5AA84" d="M5216.959,1967.568l-11.406-33.907c-2.516-7.549-3.797-11.789-4.279-13.96
					C5209.32,1941.995,5214.965,1960.067,5216.959,1967.568z"/>
				<path fill="#D5AA84" d="M4630.33,1003.792l-19.296-25.441L4630.33,1003.792z"/>
				<path fill="#D5AA84" d="M4642.882,1020.444l-12.552-16.652L4642.882,1020.444z"/>
				<polygon fill="#D5AA84" points="5029.211,1574.465 5029.053,1574.216 5025.494,1568.076 				"/>
				<path fill="#D5AA84" d="M3866.334-10.421c17.659-0.122,31.348-0.162,42.312-0.143l-41.838,0.159L3866.334-10.421z"/>
				<path fill="#D5AA84" d="M3915.342-7.169c-74.728,1.5-79.883-3.526-201.07-2.446l152.536-0.789
					C3936.142-8.066,3813.118-9.162,3915.342-7.169z"/>
				<path fill="#D5AA84" d="M3750.627,160.203l3.733,1.961C3760.848,165.647,3757.49,163.865,3750.627,160.203z"/>
				<polygon fill="#FFFFFF" points="5678.913,1516.973 5679.56,1517.684 5678.74,1584.529 				"/>
				<path fill="#FFFFFF" d="M5680.079,1507.728l1.232-113.483l0.372,672.72l-0.891-21.807
					C5679.627,2054.461,5681.123,1487.935,5680.079,1507.728z"/>
				<path fill="#FFFFFF" d="M5679.066,1475.372c-2.665-65.305,0.972-108.506-0.914-188.625c1.26,53.452,2.653,91.379,1.975,142.935
					L5679.066,1475.372z"/>
				<path fill="none" stroke="#D5AA84" stroke-width="0" stroke-linecap="round" stroke-linejoin="round" d="M5673.923,1251.072
					c0.537-35.971-0.597-78.875-0.195-99.201C5675.78,1164.375,5674.199,1220.198,5673.923,1251.072z"/>
				<path fill="#D5AA84" d="M5666.119,1154.419c-0.04-5.63-0.038-11.141-0.018-16.652l0.384,17.067L5666.119,1154.419z"/>
				<path fill="#D5AA84" d="M5666.485,1154.834l0.922,0.948C5667.049,1167.516,5666.76,1164.256,5666.485,1154.834z"/>
				<path fill="#D5AA84" d="M5666.102,1137.767c-0.296-14.874-0.6-32.474-0.979-41.601l-0.138,15.467
					c-0.245-21.156-0.994-58.431-0.472-68.386c-0.156,41.601,0.488,42.252,1.777,43.497l0.17-67.557
					C5669.527,1031.928,5666.297,1077.618,5666.102,1137.767z"/>
				<path fill="none" stroke="#D5AA84" stroke-width="0" stroke-linecap="round" stroke-linejoin="round" d="M5665.359,924.312
					l1.762,69.512C5665.434,1012.965,5665.346,950.268,5665.359,924.312z"/>
				<path fill="#D5AA84" d="M5667.356,821.97c0.507,16.178,0.336,83.794,1.136,42.845c0.346,11.082,0.273,24.178,0.266,38.045
					C5668.339,857.17,5666.271,900.134,5667.356,821.97z"/>
				<path fill="#D5AA84" d="M5668.758,902.86c0.05,5.452,0.09,11.497,0.088,19.615
					C5668.766,915.897,5668.755,909.26,5668.758,902.86z"/>
				<path fill="none" stroke="#D5AA84" stroke-width="0" stroke-linecap="round" stroke-linejoin="round" d="M5676.394,1629.093
					c0.239-8.415,0.46-8.119,0.672-4.444L5676.394,1629.093z"/>
				<polygon fill="#D5AA84" points="5669.25,683.064 5669.266,657.049 5669.352,678.027 				"/>
				<path fill="#D5AA84" d="M5685.562,2843.154c0.534-90.846,1.11-177.01-0.044-308.152c-2.198,3.021-0.616-52.742-2.93-60.387
					c0.301,135.943-1.377-512.007-2.347-403.561l1.013,32.475l-2.299-33.72c0.58-65.127,2.414-154.254,1.093-198.521
					c0.721-12.147,0.126,555.268,0.777,533.815c-2.656,50.253-2.571-759.596-3.76-780.455l1.399-9.008
					c-1.484-100.684-3.506-165.276-4.484-249.841l1.688-19.141c-0.555,62.045,0.596,78.935,1.328,142.284
					c-0.316-109.75,0.728-129.661,0.392-213.396c-2.191,2.963-1.074,71.882-2.299-33.601c0.922-30.4,3.326,39.764,2.87-54.52
					c0.588-114.076-2.65-91.261-2.846-190.64l-0.816,66.964c-0.105-36.623-0.579-104.95,0.604-140.209
					c-0.156,41.542,1.068,147.143,3.264,144.121c-0.491-42.134,0.341-135.172,0.235-171.854l1.532,22.4
					c1.443-40.178-0.733-63.29,0.588-114.076c-0.872-47.882-2.211,29.038-2.838,2.311c0.521-9.896,1.352-102.875,0.342-135.172
					c-3.236,22.696,0.962,110.401-2.17,169.78l0.571-88.061c-3.19-55.349,0.042,140.861-2.519,112.238
					c-3.311-66.075,3.18-137.72-1.037-199.173c-0.798,40.771-0.879,171.084-2.031,154.373c1.196-45.986-1.074-78.935-1.486-142.402
					l1.496-76.742c-1.012-32.416-1.028-6.282-1.687,19.141c1.872-112.832-0.325-302.819,1.966-462.17
					c-0.458-94.342-1.412-11.852-2.545-54.756c0.582-14.897,0.85-32.86,0.938-52.117l0.016-29.636l-0.061-15.06l-0.09-6.782
					l-4.625,0.071l-2.305,0.037l-5.041,0.037l-19.619,0.142c-12.732,0.086-24.675,0.148-35.259,0.142
					c-15.526-0.14-43.615,1.776-28.741,2.56l52-0.477l26-0.239l6.499-0.06l3.25-0.03l1.191-0.015l0.5-0.015l4.115-0.119l0.126,4.331
					l0.127,12.784c-1.028-6.341-2.716,12.918-2.49,59.971c3.762-32.593-2.306,185.425,1.944,194.966l-1.935-1.896l1.314,168.239
					l0.26-4.978c-0.642-0.652,1.33,142.224,0.497,235.203c-0.627-26.726,0.117-182.343-2.005-90.727
					c-1.116-68.919,0.636-192.299-0.188-318.167l-1.308,24.593c-0.604-43.318-0.751-91.205-0.688-141.165l0.217-76.181l0.168-38.671
					l0.088-19.378l0.021-4.162l0.021-0.312l0.043-0.664l-0.667-0.044l-0.378-0.021l-5.084-0.021l-20.281-0.079l-40.188-0.122
					c-26.581-0.06-52.679-0.072-77.928,0.001l43.496-1.778c-51.496-0.678-117.75-2.138-166.225-0.619
					c62.639-0.09,30.4,0.922,19.142,1.688c-84.505,0.979-208.536-0.131-324.034,0.57c0,0,5.629-0.383,0.711-0.646l-121.01,1.088
					c-57.186-0.293-76.859-1.338-112.119-2.52c-21.156,0.244-73.424,0.211-53.512,1.257c11.259,0.1,22.518,0.197,29.926,0.095
					c-61.156,1.95-42.785-0.571-119.35,0.62c59.141-1.638-18.43-2.334-11.438-4.006c-89.541,0.72-8.297,2.962-19.496,3.729
					c-108.684-0.968-122.669-2.396-231.885-2.724c-6.282,1.028,77.453,0.695,86.697,1.858c-31.053-0.276-67.557-0.171-73.187,0.213
					l66.964,0.815c-113.482-1.23-222.699-1.557-348.746-0.732l9.896,0.521l-78.164-0.05l28.09-1.917
					c-42.135,0.49-87.409-1.215-109.928,0.319l15.526,0.138l-52.801,0.61l54.282-1.897c-67.082-0.817-159.766,3.121-268.923,2.797
					c-23.526-2.594,188.507-0.912,202.492-4.258c-36.03-0.537-97.897-1.093-119.824-0.203c4.386,0.905,30.4,0.922,56.534,0.938
					c-95.646,1.743-238.818-1.052-299.264,1.875l71.883,1.075c-83.676,0.336-137.483-3.18-165.572-1.263l65.956-3.311
					c-77.028,1.47-173.846,1.34-250.506,2.225l3.286-20.372l22.186,7.114c0.75-0.345-8.512-3.753-21.821-8.213l-3.65,22.629
					c33.228,0.113,89.92-0.79,86-0.52l-37.927,1.394l-48.073-0.499l3.769-23.359c24.727,8.59,27.873,9.967,39.519,14.238
					l27.499,10.126c13.742,5.095,33.313,12.34,62.211,23.688l1.741-0.712c11.571,4.979,28.146,11.625,45.679,18.738
					c17.534,7.109,36.017,14.709,51.505,21.29c15.489,6.577,27.993,12.11,33.657,14.856c5.659,2.758,4.508,2.653-7.405-1.768
					c-12.345-5.826-24.735-11.561-37.181-17.173l2.616,2.804c53.418,22.59,106.051,47.14,157.593,73.875
					c-7.786-3.422,7.014,4.511,21.039,12.408c14.038,7.877,27.308,15.692,17.116,10.88c18.934,9.975,37.718,20.252,56.341,30.832
					c11.943,8.498-13.56-6.333-43.438-22.497c-14.935-8.092-30.955-16.534-43.713-22.965c-12.748-6.45-22.212-10.93-23.918-11.348
					c0.771,0.968,7.87,4.885,16.384,9.471l24.961,13.337c-34.282-17.741-59.704-31.227-85.189-44.547
					c-25.508-13.259-51.093-26.342-86.253-41.754c-11.859-4.667-23.748-9.245-35.671-13.721l2.662-0.976
					c-29.467-11.959-55.45-20.719-66.188-24.047c-40.276-17.189-83.438-32.344-133.735-48.491l-1.6,9.917
					c38.552-0.374,80.92-0.796,129.142-0.547c-94.876,1.102,60.682,1.844,44.504,2.349c52.09,0.032,180.861-3.368,225.307-1.018
					c30.4,0.922-63.882,1.379,8.652,1.809c47.171-0.229,79.586-1.239,49.127-2.16c104.949-0.579,229.633-0.117,344.359-0.172
					l-27.377,1.272c71.882,1.074,141.572-0.685,179.439-2.08c9.896,0.521,15.525,0.141,4.385,0.902
					c91.616,2.124,117.395-2.63,268.033-2.148c-8.533-1.812-76.148-1.982-123.854-1.109l12.445-2.056
					c-130.313-0.079-276.745,0.344-382.287,1.565l48.533-1.516c-91.142-2.765-65.423,2.664-150.876-0.482
					c-63.408,0.735,45.868,1.062-1.955,1.934c-44.86-0.591,11.496-3.56-63.586-3.689c281.841-1.034,602.734-0.87,897.85-1.204
					c5.63-0.382-9.956-0.52-25.363-0.66c43.872-1.194,221.153-0.49,410.909,0.266l278.871,0.944l118.108,0.07l48.763-0.142
					l43.084-0.288l0.127,12.921l0.146,10.621c0.103,6.079,0.219,11.391,0.348,15.875c0.258,8.969,0.57,14.623,0.945,16.459
					c-0.786,14.756-1.658-33.008-1.567,29.63c0.384,5.689,0.89,21.749,1.671,6.993c-2.934,158.64,0.156,370.435-1.769,561.371
					c0.904-4.267,1.396,37.927,2.039,38.638c-2.105,65.542,0.145,177.366-1.052,238.759l1.045-19.852l0.007,193.07
					c0.384,5.688,0.398-20.504,0.538-35.971c0.49,42.134-0.678,51.497-1.58,55.645l2.262,85.868
					c-3.762,251.618,2.1,565.342-0.275,854.945c1.777,43.497,2.529,80.771,2.74,154.076l0.539-35.971
					c1.501,74.55-0.904,4.326-0.171,67.676c1.134,42.963,2.699,13.096,1.702-45.275c0.608-36.504,1.229-13.985,1.663,12.148
					C5690.041,2438.467,5688.838,2654.885,5685.562,2843.154z"/>
				<path fill="#D5AA84" d="M5467.327,2731.867c-7.115-10.556,7.714,9.776,20.399,26.029c6.328,8.14,12.063,15.305,13.95,17.322
					c1.896,2.013-0.13-1.065-9.077-13.585c-28.818-39.515-61.351-85.873-92.706-138.317c-15.655-26.223-30.966-53.987-45.097-83.161
					c-14.135-29.163-27.048-59.761-37.963-91.389c-10.947-31.614-19.818-64.249-26.711-97.065
					c-6.935-32.819-11.949-65.77-16.334-98.082c-4.379-32.322-8.244-64.022-12.684-94.624c-4.408-30.604-9.389-60.117-15.092-88.134
					c-2.882-14.968-5.521-27.136-7.984-37.813c-2.469-10.677-4.765-19.864-7.127-28.841c-4.768-17.941-9.635-35.09-18.084-61.291
					c-0.619-0.91-1.016-0.899-0.476,1.717c-4.96-14.783-11.033-31.733-17.96-49.648c-6.916-17.918-14.691-36.798-22.844-55.517
					c-16.27-37.458-34.173-74.193-48.129-102.106c-4.242-7.812-8.231-14.42-9.122-15.343c-0.903-0.916,1.365,3.81,9.304,18.835
					c-22.264-41.89-41.863-77.853-59.404-109.076c-17.565-31.205-33.115-57.637-47.896-79.981
					c11.912,19.784,5.507,10.224-0.281,1.62c-5.821-8.585-10.977-16.243,3.449,7.283c-13.297-21.059-22.931-36.408-30.43-48.716
					c-7.508-12.303-12.902-21.548-17.938-30.255c-10.107-17.391-18.675-32.7-40.943-65.284c-2.998-3.613-6.082-7.378,2.91,5.764
					c-11.818-17.999-27.395-40.376-44.254-63.959c-16.824-23.602-34.783-48.46-51.353-71.365
					c-33.129-45.818-60.739-83.793-62.125-88.647l-21.665-27.245c-10.717-15.614-14.542-21.626-20.301-30.133
					c-5.765-8.502-13.447-19.512-32.041-45.004c-24.959-32.685-0.077,2.049-9.477-9.716c-4.612-7.385-23.5-33.118-44.986-62.033
					c-21.471-28.927-45.592-60.993-60.174-81.439c-0.024-1.817,13.093,16.304,30.047,39.777
					c16.97,23.463,37.732,52.306,53.444,71.667c1.306,1.021-2.918-4.847-8.999-13.027c39.145,52.36,75.193,102.17,109.322,150.064
					c34.123,47.898,66.316,93.889,97.604,138.742c15.619,22.439,31.111,44.545,46.282,66.556
					c15.171,22.023,30.052,43.984,44.733,66.001c29.352,44.044,57.918,88.308,86.137,133.941
					c23.188,41.119,42.168,71.954,53.639,89.617c-4.523-8.564-11.235-21.048-18.969-34.888
					c-7.727-13.843-16.475-29.041-24.89-43.124c-16.815-28.178-32.297-51.875-34.277-52.161
					c-11.369-19.29-22.952-38.466-34.722-57.535c-14.193-21.202-11.344-22.397-17.057-31.84
					c13.104,19.753,27.508,40.528,34.389,49.608c3.445,4.536,5.029,6.133,3.646,3.192c-1.39-2.936-5.736-10.417-14.299-23.94
					c17.215,26.047,23.877,37.334,25.451,40.842c1.554,3.522-2.063-0.672-5.922-5.229c-3.857-4.56-7.962-9.481-7.308-7.494
					c0.636,1.999,6.119,10.843,20.995,34.107l10.414,12.495c-6.047-8.557,3.447,7.541,16.507,29.739l20.801,35.541l17.761,30.46
					l-6.932-13.096c18.13,31.963,36.338,65.65,54.002,100.97c17.66,35.317,34.777,72.272,50.57,110.741
					c15.793,38.464,30.232,78.458,42.504,119.708c12.305,41.238,22.324,83.736,30.142,126.887
					c7.903,43.144,13.547,86.913,19.521,130.558c3.008,21.82,6.154,43.609,9.859,65.251c3.699,21.641,7.971,43.13,13.066,64.323
					c5.088,21.193,11.003,42.087,17.762,62.551c6.756,20.467,14.346,40.504,22.635,60.042
					c16.579,39.087,35.911,76.153,56.534,111.184c8.194,16.508,19.536,36.084,32.99,56.91c13.438,20.838,28.981,42.921,45.22,64.736
					c16.235,21.82,33.148,43.388,49.166,63.397l23.131,28.722l10.655,13.223l10.323,12.905l5.639,0.174l5.174,0.199
					c3.231,0.141,6.342,0.299,9.321,0.476c35.794-0.74-50.964-1.953,17.719-2.622c34.371-0.334,37.452,1.105,35.911,1.512
					l31.468-0.437c8.948,1.906,7.03,3.737-9.224,5.465c-8.128,0.864-19.84,1.702-35.568,2.51
					c-7.865,0.403-16.734,0.801-26.662,1.189l-15.693,0.577l-8.455,0.284l-2.477,0.07l-3.811,0.07l-7.815,0.14l-7.87-9.012
					l-5.564-6.313l-10.701-12.254c-7.34-8.484-15.091-17.606-23.238-27.412C5504.428,2779.787,5486.547,2757.433,5467.327,2731.867z
					"/>
			</g>
		</g>
	</g>
</g>
<g opacity="0.73">
	<path fill="#D5AA84" d="M5677.794,2667.705v-295.644V-8.504H4575.109c84.791,323.656,107.883,698.792,124.098,1215.561
		c31.43,1007.563-302.238,817.809-270.668,1461.399c2.824,57.634,8.289,116.069,15.882,174.698h1233.373V2667.705z"/>
	<g>
		<g>
			<g>
				<path fill="#FFFFFF" d="M4727.813-0.89c-38.344,1.134-122.5,1.59-120.857-0.342c-0.664,0.78-1.059,1.246-5.076,1.613
					c-1.004,0.092-2.234,0.178-3.752,0.262l-2.5,0.123l-0.697,0.031c-0.147,0.005-0.189,0.01-0.229,0.015l-0.143,0.015l-0.594,0.061
					l-6.059,0.537l1.395,4.175l0.754,2.256l2.051,7.383c-0.779-0.435,2.086,11.868,5.92,28.308
					c3.848,16.437,8.601,37.028,12.078,53.054c-2.07-11.533-4.736-24.883-8.553-42.167c-1.912-8.641-4.113-18.265-6.705-29.13
					l-5.521-22.783l3.808,0.05l10.274,0.062c67.737-2.789,208.402,1.434,271.85-1.614C4829.285,0.342,4784.428-1.623,4727.813-0.89z
					"/>
				<path fill="#FFFFFF" d="M4608.154,139.579l2.683,9.672c-7.887-38.39-16.575-76.608-26.183-114.584
					c3.129,11.495,9.388,36.677,14.458,59.561C4604.223,117.103,4608.23,137.649,4608.154,139.579z"/>
				<path fill="#D5AA84" d="M4662.967,514.913c-1.205-5.207-0.582,7.092,0.1,20.563c0.687,13.471,1.417,28.115,0.723,27.59
					c1.316-1.204,3.51,22.128,5.682,52.201c2.191,30.072,4.301,66.882,6.143,92.604l3.494,20.525
					c-0.779-25-3.418-69.025-7.398-120.105c-3.956-51.082-9.353-109.206-15.055-162.44
					C4658.921,468.858,4661.018,491.88,4662.967,514.913z"/>
				<path fill="#FFFFFF" d="M4669.649,611.09l3.954,33.64C4671.229,616.594,4665.642,551.427,4669.649,611.09z"/>
				<path fill="#FFFFFF" d="M4671.207,538.369c-7.576-83.44,3.787,50.343-4.542-33.605
					C4669.764,532.908,4672.682,565.494,4671.207,538.369z"/>
				<path fill="#D5AA84" d="M4689.935,888.382c-3.161-59.282-6.726-118.543-10.916-177.762c1.274,24.531,2.442,49.065,3.517,73.602
					C4685.17,818.928,4687.621,853.65,4689.935,888.382z"/>
				<path fill="#D5AA84" d="M4685.752,898.335c-1.061-23.221-2.104-59.809,0.297-26.629c1.344,63.714,5.403,103.083,6.236,162.36
					l-2.979-56.538c-0.742,3.9,0.932,33.404,2.279,61.585c1.358,28.181,2.41,55.038,0.75,53.612
					c4.931,76.505,0.736-58.214,5.779,41.133c-3.771-93.724-5.797-162.971-8.904-241.625c0.403,22.782,0.961,32.088,1.805,64.232
					c-2.451-55.931-7.051-131.325-11.171-196.598C4679.865,795.354,4684.393,843.472,4685.752,898.335z"/>
				<path fill="#D5AA84" d="M4696.182,1181.984l1.427,49.708l1.218,51.689c0.727,32.838,1.232,60.153,2.416,68.236
					c0.971-31.828,0.652-50.574,0.061-64.939c-0.616-14.367-1.561-24.361-2.377-38.72c0.091-18.375-1.729-78.723,0.332-54.256
					C4699.021,1202.61,4696.229,1154.748,4696.182,1181.984z"/>
				<path fill="#D5AA84" d="M4697.663,1419.018c0.362,14.688,0.623,29.385,0.769,44.087c0.247-9.44,0.447-18.882,0.604-28.323
					l1.642-3.237c-0.126-2.521-0.724-9.097-1.166-22.583c-0.452-13.488-0.732-33.882-0.565-64.075
					c-0.632,15.717-0.681,26.258-0.675,36.87C4698.265,1392.366,4698.318,1403.048,4697.663,1419.018z"/>
				<path fill="#D5AA84" d="M4707.961,1433.875c-1.137,20.499-1.889,36.74-2.596,53.761c-0.723,17.019-1.377,34.817-2.728,58.403
					c2.249-32.767,4.171-72.474,5.065-106.447c0.938-33.973,0.998-62.203,0.643-72.023l0.334,5.151
					c-0.006,0-0.094-15.436-0.563-36.308c-0.454-20.873-1.35-47.177-2.499-68.926c0.669,16.693,1.047,36.672,1.167,56.938
					c0.126,20.268-0.013,40.822-0.2,58.672C4706.211,1418.795,4705.693,1443.686,4707.961,1433.875z"/>
				<path fill="#D5AA84" d="M4709.498,1349.954c0.361,15.962,0.609,31.93,0.748,47.905
					C4710.107,1381.884,4709.859,1365.916,4709.498,1349.954z"/>
				<path fill="#D5AA84" d="M4687.252,1605.465c3.236-30.622,5.799-61.323,7.811-92.064c-0.652,7.509-1.342,15.014-2.063,22.514
					C4691.434,1559.127,4689.536,1582.315,4687.252,1605.465z"/>
				<path fill="#D5AA84" d="M4701.846,1495.726c-1.037,18.552-1.429,25.298-1.321,26.083c0.097,0.783,0.638-4.397,1.17-9.719
					c0.534-5.321,1.062-10.783,1.226-10.548c0.154,0.235,0.005,6.171-1.076,23.63c-0.494,9.466,1.233-16.165,2.336-44.893
					c1.163-28.727,1.604-60.535,1.145-63.356c-0.408,9.116-0.586,26.914-1.09,43.389
					C4703.746,1476.786,4702.947,1491.932,4701.846,1495.726z"/>
				<path fill="#D5AA84" d="M4680.295,1665.367c-2.713,25.195-5.953,50.345-9.818,75.411
					C4674.342,1715.712,4677.582,1690.563,4680.295,1665.367z"/>
				<path fill="#D5AA84" d="M4643.584,1851.514c-0.904,4.915-1.835,9.827-2.801,14.734c-5.146,17.649-10.998,36.764-17.502,56.18
					c-6.492,19.419-13.645,39.136-21.125,58.055c-14.926,37.857-31.234,72.447-43.888,96.049c3.353-5.373,0.724,1.854,0.78,3.144
					c0.029,0.645,0.74-0.192,3.202-4.839c2.452-4.651,6.691-13.097,13.53-27.782c1.746-4.732,4.991-12.383,7.456-18.488
					c2.47-6.104,4.181-10.649,3.021-9.105c5.609-12.638,7.979-17.607,9.96-21.49c1.965-3.889,3.518-6.699,7.105-15.185
					c8.213-22.338,18.48-50.865,27.123-78.699c8.711-27.809,15.854-54.874,19.834-73.551c-2.117,9.117-3.582,14.734-4.947,19.732
					c-1.371,4.998-2.648,9.377-4.551,15.98l19.67-79.889c4.229-17.59,6.951-29.745,8.4-47.531
					c-1.969,14.229-5.854,33.326-10.533,53.376C4653.66,1812.262,4648.178,1833.256,4643.584,1851.514z"/>
				<path fill="#D5AA84" d="M4652.885,1847.047c5.592-21.028,10.625-42.203,15.164-63.48c-1.275,10.074-5.471,29.569-9.947,47.767
					c-4.432,18.21-9.125,35.117-9.904,40.457c0.988-1.767,5.92-18.313,9.545-31.618c3.646-13.298,6.224-23.289,3.77-11.6
					c-0.409-2.143,0.684-8.637,2.266-16.693l5.332-26.05c1.689-8.368,3.014-15.477,3.284-18.46c0.265-2.986-0.488-1.836-3.112,6.255
					l7.603-40.396c1.485-7.65,2.302-10.957,3.157-14.401c0.846-3.445,1.732-7.029,3.199-15.264
					c1.449-8.237,3.529-21.122,6.279-43.219c0.414-8.392,0.766-16.782,1.069-25.17c-2.54,24.632-5.093,44.117-7.577,61.022
					c-2.495,16.904-4.928,31.229-7.531,45.524c-2.619,14.292-5.404,28.557-8.904,45.294
					C4663.055,1803.747,4658.853,1822.963,4652.885,1847.047z"/>
				<path fill="#D5AA84" d="M4564.336,2082.366c-4.906,9.335-9.863,18.633-14.838,27.917l9.011-14.653
					c-15.765,32.651-30.603,61.491-43.611,88.126c-13.043,26.616-24.319,51.018-33.883,74.244
					c-19.11,46.432-31.713,88.066-39.345,131.242c-8.907,54.015-13.641,106.627-15.611,159.635
					c-1.907,53.009-0.997,106.426,3.057,162.072c1.334,13.537,1.883,17.033,1.848,14.591c-0.027-2.444-0.587-10.832-1.201-21.097
					c-0.623-10.263-1.287-22.403-1.693-32.336c-0.418-9.934-0.594-17.657-0.43-19.082c1.74,7.747,1.968,20.976,2.39,35.427
					c0.409,14.447,1.022,30.12,3.207,42.642c1.347,3.449-0.591-25.021-1.901-60.368c-0.672-17.674-1.17-37.064-1.286-55.021
					c-0.13-17.957,0.128-34.476,0.585-46.404c0.123-20.779,0.34-31.009,0.242-37.64c-0.068-6.63-0.382-9.659-0.631-16.025
					c0.848-5.223,1.992-18.375,3.459-31.491c1.438-13.12,3.219-26.195,4.399-31.364c2.048-21.517,4.788-40.373,7.972-57.804
					c3.191-17.431,6.824-33.438,10.916-49.269c4.105-15.827,8.672-31.479,14.009-48.165c5.347-16.683,11.468-34.398,18.925-54.307
					c5.704-11.992-0.323,2.74-5.9,17.407c-5.59,14.664-10.721,29.28-6.051,16.024c5.094-14.577,10.618-29.008,16.492-43.306
					l-2.092,4.439c5.547-14.77,12.972-32.415,21.518-51.027c8.527-18.62,18.143-38.217,27.579-57.142
					c9.44-18.923,18.653-37.201,26.501-53.119c7.863-15.911,14.37-29.455,18.789-38.702c-6.783,14.523-12.988,26.628-15.462,30.821
					c-2.499,4.184-1.171,0.512,6.544-16.789c4.871-9.148,9.662-18.349,14.355-27.609c10.086-25.388,19.394-51.078,27.734-77.047
					c-4.826,14.817-10.484,29.973-16.387,44.493c-5.895,14.524-12.027,28.417-17.658,40.809
					C4574.615,2057.271,4565.453,2076.109,4564.336,2082.366z"/>
				<path fill="#D5AA84" d="M4604.38,2001.137c9.474-22.486,13.331-33.315,14.979-38.204c1.611-4.907,0.881-3.94,0.259-3.252
					c-0.628,0.687-1.141,1.101,0.835-4.917c0.982-3.01,2.586-7.629,5.023-14.656c2.432-7.028,5.704-16.464,9.873-29.16
					c-11.342,35.777-24.518,70.978-39.221,105.486C4598.91,2011.357,4601.662,2006.259,4604.38,2001.137z"/>
				<path fill="#FFFFFF" d="M4438.785,2431.6c-2.574,15.744-4.731,31.568-6.531,47.444c1.198-6.439,2.369-15.96,3.555-25.772
					l3.341-27.561l1.651-12.752C4440.829,2413.016,4440.094,2418.293,4438.785,2431.6z"/>
				<path fill="#FFFFFF" d="M4429.311,2607.874c-0.9-8.447-1.735-16.907-2.496-25.38c0.405,15.072,1.046,30.133,1.884,45.178
					C4428.863,2621.068,4429.066,2614.47,4429.311,2607.874z"/>
				<path fill="#D5AA84" d="M4435.887,2769.188c2.383,17.86,2.771,16.043,1.964,4.595c-0.794-11.45-2.594-32.553-4.286-53.333
					c1.359,18.736,2.398,33.002,2.838,41.548C4436.852,2770.542,4436.691,2773.366,4435.887,2769.188z"/>
				<path fill="#FFFFFF" d="M4636.145,2847.777c-81.348,0.007,72.133,0.584,13.664,2.692
					C4660.401,2849.475,4701.605,2848.144,4636.145,2847.777z"/>
				<path fill="#D5AA84" d="M4899.467,2853.329c-29.445,0.448-41.415,0.032-45.387-0.537
					C4875.423,2852.838,4892.477,2852.97,4899.467,2853.329z"/>
				<path fill="#D5AA84" d="M4466.157,2287.114c2.929-8.886,6.279-18.415,9.552-27.008
					C4472.297,2269.27,4469.22,2277.938,4466.157,2287.114z"/>
				<path fill="#D5AA84" d="M4460.449,2304.936c1.811-5.896,3.742-11.92,5.708-17.821
					C4463.958,2293.778,4462.057,2299.756,4460.449,2304.936z"/>
				<polygon fill="#D5AA84" points="4507.079,2851.146 4506.814,2851.148 4500.459,2850.925 				"/>
				<path fill="#D5AA84" d="M4644.354,373.439l-5.023-37.46c1.719,12.32,3.391,24.807,4.988,37.038L4644.354,373.439z"/>
				<path fill="#D5AA84" d="M4641.888,329.593c5.235,33.002,6.517,50.848,8.32,73.832c1.739,22.996,4.052,51.125,9.81,104.96
					c-4.49-43.4-9.646-88.911-15.699-135.368c-2.763-30.868-0.953-19.017,0.39-10.797c0.663,4.11,1.189,7.312,0.96,3.804
					C4645.428,362.518,4644.476,352.298,4641.888,329.593z"/>
				<path fill="#D5AA84" d="M4703.989,1230.401l0.167,3.761C4704.4,1240.731,4704.243,1237.342,4703.989,1230.401z"/>
				<polygon fill="#FFFFFF" points="5678.913,1482.489 5679.56,1483.125 5678.74,1542.865 				"/>
				<path fill="#FFFFFF" d="M5680.079,1474.228l1.232-101.42l0.372,601.214l-0.891-19.49
					C5679.627,1962.847,5681.123,1456.539,5680.079,1474.228z"/>
				<path fill="#FFFFFF" d="M5679.066,1445.311c-2.665-58.363,0.972-96.972-0.914-168.575c1.26,47.771,2.653,81.666,1.975,127.742
					L5679.066,1445.311z"/>
				<path fill="none" stroke="#D5AA84" stroke-width="0" stroke-linecap="round" stroke-linejoin="round" d="M5673.923,1244.853
					c0.537-32.147-0.597-70.491-0.195-88.657C5675.78,1167.371,5674.199,1217.261,5673.923,1244.853z"/>
				<path fill="#D5AA84" d="M5666.119,1158.474c-0.04-5.031-0.038-9.957-0.018-14.882l0.384,15.252L5666.119,1158.474z"/>
				<path fill="#D5AA84" d="M5666.485,1158.844l0.922,0.848C5667.049,1170.178,5666.76,1167.265,5666.485,1158.844z"/>
				<path fill="#D5AA84" d="M5666.102,1143.592c-0.296-13.293-0.6-29.023-0.979-37.179l-0.138,13.823
					c-0.245-18.907-0.994-52.22-0.472-61.117c-0.156,37.179,0.488,37.761,1.777,38.874l0.17-60.375
					C5669.527,1049.003,5666.297,1089.836,5666.102,1143.592z"/>
				<path fill="none" stroke="#D5AA84" stroke-width="0" stroke-linecap="round" stroke-linejoin="round" d="M5665.359,952.826
					l1.762,62.124C5665.434,1032.056,5665.346,976.023,5665.359,952.826z"/>
				<path fill="#D5AA84" d="M5667.356,861.362c0.507,14.458,0.336,74.887,1.136,38.291c0.346,9.904,0.273,21.608,0.266,34.001
					C5668.339,892.821,5666.271,931.218,5667.356,861.362z"/>
				<path fill="#D5AA84" d="M5668.758,933.654c0.05,4.873,0.09,10.274,0.088,17.53
					C5668.766,945.306,5668.755,939.374,5668.758,933.654z"/>
				<path fill="none" stroke="#D5AA84" stroke-width="0" stroke-linecap="round" stroke-linejoin="round" d="M5676.394,1582.691
					c0.239-7.521,0.46-7.255,0.672-3.972L5676.394,1582.691z"/>
				<polygon fill="#D5AA84" points="5669.25,737.221 5669.266,713.972 5669.352,732.72 				"/>
				<path fill="#D5AA84" d="M5685.562,2667.705c0.534-81.189,1.11-158.194-0.044-275.397c-2.198,2.701-0.616-47.136-2.93-53.968
					c0.301,121.493-1.377-457.583-2.347-360.664l1.013,29.022l-2.299-30.135c0.58-58.204,2.414-137.858,1.093-177.42
					c0.721-10.856,0.126,496.245,0.777,477.073c-2.656,44.911-2.571-678.854-3.76-697.497l1.399-8.05
					c-1.484-89.981-3.506-147.709-4.484-223.284l1.688-17.106c-0.555,55.45,0.596,70.544,1.328,127.159
					c-0.316-98.083,0.728-115.878,0.392-190.712c-2.191,2.648-1.074,64.242-2.299-30.029c0.922-27.169,3.326,35.537,2.87-48.724
					c0.588-101.95-2.65-81.56-2.846-170.376l-0.816,59.846c-0.105-32.73-0.579-93.794,0.604-125.306
					c-0.156,37.126,1.068,131.502,3.264,128.801c-0.491-37.655,0.341-120.804,0.235-153.587l1.532,20.02
					c1.443-35.908-0.733-56.563,0.588-101.95c-0.872-42.792-2.211,25.951-2.838,2.065c0.521-8.845,1.352-91.94,0.342-120.804
					c-3.236,20.284,0.962,98.667-2.17,151.733l0.571-78.7c-3.19-49.465,0.042,125.889-2.519,100.308
					c-3.311-59.051,3.18-123.081-1.037-178.002c-0.798,36.438-0.879,152.898-2.031,137.964c1.196-41.098-1.074-70.544-1.486-127.266
					l1.496-68.584c-1.012-28.97-1.028-5.614-1.687,17.106c1.872-100.838-0.325-270.631,1.966-413.043
					c-0.458-84.314-1.412-10.592-2.545-48.936c1.962-44.858,0.344-120.804,0.374-167.357c0.14-13.876-1.776-38.979-2.56-25.686
					l1.207,117.573c-1.028-5.667-2.716,11.546-2.49,53.597c3.762-29.128-2.306,165.715,1.944,174.242l-1.935-1.695l1.314,150.356
					l0.26-4.449c-0.642-0.583,1.33,127.106,0.497,210.203c-0.627-23.886,0.117-162.961-2.005-81.083
					c-1.116-61.594,0.636-171.859-0.188-284.348l-1.308,21.979c-0.89-56.979-0.787-122.805-0.489-190.36l0.494-101.741l0.17-50.175
					l0.032-24.622l-0.001-9.235l-0.014-1.058l-1.254,0.035c0.421-0.217,1.044-0.434,1.869-0.65c0.188,0.34,0.376,0.832,0.564,1.476
					l0.07,0.249l0.035,0.129l0.018,0.066l0.009,0.033l0.009,0.167l0.141,3.083l0.282,6.166l0.091-5.982l0.049-3.041l0.006-0.382
					l0.006-0.085l0.013-0.164l0.024-0.333l0.209-2.908l-1.714-0.13l-0.917-0.065l-0.474-0.032l-0.24-0.016l-0.121-0.008l-0.44-0.008
					l-16.009-0.244c-10.74-0.151-21.575-0.275-32.244-0.338c-21.339-0.126-42.019-0.008-59.97,0.621
					c55.98-0.09,27.17,0.922,17.106,1.688c-75.522,0.979-186.37-0.131-289.591,0.57c0,0,5.031-0.383,0.635-0.646L5173.902,5.74
					c-51.107-0.293-68.689-1.338-100.201-2.52c-18.908,0.244-65.619,0.211-47.824,1.257c10.063,0.1,20.125,0.197,26.745,0.095
					c-54.655,1.95-38.237-0.571-106.663,0.62c52.854-1.638-16.471-2.334-10.222-4.006c-80.024,0.72-7.415,2.962-17.425,3.729
					c-97.131-0.968-109.629-2.396-207.236-2.724c-5.613,1.028,69.221,0.695,77.482,1.858c-27.752-0.276-60.376-0.171-65.407,0.213
					l59.847,0.815c-34.545-0.419-68.648-0.733-103.053-0.933l-51.929-0.212l-26.31-0.04l-8.111-0.002l-2.48,0.015l0.609,2.278
					l0.309,1.156l1.438,5.65c2.098,8.273,4.169,16.621,6.225,25.052c4.107,16.862,8.137,34.059,12.093,51.664l-1.391-8.795
					c5.026,22.86,9.744,45.782,14.175,68.753c-2.226-8.132-4.488-16.252-6.785-24.36c8.059,36.965,13.447,77.258,18.279,96.917
					l-2.209-13.752c2.893,15.524,5.667,31.069,8.33,46.632c-3.156-15.934-6.429-31.843-9.824-47.722
					c4.74,29.703,11.184,64.93,17.679,104.943c6.501,40.007,13.042,84.799,18.146,133.451c-0.188,10.622-4.76-31.356-10.922-77.387
					c-3.062-23.017-6.52-47.045-9.619-66.049c-3.093-19.005-5.794-32.987-7.097-35.956l7.817,57.891
					c2.689,20.165,5.15,38.762,6.811,48.45c0.414-4.009-2.479-27.137-5.688-50.334c6.778,42.327,12.952,95.479,17.918,144.756
					c5.018,49.277,8.955,94.672,12.615,121.522c-1.392-21.411-2.894-42.82-4.519-64.225c3.623,37.304,5.321,68.05,6.627,92.571
					c1.298,24.523,2.193,42.827,4.026,55.3c-2.47-19.554-5.014-39.096-7.645-58.624c3.775,37.868,7.119,81.186,10.025,123.907
					c2.918,42.721,5.419,84.844,7.809,120.337c1.009,0.853-0.277-24.787-1.863-50.016c-1.572-25.229-3.455-50.042-3.116-47.566
					l3.338,33.8c2.479,55.411,2.466,63.328,2.729,74.157c0.201,10.829,0.691,24.569,3.017,91.625l1.34,1.164
					c-0.022,22.439,2.075,63.589,3.443,93.512c1.374,29.922,2.103,48.611-0.419,26.115l-0.543-36.459l-1.428,3.182
					c2.284,51.611,4.375,103.226,6.354,154.842c-0.822-7.531-0.528,7.409-0.387,21.767c0.143,14.35,0.131,28.083-0.859,18.075
					c0.904,19.066,1.687,38.143,2.33,57.23c-1.006,13.041-1.794-13.256-3.008-43.539c-1.172-30.293-2.884-64.549-3.803-67.557
					c-0.95,2.04,0.055,28.935,0.517,42.133c-0.854-17.215-1.426-32.236-1.733-46.161c-0.315-13.928-0.406-26.763-0.454-39.587
					c-0.097-25.648-0.003-51.253-1.237-85.455l-2.677-33.987l1.997,1.778c-1.45-28.31-3.737-52.661-4.926-62.632
					c-0.115-33.824-1.826-68.875-4.186-108.206c-2.369-39.333-5.369-82.943-8.305-133.914c3.182,42.301,2.795,28.738,1.805,6.391
					c-0.996-22.346-2.823-53.462-2.08-46.261c-1.564-23.245-5.312-63.528-9.168-102.934c-3.816-39.411-7.783-77.937-8.631-97.836
					c-1.795-27.165,7.061,56.75,1.014-7.886c-2.266-20.989-4.538-38.658-5.956-47.679c-1.425-9.021-1.946-9.398-0.876,4.194
					c-5.506-46.629-11.981-97.597-19.76-149.496c-7.76-51.899-16.857-104.723-27.135-155.053c2.044,7.924,4.053,15.858,6.028,23.802
					c-5.602-31.711-12.399-62.708-19.136-89.789c-3.364-13.542-6.704-26.109-9.827-37.316l-2.297-8.145l-1.111-3.87l-0.479-1.621
					l-0.383-1.233l-2.987-9.467l-0.326-1.833c2.514,0.104,4.219,0.157,4.601,0.213c0.407,0.067-0.569,0.181-3.011,0.517l9.541,0.321
					l2.173,0.057l3.228,0.048l6.662,0.072c8.729,0.074,16.871,0.065,24.76-0.005c15.777-0.14,30.541-0.52,46.951-0.951
					c32.823-0.863,72.24-1.931,139.553-1.69c-7.626-1.812-68.055-1.982-110.688-1.109l11.122-2.056l-69.98,0.014l-35.518,0.055
					l-17.732,0.04c-5.803,0.029-11.66-0.002-17.337,0.082l3.394,12.939l3.336,13c2.213,8.733,4.373,17.424,6.466,26.051
					c4.192,17.254,8.136,34.253,11.833,50.811c7.398,33.115,13.791,64.467,19.253,92.575c-3.073-14.146-6.245-28.266-9.53-42.356
					c3.24,20.117,5.547,33.754,7.486,44.064c1.931,10.312,3.473,17.299,4.966,24.136c1.488,6.838,2.926,13.525,4.55,23.25
					c1.619,9.725,3.437,22.488,5.525,41.481c4.548,27.967,3.289,17.798,1.814,5.893c-1.504-11.899-3.307-25.521,0.359-4.454
					c2.678,19.878,1.384,17.468,0.688,18.386c-0.739,0.924-0.777,5.157,3.702,38.388c-7.707-55.295-16.789-112.13-27.782-169.702
					c-5.495-28.785-11.472-57.752-17.987-86.792c-3.258-14.521-6.652-29.059-10.188-43.601c-1.767-7.271-3.571-14.543-5.41-21.815
					l-3.18-12.427l-3.391-12.995l455.385-0.414c5.031-0.382-8.897-0.52-22.668-0.66c31.941-0.972,143.005-0.686,274.762-0.137
					l205.852,0.895l100.873,0.361l94.824,0.179l0.061,70.104c0.061,20.413,0.163,38.561,0.318,53.88
					c0.31,30.64,0.829,49.97,1.635,53.5c-0.786,13.188-1.658-29.499-1.567,26.48c0.384,5.084,0.89,19.437,1.671,6.25
					c-2.934,141.777,0.156,331.06-1.769,501.7c0.904-3.813,1.396,33.895,2.039,34.531c-2.105,58.575,0.145,158.512-1.052,213.38
					l1.045-17.742l0.007,172.547c0.384,5.084,0.398-18.324,0.538-32.147c0.49,37.655-0.678,46.023-1.58,49.73l2.262,76.741
					c-3.762,224.873,2.1,505.249-0.275,764.069c1.777,38.874,2.529,72.187,2.74,137.699l0.539-32.147
					c1.501,66.625-0.904,3.866-0.171,60.481c1.134,38.396,2.699,11.705,1.702-40.462c0.608-32.624,1.229-12.499,1.663,10.856
					C5690.041,2306.034,5688.838,2499.447,5685.562,2667.705z"/>
				<path fill="#D5AA84" d="M5623.604,2857.709c-11.28-0.42,11.029-0.604,29.328-0.909l6.6-0.12l3.029-0.066l5.188-0.07
					c6.529-0.097,11.408-0.207,13.588-0.336c2.184-0.128,1.664-0.275-2.49-0.447c-2.075-0.085-5.057-0.177-9.041-0.275l-6.74-0.152
					l-4.877-0.164c-173.818-3.493-456.153-0.704-662.014-3.453c-54.867-1.363-69.484-1.396-118.95-2.129
					c-0.953,0.294-1.06,0.673,1.324,1.002c-56.086-0.121-146.755,0.399-202.735-0.473c-15.941,0.371-27.646,1.772,2.86,1.438
					c-85.161,1.226-146.968-2.607-194.95-1.499c41.363,0.923-41.203,1.332,8.262,2.069c-11.161,0.023-20.801-0.033-29.265-0.151
					l-15.794-0.229l-8.24-0.146l-0.984-0.02l-0.487-0.01c-0.066-0.019-0.195,0.034-0.21-0.043l-0.027-0.249l-0.214-1.975
					l-0.411-3.838c-0.528-5.023-1.002-9.66-1.406-13.982l-0.113-1.311l-0.079-1.049l-0.149-2.055l-0.266-3.953
					c-0.328-5.143-0.561-9.801-0.752-14.314c-0.387-9.025-0.649-17.471-1.191-28.061c-0.541-10.59-1.372-23.324-2.719-40.952
					c-0.729-4.145-1.5-8.449-0.408,5.786c-1.141-19.265-2.793-43.655-4.113-69.579c-1.344-25.92-2.342-53.377-2.59-78.71
					c-0.271-25.333,0.217-48.535,1.137-65.904c0.912-17.373,2.174-28.906,3.172-30.965c0.208-10.393,0.564-20.79,1.078-31.189
					c2.229-16.846,3.531-23.109,5.077-32.185l2.96-17.348c1.305-7.576,2.99-17.504,5.709-31.364
					c1.576-9.069,2.375-13.515,2.583-15.313c0.218-1.797-0.126-0.94-0.617,0.633c-0.979,3.145-2.505,9.171-1.433,2.5
					c2.225-7.488,8.23-35.509,17.768-66.37c4.725-15.437,10.272-31.576,15.957-46.347c5.669-14.775,11.444-28.187,16.24-38.34
					c1.553-0.752-7.083,17.273-16.639,41.36c-4.779,12.038-9.752,25.604-13.981,38.942c-4.243,13.333-7.743,26.43-9.964,37.373
					c0.082,1.496,1.732-4.76,4.153-13.551c-15.365,56.463-23.575,111.115-28.085,163.556c-4.459,52.482-5.294,102.844-4.256,151.817
					c1.085,48.979,4.084,96.622,8.734,143.885c1.167,11.814,2.436,23.607,3.815,35.39l1.159,9.688l1.542,12.3l0.39,3.079
					c-0.066,0.37,0.311,0.235,0.547,0.262l0.773,0.001l1.549,0.003l6.2,0.011l11.654,0.014c23.719,0.012,47.522-0.072,71.548-0.277
					c42.262,1.543,74.727,0.104,93.528-1.409c-34.689-0.699-133.62-2.166-135.951,0.896l-30.056-0.994l-9.236-0.251l-4.666-0.126
					l-2.311-0.063l-1.149-0.031l-0.287-0.008c-0.046-0.004-0.1,0.002-0.14-0.009l-0.015-0.149l-0.062-0.597l-0.953-9.419
					l-0.842-8.726c-2.895-22.679,0.307-22.51-0.291-32.352c1.063,10.538,2.457,21.395,3.868,30.854l1.038,6.651l0.976,5.702
					l0.458,2.48l0.109,0.579c-0.021,0.14,0.135,0.079,0.23,0.083l0.314-0.018l1.219-0.073c1.579-0.099,2.975-0.202,4.17-0.308
					c4.795-0.424,6.295-0.893,4.027-1.325c-1.129-0.217-3.182-0.424-6.2-0.612c-0.663-0.151-1.927,0.313-1.666-1.024l-0.26-3.036
					l-0.7-7.436l0.942,7.42l0.399,3.183l0.047,0.381c0.098,0.033,0.244,0.011,0.363,0.019l0.74,0.004l1.438,0.011l5.156,0.063
					l4.941,0.099c6.83,0.153,10.602,0.39,12.301,0.681c3.397,0.582-1.494,1.383-6.784,2.171c-2.646,0.394-5.389,0.784-7.245,1.142
					c-1.833,0.358-2.963,0.684-2,0.947c0.237,0.066,0.613,0.129,1.123,0.187c0.476,0.058,1.084,0.112,1.84,0.161
					c1.513,0.098,3.617,0.176,6.437,0.232c5.64,0.112,14.139,0.134,26.485,0.036l14.405-2.216
					c-18.695,1.185,66.784,2.21,98.72,1.468l-13.24-0.44c262.792,1.05,613.553,0.063,904.257-0.664
					c22.31,1.717,51.499,2.172,83.139,2.123c15.819-0.025,32.251-0.177,48.743-0.359l50.27-0.548l-0.184-29.418
					c-0.024-9.157-0.006-18.017,0.076-26.46c0.164-16.885,0.582-32.101,1.418-44.692c-0.74-31.988-1.953,45.547-2.622-15.835
					c-0.334-30.718,1.105-33.472,1.513-32.095l-0.438-28.122c2.408-10.104,4.697-4.706,6.809,22.45
					c1.055,13.577,2.066,32.595,3.024,57.834c0.479,12.62,0.946,26.795,1.398,42.623l0.669,24.994l0.164,6.646l0.08,3.382
					l0.082,4.418l0.32,26.586l-24.05,0.274l-5.497,0.067l-3.307,0.067l-6.708,0.135L5623.604,2857.709z"/>
			</g>
		</g>
	</g>
</g>
<g opacity="0.86">
	<path fill="#718B5C" d="M2261.011,1674.799c-291.389-409.733-557.088-200.425-919.681-899.435
		c-107.721-207.696-124.817-495.208-128.948-783.868H-8.504v1520.11l1890.869,1331.548h841.396
		C2684.912,2670.492,2524.953,2045.979,2261.011,1674.799z"/>
	<g>
		<g>
			<g>
				<path fill="#FFFFFF" d="M-0.89,812.944C0.244,856.859,0.7,953.24-1.231,951.36c1.932,1.88,1.932,1.88,3.311,67.57
					c-1.289-1.396-0.938,57.623-0.833,95.047c0.923-30.934,1.076-73.454,1.387-158.554c-2.789-77.578,1.434-238.68-1.614-311.345
					C0.342,696.728-1.623,748.103-0.89,812.944z"/>
				<path fill="#FFFFFF" d="M-9.354,1161.653l0.768,11.464l-1.208-134.656C-9.167,1065.757-8.447,1157.347-9.354,1161.653z"/>
				<path fill="#718B5C" d="M61.397,1559.355c-10.73-5.832,44.791,34.263,42.957,34.55c-0.399-3.752,88.113,61.341,136.62,95.067
					l20.643,11.877c-22.952-17.131-64.109-46.388-112.042-80.205L-2.85,1513.266L61.397,1559.355z"/>
				<path fill="#FFFFFF" d="M150.727,1624.235l32.493,21.177C156.574,1627.1,95.205,1584.142,150.727,1624.235z"/>
				<path fill="#FFFFFF" d="M87.441,1570.304c-78.25-55.331,46.672,34.015-32.494-21.174
					C81.642,1567.478,112.301,1588.94,87.441,1570.304z"/>
				<polygon fill="#718B5C" points="412.931,1804.863 245.604,1688.297 314.039,1737.654 				"/>
				<path fill="#718B5C" d="M419.381,1815.088c-21.763-15.343-55.571-40.129-23.994-18.813
					c58.668,43.423,97.061,67.492,151.714,107.767l-53.437-36.734c6.198,6.58,111.756,76.438,107.125,77.113
					c73.065,48.683-52.872-40.591,41.189,23.681c-88.163-61.376-152.631-107.621-225.998-159.983
					c20.945,15.556,29.745,21.602,59.537,43.241c-52.472-36.841-123.755-85.841-185.125-128.798
					C322.369,1747.633,368.692,1777.929,419.381,1815.088z"/>
				<path fill="#718B5C" d="M684.937,2002.65c56.486,39.989,143.683,101.472,160.214,110.129
					c-58.621-43.384-70.366-49.145-97.879-67.277c-16.979-12.445-73.416-52.398-49.721-37.271
					C705.58,2014.527,659.977,1983.946,684.937,2002.65z"/>
				<path fill="#718B5C" d="M906.819,2159.42l42.506,27.288l-26.743-18.385l-2.184-3.43c-4.932-3.004-26.394-14.667-82.88-54.655
					C866.296,2131.949,877.176,2137.885,906.819,2159.42z"/>
				<path fill="#718B5C" d="M926.613,2160.282c37.724,27.864,60.503,43.133,104.943,73.681
					c-61.419-42.991-148.517-104.404-167.377-116.601l5.031,3.075c0,0-58.32-39.702-99.91-67.135
					C832.651,2096.08,942.827,2176.445,926.613,2160.282z"/>
				<path fill="#718B5C" d="M848.314,2104.915l45.456,30.474L848.314,2104.915z"/>
				<polygon fill="#718B5C" points="1082.179,2282.278 995.997,2220.723 1016.793,2236.176 				"/>
				<path fill="#718B5C" d="M982.483,2204.096c69.302,49.18-36.908-28.075,28.429,17.991c17.845,12.269-95.997-67.527-101.845-70.39
					C925.899,2164.035,976.334,2197.552,982.483,2204.096z"/>
				<path fill="#718B5C" d="M1138.615,2322.231l72.2,48.856L1138.615,2322.231z"/>
				<path fill="#718B5C" d="M1316.157,2448.523l14.699,8.939c68.434,49.359,162.495,113.632,211.25,151.01
					c-10.982-9.479,30.409,17.813-30.045-25.285c-9.863-6.01-31.576-21.319-28.576-18.1c-25.777-18.492-19.879-15.596-36.906-28.077
					c-45.307-30.369-113.842-79.796-150.301-104.084c17.698,12.161,21.763,15.344,34.578,24.536
					c-77.033-51.791-87.449-65.128-122.692-85.875C1235.676,2389.724,1280.517,2424.021,1316.157,2448.523z"/>
				<path fill="#718B5C" d="M1314.438,2437.689l-60.65-43.24c19.778,12.052,74.382,52.289,85.163,58.156
					c-3.148-3.325-63.503-46.354-40.923-31.222c-9.464-2.258-83.23-58.372-54.004-32.874
					c-79.166-55.188-23.028-18.92-106.259-77.291l-24.562-14.951C1206.298,2360.647,1221.296,2373.272,1314.438,2437.689z"/>
				<path fill="#718B5C" d="M1549.186,2603.686l28.876,21.781l-15.046-12.662c135.801,95.282,211.359,156.964,293.898,213.895
					l25.212,17.206l21.519-0.198l21.162-0.112c14.073-0.048,28.083-0.046,42.058-0.007c27.951,0.077,55.767,0.3,83.691,0.553
					c55.849,0.508,112.133,1.138,170.797,0.978c62.233-1.464-59.806-0.859-66.296-1.757c17.894-2.853,60.656,1.503,89.649-0.838
					c8.128-2.069-130.773-2.228-185.606-3.476c-47.736,0.293-47.008,0.936-61.565,2.105c-12.071-1.151-60.595-1.502-72.726-2.655
					l-21.923,0.293l-19.188,0.154l-20.772-14.585l-20.488-14.57l-39.187-28.1c-26.108-18.709-53.218-37.952-87.555-61.227
					c-24.043-18.848,60.083,41.938,33.736,23.097l-43.664-30.701l4.465,3.457c-60.284-40.495-169.08-118.925-206.706-146.717
					c29.596,21.497,49.724,37.266,14.032,12.731l-27.96-21.924l-77.95-51.648
					C1470.889,2548.316,1535.805,2598.352,1549.186,2603.686z"/>
				<path fill="#718B5C" d="M1466.623,2541.521c-90.297-64.771,9.245,9.837-89.898-61.019l105.042,73.751L1466.623,2541.521z"/>
				<path fill="#FFFFFF" d="M1900.546,2840.451l54.954,1.248c-9.522-0.814-24.777-1.022-39.166-0.996
					c-7.194,0.013-14.172,0.084-20.108,0.168l-13.213,0.241c-2.944-1.971-3.428-2.286,0.016-0.052L1900.546,2840.451z"/>
				<polygon fill="#FFFFFF" points="2103.379,2840.432 2074.264,2842.774 2126.063,2841.448 				"/>
				<path fill="#718B5C" d="M2288.439,2843.263c41.245-1.189-8.068-2.185-55.864-1.892
					C2275.641,2841.467,2298.144,2842.484,2288.439,2843.263z"/>
				<path fill="#FFFFFF" d="M2593.294,2847.777c-93.167,0.007,82.613,0.584,15.649,2.692
					C2621.074,2849.475,2668.265,2848.144,2593.294,2847.777z"/>
				<path fill="#718B5C" d="M2692.174,2674.494c9.199,32.52,12.16,45.949,12.767,50.499
					C2698.863,2701.266,2693.912,2682.334,2692.174,2674.494z"/>
				<path fill="#718B5C" d="M1757.779,2758.994c-8.734-6.139-18.158-12.772-26.694-18.875L1757.779,2758.994z"/>
				<path fill="#718B5C" d="M1775.211,2771.321l-17.432-12.327L1775.211,2771.321z"/>
				<polygon fill="#718B5C" points="2445.477,2851.146 2445.173,2851.148 2437.895,2850.925 				"/>
				<path fill="#718B5C" d="M-10.421,1432.845c-0.122-18.076-0.162-32.087-0.143-43.309l0.159,42.823L-10.421,1432.845z"/>
				<path fill="#718B5C" d="M-7.169,1382.682c0.552,28.151,0.22,46.656-0.366,64.986l-0.991,28.549l-0.491,16.396l-0.218,9.117
					l-0.191,10.355l13.118,9.495l14.514,10.362c10.334,7.327,22.046,15.53,35.51,24.838l-63.765-44.371l-0.354-80.05
					C-8.066,1361.392-9.162,1487.313-7.169,1382.682z"/>
				<path fill="#718B5C" d="M734.113,2029.527l3.562,2.421C743.872,2036.212,740.653,2034.039,734.113,2029.527z"/>
				<path fill="#FFFFFF" d="M1321.713,731.68l0.885,0.405c4.454,10.47,9.148,20.841,14.081,31.099
					c4.929,10.254,10.151,20.394,15.336,30.546c-5.336-10.21-10.713-20.403-15.787-30.728
					C1331.142,752.678,1326.315,742.228,1321.713,731.68z"/>
				<path fill="#FFFFFF" d="M1319.038,722.55c-14.726-35.697-26.883-72.41-37.076-109.631
					c15.723,54.965,35.722,108.809,61.939,159.549c26.38,50.857,54.315,100.933,84.352,149.697
					c30.048,48.748,62.212,96.209,97.289,141.421c35.066,45.197,73.107,88.119,114.718,127.309
					c-5.594-4.869-11.136-9.805-16.624-14.804c0.756,0.924-5.07-4.556-15.486-15.165c-10.403-10.616-25.34-26.425-42.534-46.323
					c-17.208-19.882-36.643-43.87-56.407-70.418c-19.785-26.532-39.903-55.606-59.04-85.221
					c-19.153-29.605-37.344-59.732-53.69-88.146c-16.352-28.412-30.876-55.101-42.876-77.778
					c-5.982-11.353-11.432-21.646-15.927-30.732c-4.521-9.086-8.207-16.949-11.09-23.246
					C1320.843,726.457,1318.193,720.165,1319.038,722.55z"/>
				<path fill="#FFFFFF" d="M1305.777,692.265c-6.537-15.369-11.797-29.744-16.418-43.826c-4.614-14.087-8.592-27.884-12.394-42.212
					c-7.563-28.674-14.615-59.397-23.375-99.448c5.837,26.728,11.605,49.381,17.637,71.683c6.064,22.295,12.365,44.25,20.115,69.408
					C1295.789,662.776,1300.587,677.585,1305.777,692.265z"/>
				<path fill="none" stroke="#718B5C" stroke-width="0" stroke-linecap="round" stroke-linejoin="round" d="M1242.904,471.567
					c-2.833-18.235-6.006-38.207-8.638-56.236c-2.641-18.027-4.743-34.106-5.732-44.482c1.748,6.253,3.89,23.625,6.404,43.333
					C1237.434,433.889,1240.369,455.931,1242.904,471.567z"/>
				<path fill="#718B5C" d="M1221.276,374.32c-0.71-5.75-1.332-11.387-1.925-17.025c0.857,6.714,1.67,12.819,2.338,17.407
					L1221.276,374.32z"/>
				<path fill="#718B5C" d="M1221.689,374.702l1.028,0.862C1223.779,387.59,1223.093,384.299,1221.689,374.702z"/>
				<path fill="#718B5C" d="M1219.352,357.294c-1.955-15.181-3.978-33.174-5.19-42.489l1.343,15.855
					c-1.175-10.82-2.771-25.765-4.02-39.292c-1.259-13.526-2.188-25.632-2.288-30.755c1.447,21.335,2.499,32.153,3.269,37.784
					c0.78,5.63,1.308,6.073,2.004,6.655c-1.939-23.068-3.583-46.149-4.978-69.236c1.946,6.434,2.845,21.397,4.009,42.462
					C1214.672,299.339,1216.126,326.518,1219.352,357.294z"/>
				<path fill="none" stroke="#718B5C" stroke-width="0" stroke-linecap="round" stroke-linejoin="round" d="M1203.565,138.583
					c1.482,23.741,3.146,47.476,5.049,71.194c-0.286,9.858-1.392-1.279-2.483-18.216
					C1205.031,174.625,1204.048,151.894,1203.565,138.583z"/>
				<path fill="#718B5C" d="M1202.646,33.606c0.407,8.285,0.947,29.751,1.447,43.9c0.498,14.149,0.847,20.976,0.677-0.018
					c0.64,11.347,0.95,24.77,1.414,38.981c-0.963-23.405-1.563-24.086-2.144-28.934C1203.498,82.691,1202.91,73.671,1202.646,33.606
					z"/>
				<path fill="#718B5C" d="M1206.184,116.471l0.794,20.099C1206.646,129.832,1206.397,123.03,1206.184,116.471z"/>
				<path fill="none" stroke="#718B5C" stroke-width="0" stroke-linecap="round" stroke-linejoin="round" d="M1371.62,834.985
					c-3.946-7.665-3.597-7.509-1.605-4.311L1371.62,834.985z"/>
				<polygon fill="#718B5C" points="1112.12,0.041 1085.492,0.024 1106.964,-0.062 				"/>
				<path fill="#718B5C" d="M2267.341,1670.297c-13.459-19.15-27.334-37.667-42.219-56.037
					c-14.893-18.361-30.797-36.582-48.479-54.932c-17.686-18.339-37.158-36.811-59.301-55.387
					c-22.138-18.574-46.976-37.215-75.261-55.786c0.68,1.781-10.674-5.695-23.415-13.515c-12.72-7.855-26.826-16.035-30.797-17.027
					c15.026,8.881,19.138,11.514,15.199,9.097c-3.955-2.387-16.033-9.698-33.847-19.827c-17.798-10.157-41.38-23.022-67.867-37.34
					c-26.473-14.344-55.795-30.261-84.67-47.324c-28.895-17.025-57.266-35.316-82.362-53.307
					c-25.128-17.947-47-35.516-63.822-49.874c-16.832-14.353-28.69-25.412-34.022-30.277c-5.298-4.904-4.163-3.53,5.835,6.042
					c8.303,7.301,16.728,14.454,25.273,21.451c-9.146-6.951-18.173-14.082-27.081-21.381
					c-12.047-11.486-24.841-24.408-37.538-38.005c-12.705-13.592-25.313-27.856-37.176-41.874
					c-23.757-28.018-44.451-55.075-58.451-72.847c-0.841-1.309,3.753,4.875,12.68,16.454c8.94,11.567,22.246,28.515,39.164,48.418
					c16.914,19.9,37.48,42.732,60.834,65.982c23.329,23.267,49.488,46.891,76.939,68.805c27.419,21.957,56.111,42.169,83.619,59.773
					c27.5,17.628,53.744,32.753,76.039,45.237c22.308,12.465,40.648,22.349,52.736,28.915c12.097,6.551,17.978,9.717,15.61,8.323
					c5.478,3.391-1.081,0.1-16.814-8.201c-15.711-8.339-40.698-21.5-71.485-38.929c-30.753-17.462-67.245-39.42-104.906-66.527
					c-18.831-13.539-37.941-28.349-56.825-44.298c-18.888-15.941-37.546-33.018-55.606-50.905
					c-36.156-35.752-69.804-74.78-99.55-113.327c-29.777-38.542-55.753-76.532-77.361-110.133
					c-21.608-33.612-38.889-62.829-51.231-84.12c-12.325-21.305-19.74-34.679-21.168-36.94l-3.195-8.761
					c-6.32-11.222-12.287-21.983-17.977-32.368c-5.68-10.388-11.147-20.368-16.141-30.206c-10.021-19.656-18.59-38.48-26.326-57.096
					c-7.737-18.617-14.627-37.036-21.069-56.013c-6.421-18.985-12.39-38.533-18.045-59.493c-1.09-6.485-2.134-12.971-3.114-19.464
					c3.588,15.495,6.89,28.086,10.014,39.244c3.147,11.152,6.118,20.873,9.286,30.571c3.162,9.701,6.513,19.383,10.529,30.425
					c4.044,11.032,8.736,23.433,14.901,38.443c-10.439-26.104-17.531-47.33-23.215-65.52c-5.644-18.208-9.817-33.419-13.554-47.876
					c-3.722-14.462-6.99-28.178-10.412-43.524c-3.414-15.348-6.988-32.325-10.994-53.38c-0.836,1.695,2.387,19.83,3.179,24.288
					c0.386,2.23,0.079,1.058-1.687-7.293c-1.73-8.357-4.985-23.882-9.679-50.509c-2.026-15.457,0.416-5.524,1.381-3.654
					c0.487,0.935,0.594-0.139-0.38-7.4l-6.323-44.606c-3.664-28.958-5.905-49.265-7.746-64.979
					c-1.819-15.716-3.181-26.846-4.491-37.513c-1.298-10.667-2.546-20.872-3.896-34.76c-1.346-13.887-2.812-31.458-4.298-56.864
					c1.013,22.843,2.244,45.682,3.752,68.509c-1.527-18.703-3.515-45.519-4.956-72.189c-1.462-26.668-2.41-53.185-2.489-71.25
					c0.693,21.261,2.622,58.898,5.159,90.775c2.485,31.882,5.493,57.986,6.456,56.354c-1.979-21.471-4.266-55.989-5.842-89.841
					c-1.618-33.851-2.618-67.026-3.256-85.786l2.31,22.856c-0.019-20.565-0.682-36.736-1.341-54.27
					c-0.651-17.533-1.294-36.43-1.078-62.42l-0.297-7.743l-0.268-5.75c-0.167-2.959-0.31-4.079-0.438-3.976
					c-0.127,0.104-0.239,1.428-0.341,3.395l-0.146,3.368l-0.136,3.796c-0.359,10.143-0.614,22.994-1.172,9.323
					c0.099-2.927,0.105-12.554,0.056-26.377l-28.653-0.242l-31.515-0.107c-20.961-0.011-40.706,0.115-52.519,0.476
					c8.048,1.121,24.081,1.35,44.127,1.301l32.583-0.207l17.619-0.116l17.312-0.044l0.172,15.3l0.067,15.747
					c-0.002,10.358-0.11,20.382-0.384,29.727l-0.417-30.727l-0.275-29.198l-27.161-0.185c-11.889,0.669-12.438,1.056-6.154,1.273
					c3.142,0.108,7.993,0.174,13.988,0.212l18.003,0.044l1.224,62.642c0.354,18.339,0.413,29.22-0.56,20.738
					c-1.054-14.052-1.642-28.366-1.947-42.786c-0.153-7.21-0.238-14.446-0.274-21.69l-0.02-5.434l0.015-4.183l0.073-7.774
					l-10.873-0.298l-15.148-0.289c-10.066-0.18-20.062-0.322-29.935-0.364c-19.747-0.084-39.005,0.234-57.374,1.466
					c12.083,0.231,31.848,0.402,53.419,0.556l32.977,0.224l16.127,0.113l9.3,0.121l0.035,27.569
					c-0.026,7.483-0.16,10.555-0.473,6.957c0.045-7.137,0.027-13.965-0.043-20.641l-0.105-7.658l-0.142-5.489l-40.411,0.882
					c-16.941,0.37-35.789,0.739-58.433,0.883l-78.549-1.496c-33.179,1.012-6.43,1.028,19.592,1.687
					c-115.488-1.872-309.95,0.326-473.053-1.965c-96.564,0.457-12.131,1.411-56.046,2.544
					c-51.375-1.962-138.355-0.344-191.672-0.374c-15.892-0.14-44.642,1.776-29.418,2.56l134.656-1.207
					c-6.49,1.028,13.223,2.716,61.383,2.49c-33.36-3.762,189.792,2.306,199.557-1.944l-1.941,1.935l172.201-1.314l-5.095-0.26
					c-0.667,0.642,145.574-1.33,240.742-0.497c-27.355,0.627-186.637-0.117-92.864,2.005c-70.542,1.116-196.828-0.636-325.66,0.188
					l25.172,1.307C570.586,7.442,391.592,5.014,241.772,5.438l44.521-1.778c-52.709-0.678-120.522-2.138-170.139-0.619
					c64.113-0.09,31.117,0.922,19.592,1.688c-20.401,0.231-43.052,0.345-67.309,0.395L5.129,5.129L5.05,84.312
					c0.004,31.538,0.063,63.374,0.249,94.599c0,0-0.383-5.762-0.646-0.728L5.74,302.042c-0.293,58.532-1.338,78.67-2.52,114.76
					c0.244,21.654,0.211,75.152,1.257,54.772c0.1-11.524,0.197-23.049,0.095-30.631c1.95,62.596-0.571,43.793,0.62,122.16
					c-1.638-60.534-2.334,18.864-4.006,11.707c0.72,91.651,2.962,8.492,3.729,19.956C3.948,706.008,2.52,720.323,2.192,832.111
					c1.028,6.429,0.695-79.277,1.858-88.739c-0.276,31.784-0.171,69.147,0.213,74.91l0.815-68.541
					c-1.23,116.156-1.557,227.944-0.732,356.958l0.521-10.129l-0.05,80.004l-1.917-28.75c0.49,43.126-1.215,89.467,0.319,112.516
					l0.138-15.892l0.61,54.044l-1.897-55.561c-0.401,33.655,0.341,73.605,1.164,118.75c0.411,22.573,0.842,46.445,1.161,71.478
					l0.377,38.403l0.094,19.823l0.015,13.273l0.648,0.475c0.016,0.079,0.027,0.152,0.029,0.217l0,0.024l0.063,0.067l0.113,0.126
					c0.065,0.076,0.109,0.137,0.132,0.183c0.047,0.092,0.012,0.124-0.101,0.099c-0.057-0.013-0.133-0.039-0.229-0.08
					c-0.099-0.044-0.234-0.113-0.229-0.085c-0.251,0.025-0.724-0.137-1.444-0.498c-0.037-0.203-0.071-0.437-0.104-0.699
					l-0.048-0.418l-0.023-0.225c-0.008-0.1-0.015-0.031-0.022-0.565l-0.163-10.616l-0.25-26.623l-0.415-64.438
					c-0.322-43.982-0.845-84.743-2.231-90.676c-0.537,36.878-1.093,100.203-0.203,122.646c0.905-4.488,0.922-31.116,0.938-57.865
					c0.358,20.089,0.524,42.227,0.588,65.261l0.031,35.079l-0.057,30.157l36.564,25.872l38.329,26.925
					c24.228,16.901,45.368,31.34,60.776,41.136l-59.537-43.241c70.219,49.037,113.225,83.622,137.835,98.608l-57.103-36.163
					c72.101,48.788,163.263,113.385,230.53,159.237c2.796-0.389-96.095-67.6-91.212-64.63l32.542,21.211
					c103.111,73.966,28.926,21.816,153.848,111.161l1.883-0.25c40.825,31.151,155.28,107.127,111.042,80.19l-33.661-24.679
					l2.035,3.325l145.667,101.289c-14.799-9.009,55.47,40.063,35.841,28.115l54.305,36.556
					c23.079,18.952-99.81-67.065-106.476-69.715c1.301,2.155,26.567,19.794,38.997,28.375
					c-65.41-44.068-94.94-69.556-158.986-114.717l-32.69-21.316l2.846-0.354c-26.741-18.388-50.336-33.446-60.151-39.42
					c-61.769-46.709-131.688-92.063-226.915-159.842c80.033,55.012-49.722-37.269-35.892-28.147
					c-43.573-30.724-153.297-103.832-189.138-131.946c-24.911-18.67,54.255,36.52-6.199-6.578l-16.86-11.686l-7.572-5.197
					l-3.772-2.498l-0.174-4.644l-0.194-6.853c-0.136-4.001-0.283-6.821-0.436-8.198c-0.307-2.752-0.64,0.273-0.963,11.192
					c-0.579-107.421-0.117-235.041-0.172-352.47l1.272,28.023c1.074-73.575-0.685-144.906-2.08-183.665
					c0.521-10.129,0.141-15.892,0.902-4.489c2.124-93.773-2.63-120.159-2.148-274.345c-1.812,8.734-1.982,77.942-1.109,126.771
					l-2.056-12.738c-0.079,133.381,0.344,283.262,1.565,391.29l-1.516-49.677c-2.765,93.289,2.664,66.964-0.482,154.429
					c0.735,64.901,1.062-46.947,1.934,2.002c-0.591,45.916-3.56-11.768-3.689,65.083c-1.034-288.478-0.87-616.928-1.204-918.993
					c-0.382-5.762-0.52,10.19-0.66,25.961c-0.683-25.69-0.745-96.069-0.531-187.962l1.123-320.378l171.392,0.545
					c53.474,0.132,103.347,0.198,146.461,0.152c86.229-0.092,145.419-0.635,152.296-2.004c15.103,0.786-33.785,1.658,30.328,1.567
					c5.823-0.383,22.261-0.89,7.157-1.671c162.375,2.934,379.158-0.156,574.591,1.769c-4.367-0.904,38.819-1.396,39.547-2.039
					c14.111,0.443,30.318,0.693,47.701,0.823l26.839,0.114l31.935-0.009l0.412,23.498l0.412,19.419l0.931,37.794
					c0.636,24.432,1.288,46.935,1.609,65.121l0.344-20.325c2.148,65.768,5.534,131.49,11.359,196.98
					c0.885,5.755-1.468-20.896-2.473-36.667c1.875,21.441,2.895,34.547,3.302,42.846c0.417,8.297,0.243,11.78-0.005,13.934
					c3.581,29.039,7.669,57.997,12.421,86.819c3.936,31.848,8.95,64.562,15.397,97.829c6.445,33.264,14.336,67.083,24.109,101.021
					c9.793,33.925,21.463,67.984,35.617,101.495c7.075,16.752,14.764,33.366,23.137,49.727
					c8.455,16.348,17.266,32.768,26.213,49.111c35.874,65.393,75.196,130.287,118.705,191.998
					c43.486,61.689,91.32,120.124,143.804,171.837c16.514,14.75,32.094,28.112,50.933,43.425
					c18.878,15.257,40.99,32.528,71.639,53.6c-9.912-7.058-19.687-14.294-29.313-21.715c15.373,10.983,23.472,16.359,27.526,19.21
					c4.072,2.825,4.16,3.04,3.934,3.083c-0.223,0.041-0.757-0.096,2.11,1.984c2.877,2.064,9.117,6.406,22.713,14.99
					c9.318,5.672,14.832,8.709,16.99,9.717c2.164,0.999,0.982-0.044-2.949-2.743c-7.847-5.426-26.715-17.413-51.088-34.113
					c-7.438-5.481-11.766-8.88-13.807-10.568c-2.035-1.694-1.776-1.687,0.069-0.498c3.688,2.381,13.761,9.434,24.752,16.762
					c24.131,16.742,48.835,32.265,73.789,46.978c24.952,14.72,50.153,28.642,75.209,42.432
					c25.055,13.789,49.963,27.472,74.292,41.703c24.331,14.219,48.073,29.003,70.831,44.688
					c22.763,15.672,44.532,32.237,65.079,49.648c20.555,17.404,39.89,35.637,57.992,54.442
					C2208.632,1590.493,2239.9,1630.309,2267.341,1670.297z"/>
				<path fill="#718B5C" d="M2408.684,1893.788c5.521,11.773-6.238-11.081-16.402-29.556c-5.065-9.246-9.697-17.413-11.267-19.764
					c-1.581-2.346-0.033,1.094,6.984,15.183c22.779,44.556,47.97,96.571,73.338,153.372c25.396,56.787,50.991,118.341,75.325,181.59
					c24.354,63.241,47.467,128.166,68.387,191.518c20.93,63.348,39.676,125.116,55.574,181.978
					c8.16,30.401,13.207,49.678,18.083,68.197c4.854,18.524,9.53,36.294,16.427,63.808c0.563,0.982,0.961,1.004,0.581-1.724
					c8.166,31.111,18.685,71.859,28.353,112.828l4.008,17.208l2.58,11.357l1.272,5.65l0.633,2.818l0.316,1.408
					c0.053,0.428,0.453,1.131-0.286,0.926l-39.57-0.046c-19.755-0.075-38.266-0.207-54.294-0.425
					c-18.257,0.371-31.663,1.772,3.275,1.438c-97.534,1.226-168.319-2.607-223.273-1.499c47.372,0.923-47.19,1.332,9.462,2.069
					c-102.266,0.188-93.046-4.755-173.899-5.342c-4.792,0.39-9.766,0.78,6.551,0.899c-88.193-2.13-270.767,1.227-280.472-2.25
					l-35.605,1.448c-15.425-0.452-23.184-0.847-31.006-1.188c-3.912-0.172-7.839-0.329-12.75-0.474l-8.222-0.208l-10.949-0.188
					l-25.846-18.602c-34.733-23.789,0.596,1.997-12.304-6.442c-13.722-11.38-106.427-75.893-147.299-107.081
					c-1.168-3.504,73.146,55.098,115.988,82.858c1.59,0.587-4.386-3.779-12.887-9.827l41.722,29.589l40.767,29.062l81.042,0.695
					l77.477,0.865l147.895,1.834c96.283,1.129,189.04,1.888,284.866,1.173c48.403,1.543,85.585,0.104,107.117-1.409
					c-39.729-0.699-153.034-2.166-155.703,0.896l-68.844-1.987c-26.143,0.148-25.536-2.942-36.818-3.451
					c48.524,0.354,103.479-2.653,38.031-3.766c127.681-0.35-41.185,6.516,71.938,5.734l16.499-2.216
					c-21.412,1.185,76.486,2.21,113.062,1.468l-15.164-0.44l117.256,0.303l62.709,0.084l1.041,0.001l0.521,0.001
					c0.124,0.029,0.146-0.022,0.097-0.132l-0.057-0.253l-0.456-2.029l-0.916-4.063l-1.855-8.147l-3.639-15.678
					c-2.407-10.254-4.876-20.557-7.401-30.904c-20.228-82.774-43.749-168.491-69.751-254.497
					c-26.018-86-54.604-172.273-85.259-256.035c-30.646-83.763-63.386-165.009-97.471-240.945
					c-7.071-19.228-17.14-42.672-29.041-67.961c-11.894-25.293-25.632-52.421-39.87-79.104
					c-14.229-26.689-28.964-52.925-42.556-76.64c-13.58-23.725-26.013-44.932-35.301-61.835c-10.108-15.313-3.522-4.021,0.753,3.728
					c2.137,3.877,3.7,6.866,2.392,5.166c-1.323-1.689-5.461-8.106-15.084-22.812c-9.659-14.699-14.796-22.787-17.265-27.142
					c-2.481-4.345-2.327-4.928-1.715-4.39c-6.073-8.719-12.313-17.468-18.731-26.236c-2.629-6.001-2.126-7.535,2.207-3.602
					c4.329,3.944,12.566,13.381,24.916,29.664c12.331,16.295,28.776,39.457,48.958,71.136
					C2358.019,1803.134,2381.899,1843.348,2408.684,1893.788z"/>
			</g>
		</g>
	</g>
</g>
<g opacity="0.86">
	<path fill="#718B5C" d="M3772.967,2843.154c-62.077-65.404-643.596-634.079-1158.731-840.863
		c-515.828-207.035-637.924,146.395-1392.808-287.172c-389.49-223.732-668.569-834.638-969.405-1206.521
		C165.006,401.016,74.741,315.407-8.504,248.432v2594.723H3772.967z"/>
	<g>
		<g>
			<g>
				<path fill="#FFFFFF" d="M-0.89,447.526c1.134,53.021,1.59,169.389-0.342,167.119c1.932,2.27,1.932,2.27,3.311,81.582
					c-1.289-1.685-0.938,69.572-0.833,114.757c0.923-37.349,1.076-88.686,1.387-191.433c-1.395-46.833-1.036-118.876-0.71-190.178
					c0.163-35.651,0.318-71.116,0.242-103.153c-0.038-16.018-0.134-31.179-0.316-45.077l-0.017-0.739l-0.018-0.419l-0.037-0.839
					l-0.081-1.69l-0.188-3.44l-0.225-3.552l-0.062-0.91l-0.032-0.458c0.002-0.06-0.029-0.191,0.001-0.193l0.136,0.088l1.091,0.701
					l-0.9-0.769l-0.454-0.389c-0.031-0.019-0.091-0.097-0.099-0.066l-0.004,0.132l-0.009,0.265l-0.074,2.139l-0.165,4.434
					l-0.184,4.697l-0.197,11.174l-0.796,48.756C-0.948,373.304-1.256,408.383-0.89,447.526z"/>
				<path fill="#FFFFFF" d="M-9.354,868.545l0.768,13.841l-1.208-162.579C-9.167,752.763-8.447,863.346-9.354,868.545z"/>
				<path fill="#718B5C" d="M-7.298,1393.263c-1.41-14.646-2.225,68.034-3.516,66.423c2.838-3.003,0.579,129.623,0.933,200.952
					l2.175,28.635c1.582-69.133,0.896-243.868,1.101-391.873L-7.298,1393.263z"/>
				<path fill="#FFFFFF" d="M-8.912,1526.549l1.394,46.796C-7.887,1534.311-8.098,1443.867-8.912,1526.549z"/>
				<path fill="#FFFFFF" d="M-1.254,1426.585c0.187-115.709-0.938,69.718-1.396-46.796
					C-2.282,1418.896-2.178,1464.08-1.254,1426.585z"/>
				<polygon fill="#718B5C" points="-5.628,1910.951 -6.662,1664.74 -7.615,1766.607 				"/>
				<path fill="#718B5C" d="M-10.274,1924.426c0.015-32.149,0.814-82.754,1.566-36.763c-1.724,88.1,0.701,142.731-0.76,224.68
					l-0.732-78.286c-1.812,10.691,1.849,163.457-1.37,159.355c2.265,105.969,2.746-80.41,4.354,57.123
					c-0.579-129.697,0.113-225.486,0.684-334.312c-0.659,31.49-0.536,44.38-1.075,88.832c-0.09-77.407-1.069-181.839-1.281-272.282
					C-10.978,1781.768-9.077,1848.556-10.274,1924.426z"/>
				<path fill="#718B5C" d="M-10.731,2316.957c-0.173,83.56-0.237,212.378,2.203,234.714c1.719-88.026-0.334-103.626-1.349-143.392
					c0.399-25.412,0.571-108.898,1.846-74.99C-8.556,2345.592-9.81,2279.315-10.731,2316.957z"/>
				<path fill="#718B5C" d="M-11.156,2644.971l2.162,60.93l-0.366-39.18l1.547-4.541c-0.384-6.957-3.204-36.25-3.032-119.81
					C-12.027,2585.871-10.616,2600.737-11.156,2644.971z"/>
				<path fill="#718B5C" d="M-0.465,2665.109c-1.063,56.609-0.431,89.711,0.18,154.815c-0.213-90.517-0.148-219.188-1.035-246.284
					l0.383,7.104c0,0-1.118-85.17-2.635-145.295C-2.072,2527.724-4.345,2692.353-0.465,2665.109z"/>
				<path fill="#718B5C" d="M-0.277,2549.327l1.256,66.057L-0.277,2549.327z"/>
				<polygon fill="#718B5C" points="51.826,2845.292 -10.308,2844.958 -9.934,2775.619 -10.594,2806.89 -10.612,2845.262 				"/>
				<path fill="#718B5C" d="M-4.119,2750.72c-0.309,102.6,1.704-55.95,1.658,40.571c0.244,26.145-0.061-141.707-1.087-149.47
					C-3.944,2667.014-2.31,2740.101-4.119,2750.72z"/>
				<path fill="#718B5C" d="M135.313,2845.464l105.236-1.624L135.313,2845.464z"/>
				<path fill="#718B5C" d="M398.367,2846.5l20.725-1.154c101.868,0.955,239.4-0.651,313.513,1.838
					c-17.43-1.427,42.402-2.943-47.236-3.374c-13.914,0.765-45.99,0.749-40.791,1.654c-38.301-0.278-30.465-1.306-55.95-1.707
					c-65.837,1.256-167.851,0.304-220.726,1.437c25.924-0.247,32.149,0.016,51.19,0.152c-112.047,2.008-131.601-2.899-180.813,0.429
					C278.044,2844.763,346.152,2846.987,398.367,2846.5z"/>
				<path fill="#718B5C" d="M389.14,2838.632l-89.931-0.434c27.902-1.534,109.777-0.074,124.497-1.484
					c-5.419-0.906-94.911-1.336-62.102-1.965c-10.912,3.603-122.739,0.194-76.163,4.215c-116.515,0.458-35.885-2.21-158.624-2.014
					l-34.639,1.917C228.832,2837.904,252.413,2839.592,389.14,2838.632z"/>
				<path fill="#718B5C" d="M736.267,2839.193l43.647,1.183l-23.654-1.689c200.293-0.285,317.76,6.643,438.815,5.667
					c151.154-2.283,291.689,1.113,445.846,0.765c75.138-1.464-72.208-0.859-80.044-1.757c21.604-2.853,73.233,1.503,108.239-0.838
					c9.813-2.069-157.891-2.228-224.094-3.476c-57.635,0.293-56.756,0.936-74.332,2.105c-14.574-1.151-73.16-1.502-87.807-2.655
					c-120.103,1.62-182.937-1.44-301.063,0.305c-36.836-1.567,88.466-0.305,49.359-0.54l-64.445,0.038l6.811,0.256
					c-87.66,1.6-249.58,0.115-306.042-0.944c44.16,0.536,74.991,1.84,22.702,2.33l-42.841-1.827l-112.853,2.652
					C620.484,2839.004,719.35,2842.537,736.267,2839.193z"/>
				<path fill="#718B5C" d="M611.55,2835.904c-134.164-0.969,15.965,2.72-131.161,1.87l154.962-0.18L611.55,2835.904z"/>
				<path fill="#FFFFFF" d="M1253.588,2840.451l66.35,1.248C1283.833,2839.143,1179.476,2842.559,1253.588,2840.451z"/>
				<polygon fill="#FFFFFF" points="1498.481,2840.432 1463.329,2842.774 1525.87,2841.448 				"/>
				<path fill="#718B5C" d="M1721.916,2843.263c49.799-1.189-9.74-2.185-67.448-1.892
					C1706.464,2841.467,1733.634,2842.484,1721.916,2843.263z"/>
				<path fill="#FFFFFF" d="M2089.988,2847.777c-112.487,0.007,99.744,0.584,18.894,2.692
					C2123.529,2849.475,2180.504,2848.144,2089.988,2847.777z"/>
				<path fill="#718B5C" d="M2454.104,2853.329c-40.718,0.448-57.269,0.032-62.761-0.537
					C2420.856,2852.838,2444.438,2852.97,2454.104,2853.329z"/>
				<path fill="#718B5C" d="M1050.146,2846.076c-12.889,0.01-26.804,0.012-39.473-0.063L1050.146,2846.076z"/>
				<path fill="#718B5C" d="M1075.924,2846.118l-25.778-0.042L1075.924,2846.118z"/>
				<polygon fill="#718B5C" points="1911.518,2851.146 1911.151,2851.148 1902.363,2850.925 				"/>
				<path fill="#718B5C" d="M-10.421,1195.972c-0.122-21.824-0.162-38.74-0.143-52.289l0.159,51.703L-10.421,1195.972z"/>
				<path fill="#718B5C" d="M-7.169,1135.408c1.5,92.348-3.526,98.719-2.446,248.481l-0.789-188.503
					C-8.066,1109.703-9.162,1261.736-7.169,1135.408z"/>
				<path fill="#718B5C" d="M-4.392,2384.186l0.071,5.2C-4.239,2398.467-4.315,2393.779-4.392,2384.186z"/>
				<path fill="#FFFFFF" d="M2423.897,1944.552l0.984-0.475c27.069,5.357,53.863,12,80.31,19.766
					C2478.404,1956.204,2451.279,1949.72,2423.897,1944.552z"/>
				<path fill="#FFFFFF" d="M2412.838,1941.377c-46.111-8.439-92.95-12.964-139.839-14.123c34.75,0.556,69.505,2.907,103.999,7.396
					c34.496,4.467,68.711,11.052,102.432,19.542c33.724,8.486,66.953,18.855,99.615,30.719
					c32.671,11.868,64.735,25.242,96.417,39.423c63.342,28.442,124.945,60.578,185.159,95.028
					c60.211,34.477,119.036,71.31,176.737,109.784l-22.985-14.149c1.117,0.919-7.018-4.346-22.186-14.057
					c-15.173-9.702-37.393-23.834-64.573-40.43c-27.179-16.595-59.329-35.641-94.333-55.148
					c-34.997-19.516-72.859-39.476-111.282-58.085c-38.414-18.626-77.389-35.879-114.321-50.457
					c-36.938-14.59-71.933-26.163-101.859-34.595c-29.924-8.465-54.74-13.867-71.252-17.091
					C2418.041,1941.937,2409.833,1940.759,2412.838,1941.377z"/>
				<path fill="#FFFFFF" d="M2373.064,1936.455c-20.131-1.856-38.557-3.218-56.434-4.262c-17.876-1.036-35.203-1.745-53.115-2.063
					c-35.821-0.633-74,0.379-123.333,4.653c32.913-2.833,61.099-4.96,89.07-5.968c27.962-0.979,55.725-0.953,87.588,1.323
					C2335.651,1931.654,2354.407,1933.748,2373.064,1936.455z"/>
				<path fill="none" stroke="#718B5C" stroke-width="0" stroke-linecap="round" stroke-linejoin="round" d="M2096.502,1942.082
					c-22.192,1.315-46.515,3.146-68.466,4.487c-21.948,1.365-41.523,2.208-54.121,2.281c7.724-1.185,28.858-1.901,52.813-3.035
					C2050.686,1944.724,2077.461,1943.3,2096.502,1942.082z"/>
				<path fill="#718B5C" d="M1977.261,1956.382c-7.01,0.214-13.878,0.332-20.749,0.381c8.2-0.206,15.653-0.49,21.256-0.761
					L1977.261,1956.382z"/>
				<path fill="#718B5C" d="M1977.769,1956.002l1.156-0.951C1993.528,1954.983,1989.49,1955.404,1977.769,1956.002z"/>
				<path fill="#718B5C" d="M1956.512,1956.763c-18.54,0.527-40.524,0.449-51.937,0.411c6.439,0.258,12.879,0.461,19.318,0.611
					c-13.214-0.072-31.481-0.422-47.989-1.268c-16.509-0.81-31.246-2.076-37.422-2.932c12.957,1.265,22.749,1.96,30.157,2.395
					c7.41,0.428,12.438,0.588,15.893,0.614c6.908,0.042,7.521-0.433,8.325-1.038c-28.094-1.276-56.158-3.654-84.072-7.186
					c8.09-0.555,26.16,1.721,51.685,4.07C1885.978,1954.803,1919.003,1957.069,1956.512,1956.763z"/>
				<path fill="none" stroke="#718B5C" stroke-width="0" stroke-linecap="round" stroke-linejoin="round" d="M1692.003,1928.283
					c28.295,6.13,56.823,11.188,85.5,15.047c5.841,1.324,5.39,1.577,0.915,1.143c-4.473-0.443-12.964-1.61-23.155-3.3
					c-10.192-1.682-22.081-3.898-33.375-6.236C1710.591,1932.608,1699.888,1930.166,1692.003,1928.283z"/>
				<path fill="#718B5C" d="M1570.154,1890.478l22.833,7.393c9.456,3.025,19.794,6.217,28.042,8.647
					c8.246,2.436,14.392,4.134,15.417,4.323c1.03,0.176-3.079-1.101-15.221-4.972c13.299,3.671,28.944,8.246,45.647,12.628
					c-13.781-3.519-20.873-5.348-25.274-6.345c-4.398-1.011-6.093-1.229-8.988-1.85c-2.894-0.626-6.994-1.638-16.156-4.391
					C1607.301,1903.136,1593.062,1898.668,1570.154,1890.478z"/>
				<path fill="#718B5C" d="M1666.872,1918.497c6.581,1.67,13.882,3.498,23.713,5.863
					C1682.6,1922.526,1674.58,1920.521,1666.872,1918.497z"/>
				<path fill="none" stroke="#718B5C" stroke-width="0" stroke-linecap="round" stroke-linejoin="round" d="M2557.037,1982.509
					c-9.758-3.563-9.354-3.63-4.981-2.398L2557.037,1982.509z"/>
				<path fill="#718B5C" d="M1411.052,1823.665c-9.76-4.532-19.483-9.142-29.171-13.821c8.342,4.027,16.067,7.644,23.548,11.09
					L1411.052,1823.665z"/>
				<path fill="#718B5C" d="M3778.601,2837.807c-9.785-10.341-19.623-20.216-29.551-30.13c-9.928-9.89-19.944-19.719-30.12-29.595
					c-20.355-19.747-41.35-39.681-63.69-60.451c-44.704-41.512-94.732-86.456-156.569-138.998
					c0.698,2.054-11.753-8.488-25.539-20.002c-13.779-11.524-28.909-24.004-33.277-26.152c16.119,13.488,20.58,17.3,16.328,13.717
					c-4.261-3.572-17.257-14.514-36.29-30.25c-19.033-15.735-44.117-36.25-72.564-58.943c-28.441-22.7-60.255-47.568-92.617-72.156
					c-32.355-24.596-65.263-48.905-95.687-70.75c-30.416-21.856-58.343-41.252-80.53-56.323
					c-22.186-15.075-38.613-25.853-45.97-30.587c-7.368-4.719-5.635-3.444,8.236,5.97c11.311,7.168,22.583,14.4,33.817,21.692
					c-11.899-7.229-23.837-14.391-35.812-21.479c-33.28-22.646-73.026-49.006-110.792-72.496
					c-37.73-23.543-73.472-44.197-97.742-56.885c-1.604-0.98,6.607,3.438,22.028,12.132c15.416,8.699,38.018,21.722,65.09,38.09
					c27.075,16.359,58.609,36.083,92.019,57.931c33.418,21.835,68.71,45.79,103.516,70.279
					c34.812,24.479,69.14,49.482,100.813,73.168c31.68,23.681,60.713,46.033,85.056,65.073
					c24.344,19.038,44.006,34.756,56.972,45.146c12.963,10.396,19.242,15.45,16.725,13.292c5.81,5.166-1.213-0.227-18.093-13.516
					c-16.889-13.277-43.657-34.425-77.579-60.461c-33.92-26.035-75.009-56.943-120.527-89.693
					c-45.512-32.756-95.468-67.338-146.931-100.879c-51.448-33.558-104.418-66.047-155.574-95.071
					c-51.135-29.061-100.466-54.612-144.08-75.226c-43.6-20.652-81.448-36.396-109.181-47.026
					c-27.75-10.604-45.344-16.196-48.428-17.117l-10.13-4.82c-29.724-9.248-57.188-16.301-83.207-21.831
					c-26.022-5.525-50.601-9.535-74.659-12.484c-48.134-5.841-94.149-7.622-146.217-6.422c-7.868-0.452-15.747-0.826-23.634-1.138
					c19.136-0.47,34.787-0.57,48.72-0.511c13.933,0.068,26.15,0.291,38.414,0.689c12.263,0.407,24.575,0.983,38.681,2.013
					c14.103,1.048,30.006,2.529,49.385,5.157c-33.543-4.772-60.437-6.836-83.375-8.068c-22.946-1.187-41.964-1.479-59.975-1.45
					c-36.022,0.151-68.036,1.494-119.633,5.244c1.903,0.952,24.07-0.274,29.521-0.442c5.446-0.153-5.808,0.372-70.779,5.669
					c-18.778,0.845-6.574-0.838-4.21-1.662c1.183-0.414-0.093-0.606-8.927-0.177c-8.836,0.397-25.222,1.55-54.305,3.137
					c-35.207,1.577-59.873,1.955-78.973,2.116c-19.101,0.134-32.641,0.063-45.619-0.11c-12.977-0.203-25.397-0.505-42.23-1.577
					c-16.824-1.123-38.091-2.923-68.543-7.452c27.302,4.42,54.795,7.738,82.385,9.95c-11.326-0.769-25.094-1.883-40.024-3.478
					c-14.93-1.59-31.019-3.669-46.987-6.176c-31.952-4.955-63.356-11.819-84.451-17.506c12.504,3.029,29.917,6.894,49.042,10.416
					c19.12,3.545,39.952,6.718,59.151,8.97c38.409,4.577,70.172,5.409,68.361,4.243c-12.992-0.728-29.892-2.054-48.578-4.186
					c-18.687-2.113-39.151-5.054-59.293-8.605c-20.146-3.536-39.965-7.678-57.457-11.745c-17.495-4.058-32.667-8.016-43.609-10.941
					c9.037,1.91,18.091,3.712,27.158,5.408c-23.886-6.622-42.709-11.715-63.022-17.625c-20.288-5.962-42.079-12.748-71.313-24.029
					c-13.948-4.852-18.831-6.495-18.857-6.214c-0.021,0.267,4.837,2.395,10.483,4.756c11.287,4.732,25.752,10.352,10.092,5.097
					c-5.671-2.299-35.432-13.467-67.916-27.112c-16.253-6.792-33.208-14.145-48.353-20.868l-37.624-16.817
					c11.984,7.452,43.022,21.718,79.854,36.795c18.41,7.551,38.264,15.306,57.835,22.718c19.571,7.419,38.859,14.49,56.077,20.943
					c-34.466-11.482-68.459-24.322-101.994-38.227c-16.128-5.781-14.128-4.539-2.57,0.438c11.565,4.956,32.775,13.424,55.2,21.603
					c22.409,8.225,46.043,16.092,61.966,21.209c15.92,5.12,24.059,7.746,15.374,5.83c-39.7-10.267-79.775-25.332-118.448-41.519
					c-38.71-16.178-76.073-33.441-111.332-47.898c11.312,5.609,28.962,14.049,48.949,23.059
					c19.979,9.025,42.306,18.59,62.761,26.865c40.888,16.621,74.289,27.993,64.267,25.217
					c-26.761-9.963-49.734-18.417-75.124-28.195c-25.365-9.82-53.158-20.967-88.933-37.432
					c-28.545-13.893-56.747-28.432-84.648-43.488c-18.041-8.842-19.856-9.58-13.76-6.1c6.105,3.463,20.185,11.021,34.101,18.438
					c-30.993-16.236-67.038-35.667-105.998-57.814l-14.744-8.429c-4.956-2.842-10.016-5.787-15.037-8.807
					c-10.071-6.034-20.188-12.395-30.312-19.061c-20.255-13.323-40.53-27.881-60.575-43.444
					c-40.1-31.124-79.183-66.327-115.926-103.323c-36.764-36.992-71.224-75.744-102.614-113.861
					c-18.909-22.297-28.71-34.347-33.688-40.209c-4.956-5.88-5.001-5.644-3.833-3.828c2.362,3.612,9.614,13.535-7.453-6.882
					c-18.641-24.941-44.104-58.178-69.199-92.048c-25.132-33.84-49.953-68.259-68.334-94.747
					c-10.878-15.841-32.075-43.466-22.32-27.83c31.038,44.552,62.693,88.713,95.373,132.146c-2.747-2.855-0.929,0.776,5.995,10.935
					c6.937,10.147,18.965,26.839,36.981,49.826c-5.448-8.574,0.475-1.365,12.785,14.22c12.316,15.581,31.141,39.463,51.664,64.112
					c20.484,24.677,42.736,50.057,60.85,69.366c18.09,19.333,31.928,32.666,34.755,34.04l-3.035-0.325
					c49.303,49.469,102.033,95.912,159.466,136.246l-4.91-3.836c-0.248-0.006,8.618,6.534,23.961,16.811
					c7.68,5.125,16.996,11.158,27.646,17.686c5.328,3.26,10.989,6.643,16.945,10.095c5.985,3.466,12.15,6.93,18.539,10.523
					c25.551,14.353,54.486,30.104,83.603,45.28c29.106,15.195,58.398,29.799,84.415,42.316
					c-7.571-3.401-24.125-11.219-42.933-20.567c-18.82-9.325-39.881-20.201-56.779-29.119
					c-16.904-8.908-29.676-15.805-32.102-16.861c-2.407-1.088,5.458,3.787,30.287,17.666c-19.015-9.812-41.548-22.011-66.616-36.241
					c-6.275-3.57-12.662-7.201-19.326-11.115c-6.624-3.897-13.347-7.986-20.151-12.266c-13.612-8.55-27.523-17.884-41.613-27.902
					c-28.172-20.048-56.961-42.948-85.457-67.922c-28.509-24.963-56.735-51.979-84.135-80.009
					c6.785,7.644,13.654,15.224,20.601,22.741c-29.601-28.741-60.101-61.244-90.481-96.318
					c-30.399-35.063-60.689-72.686-90.275-111.458c-59.205-77.544-115.545-159.65-166.203-234.752
					c10.494,14.574,21.039,29.114,31.646,43.61c-17.693-26.524-37.558-57.071-57.202-87.179
					c-19.649-30.105-39.104-59.761-56.131-84.428c42.503,64.745,19.83,31.95,11.544,20.729
					c-29.055-43.43-64.083-97.516-101.968-155.37c-37.898-57.841-78.749-119.41-119.89-177.45c0.002-0.002,4.292,5.461,1.033,0.346
					c-28.828-40.479-58.307-80.443-88.912-119.425c-21.401-27.866-36.058-46.322-48.677-62.097
					c-12.649-15.761-23.255-28.867-37.25-45.384c-8.735-9.607-24.039-26.144-35.367-37.765
					c-11.32-11.629-18.469-18.516-10.321-9.405c9.539,9.988,18.932,20.111,25.183,26.704l-28.999-29.417
					c-6.947-7.051-11.914-12.19-17.303-17.744c-5.396-5.547-11.217-11.508-20.005-20.06c-8.801-8.537-20.557-19.687-38.116-35.258
					c13.677,11.903,19.458,16.933,20.719,17.657c1.251,0.735-2.06-2.789-6.868-7.646c-9.583-9.747-25.347-24.631-21.597-22.385
					c-20.657-18.168-31.885-27.178-36.911-31.029c-5.046-3.828-3.958-2.425-0.576,0.912c6.79,6.65,22.509,21.302,17.065,17.095
					c-6.248-5.507-12.19-10.676-17.864-15.549l-4.205-3.602l-1.904-1.625l-0.275-0.262l-1.12-1.055l-1.17-1.087l-0.604-0.556
					l-0.307-0.28l-0.155-0.141c-0.051-0.046-0.118-0.125-0.102-0.032l-0.206,2.612l-0.103,1.389l-0.052,0.716l-0.013,0.181
					l-0.006,0.091l-0.003,0.046l-0.003,0.249l-0.026,1.979l-0.206,15.313l-0.401,28.928c-0.519,37.981-0.958,76.044-1.122,143.529
					c1.028,7.763,0.695-95.716,1.858-107.141c-0.276,38.374-0.171,83.486,0.213,90.443l0.815-82.754
					c-1.23,140.242-1.557,275.211-0.732,430.979l0.521-12.23l-0.05,96.595l-1.917-34.712c0.49,52.069-1.215,108.02,0.319,135.848
					l0.138-19.187l0.61,65.251l-1.897-67.082c-0.817,82.9,3.121,197.438,2.797,332.333c-2.594,29.074-0.912-232.956-4.258-250.239
					c-0.537,44.526-1.093,120.982-0.203,148.078c0.905-5.419,0.922-37.569,0.938-69.865c1.743,118.199-1.052,295.131,1.875,369.829
					l1.075-88.832c0.336,103.405-3.18,169.901-1.263,204.614l-3.311-81.509c1.623,105.09,1.296,239.986,2.536,338.266
					c1.928,2.489-0.058-141.854,0.326-134.97l1.394,46.869c-1.107,153.205-1.183,43.721-2.307,229.148l1.289,1.684
					c-1.965,61.956,1.815,227.757-1.632,165.361l0.797-50.385l-1.547,4.321l1.054,214.208c-1.154-20.871-0.818,82.607-2.352,54.925
					l1.379,79.02c-2.208,35.957-2.634-145.149-4.306-153.571c-1.013,2.783-0.887,39.986-0.746,58.221
					c-1.63-95.203,2.206-142.072,2.255-236.69l-1.393-47.089l1.928,2.563c-0.362-39.18-1.636-72.94-2.402-86.781
					c2.626-93.446-0.549-193.996,0.04-335.116c1.102,117.247,1.844-74.991,2.349-54.999c0.032-64.372-3.368-223.508-1.018-278.434
					c0.922-37.568,1.379,78.946,1.809-10.692c-0.229-58.294-1.239-98.353-2.16-60.71c-0.579-129.697-0.117-283.78-0.172-425.56
					l1.272,33.834c1.074-88.832-0.685-174.955-2.08-221.751c0.521-12.23,0.141-19.187,0.902-5.419
					c2.124-113.219-2.63-145.075-2.148-331.235c-1.812,10.545-1.982,94.105-1.109,153.058l-2.056-15.379
					c-0.079,161.041,0.344,342,1.565,472.429l-1.516-59.978c-2.765,112.633,2.664,80.85-0.482,186.453
					c0.735,78.36,1.062-56.683,1.934,2.417c-0.591,55.438-3.56-14.208-3.689,78.58c-0.517-174.149-0.734-360.364-0.865-548.629
					l-0.156-282.684l-0.013-35.872l0.019-21.078l0.01-10.537l0.002-2.634c0.014-0.081-0.03-0.283,0.031-0.266l0.256,0.207
					l0.512,0.413l1.023,0.825l4.089,3.301c5.444,4.404,10.864,8.805,16.279,13.272l8.073,6.7l6.704,5.63
					c8.913,7.53,17.74,15.133,26.468,22.817c34.922,30.723,68.333,62.643,100.113,95.445c5.108,4.759-8.137-9.282-21.566-22.844
					c11.397,10.901,32.471,31.853,59.416,61.37c13.46,14.766,28.383,31.674,44.237,50.554
					c15.868,18.873,32.616,39.743,49.968,62.207c34.72,44.927,71.709,96.364,109.146,150.998
					c37.46,54.622,75.432,112.399,112.713,169.73c37.278,57.335,73.913,114.202,108.594,167.104
					c34.659,52.914,67.39,101.846,96.292,143.656c57.709,83.701,100.283,138.685,106.257,144.395c5.177,7.5-1.296-0.372-3.224-2.424
					c-0.962-1.027-0.798-0.59,2.533,3.951c3.337,4.536,9.813,13.198,21.663,28.473c4.596,5.327,17.213,20.613,6.614,5.789
					c29.505,39.034,62.821,80.352,99.89,121.919c37.07,41.545,77.916,83.359,122.587,122.752
					c44.651,39.362,93.201,76.302,145.184,107.311c6.486,3.88,13.05,7.637,19.639,11.405l19.767,11.204
					c13.189,7.417,26.402,14.723,39.618,21.904c26.433,14.362,52.883,28.222,79.2,41.454c-2.16-1.572,8.479,3.31,19.851,8.418
					c11.366,5.122,23.475,10.448,24.01,10.336c18.091,9,39.673,18.986,63.105,28.974c23.429,9.996,48.711,19.979,74.104,29.165
					c25.389,9.199,50.891,17.583,74.642,24.74c23.749,7.172,45.743,13.115,64.04,17.866c-7.836-2.265-15.646-4.61-23.427-7.036
					c38.272,10.16,77.048,18.394,116.173,24.345c39.122,5.969,78.584,9.615,118.143,11.05c3.504-0.074-2.796-0.359-12.337-0.883
					c-9.542-0.513-22.319-1.356-31.789-2.186c25.837,1.741,41.651,2.372,51.63,3.048c9.98,0.63,14.131,1.19,16.678,1.687
					c35.264-0.208,70.479-2.067,105.657-4.784c38.734-1.659,78.683-4.608,119.737-7.037c41.046-2.421,83.25-4.206,126.288-3.296
					c43.024,0.867,86.855,4.516,130.725,11.729c43.875,7.168,87.742,17.833,131.013,31.48c21.64,6.817,43.138,14.366,64.458,22.544
					c21.319,8.192,42.443,16.947,63.44,26.127c41.981,18.372,83.332,38.512,123.939,59.904
					c81.214,42.815,159.47,90.558,233.923,140.439c22.947,14.108,44.021,27.589,68.619,44.094
					c24.584,16.524,52.708,36.061,89.385,62.794c-11.868-8.923-23.783-17.785-35.747-26.586
					c18.972,13.156,28.62,20.085,33.511,23.656c4.885,3.581,4.992,3.834,4.738,3.846c-0.255,0.014-0.872-0.211,2.553,2.428
					c3.419,2.645,10.895,8.131,26.724,19.709c21.636,15.484,25.245,17.44,16.212,10.095c-9.051-7.319-30.808-23.866-60.346-44.729
					c-18.122-13.527-21.494-16.265-16.959-13.373c4.528,2.902,16.908,11.506,30.1,20.902
					c58.066,42.59,114.033,85.896,167.942,129.373c53.907,43.483,105.754,87.145,155.506,130.592
					c49.748,43.453,97.406,86.688,142.838,129.457c22.713,21.389,44.868,42.662,66.415,63.834
					c10.771,10.588,21.392,21.15,31.838,31.711C3758.286,2816.519,3768.56,2827,3778.601,2837.807z"/>
				<path fill="#718B5C" d="M3455.426,2857.709c-31.197-0.839,123.398-0.738,47.822-2.541
					c-240.353-3.493-630.76-0.704-915.419-3.453c-75.87-1.363-96.082-1.396-164.482-2.129c-1.318,0.294-1.465,0.673,1.831,1.002
					c-77.555-0.121-202.93,0.399-280.338-0.473c-22.043,0.371-38.228,1.772,3.954,1.438c-117.759,1.226-203.223-2.607-269.572-1.499
					c57.195,0.923-56.976,1.332,11.425,2.069c-123.472,0.188-112.34-4.755-209.961-5.342c-5.785,0.39-11.791,0.78,7.909,0.899
					c-106.481-2.13-326.914,1.227-338.631-2.25l-42.988,1.448c-46.796-1.135-35.152-1.914-113.146-2.386
					c-50.824,0.548,1.977,1.29-16.624,1.817c-21.458-1.404-157.818-0.774-219.847-2.742c-3.588-2.191,110.51,2.935,172.099,0.965
					c1.978-0.436-6.957-0.564-19.553-0.614c323.18,0.534,569.391,6.668,835.155,5.026c58.44,1.543,103.333,0.104,129.331-1.409
					c-47.968-0.699-184.768-2.166-187.991,0.896l-83.12-1.987c-31.564,0.148-30.832-2.942-44.453-3.451
					c58.586,0.354,124.936-2.653,45.917-3.766c154.157-0.35-49.726,6.516,86.855,5.734l19.919-2.216
					c-25.851,1.185,92.348,2.21,136.507,1.468l-18.308-0.44c363.385,1.05,848.41,0.063,1250.389-0.664
					c98.719,5.495,294.838-1.934,387.698,2.526c44.233-0.74-62.981-1.953,21.896-2.622c42.476-0.334,46.284,1.105,44.38,1.512
					l38.887-0.437C3803.944,2849.432,3729.539,2854.184,3455.426,2857.709z"/>
			</g>
		</g>
	</g>
</g>
</svg>
