<?xml version="1.0" encoding="utf-8"?>
<!-- Generator: Adobe Illustrator 15.1.0, SVG Export Plug-In . SVG Version: 6.00 Build 0)  -->
<!DOCTYPE svg PUBLIC "-//W3C//DTD SVG 1.1//EN" "http://www.w3.org/Graphics/SVG/1.1/DTD/svg11.dtd">
<svg version="1.1" id="Ebene_1" xmlns="http://www.w3.org/2000/svg" xmlns:xlink="http://www.w3.org/1999/xlink" x="0px" y="0px"
	 width="120px" height="120px" viewBox="0 0 120 120" enable-background="new 0 0 120 120" xml:space="preserve">
<circle opacity="0.67" fill-rule="evenodd" clip-rule="evenodd" fill="#4E5C2B" cx="60" cy="57.207" r="51.25"/>
<path fill-rule="evenodd" clip-rule="evenodd" fill="#D8D5C1" d="M82.932,42.302c-2.398-2.108-3.568,2.304-4.122,0.32
	c1.23-3.97,1.114-7.124,1.268-10.447c-1.316-2.578-3.533,0.777-4.436-1.106c0.639-2.534,0.851-4.82-2.056-5.224
	c-1.408,1.249-2.337,3.287-3.797,4.437c0.146-1.526,0.325-3.071-1.907-3.169c-6.894,6.15-8.06,21.834-15.973,26.29
	c0.033-5.414,1.484-11.67-4.083-13.717c-0.778,0.547-1.35,1.267-1.649,2.244c-0.27,5.396-3.579,10.061-4.081,15.75
	c-0.557,6.359,4.414,10.489,4.123,15.824c-0.262,4.812-4.718,7.906-3.157,12.662c2.574-2.884,4.21-7.315,5.22-12.824
	c-0.321-4.327-4.632-9.273-4.289-15.189c0.324-5.389,3.547-11.4,4.106-16.461c4.547,3.728,0.184,12.813,3.813,17.092
	C52,58.68,52.047,58.52,52.13,58.409c0.577-1.732,1.302-3.365,2.368-4.769l0.1-0.23c0.065-0.038,0.104-0.112,0.162-0.152
	c0.334-0.4,0.754-0.73,1.16-1.078c2.533-2.506,3.844-6.51,5.644-10.497c1.989-4.432,3.532-9.673,6.952-11.72
	c-2.044,7.947-4.956,14.449-6.953,22.487c3.951-1.159,4.026-7.49,5.541-11.403c2.066-5.358,4.398-10.218,7.269-12.988
	c0.503,9.347-7.844,19.995-6.316,28.032c3.856-6.722,4.362-19.04,10.274-22.334c-0.449,8.827-4.653,16.693-6.477,25.964
	c5.152-1.881,4.301-13.761,9.81-15.042C79.03,54.4,75.012,64.758,71.235,70.334c-2.464,3.621-5.78,4.643-8.866,8.549
	c-1.874,2.374-7.25,12.002-3.474,13.931c1.063-8.413,6.906-13.667,10.28-16.937C75.11,70.114,82.879,52.574,82.932,42.302z"/>
</svg>
