<?xml version="1.0" encoding="utf-8"?>
<!-- Generator: Adobe Illustrator 15.1.0, SVG Export Plug-In . SVG Version: 6.00 Build 0)  -->
<!DOCTYPE svg PUBLIC "-//W3C//DTD SVG 1.1//EN" "http://www.w3.org/Graphics/SVG/1.1/DTD/svg11.dtd">
<svg version="1.1" id="Ebene_1" xmlns="http://www.w3.org/2000/svg" xmlns:xlink="http://www.w3.org/1999/xlink" x="0px" y="0px"
	 width="120px" height="120px" viewBox="0 0 120 120" enable-background="new 0 0 120 120" xml:space="preserve">
<circle opacity="0.93" fill-rule="evenodd" clip-rule="evenodd" fill="#AB6B3F" cx="60" cy="60.347" r="51.25"/>
<g>
	<path fill-rule="evenodd" clip-rule="evenodd" fill="#D8D5C1" d="M70.042,35.648c-0.924-5.456-7.422-8.2-13.177-6.083
		c-6.383,2.355-6.651,6.383-6.08,10.142C52.542,51.038,72.13,48.175,70.042,35.648z M65.895,42.473
		c-1.088,1.089-2.56,1.614-4.072,1.845c-0.29,0.106-0.569,0.168-0.85,0.168c-0.045,0.003-0.091,0.026-0.137,0.029
		c-2.226,0.556-4.473-0.229-5.904-1.726c-0.028-0.022-0.073-0.02-0.097-0.042c-0.063-0.094-0.092-0.182-0.148-0.276
		c-0.64-0.762-1.049-1.663-1.187-2.667c-1.586-6.072,5.231-9.538,9.937-7.566c1.01,0.291,1.917,0.913,2.601,1.731
		c0.747,0.65,1.335,1.429,1.523,2.399C68.342,38.526,67.714,41.016,65.895,42.473z"/>
	<path fill-rule="evenodd" clip-rule="evenodd" fill="#D8D5C1" d="M67.002,48.831c-17.86,2.983-21.287-10.171-31.401-11.158
		c2.783,9.814,9.674,15.521,15.327,22.466c0.034,0.04,0.068,0.077,0.107,0.117c1.142,1.01,2.065,2.249,2.704,3.631
		c0.023,0.04,0.057,0.076,0.086,0.12c0,0.013,0,0.029,0.005,0.042c0.839,1.909,1.045,4.007,0.588,6.039
		c-0.028,2.053-0.439,4.163-0.998,6.131c-0.011,0.034-0.034,0.058-0.039,0.092c-0.748,4.797-1.946,9.148-2.596,14.026
		c2.476-0.594,3.251-5.1,4.05-8.111c1.454-5.316,2.146-12.486,1.454-17.883c-0.074-0.302-0.147-0.601-0.233-0.9
		c-0.069-0.166-0.126-0.334-0.16-0.511c-0.125-0.373-0.263-0.739-0.444-1.094c-0.011-0.02-0.034-0.034-0.046-0.054
		c-0.034-0.051-0.028-0.104-0.058-0.156c-0.285-0.514-0.593-1.01-0.901-1.509c-0.404-0.419-0.82-0.836-1.215-1.266
		c-0.371-0.251-0.661-0.559-0.838-0.927c-5.1-4.92-9.777-12.078-11.722-16.194c6.799,11.899,30.659,12.854,40.494,3.043
		C75.86,53.422,63.871,58.22,65.992,74.114c0.741,5.727,3.365,13.542,7.063,17.238c-0.058-10.94-6.596-16.611-5.038-25.315
		c1.877-10.649,17.209-15.478,19.229-26.33C79.26,40.394,74.458,47.575,67.002,48.831z"/>
</g>
</svg>
