<?xml version="1.0" encoding="utf-8"?>
<!-- Generator: Adobe Illustrator 15.1.0, SVG Export Plug-In . SVG Version: 6.00 Build 0)  -->
<!DOCTYPE svg PUBLIC "-//W3C//DTD SVG 1.1//EN" "http://www.w3.org/Graphics/SVG/1.1/DTD/svg11.dtd">
<svg version="1.1" id="Ebene_1" xmlns="http://www.w3.org/2000/svg" xmlns:xlink="http://www.w3.org/1999/xlink" x="0px" y="0px"
	 width="283.46px" height="155.91px" viewBox="0 0 283.46 155.91" enable-background="new 0 0 283.46 155.91" xml:space="preserve">
<g>
</g>
<g>
	<rect x="83.311" y="57.705" fill="none" width="139.499" height="40.5"/>
	<path opacity="0.8" fill="#3D4D21" d="M104.797,64.825c-0.016-0.711-0.07-1.33-0.164-1.857s-0.258-0.965-0.492-1.313
		s-0.551-0.607-0.949-0.779s-0.906-0.258-1.523-0.258l-2.027,0.012l-0.035,13.077c0,0.86-0.023,1.493-0.07,1.9l1.992-0.094v1.043
		h-5.637V75.77c0.445-0.016,0.781-0.102,1.008-0.258c0.227-0.157,0.387-0.366,0.48-0.627s0.141-0.569,0.141-0.921
		c0-0.352,0-0.731,0-1.138l0.035-12.173l-2.484,0.012c-0.508,0-0.936,0.084-1.283,0.252s-0.631,0.424-0.85,0.768
		s-0.377,0.775-0.475,1.295s-0.146,1.135-0.146,1.846h-0.891l0.141-5.074h13.992l0.141,5.074H104.797z"/>
	<path opacity="0.8" fill="#3D4D21" d="M115.799,67.71c0-0.392,0.008-0.726,0.023-1.003s0.047-0.553,0.094-0.827l-1.723,0.07v-0.984
		h0.738c0.344,0,0.637-0.018,0.879-0.053s0.449-0.084,0.621-0.146s0.314-0.131,0.428-0.205s0.217-0.154,0.311-0.24h0.691
		l-0.023,9.07c0,0.125-0.002,0.283-0.006,0.475s-0.01,0.391-0.018,0.598s-0.018,0.414-0.029,0.621s-0.025,0.393-0.041,0.557
		l1.723-0.094v1.008h-3.434c-0.039-0.273-0.072-0.525-0.1-0.756s-0.049-0.459-0.064-0.686c-0.25,0.25-0.527,0.486-0.832,0.709
		s-0.627,0.416-0.967,0.58s-0.689,0.295-1.049,0.393s-0.715,0.146-1.066,0.146c-0.656,0-1.23-0.088-1.723-0.264
		s-0.902-0.467-1.23-0.873s-0.574-0.943-0.738-1.611s-0.246-1.498-0.246-2.49v-4.266c0-0.25,0.004-0.504,0.012-0.762
		s0.035-0.523,0.082-0.797l-1.652,0.07v-0.984h0.75c0.336,0,0.625-0.018,0.867-0.053s0.449-0.084,0.621-0.146
		s0.314-0.131,0.428-0.205s0.217-0.154,0.311-0.24h0.691v7.32c0,0.696,0.047,1.3,0.141,1.813c0.094,0.513,0.244,0.938,0.451,1.279
		s0.475,0.59,0.803,0.751c0.328,0.16,0.73,0.24,1.207,0.24c0.305,0,0.604-0.051,0.896-0.152c0.293-0.102,0.572-0.239,0.838-0.411
		c0.266-0.172,0.514-0.368,0.744-0.587c0.23-0.219,0.428-0.454,0.592-0.704v-0.997V67.71z"/>
	<path opacity="0.8" fill="#3D4D21" d="M122.595,67.438c0-0.25,0.004-0.504,0.012-0.762s0.035-0.523,0.082-0.797l-1.699,0.094
		v-1.008c0.523,0,0.949-0.018,1.277-0.053s0.592-0.084,0.791-0.146s0.354-0.131,0.463-0.205s0.211-0.154,0.305-0.24h0.691
		c0.016,0.18,0.033,0.385,0.053,0.615s0.037,0.51,0.053,0.838c0.258-0.227,0.541-0.438,0.85-0.633s0.631-0.365,0.967-0.51
		s0.682-0.258,1.037-0.34s0.705-0.123,1.049-0.123c1.391,0,2.406,0.436,3.047,1.307s0.961,2.225,0.961,4.061v4.477
		c0,0.32-0.004,0.604-0.012,0.85s-0.035,0.506-0.082,0.779l1.512-0.07v0.984h-4.898V75.84c0.367,0,0.646-0.072,0.838-0.217
		s0.33-0.346,0.416-0.604s0.135-0.566,0.146-0.926s0.018-0.754,0.018-1.184v-3.352c-0.016-1.383-0.242-2.424-0.68-3.123
		s-1.133-1.049-2.086-1.049c-0.289,0-0.578,0.043-0.867,0.129s-0.566,0.197-0.832,0.334s-0.516,0.299-0.75,0.486
		s-0.438,0.391-0.609,0.609c0.008,0.141,0.012,0.291,0.012,0.451s0,0.322,0,0.486l-0.023,6.129c0,0.32-0.004,0.604-0.012,0.85
		s-0.035,0.506-0.082,0.779l1.512-0.07v0.984h-4.898V75.84c0.367,0,0.646-0.072,0.838-0.217s0.328-0.346,0.41-0.604
		s0.129-0.566,0.141-0.926s0.021-0.754,0.029-1.184L122.595,67.438z"/>
	<path opacity="0.8" fill="#3D4D21" d="M143.127,73.097c0-0.71,0.182-1.348,0.546-1.911c0.363-0.563,0.84-1.087,1.43-1.573
		c0.589-0.485,1.213-0.966,1.872-1.443c0.658-0.477,1.282-0.975,1.872-1.495c0.589-0.52,1.065-1.092,1.43-1.716
		s0.546-1.326,0.546-2.106c0-0.78-0.19-1.382-0.571-1.807c-0.382-0.425-0.867-0.637-1.456-0.637c-0.538,0-0.937,0.173-1.196,0.52
		s-0.39,0.867-0.39,1.56c0,0.936,0.208,1.889,0.624,2.86c0.415,0.971,0.983,1.924,1.702,2.86c0.72,0.936,1.525,1.833,2.418,2.691
		c0.893,0.858,1.816,1.642,2.77,2.353c1.196,0.884,2.253,1.573,3.172,2.067c0.919,0.494,1.629,0.802,2.132,0.923
		c0.087,0.018,0.121,0.074,0.104,0.169c-0.018,0.096-0.053,0.143-0.104,0.143c-0.485,0-1.062,0-1.729,0c-0.668,0-1.339,0-2.016,0
		c-0.208,0-0.477-0.069-0.806-0.208c-0.329-0.139-0.763-0.386-1.3-0.741c-0.538-0.355-1.231-0.871-2.08-1.547
		c-0.763-0.624-1.552-1.321-2.366-2.093c-0.814-0.771-1.564-1.569-2.249-2.392s-1.235-1.634-1.651-2.431
		c-0.225-0.45-0.407-0.901-0.546-1.352c-0.139-0.45-0.208-0.936-0.208-1.456c0-0.866,0.195-1.646,0.585-2.34
		c0.391-0.693,0.94-1.239,1.651-1.638c0.711-0.398,1.551-0.598,2.522-0.598c0.624,0,1.187,0.095,1.689,0.286
		s0.901,0.472,1.196,0.845c0.294,0.373,0.441,0.862,0.441,1.469c0,0.711-0.187,1.335-0.559,1.872
		c-0.373,0.538-0.854,1.032-1.443,1.482c-0.589,0.451-1.213,0.893-1.872,1.326c-0.658,0.434-1.282,0.88-1.871,1.339
		c-0.59,0.459-1.071,0.966-1.443,1.521c-0.373,0.555-0.56,1.196-0.56,1.924c0,0.676,0.191,1.313,0.572,1.911
		c0.381,0.598,0.919,1.088,1.612,1.469c0.693,0.381,1.517,0.572,2.47,0.572c0.745,0,1.408-0.134,1.989-0.403
		c0.58-0.269,1.065-0.641,1.456-1.118c0.39-0.477,0.685-1.049,0.884-1.716c0.199-0.667,0.299-1.399,0.299-2.197
		c0-0.849-0.143-1.486-0.429-1.911c-0.286-0.424-0.819-0.637-1.599-0.637c-0.035,0-0.057-0.052-0.065-0.156s0.013-0.156,0.065-0.156
		l5.928-0.026c0.069,0,0.104,0.052,0.104,0.156s-0.034,0.156-0.104,0.156c-0.538,0-0.945,0.061-1.222,0.182
		c-0.278,0.122-0.478,0.312-0.599,0.572c-0.121,0.26-0.251,0.616-0.39,1.066c-0.139,0.537-0.33,1.131-0.572,1.781
		c-0.243,0.65-0.555,1.296-0.936,1.937c-0.382,0.642-0.863,1.235-1.443,1.781c-0.581,0.546-1.291,0.979-2.132,1.3
		c-0.841,0.32-1.824,0.481-2.951,0.481c-1.214,0-2.206-0.182-2.977-0.546c-0.771-0.364-1.34-0.836-1.703-1.417
		C143.309,74.324,143.127,73.721,143.127,73.097z"/>
	<path opacity="0.8" fill="#3D4D21" d="M168.569,76.743h-1.242l-0.141-5.109h0.926c0.047,0.711,0.199,1.334,0.457,1.869
		s0.596,0.982,1.014,1.342s0.904,0.631,1.459,0.814s1.148,0.275,1.781,0.275c0.469,0,0.912-0.064,1.33-0.193s0.785-0.32,1.102-0.574
		s0.566-0.568,0.75-0.943s0.275-0.805,0.275-1.289c0-0.586-0.129-1.09-0.387-1.512s-0.6-0.795-1.025-1.119s-0.91-0.617-1.453-0.879
		s-1.096-0.523-1.658-0.785s-1.115-0.539-1.658-0.832s-1.027-0.633-1.453-1.02s-0.768-0.838-1.025-1.354s-0.387-1.129-0.387-1.84
		c0-0.273,0.031-0.566,0.094-0.879s0.166-0.625,0.311-0.938s0.336-0.615,0.574-0.908s0.537-0.551,0.896-0.773s0.785-0.4,1.277-0.533
		s1.063-0.199,1.711-0.199c0.313,0,0.645,0.02,0.996,0.059s0.709,0.105,1.072,0.199s0.725,0.221,1.084,0.381
		s0.703,0.361,1.031,0.604l-0.094-1.031h1.219v5.262h-0.867c-0.039-0.58-0.15-1.142-0.334-1.686
		c-0.184-0.544-0.451-1.026-0.803-1.445c-0.352-0.419-0.785-0.756-1.301-1.01s-1.125-0.382-1.828-0.382
		c-0.5,0-0.941,0.076-1.324,0.229c-0.383,0.152-0.703,0.358-0.961,0.616s-0.453,0.558-0.586,0.898
		c-0.133,0.341-0.199,0.699-0.199,1.074c0,0.548,0.131,1.023,0.393,1.426c0.262,0.403,0.607,0.761,1.037,1.074
		c0.43,0.313,0.918,0.599,1.465,0.857s1.105,0.518,1.676,0.78s1.129,0.543,1.676,0.844s1.035,0.648,1.465,1.043
		s0.775,0.854,1.037,1.377s0.393,1.141,0.393,1.852c0,0.664-0.125,1.275-0.375,1.834s-0.613,1.039-1.09,1.441
		s-1.064,0.717-1.764,0.943s-1.494,0.34-2.385,0.34c-0.359,0-0.729-0.025-1.107-0.076s-0.754-0.127-1.125-0.229
		s-0.73-0.23-1.078-0.387s-0.67-0.336-0.967-0.539L168.569,76.743z"/>
	<path opacity="0.8" fill="#3D4D21" d="M191.831,69.477l-8.449,0.141c-0.008,0.924,0.063,1.761,0.211,2.513s0.383,1.393,0.703,1.926
		c0.32,0.532,0.732,0.943,1.236,1.233c0.504,0.29,1.107,0.434,1.811,0.434c0.375,0,0.758-0.051,1.148-0.153s0.768-0.242,1.131-0.418
		s0.697-0.389,1.002-0.636s0.559-0.513,0.762-0.796l0.586,0.48c-0.328,0.5-0.709,0.924-1.143,1.271s-0.883,0.631-1.348,0.85
		s-0.932,0.377-1.4,0.475s-0.906,0.146-1.313,0.146c-0.828,0-1.6-0.148-2.314-0.445s-1.334-0.723-1.857-1.277
		s-0.936-1.223-1.236-2.004s-0.451-1.66-0.451-2.637c0-0.844,0.145-1.65,0.434-2.42s0.699-1.451,1.23-2.045s1.168-1.066,1.91-1.418
		s1.566-0.527,2.473-0.527c0.664,0,1.291,0.109,1.881,0.328s1.107,0.547,1.553,0.984s0.797,0.99,1.055,1.658
		S191.831,68.586,191.831,69.477z M186.979,65.118c-0.938,0-1.711,0.274-2.32,0.823c-0.609,0.549-1.012,1.439-1.207,2.669h6.117
		c0-0.42-0.047-0.839-0.141-1.255c-0.094-0.417-0.244-0.791-0.451-1.121c-0.207-0.331-0.475-0.6-0.803-0.806
		S187.448,65.118,186.979,65.118z"/>
	<path opacity="0.8" fill="#3D4D21" d="M195.886,67.438c0-0.25,0.006-0.492,0.018-0.727s0.037-0.512,0.076-0.832l-1.699,0.094
		v-1.008c0.523,0,0.957-0.018,1.301-0.053s0.625-0.084,0.844-0.146s0.389-0.131,0.51-0.205s0.229-0.154,0.322-0.24h0.691v9.691
		c0,0.32-0.004,0.604-0.012,0.85s-0.035,0.506-0.082,0.779l1.512-0.07v0.984h-4.898V75.84c0.367,0,0.646-0.072,0.838-0.217
		s0.33-0.346,0.416-0.604s0.135-0.566,0.146-0.926s0.018-0.754,0.018-1.184V67.438z M198.171,60.524
		c0,0.195-0.037,0.379-0.111,0.551s-0.17,0.322-0.287,0.451s-0.254,0.229-0.41,0.299s-0.32,0.105-0.492,0.105
		s-0.336-0.035-0.492-0.105s-0.295-0.17-0.416-0.299s-0.215-0.279-0.281-0.451s-0.1-0.355-0.1-0.551
		c0-0.203,0.035-0.393,0.105-0.568s0.166-0.33,0.287-0.463s0.26-0.236,0.416-0.311s0.324-0.111,0.504-0.111s0.346,0.037,0.498,0.111
		s0.287,0.178,0.404,0.311s0.209,0.287,0.275,0.463S198.171,60.321,198.171,60.524z"/>
	<path opacity="0.8" fill="#3D4D21" d="M203.151,67.438c0-0.25,0.004-0.504,0.012-0.762s0.035-0.523,0.082-0.797l-1.699,0.094
		v-1.008c0.523,0,0.949-0.018,1.277-0.053s0.592-0.084,0.791-0.146s0.354-0.131,0.463-0.205s0.211-0.154,0.305-0.24h0.691
		c0.016,0.18,0.033,0.385,0.053,0.615s0.037,0.51,0.053,0.838c0.258-0.227,0.541-0.438,0.85-0.633s0.631-0.365,0.967-0.51
		s0.682-0.258,1.037-0.34s0.705-0.123,1.049-0.123c1.391,0,2.406,0.436,3.047,1.307s0.961,2.225,0.961,4.061v4.477
		c0,0.32-0.004,0.604-0.012,0.85s-0.035,0.506-0.082,0.779l1.512-0.07v0.984h-4.898V75.84c0.367,0,0.646-0.072,0.838-0.217
		s0.33-0.346,0.416-0.604s0.135-0.566,0.146-0.926s0.018-0.754,0.018-1.184v-3.352c-0.016-1.383-0.242-2.424-0.68-3.123
		s-1.133-1.049-2.086-1.049c-0.289,0-0.578,0.043-0.867,0.129s-0.566,0.197-0.832,0.334s-0.516,0.299-0.75,0.486
		s-0.438,0.391-0.609,0.609c0.008,0.141,0.012,0.291,0.012,0.451s0,0.322,0,0.486l-0.023,6.129c0,0.32-0.004,0.604-0.012,0.85
		s-0.035,0.506-0.082,0.779l1.512-0.07v0.984h-4.898V75.84c0.367,0,0.646-0.072,0.838-0.217s0.328-0.346,0.41-0.604
		s0.129-0.566,0.141-0.926s0.021-0.754,0.029-1.184L203.151,67.438z"/>
</g>
<g opacity="0.8">
	<g>
		<g>
			<g>
				<g>
					<g>
						<g>
							<g opacity="0.8">
								<g>
									<path fill="#AA7959" d="M83.394,67.805c-0.024,1.822-0.074,3.456-0.158,5.144c-0.201,2.623-1.039,4.896-1.999,7.454
										c-0.501,1.264-0.994,2.418-1.581,3.602c-1.358,2.301-3.073,4.658-5.093,6.855c-0.234,0.223-0.962,0.828-0.662,1
										c-2.217,1.928-4.622,3.373-6.967,4.85c-1.01,0.598-2.228,0.867-3.283,1.34c-1.711,0.83-3.596,1.051-5.372,1.473
										c-0.236,0.109-0.748,0.383-0.965,0.4c-2.546,0.111-4.836,0.771-7.31,0.834c-0.961-0.01-1.714-0.016-2.625-0.168
										c-0.106,0.135-0.321,0.072-0.59,0.078c-0.35-0.049-1.471-0.367-2.509-0.771c-1.042-0.396-1.987-0.895-2.121-1.041
										c-0.066-0.078,1.729,0.549,3.592,0.895c1.86,0.365,3.752,0.459,3.692,0.359c-0.083-0.049-1.322-0.158-2.581-0.375
										c-1.26-0.207-2.528-0.547-2.728-0.627c4.456,0.783,7.253,0.371,8.817,0.17c1.571-0.252,1.97-0.41,1.69-0.379
										c-0.555,0.072-3.922,0.563-6.628,0.43c-0.818-0.146-2.043-0.09-3.63-0.512c0.979,0.162,2.993,0.012,3.438,0.031
										c1.055,0.035,1.504-0.049,1.984-0.09c0.479-0.039,0.99-0.051,2.168-0.027c0.968,0.014,2.28-0.16,3.523-0.445
										c1.246-0.279,2.419-0.664,3.194-0.912c-0.74,0.471-2.626,1.416-3.918,1.461c1.399,0.006,2.158-0.318,2.896-0.668
										c0.738-0.369,1.461-0.762,2.824-1.141c0.252-0.078,0.531-0.211,0.826-0.365c0.311-0.064,0.597-0.146,0.963-0.236
										c2.191-0.83,3.892-1.998,5.836-3.186c-0.159,0.117-0.357,0.045-0.535,0.135c-1.795,0.803-3.088,1.896-5.05,2.613
										c-0.382,0.109-0.813,0.535-1.215,0.674c-0.807,0.301-1.59,0.355-2.38,0.471c1.479-0.592,3.246-1.156,4.775-1.906
										c0.308-0.174,0.621-0.5,0.82-0.709c-0.701,0.334-1.413,0.65-2.137,0.945c-1.247,0.555-2.69,1.232-4.12,1.715
										c-1.427,0.475-2.831,0.75-3.844,0.613l-0.232,0.072c-0.031-0.016-0.073-0.023-0.119-0.027
										c-0.385,0.041-0.85,0.043-1.27-0.051c0.354-0.004,0.709-0.004,1.064-0.023c2.703-0.707,5.832-1.133,8.534-2.463
										c0.578-0.316,1.693-0.514,2.247-0.896c1.656-1.037,3.394-2.051,5.034-3.123c2.93-1.98,5.484-4.611,7.478-7.684
										c1.998-3.07,3.448-6.563,4.332-10.23l0.039-0.52l-0.119,0.213l0.138-0.478c0.079-0.958,0.162-1.896,0.355-2.835
										c0.122-0.386,0.006,0.681,0.115,0.98l0.056-0.428l0.145,0.084c-0.029-0.166,0.064-0.262,0.12-0.379
										c-0.028,2.122-0.209,4.264-0.645,6.376c0.247-0.203,0.322-0.843,0.404-1.138c0.068-0.716,0.115-1.428,0.249-2.07
										c0.133-1.807,0.536-3.683,0.543-5.46c0.041-0.329,0.086-0.658,0.147-0.98C83.139,66.332,83.421,67.128,83.394,67.805z
										 M71.789,90.729c0.468-0.314,0.947-0.605,1.423-0.943l0.44-0.414c0.182-0.172,0.352-0.379,0.512-0.607
										c0.78-0.75,1.523-1.543,2.221-2.391c-0.841,0.756-1.698,1.506-2.629,2.475c2.268-2.592,4.375-4.879,6.001-7.863
										c0.412-0.926,0.774-1.893,1.074-2.902c0.193-0.716,0.33-1.43,0.429-2.139c-1.239,4.355-3.513,8.283-6.448,11.414
										c-2.931,3.162-6.477,5.488-10.325,7.266C67.106,93.721,69.48,92.4,71.789,90.729z M71.167,91.578
										c-0.879,0.725-1.775,1.404-2.686,2.039c-2.542,1.672-5.566,2.945-7.296,4.002c2.509-1.014,4.947-2.377,7.296-4.002
										c-1.148,0.729-1.321,0.807-0.791,0.51c0.519-0.314,1.719-1.049,3.124-2.215C70.866,91.844,71,91.725,71.167,91.578z"/>
									<path fill="#AA7959" d="M79.986,77.541c0.548-1.179,0.993-2.432,1.403-3.692c-0.282,0.464-0.556,0.862-0.825,1.397
										c-0.652,1.451-1.083,3.117-1.842,4.545c-2.145,4.086-4.951,7.803-8.527,10.758c-0.185,0.135-0.589,0.436-0.849,0.717
										C74.196,87.932,77.625,83.145,79.986,77.541z"/>
									<path fill="#AA7959" d="M62.748,94.699c-0.751,0.385-1.521,0.74-2.293,0.979c0.749-0.072,1.708-0.396,2.46-0.705
										c1.04-0.477,2.049-1.014,3.023-1.58C64.894,93.842,63.834,94.256,62.748,94.699z"/>
									<path fill="#AA7959" d="M69.346,91.266c-0.189,0.137-0.388,0.262-0.586,0.389c-0.907,0.584-1.848,1.176-2.822,1.738
										c1.101-0.473,2.186-0.984,3.219-1.613C69.056,91.652,69.168,91.469,69.346,91.266z"/>
								</g>
							</g>
						</g>
					</g>
				</g>
			</g>
			<g>
				<g>
					<g>
						<g>
							<polygon fill="#AA7959" points="79.455,64.667 79.452,64.451 79.404,64.456 							"/>
							<path fill="#AA7959" d="M80.044,64.874l0-0.07c-0.013,0.008-0.026,0.01-0.04,0.014L80.044,64.874z"/>
							<path fill="#AA7959" d="M79.402,64.456c-0.179,0.022-0.356,0.115-0.537,0.014l-0.023-0.461
								c-0.104-0.108-0.195,0.012-0.293,0.017c-0.006-0.112-0.011-0.226-0.06-0.223c-0.133-0.07-0.21,0.067-0.23,0.281
								C78.844,64.518,79.033,65.848,79.402,64.456z"/>
							<path fill="#AA7959" d="M79.799,65.417c0.009-0.215,0.001-0.429,0-0.643c-0.113-0.065-0.226-0.152-0.337-0.086
								C79.546,65.014,79.647,65.215,79.799,65.417z"/>
							<path fill="#AA7959" d="M47.277,96.908c-0.002,0.029-0.014,0.045-0.127-0.006L47.277,96.908
								c0.003-0.027-0.002-0.068,0.056-0.084c-0.445,0.033-0.966,0.057-1.47,0.043l-0.195,0.145
								c1.247,0.047,2.494,0.109,3.517-0.117C48.467,96.869,47.97,96.932,47.277,96.908z"/>
							<path fill="#AA7959" d="M45.553,97.301l-0.127-0.006C45.537,97.346,45.55,97.332,45.553,97.301z"/>
							<path fill="#AA7959" d="M65.714,91.24c0.584-0.48,1.038-1.023,1.455-1.555c-1.039,0.973-2.199,1.898-2.979,2.66L65.714,91.24
								z"/>
							<path fill="#AA7959" d="M69.092,87.131c-0.676,0.557-1.129,1.109-1.547,1.684c0.506-0.484,0.996-0.977,1.46-1.492
								L69.092,87.131z"/>
							<path fill="#AA7959" d="M68.604,88.025c-0.589,0.549-1.005,1.104-1.436,1.66C67.724,89.156,68.23,88.598,68.604,88.025z"/>
							<path fill="#AA7959" d="M55.264,99.986c-0.615,0.213-0.994,0.303-1.208,0.332c-0.091,0.076-0.212,0.168-0.378,0.283
								l0.112-0.006c0.645-0.129,1.304-0.27,1.972-0.436c0.269-0.098,0.523-0.205,0.731-0.322L55.264,99.986z"/>
							<path fill="#AA7959" d="M54.056,100.318C54.827,99.678,53.219,100.439,54.056,100.318L54.056,100.318z"/>
							<polygon fill="#AA7959" points="57.43,96.701 57.513,96.68 57.745,96.582 							"/>
							<path fill="#AA7959" d="M64.472,94.914l-1.263,0.906c0.887-0.584,1.738-1.213,2.369-1.826
								c-0.106,0.072-0.242,0.105-0.349,0.18C65.071,94.4,64.802,94.701,64.472,94.914z"/>
							<path fill="#AA7959" d="M53.602,97.729c1.38-0.209,2.711-0.551,3.911-1.049c2.536-0.67,4.708-2.084,6.371-3.676
								c0.724-0.719,1.805-1.582,2.847-2.514c1.046-0.922,1.907-1.891,2.322-2.842c-0.16,0.127-0.312,0.25-0.448,0.377
								c0.157-0.236,0.297-0.467,0.402-0.703c2.08-2.297,3.771-4.883,5.267-7.725c0.212-0.43,0.252-0.808,0.451-1.24
								c0.202-0.437,0.386-0.873,0.563-1.311c-0.009-0.006-0.021-0.005-0.037,0.003c0.713-1.821,1.244-3.685,1.567-5.661
								c0.179-0.919,0.403-1.823,0.544-2.734c0.05-0.342,0.249-0.314,0.325-0.538c0.361-0.886,0.614-1.569,0.741-2.604l0.147,0.003
								c-0.015-0.16-0.005-0.304,0.007-0.42c0.55,0.487,0.69,1.846,1.117,0.446h0.001l0.043,0.218l0,0.024l0.005-0.002
								c0.077,0.337,0.15,0.545,0.301,0.758l0.034-0.653c0.067,0.044,0.135,0.073,0.204,0.054l0.038,0.059l-0.01,0.18
								c0.036,0.034,0.072,0.06,0.109,0.077c0.188,0.589,0.201,1.522,0.422,1.366c0.111-0.127,0.075-0.567,0.036-1.06
								c0.02-0.028,0.039-0.062,0.054-0.096c0.012,0.648,0.341,0.021,0.368,0.414c-0.042,0.521-0.041,1.046-0.108,1.563
								c-0.275,2.109-0.626,3.861-1.082,5.905l-0.066,0.269c-0.24,0.987-0.561,1.893-0.954,2.805l-0.017-0.218
								c-0.32,0.73-0.64,1.46-0.906,2.215c-0.642,1.859-1.423,3.699-2.563,5.49c-1.208,1.867-2.486,3.605-4.016,5.334l1.751-2.23
								c0.288-0.316,0.547-0.654,0.8-0.98c-0.283,0.322-0.534,0.658-0.8,0.98c-1.083,1.246-2.321,2.379-3.01,3.561
								c-0.133,0.061-0.165,0.023-0.267,0.111c-0.75,0.621-1.512,1.127-2.015,1.74c0.03,0.039-0.286,0.27-0.123,0.271
								c-0.601,0.504-1.349,1.037-1.951,1.566c-0.268,0.221-0.501,0.492-0.732,0.779c-1.14,0.898-2.354,1.771-3.747,2.543
								c-1.386,0.773-2.969,1.42-4.642,1.846c-0.833,0.201-1.796,0.316-2.622,0.379c1.202-0.256,2.467-0.561,3.727-0.992
								c1.258-0.264,2.445-0.697,3.25-1.328l0.569-0.404c-1.193,0.691-2.495,1.283-3.818,1.732
								c-0.743,0.158-1.505,0.262-2.238,0.359l0.042-0.018c0.567-0.141,1.14-0.299,1.712-0.48c1.105-0.209,2.164-0.545,2.956-1.049
								c0.099-0.063,0.194-0.129,0.284-0.195l0.572-0.393c-0.74,0.41-1.518,0.779-2.313,1.1c-0.494,0.197-0.996,0.377-1.499,0.537
								c-0.325,0.061-0.654,0.113-0.981,0.158l0.095-0.055c0.285-0.094,0.942-0.822,0.497-0.879c-2.107,0.486-5.006,0.744-5,0.691
								c-0.068-0.096,0.775-0.219,1.621-0.367c0.846-0.145,1.691-0.326,1.621-0.346l-0.601,0.012
								c0.184-0.059,0.363-0.121,0.526-0.186c0.393-0.096,0.935-0.131,1.184-0.277c0.87-0.451,1.935-0.621,2.874-1.17
								c0.577-0.361,1.222-0.85,1.824-1.369c-0.043-0.088,0.322-0.217,0.163-0.246c0.642-0.328,1.364-0.752,1.477-1.156l0.041-0.033
								c0.042-0.027,0.096-0.078,0.149-0.137c1.038-0.586,1.574-1.283,2.343-2.057c0.287-0.236,0.583-0.469,0.897-0.699
								c-0.205,0.15-0.541,0.334-0.718,0.521l-0.179,0.178l-2.14,1.803c-0.047,0.064-0.125,0.168-0.203,0.254l-0.174,0.094
								c-0.003,0.025-0.008,0.051-0.015,0.076c-0.674,0.574-1.522,1.092-2.144,1.537c-1.216,0.76-2.715,1.172-4.144,1.408
								c0.695-0.215,1.36-0.477,1.986-0.779c-0.795,0.346-1.577,0.615-2.351,0.84l-0.364,0.057l-0.763,0.104
								c0.241-0.008,0.479-0.023,0.715-0.043c-0.466,0.127-0.932,0.238-1.395,0.344c-2.571,0.445-5.266,0.441-7.856,0.229
								c0.054-0.057,0.116-0.113,0.184-0.168c1.253,0.041,2.511,0.092,3.542-0.148c-0.723-0.016-1.226,0.053-1.924,0.033
								c0.002-0.027-0.003-0.068,0.056-0.084c-0.448,0.037-0.971,0.064-1.478,0.053c0.168-0.117,0.356-0.234,0.543-0.35
								c0.261-0.086,0.643-0.066,1.027-0.1c1.655-0.02,3.215,0.039,4.821-0.158c1.432-0.051,2.854-0.209,4.2-0.563
								C56.125,97.176,54.856,97.473,53.602,97.729z M79.304,68.123l0.022,0.393l0.042-0.054
								C79.383,68.343,79.351,68.22,79.304,68.123z M78.772,70.946c0.265-0.809,0.352-1.929,0.399-2.992
								c-0.013-0.008-0.025-0.013-0.036-0.014C78.988,68.817,78.932,69.922,78.772,70.946z M76.925,73.903l0.021-0.015l-0.022-0.005
								L76.925,73.903z M70.951,87.533c0.496-0.893,1.292-1.834,1.939-2.896c0.216-0.303,0.271-0.715,0.546-1.121
								c0.299-0.541,0.418-0.902,0.629-1.348L73.79,82.43c0.493-0.703,0.486-1.271,0.977-1.971
								c-0.043-0.023-0.072-0.178-0.014-0.283c0.241-0.559,0.604-1.059,0.72-1.542c0.219-0.567,0.458-1.125,0.559-1.608
								c0.045-0.113,0.001-0.393,0.046-0.634l0.274-0.839l-0.049,0.02c-0.088,0.223-0.164,0.452-0.225,0.689
								c-0.178,0.705-0.416,1.524-0.686,2.2c-0.68,1.685-1.351,3.257-2.132,4.789c-0.156,0.334-0.296,0.684-0.464,1.016
								c-0.482,1.016-1.379,2.023-1.615,2.805C71.132,87.193,70.964,87.375,70.951,87.533z M71.464,90.049
								c0.871-1.135,1.813-2.357,2.648-3.375c0.691-0.822,2.077-3.525,1.278-3.393c0.128,0.824-1.062,2.646-2.269,4.102
								C71.921,88.842,70.741,89.963,71.464,90.049z M63.006,97.326c0.474-0.35,0.916-0.691,1.462-1.031
								C63.998,96.648,63.512,96.992,63.006,97.326z M66.631,92.584c-1.148,1.26-2.609,2.328-4.001,3.342
								c-1.083,0.789-2.513,1.182-3.555,1.885l0.047,0.139l0.113-0.09c0.463-0.131,0.852-0.199,1.24-0.316l-0.06,0.039l0.109-0.055
								c0.259-0.082,0.516-0.191,0.789-0.361l0.369-0.258c1.476-0.834,2.865-1.828,3.896-2.914c0.662-0.639,1.143-1.289,1.776-1.941
								C67.148,92.205,66.81,92.395,66.631,92.584z"/>
							<path fill="#AA7959" d="M55.967,97.586c-0.54,0.148-1.091,0.273-1.653,0.371l-1.295,0.279
								c-2.078,0.352-4.504,0.162-6.717,0.156c-0.074,0.139-0.09,0.285-0.019,0.441c2.402,0.289,4.835,0.145,7.318,0.086l0.057-0.02
								c1.035-0.346,2.784-0.455,4.027-1.037c1.218-0.609,2.405-1.176,3.448-1.971C59.48,96.723,57.797,97.385,55.967,97.586z"/>
							<path fill="#AA7959" d="M67.545,88.814c-0.347,0.313-0.655,0.604-1.053,0.938l-2.875,2.604l2.237-1.635
								C66.587,90.121,67.078,89.439,67.545,88.814z"/>
							<path fill="#AA7959" d="M62.861,93.029l0.756-0.674c-1.097,0.783-2.186,1.523-3.309,2.145
								c-1.797,1.121-3.777,1.834-5.944,2.281c-0.245,0.049-0.491,0.09-0.737,0.125c2.051-0.096,4.055-0.461,5.826-1.26
								c1.774-0.785,3.318-1.92,4.588-3.156l0.147-0.145c-1.354,0.971-2.692,1.891-4.096,2.629
								C61.058,94.412,61.977,93.754,62.861,93.029z"/>
							<polygon fill="#AA7959" points="56.486,97.436 56.121,97.496 55.708,97.613 55.967,97.586 							"/>
							<path fill="#AA7959" d="M60.475,97.543l0.049-0.016c0.388-0.195,0.776-0.402,1.158-0.619l1.527-1.088
								C62.253,96.455,61.253,97.023,60.475,97.543z"/>
							<polygon fill="#AA7959" points="64.403,96.809 64.869,96.52 65.03,96.313 64.7,96.51 							"/>
							<path fill="#AA7959" d="M70.331,91.574c-0.417,0.434-0.884,0.842-1.302,1.229l-1.246,1.109
								c-0.832,0.729-1.666,1.439-2.541,2.131l-0.212,0.27c1.279-0.787,2.425-1.688,3.326-2.689
								c0.181-0.193,0.406-0.545,0.612-0.699c0.986-0.799,1.855-1.738,2.621-2.68c-0.394,0.43-0.79,0.869-1.223,1.295L70.331,91.574
								z"/>
						</g>
					</g>
				</g>
			</g>
			<g>
				<g>
					<g>
						<g>
							<g>
								<path fill="#AA7959" d="M59.295,98.297c-2.875,0.881-5.977,1.129-8.725,0.82c1.1,0.117,2.208,0.15,3.31,0.1
									c-1.652,0.063-3.061-0.037-4.711-0.383c0.507,0.049,1.582,0.219,1.853,0.164c4.005,0.373,8.087-0.354,11.688-1.883
									C61.352,97.906,60.339,97.982,59.295,98.297z"/>
								<path fill="#AA7959" d="M44.919,97.496c0.376,0.146,0.742,0.291,1.11,0.416C45.634,97.787,45.254,97.639,44.919,97.496z"/>
								<path fill="#AA7959" d="M77.6,80.781l0.497-1.232C77.952,79.961,77.779,80.373,77.6,80.781z"/>
								<path fill="#AA7959" d="M63.973,95.961l0.615-0.369c1.592-0.861,3.124-1.887,4.575-3.063
									C67.598,93.818,65.825,95.104,63.973,95.961z"/>
								<path fill="#AA7959" d="M62.138,96.652c-1.683,0.736-3.494,1.258-5.218,1.492C58.64,97.891,60.418,97.381,62.138,96.652z"/>
								<path fill="#AA7959" d="M79.35,67.522c-0.015,0.007-0.027-0.026-0.039-0.076c-0.006-0.053-0.014-0.1-0.023-0.139
									c-0.009-0.716-0.042-1.431-0.097-2.143c0.027,0.176,0.07,0.337,0.089,0.518C79.324,66.473,79.269,66.641,79.35,67.522z"/>
								<polygon fill="#AA7959" points="77.397,81.236 77.385,81.281 77.2,81.697 77.172,81.744 								"/>
								<path fill="#AA7959" d="M79.357,68.432c-0.028,0.015-0.056,0.029-0.08,0.091c0.009-0.402,0.015-0.805,0.01-1.207l0.023,0.13
									C79.343,67.713,79.318,68.133,79.357,68.432z"/>
								<path fill="#AA7959" d="M77.689,77.38c-0.077,0.245-0.098,0.479-0.125,0.597c-0.254,0.616-0.533,1.22-0.862,1.933
									l-0.209,0.586l-0.25,0.395c0.747-1.553,1.376-3.202,1.882-4.945C78,76.417,77.857,76.893,77.689,77.38z"/>
								<path fill="#AA7959" d="M63,42.488c2.291,0.564,4.647,1.955,6.541,3.232c-1.035-0.861-2.395-1.724-3.571-2.324
									c-1.173-0.607-2.146-0.982-2.303-1.157c-0.161-0.176,0.757,0.068,1.909,0.589c1.157,0.511,2.502,1.345,3.383,1.956
									l-0.443-0.359c0.223,0.178,0.445,0.356,0.667,0.48c-0.427-0.378-1.341-1.007-1.583-1.227l0.472,0.207
									c-0.577-0.461-1.485-1.02-2.448-1.483c-0.959-0.472-1.966-0.849-2.671-1.123c3.481,1.166,7.235,3.475,10.205,6.811
									c2.999,3.302,5.224,7.495,6.421,11.655c1.395,4.636,1.83,9.221,1.41,13.506c-0.077,0.809-0.5,2.729-0.94,4.045
									c-0.669,2.374-1.617,4.661-2.731,6.834c-2.493,4.58-6.067,8.381-10.74,11.434c-0.951,0.594-2.374,1.152-0.08-0.318
									c1.847-1.289,3.593-2.748,5.187-4.363c-0.124,0.25-0.939,0.963-1.277,1.342c1.274-1.092,2.253-2.084,3.303-3.354
									c-0.696,0.85-1.435,1.664-2.216,2.438c1.952-1.932,3.862-4.326,5.333-6.943c0.541-0.949,1.227-1.689,1.708-3.184
									c-1.676,3.543-4.035,6.861-6.851,9.701l0.01-0.018c-1.251,1.273-2.488,2.324-3.883,3.338l1.229-0.951
									c-1.996,1.52-4.123,2.816-6.393,3.814c3.143-1.537,6.168-3.682,8.763-6.283c2.599-2.594,4.75-5.648,6.238-8.822
									C76.69,83.68,75.457,86,74.28,87.268c1.919-2.561,3.503-5.395,4.657-8.48l-0.222,0.687c0.827-1.874,1.36-4.007,1.716-6.025
									l0.093-0.542l-0.093,0.542c-0.34,1.854-0.855,3.636-1.494,5.338c0.259-0.794,0.529-1.637,0.82-2.654l-0.743,2.094
									c-0.355,1.021-0.763,2.025-1.217,2.994c0.688-1.506,1.212-3.059,1.569-4.509c-0.674,2.133-1.554,4.269-2.641,6.232
									c0.572-1.09,1.083-2.213,1.53-3.357c0.784-1.907,1.404-3.905,1.784-5.981l-0.037,0.239l0.08-0.475
									c0.141-0.812,0.248-1.635,0.317-2.465c0.057-0.745,0.058-1.479,0.021-2.206l-0.001-0.369
									c0.026,0.232,0.052,0.347,0.061-0.104c0.057-1.929-0.262-3.999-0.616-6.175c-0.091-0.573-0.28-1.333-0.529-2.138
									c-0.042-0.227-0.091-0.338-0.138-0.436l-0.173-0.521c-0.137-0.426-0.282-0.852-0.449-1.259l0.449,1.259l0.151,0.479
									c-0.054-0.104-0.108-0.213-0.186-0.448c0.909,2.945,1.404,6.132,1.43,9.343l-0.061-0.577c0.022,0.315,0.05,0.63,0.062,0.946
									c-0.003,1.036-0.055,2.074-0.155,3.107c0.016-0.31,0.03-0.597,0.018-0.851c-0.244,2.943-0.952,5.856-2.028,8.63
									c-1.065,2.582-2.456,4.988-4.101,7.186c0.937-1.146,1.801-2.443,2.571-3.828c-1.962,3.719-4.673,7.078-7.979,9.672
									c0.534-0.543,1.263-1.283,1.524-1.691c-0.058-0.018-1.062,0.867-0.507,0.32c1.979-2.023,3.333-3.549,3.77-4.654
									c0.088-0.189-2.125,2.027-1.534,1.205c0.522-0.656,1.431-1.846,2.289-3.213c0.261-0.385,0.519-0.793,0.772-1.225
									c0.037-0.051,0.074-0.15,0.123-0.273c0.86-1.521,1.53-3.045,1.887-3.893l0.383-0.945c0.076-0.162,0.147-0.297,0.214-0.398
									l0.156-0.624c0.292-0.858,0.545-1.724,0.749-2.585c0.138-0.475,0.26-0.953,0.365-1.432c-0.021,0.007-0.062,0.08-0.065-0.016
									c0.197-1.094,0.314-2.195,0.376-3.298c0.046-0.447,0.095-0.858,0.149-1.226c-0.138-1.202-0.209-3.978-0.632-5.871
									l-0.006,0.004c-0.178-0.954-0.403-1.907-0.678-2.858L78.01,59.48c-0.103-0.225-0.183-0.47-0.234-0.581
									c-0.227-0.756-0.427-1.394-0.645-2.028c-0.062-0.106-0.199-0.298-0.306-0.533c-0.202-0.478-0.413-0.932-0.637-1.366
									c-0.249-0.517-0.516-1.031-0.802-1.543c-0.957-1.725-2.074-3.325-3.344-4.769c-0.025-0.061-0.014-0.091-0.004-0.122
									c-0.233-0.192-0.503-0.514-0.711-0.685c0.043,0.029,0.074,0.043,0.079,0.027c-0.667-0.58-0.742-0.74-1.331-1.271
									c-0.137-0.116-0.284-0.199-0.428-0.3l-0.2-0.168c-0.63-0.651-1.401-1.122-2.263-1.623c-0.847-0.527-1.739-0.983-2.664-1.367
									C63.785,42.855,63.519,42.688,63,42.488z"/>
								<path fill="#AA7959" d="M79.167,64.905c-0.082-0.93-0.206-1.854-0.369-2.771C79.001,63.114,79.186,63.997,79.167,64.905z"/>
								<path fill="#AA7959" d="M71.491,88.262c-0.282,0.238-0.587,0.516-0.914,0.82c1.632-1.691,3.062-3.568,4.288-5.621
									l0.007,0.002C73.943,85.15,72.168,87.266,71.491,88.262z"/>
								<path fill="#AA7959" d="M79.311,67.446l-0.023-0.13v-0.009C79.297,67.346,79.305,67.393,79.311,67.446z"/>
								<path fill="#AA7959" d="M68.951,92.242l-0.182,0.15c0.451-0.393,0.9-0.791,1.332-1.207
									C69.766,91.529,69.37,91.887,68.951,92.242z"/>
								<path fill="#AA7959" d="M63.557,95.74c-1.084,0.561-2.207,1.053-3.362,1.453c-1.494,0.492-3.016,0.799-4.478,0.92
									C58.421,97.789,61.072,96.965,63.557,95.74z"/>
								<path fill="#AA7959" d="M68.188,91.375c-0.387,0.293-0.792,0.572-1.2,0.848c0.396-0.293,0.784-0.592,1.161-0.902
									C68.091,91.395,68.167,91.365,68.188,91.375z"/>
								<polygon fill="#AA7959" points="72.481,88.678 72.242,88.955 72.812,88.207 								"/>
								<path fill="#AA7959" d="M63.826,94.209c0.319-0.166,0.629-0.346,0.938-0.523l-0.52,0.367
									C64.129,94.086,63.986,94.139,63.826,94.209z"/>
								<path fill="#AA7959" d="M58.717,96.352c-0.471,0.127-0.93,0.242-1.375,0.328c0.546-0.127,1.104-0.273,1.646-0.443
									C58.871,96.293,58.777,96.34,58.717,96.352z"/>
							</g>
						</g>
					</g>
				</g>
				<g>
					<g>
						<g>
							<g>
								<path fill="#AA7959" d="M79.594,81.764c-0.145,0.152-0.229,0.242-0.372,0.369c-0.385,0.535-1.082,1.557-1.358,1.729
									c-0.023-0.043,0.351-0.953,0.45-1.09c0.935-1.473,1.549-2.021,2.396-3.783c0.087-0.15,0.2-0.753,0.323-1.321l-0.164,0.335
									c0.188-0.78,0.626-1.936,0.807-2.899c-0.083,0.193-0.085,0.192-0.147,0.304c0.373-0.709,0.671-2.355,0.815-3.557
									l0.141-0.567c0.092-1.105,0.226-2.171,0.152-3.496c-0.041-1.108-0.025-2.71-0.254-4.166
									c-0.283-2.509-0.835-5.319-1.963-7.356c-0.188-0.337-0.463-1-0.665-1.623c-0.859-1.181-2.151-3.488-3.393-5.021
									c-0.449-0.56-0.686-0.995-0.821-1.267c-1.37-1.326-2.963-2.596-4.611-3.7c-2.113-1.403-4.403-2.522-7.049-3.464
									c-0.365-0.129-1.09-0.293-1.469-0.341l-0.475-0.189c-1.594-0.361-3.103-0.433-4.505-0.568
									c-1.93-0.169-2.15-0.417-2.389-0.704c2.094-0.238,4.319-0.645,7.482,0.315c0.856,0.284,2.194,0.574,3.281,0.954
									c0.934,0.288,1.837,0.85,2.668,1.073c1.008,0.708,3.418,2.333,5.07,3.64c0.119,0.13-0.046,0.021,0.171,0.236
									c2.401,1.757,4.559,4.401,6.253,7.357c0.884,1.48,1.636,3.369,2.352,5.363c0.081,0.183,0.268,1.068,0.416,1.621l0.201,0.565
									c0.334,1.462,0.621,3.169,0.612,4.253c0.029,1.274,0.093,2.418,0.015,3.514c-0.087,1.639-0.296,4.323-0.786,5.651
									c-0.061,0.166-0.156,0.727-0.249,1.087l-0.194,0.488c-0.096,0.357-0.049,0.623-0.156,0.979
									c-0.664,2.313-1.911,5.062-2.737,5.912C79.517,82.211,79.824,81.52,79.594,81.764z"/>
								<path fill="#AA7959" d="M73.503,89.088c0.037-0.096-0.229,0.137-0.383,0.293c0.171-0.1,0.299-0.133,0.621-0.395
									l-0.475,0.432c-0.176,0.311,0.485-0.41,0.235-0.117c-0.268,0.234-0.484,0.41-0.396,0.254
									c0.062-0.02,0.161-0.137,0.323-0.273c-0.024-0.076-0.296,0.137-0.468,0.234c0.243-0.229,0.495-0.447,0.73-0.684
									L73.503,89.088z"/>
								<path fill="#AA7959" d="M75.146,87.559l-0.149,0.148c-0.03,0.1,0.128-0.029,0.285-0.164
									c-0.658,0.627-0.105-0.086-0.523,0.264C74.772,87.844,75.176,87.459,75.146,87.559z"/>
								<path fill="#AA7959" d="M74.488,88.564c-0.333,0.219-0.571,0.549-0.709,0.537c0.27-0.217,0.541-0.434,0.803-0.66
									L74.488,88.564z"/>
								<path fill="#AA7959" d="M78.567,83.072c0.122-0.285,0.067-0.139,0.319-0.574l-0.362,0.629L78.567,83.072z"/>
								<path fill="#AA7959" d="M82.746,69.209c-0.083,0.406-0.166,0.732-0.243,1.376C82.564,69.932,82.718,69.346,82.746,69.209z"
									/>
								<path fill="#AA7959" d="M82.765,62.701c0.039,0.012,0.017-0.205,0.078,0.094c0.001,0.14-0.115-0.037,0.003,0.418
									L82.765,62.701z"/>
								<path fill="#AA7959" d="M82.859,62.134l0.014-0.304C82.862,61.829,82.852,61.946,82.859,62.134z"/>
								<polygon fill="#AA7959" points="80.036,79.539 80.071,79.508 80.097,79.41 								"/>
								<path fill="#AA7959" d="M80.46,78.652l-0.324,0.608l-0.039,0.15C80.289,78.998,80.287,79.166,80.46,78.652z"/>
								<path fill="#AA7959" d="M80.133,79.453l-0.062,0.055c-0.174,0.57-0.398,0.75-0.733,1.523
									C79.673,80.51,79.941,79.924,80.133,79.453z"/>
								<path fill="#AA7959" d="M79.933,80.117l-0.059,0.234c-0.098,0.189-0.123,0.158-0.136,0.143l-0.174,0.408
									c-0.006,0.197,0.583-1.043,0.723-1.373L79.933,80.117z"/>
								<polygon fill="#AA7959" points="78.492,84.174 78.5,84.156 78.49,84.176 								"/>
								<path fill="#AA7959" d="M79.321,83.135l-0.079-0.117c-0.286,0.521-0.413,0.57-0.742,1.139l-0.009,0.018
									C78.725,84.045,79.001,83.49,79.321,83.135z"/>
								<path fill="#AA7959" d="M80.861,77.941c-0.199,0.545-0.357,0.948-0.36,1.143l0.413-0.995
									C80.718,78.453,80.874,78.046,80.861,77.941z"/>
								<path fill="#AA7959" d="M81.377,77.165l-0.156,0.49l0.112-0.201C81.324,77.429,81.335,77.336,81.377,77.165z"/>
								<path fill="#AA7959" d="M81.333,77.454c0.011,0.027,0.054-0.036,0.117-0.22L81.333,77.454z"/>
								<path fill="#AA7959" d="M81.086,78.459c0.192-0.277,0.091-0.288,0.297-0.827C81.311,77.56,81.194,78.187,81.086,78.459z"/>
								<polygon fill="#AA7959" points="81.87,76.184 81.984,76.021 81.909,75.953 								"/>
								<path fill="#AA7959" d="M82.373,71.903c0.001,0.555,0.128-0.308,0.181-0.353L82.373,71.903z"/>
								<path fill="#AA7959" d="M82.233,75.623l-0.126,0.153l0.019,0.104c-0.037,0.144-0.095,0.363-0.166,0.477
									C82.022,76.503,82.146,75.896,82.233,75.623z"/>
								<line fill="#AA7959" x1="82.518" y1="73.38" x2="82.673" y2="72.839"/>
								<path fill="#AA7959" d="M82.157,76.999c0.031,0.029,0.382-0.746,0.072,0.162c0.126-0.348,0.258-0.861,0.235-0.517
									c0.17-0.575-0.074-0.069-0.005-0.463C82.417,76.509,82.263,76.729,82.157,76.999z"/>
								<path fill="#AA7959" d="M82.63,75.618c0.097-0.274,0.202-0.621,0.208-0.791C82.766,75.117,82.638,75.355,82.63,75.618z"/>
								<polygon fill="#AA7959" points="82.902,75.41 82.725,75.792 82.879,75.569 								"/>
								<line fill="#AA7959" x1="83.188" y1="69.541" x2="83.069" y2="69.547"/>
								<path fill="#AA7959" d="M83.277,73.714c-0.06,0.35-0.136,0.695-0.206,1.043l0.248-0.925
									c0.056-0.583-0.028-0.311-0.135,0.088C83.218,73.812,83.25,73.729,83.277,73.714z"/>
								<path fill="#AA7959" d="M82.896,74.787l-0.04,0.317c0.018,0.016,0.131-0.447,0.231-0.847
									C83.01,74.522,82.935,74.759,82.896,74.787z"/>
								<path fill="#AA7959" d="M83.086,74.257l0.098-0.337L83.086,74.257z"/>
								<path fill="#AA7959" d="M83.194,66.995l-0.015,0.954C83.213,67.593,83.212,67.297,83.194,66.995z"/>
								<path fill="#AA7959" d="M83.519,72.967l0.025-0.149l-0.082-0.06C83.428,73.066,83.502,72.956,83.519,72.967z"/>
								<path fill="#AA7959" d="M83.878,71.727c0.088-0.267,0.098-0.834,0.107-1.066c-0.095,0.339-0.137,0.721-0.213,1.159
									C83.851,71.382,83.845,71.704,83.878,71.727z"/>
								<path fill="#AA7959" d="M84.136,70.435l-0.1,0.909C84.159,71.18,84.11,70.82,84.136,70.435z"/>
								<path fill="#AA7959" d="M84.197,68.966c-0.005-0.082-0.035-0.021-0.045-0.184c-0.044,0.132-0.04,0.445-0.064,0.668
									L84.197,68.966z"/>
								<path fill="#AA7959" d="M82.05,76.44c0.074-0.259,0.134-0.492,0.187-0.717l-0.352,1.03C81.943,76.652,82,76.554,82.05,76.44
									z"/>
								<path fill="#AA7959" d="M59.677,40.449c1.104-0.016,3.118,0.405,4.204,0.74c1.78,0.56,4.001,1.324,5.908,2.438l-0.034,0.022
									c1.451,0.916,3.3,2.172,4.66,3.496l-0.041-0.108c-0.228-0.224-0.536-0.508-0.31-0.388c0.304,0.301,0.693,0.722,0.758,0.836
									l0.279,0.185c0.159,0.225-0.106,0.167,0.438,0.684c0.441,0.208,1.007,1.351,1.184,1.246
									c0.093,0.308,0.609,0.803,0.817,1.112l-0.07-0.262c0.42,0.659,0.699,1.349,0.918,1.653c0.528,0.795,1.174,1.938,1.652,2.868
									c0.006,0.258-0.479-0.981-0.287-0.33c1.08,1.702,1.737,4.427,2.299,6.729c-0.003-0.067-0.036-0.279,0.012-0.131
									c0.007,0.474,0.217,1.071,0.275,1.847c0.061-0.118-0.091-1.125-0.158-1.478c0.222,0.196,0,0.199,0.214,1.152
									c0-0.069-0.003-0.208,0.016-0.201c0.18,0.954-0.046,0.394,0.079,1.129l0.005-0.414c0.086,0.723,0.06,0.226,0.19,1.04
									c-0.11-0.11-0.146,0.294-0.136,0.508c0.053,0.092,0.077,0.875,0.162,0.771c-0.146,1.002,0.112,1.267-0.076,2.194
									c0.076,0.404,0.095-0.39,0.166-0.354c0.054,0.979-0.104,0.313-0.137,0.663c0.039,0.308,0.014,1.568-0.114,2.104l0.069,0.042
									c-0.142,0.827-0.354,2.184-0.516,2.474c0.046,0.355,0.161-0.291,0.24-0.865c0.071-0.11,0.023,0.488-0.047,0.762
									c0.024-0.143,0.078-0.185,0.069-0.352c0.07-0.031-0.037,0.376-0.045,0.532c-0.196,0.988,0.025-0.389-0.086,0.017
									c-0.035,0.376-0.236,1.296-0.066,0.93c-0.164,0.789-0.166,0.287-0.291,0.687c0.198-0.594,0.1-0.834,0.267-1.277
									c-0.004-0.166-0.043-0.111-0.108,0.082c-0.086,0.661-0.462,1.873-0.362,1.873l-0.147,0.304l-0.014,0.332l-0.053,0.127
									c0.18-0.274,0.387-0.874,0.53-1.095c0.055-0.038-0.06,0.376-0.112,0.594l-0.125,0.15c-0.166,0.549,0.034,0.466-0.218,1.217
									c0.045-0.499-0.41,0.786-0.667,1.271c-0.032,0.629,0.163-0.02,0.134,0.521c-0.203,0.548-0.499,1.408-0.849,2.023
									c0.686-1.537-0.447,0.691,0.039-0.568c-0.128,0.252-0.205,0.471-0.325,0.734c-0.223,0.137,0.068-0.43-0.19-0.131
									l0.041,0.152c-0.244,0.326-0.438,0.492-0.825,1.166c-0.002,0.104-0.138,0.475-0.331,0.766
									c-0.12,0.057-0.168,0.096-0.539,0.711c-0.558,1.293,0.942-1.057,1.199-1.244c0.943-1.781,1.417-1.645,2.403-4.009
									c0.069-0.403,0.019-0.273,0.215-1.007c0.008-0.547-0.46,1.026-0.736,1.42c0.058-0.229,0.114-0.455,0.206-0.644l-0.182,0.19
									c0.34-1.147,0.372-0.562,0.638-1.585l-0.041,0.232l0.138-0.591l-0.057,0.127c0.099-0.359,0.044-0.49,0.229-1.029
									l-0.054,0.478c0.03-0.323,0.179-0.371,0.251-0.827c-0.02,0.258,0.018,0.347-0.022,0.5c0.214-0.647,0.361-1.239,0.482-1.818
									c0.328-1.998,0.556-3.941,0.661-5.889l-0.039,0.232c-0.023-0.348,0.017-0.567,0.064-0.772l0.028-1.094
									c-0.051-0.793-0.123-1.425-0.225-2.394c0.049-0.05,0.075,0.011,0.094,0.129c-0.053-0.347-0.097-0.555-0.112-0.207
									c-0.091-0.596-0.075-0.87-0.147-1.312c0.092,0.329,0.165,0.661,0.247,0.993c-0.026-0.431-0.133-0.399-0.189-0.976
									c-0.185-0.892-0.023,0.412-0.125,0.309l-0.05-0.361l-0.046,0.4c-0.096-0.793-0.087-1.201-0.088-1.547l0.072,0.572
									c0.167,0.185-0.171-0.945-0.164-1.214l0.025,0.074c-0.2-0.87-0.014,0.2-0.172-0.383c-0.049-0.354-0.104-0.706-0.167-1.059
									l-0.031,0.198c-0.207-0.586-0.442-1.775-0.796-2.751c-0.188-0.559-0.556-1.255-0.886-1.931
									c0.041,0.135,0.142,0.406,0.081,0.337c-0.176-0.41-0.618-1.275-0.383-1.009l-0.354-0.529
									c-0.104-0.2-0.185-0.362-0.236-0.496l0.051,0.168l-0.404-0.646c0.021-0.001-0.09-0.261,0.109,0.06
									c-0.344-0.784-1.067-1.589-1.823-2.664l0.271,0.29c-0.521-0.585-0.451-0.735-1.036-1.359l0.071,0.189
									c-0.409-0.456-1.128-1.36-0.972-1.266c-0.173,0.047-0.208-0.287-0.567-0.456l-0.159-0.37
									c-0.313-0.248-0.609-0.498-0.472-0.262c-0.405-0.476-0.779-0.82-1.109-0.974c-0.002,0-0.008-0.003-0.015-0.007l-0.012-0.006
									l0.002-0.001c-0.113-0.078-0.561-0.486-0.398-0.262c-1.109-0.878-0.494-0.585-1.593-1.37l-0.106,0.058
									c-0.834-0.61-1.756-1.054-2.468-1.367l-0.046-0.129c-0.48-0.229,0.049,0.123-0.694-0.238
									c-0.096-0.067-0.175-0.139-0.146-0.152c-0.723-0.353-1.668-0.85-2.807-1.275c0.015-0.014,0.17,0.022,0.247,0.044
									c-0.494-0.18-1.3-0.42-1.895-0.561c-1.291-0.556-3.261-1.103-5.139-1.249c-1.461,0.082-2.394,0.355-2.522,0.614
									C56.479,39.875,57.893,40.051,59.677,40.449z"/>
							</g>
						</g>
					</g>
				</g>
				<g>
					<g>
						<g>
							<g>
								<g opacity="0.85">
									<g>
										<path fill="#AA7959" d="M74.99,58.551l0.168,0.595c-0.014-0.104-0.018-0.21-0.008-0.324
											C75.137,58.684,75.069,58.632,74.99,58.551z"/>
										<polygon fill="#AA7959" points="75.308,59.697 75.333,59.803 75.378,59.888 										"/>
										<path fill="#AA7959" d="M75.638,60.722c-0.026-0.189-0.087-0.362-0.145-0.528C75.513,60.349,75.565,60.521,75.638,60.722z
											"/>
										<path fill="#AA7959" d="M75.479,59.876c-0.017,0.073-0.045,0.114-0.099,0.016l-0.002-0.004l0.114,0.306
											C75.477,60.078,75.473,59.971,75.479,59.876z"/>
										<path fill="#AA7959" d="M75.479,59.876l0.032-0.218C75.496,59.724,75.485,59.797,75.479,59.876z"/>
										<path fill="#AA7959" d="M76.37,59.924c0.054,0.102-0.185,0.136-0.077,0.335c0.187,0.484,0.395,0.894,0.491,1.37
											c0.095,0.208-0.1,0.6-0.006,0.805c0.159,0.493,0.664,1.77,0.541,0.993c-0.215-1.166-0.425-1.911-0.712-2.932
											c-0.298-0.813-0.63-1.575-0.989-2.376c-0.089-0.228-0.145-0.449-0.204-0.673l0.2,0.932
											C75.678,58.826,76.144,59.25,76.37,59.924z"/>
										<path fill="#AA7959" d="M73.393,54.284l0.219,0.254c0.054,0.51,0.33,0.935,0.589,1.375l0.023-0.255
											c-0.131-0.261-0.208-0.262-0.148-0.007c-0.112-0.596-0.326-1.117-0.613-1.614C73.42,54.098,73.351,54.125,73.393,54.284z"
											/>
										<polygon fill="#AA7959" points="73.293,53.746 73.462,54.037 73.475,54.016 73.293,53.732 										"/>
										<path fill="#AA7959" d="M76.307,62.924c0.243,1.422,0.357,2.779,0.38,4.104c0.049,0.1,0.106,0.17,0.082,0.308
											c-0.039,0.104-0.063,0.209-0.077,0.313l-0.012,0.579l0.018,0.203l0.001,0.006c0.027,0.109,0.064,0.077,0.1,0.011
											c0.026-0.075,0.056-0.145,0.088-0.203l-0.088,0.203c-0.031,0.091-0.055,0.192-0.069,0.311
											c0.01,0.177,0.011,0.362-0.01,0.552c-0.021-0.213-0.013-0.396,0.01-0.552l-0.031-0.327l-0.021-0.094
											c-0.006,0.441-0.041,0.879-0.068,1.317l0.006,0.276c0.01,0.318,0.021,0.639-0.109,0.825l-0.028,0.233l0.026-0.043
											l-0.031,0.086l-0.135,0.986c0.017,0.219,0.044,0.446,0.048,0.672l-0.148,0.205c0.046,0.098,0.063,0.231,0.059,0.385
											c0.1-0.167,0.208-0.316,0.274-0.462c0.149-0.209-0.172-0.53,0.087-0.766c-0.26,0.235,0.062,0.557-0.087,0.766
											c-0.066,0.146-0.175,0.295-0.274,0.462c-0.01,0.317-0.114,0.716-0.298,1.014c-0.015-0.417,0.128-0.737,0.298-1.014
											c0.004-0.153-0.012-0.287-0.059-0.385l0.148-0.205c-0.004-0.226-0.032-0.453-0.048-0.672
											c-0.099,0.643-0.22,1.287-0.356,1.942c-0.947,4.19-2.38,7.964-4.914,11.613c-1.387,1.977-2.9,3.744-4.58,5.213
											c-3.296,2.928-6.854,5.059-11.367,5.709c-1.701,0.287-4.832,1.066-6.504,1.371c-2.171,0.777-0.847,1.594-0.725,1.633
											c1.546,0.617,2.55-0.02,5.501-0.162c-1.992,0.152,1.285-0.834,3.257-0.838c1.444,0.027,3.084-0.498,4.682-1.324
											c1.609-0.813,3.14-1.928,4.579-2.92c0.721-0.5,1.396-1.145,2.148-1.863c2.027-1.799,3.573-3.889,4.938-6.078
											c1.387-2.232,2.476-4.664,3.414-7.309c0.475-1.415,0.589-2.741,0.727-3.976c0.143-0.894,0.421-1.829,0.509-2.563
											c0.146-1.151,0.141-2.157,0.066-3.111c0.005,1.064,0.006,1.847-0.103,3.032c-0.09,0.787-0.225-0.586-0.255-1.106
											c-0.027-0.225,0.265-0.553,0.224-0.781c0.038-0.484-0.052-0.937-0.103-1.457c-0.046-0.224,0.195-0.192,0.169-0.305
											c-0.047-0.715-0.359-1.254-0.312-1.705l0.064-0.956c0-0.191,0.004-0.382-0.024-0.582l-0.096-0.378
											c-0.063,0.108-0.149,0.153-0.237,0.195l0.021-0.638l-0.021,0.638c0.087-0.042,0.173-0.087,0.237-0.195
											c-0.218-0.914-0.495-1.953-0.776-2.903l-0.019,0.017c0.128,0.563,0.201,1.124,0.128,1.734
											c0.021-0.263,0.09-0.241,0.141,0.05l-0.09,0.238c-0.125-0.501-0.269-0.99-0.178-1.496l-0.134-0.31
											c0.002-0.164,0.077-0.171,0.134-0.217l-0.083-0.33C76.333,62.16,76.313,62.924,76.307,62.924z"/>
										<path fill="#AA7959" d="M76.722,68.771l-0.018-0.274c-0.006,0.368-0.043,0.736-0.063,1.106
											C76.763,69.413,76.743,69.091,76.722,68.771z"/>
									</g>
								</g>
							</g>
						</g>
					</g>
				</g>
			</g>
		</g>
		<path fill="none" stroke="#2F4409" stroke-width="0.25" d="M84.425,75.703"/>
	</g>
	<g>
		<g>
			<g>
				<g>
					<path fill="#AA7959" d="M76.113,54.132c-1.371-1.97-3.058-3.748-4.771-5.137c0.683,0.557,1.34,1.146,1.963,1.767
						c-0.938-0.928-1.766-1.676-2.81-2.539c0.362,0.199,1.012,0.788,1.223,0.868c2.484,2.097,4.485,4.729,5.795,7.566
						C76.797,55.639,76.608,54.866,76.113,54.132z"/>
					<path fill="#AA7959" d="M67.556,46.146c0.28,0.169,0.558,0.327,0.821,0.499C68.091,46.469,67.802,46.31,67.556,46.146z"/>
					<path fill="#AA7959" d="M79.451,74.763c-0.102,0.366-0.21,0.733-0.329,1.083L79.451,74.763z"/>
					<path fill="#AA7959" d="M78.519,57.664c0.091,0.174,0.177,0.354,0.259,0.537c0.539,1.407,0.939,2.889,1.183,4.418
						C79.688,60.952,79.104,59.245,78.519,57.664z"/>
					<path fill="#AA7959" d="M77.972,56.115c-0.716-1.37-1.551-2.703-2.41-3.902C76.433,53.402,77.262,54.712,77.972,56.115z"/>
					<path fill="#AA7959" d="M74.85,85.6c0.016,0.004,0.006,0.035-0.014,0.076c-0.026,0.041-0.047,0.078-0.062,0.111
						c-0.411,0.5-0.835,0.986-1.271,1.459c0.099-0.125,0.172-0.258,0.276-0.383C74.25,86.332,74.401,86.26,74.85,85.6z"/>
					<polygon fill="#AA7959" points="79.566,74.356 79.569,74.315 79.663,73.94 79.68,73.897 					"/>
					<path fill="#AA7959" d="M75.346,84.947c0.031,0.006,0.062,0.012,0.113-0.021l-0.68,0.855l0.057-0.105
						C74.967,85.473,75.218,85.188,75.346,84.947z"/>
					<path fill="#AA7959" d="M79.585,77.812c0.086-0.219,0.11-0.433,0.135-0.541c0.253-0.553,0.495-1.112,0.736-1.791
						c0.019-0.111,0.09-0.336,0.124-0.558c0.06-0.12,0.121-0.25,0.177-0.391c-0.439,1.522-1.006,3.038-1.714,4.541L79.585,77.812z"
						/>
					<path fill="#AA7959" d="M50.475,98.148c2.044-0.082,4.437-0.279,6.335-0.949c-1.144,0.254-2.519,0.484-3.656,0.57
						c-1.138,0.088-2.029,0.055-2.204-0.064c-0.175-0.121,0.611-0.146,1.663-0.232c1.051-0.084,2.37-0.254,3.249-0.471l-0.478,0.051
						c0.239-0.021,0.477-0.051,0.678-0.127c-0.476,0.063-1.392,0.193-1.666,0.152l0.404-0.135c-1.214,0.066-3.454,0.254-4.646,0.059
						c2.895,0.271,6.456-0.234,9.868-1.609c3.425-1.35,6.662-3.516,9.298-5.922c2.925-2.729,5.035-5.848,6.485-8.939
						c0.295-0.574,1.021-1.941,1.468-2.955c0.739-1.814,1.296-3.699,1.591-5.594c0.705-3.993,0.807-8.04-0.551-12.149
						c-0.28-0.802-0.464-2.017,0.321-0.019c0.627,1.665,1.006,3.453,1.137,5.264c-0.088-0.204-0.125-1.067-0.243-1.457
						c0.13,1.327,0.167,2.427,0.152,3.734c0.013-0.873-0.02-1.742-0.102-2.608c0.21,2.164,0.077,4.591-0.343,6.95
						c-0.166,0.866-0.577,1.548-0.76,2.782c0.993-2.956,1.533-6.198,1.295-9.401l0.007,0.017c-0.118-1.425-0.314-2.706-0.66-4.039
						c0.116,0.412,0.229,0.835,0.287,1.208c-0.321-1.981-0.962-3.884-1.843-5.666c1.389,2.443,2.246,5.374,2.466,8.363
						c0.234,2.993-0.146,6.021-0.855,8.809c0.568-1.535,0.742-3.692,0.987-5.084c-0.196,2.639-0.821,5.253-1.81,7.783l0.172-0.57
						c-0.646,1.553-1.318,3.218-2.153,4.683l-0.228,0.389l0.228-0.389c0.771-1.34,1.432-2.715,1.981-4.113
						c-0.216,0.654-0.495,1.334-0.875,2.121c0.247-0.406,0.544-1.023,0.816-1.651c0.332-0.836,0.63-1.685,0.888-2.536
						c-0.382,1.322-0.826,2.609-1.276,3.777c0.809-1.692,1.439-3.531,1.893-5.363c-0.225,1.013-0.504,2.014-0.835,2.996
						c-0.593,1.637-1.331,3.232-2.192,4.781l0.093-0.18l-0.191,0.355c-0.34,0.604-0.699,1.199-1.079,1.787l-0.977,1.58l-0.182,0.252
						c0.096-0.172,0.132-0.264-0.102,0.035c-1.013,1.254-2.05,2.682-3.434,3.924c-0.362,0.326-0.822,0.789-1.335,1.277
						c-0.156,0.113-0.223,0.189-0.279,0.262l-0.34,0.313l-0.853,0.732c0.286-0.23,0.572-0.48,0.853-0.732l0.315-0.279
						c-0.059,0.078-0.119,0.164-0.276,0.301c1.986-1.67,3.859-3.635,5.45-5.832l-0.248,0.424l0.43-0.676
						c0.504-0.715,0.983-1.449,1.422-2.205c-0.122,0.23-0.235,0.445-0.323,0.643c1.349-2.102,2.447-4.379,3.247-6.761
						c0.804-2.213,1.35-4.503,1.572-6.825c-0.179,1.245-0.416,2.535-0.737,3.829c0.773-3.458,0.897-7.059,0.301-10.543
						c0.213,0.608,0.394,1.473,0.55,1.862c0.059-0.031-0.074-1.181,0.048-0.518c0.465,2.429,0.214,4.202,0.459,5.227
						c0.104,0.211,0.499-2.591,0.529-1.685c0.022,0.766-0.017,2.139-0.215,3.604l-0.238,1.304c-0.017,0.055-0.016,0.152-0.021,0.274
						c-0.303,1.572-0.754,3.029-1.049,3.817l-0.335,0.868c-0.074,0.145-0.145,0.266-0.21,0.355c-0.051,0.188-0.108,0.375-0.172,0.56
						c-0.33,0.757-0.68,1.494-1.051,2.212l-0.697,1.148c0.022,0.002,0.08-0.047,0.056,0.037c-0.497,0.881-1.027,1.732-1.588,2.563
						c-0.248,0.322-0.493,0.607-0.728,0.844c-0.474,0.998-2.136,2.893-3.349,4.139l0.006,0.002
						c-0.612,0.629-1.256,1.234-1.928,1.824c-0.122,0.086-0.242,0.16-0.356,0.23c-0.146,0.166-0.325,0.316-0.399,0.398
						c-0.563,0.438-1.061,0.777-1.566,1.107c-0.078,0.078-0.21,0.246-0.399,0.385l-1.121,0.771
						c-0.435,0.281-0.883,0.553-1.343,0.816c-1.548,0.887-3.15,1.617-4.785,2.199c-0.06,0-0.083-0.023-0.105-0.045
						c-0.238,0.131-0.602,0.234-0.823,0.332c0.04-0.023,0.064-0.045,0.052-0.057c-0.733,0.305-0.898,0.285-1.584,0.467
						c-0.154,0.045-0.29,0.113-0.44,0.164l-0.229,0.053c-0.81,0.084-1.577,0.305-2.46,0.455c-0.885,0.123-1.775,0.203-2.665,0.24
						C51.235,98.26,50.961,98.188,50.475,98.148z"/>
					<path fill="#AA7959" d="M73.344,87.418c-0.572,0.613-1.167,1.201-1.779,1.768C72.203,88.555,72.718,87.943,73.344,87.418z"/>
					<path fill="#AA7959" d="M81.766,66.531c0.049-0.337,0.077-0.72,0.08-1.134c0.107,2.182-0.052,4.357-0.465,6.522l-0.007,0.001
						C81.708,70.191,81.983,67.636,81.766,66.531z"/>
					<path fill="#AA7959" d="M74.836,85.676l-0.057,0.105l-0.005,0.006C74.789,85.754,74.81,85.717,74.836,85.676z"/>
					<path fill="#AA7959" d="M80.314,62.574l-0.034-0.199c0.107,0.5,0.193,1.004,0.263,1.512L80.314,62.574z"/>
					<path fill="#AA7959" d="M78.784,57.3c-0.433-0.952-0.926-1.878-1.481-2.763c-0.682-1.159-1.444-2.241-2.221-3.243
						C76.608,53.085,77.857,55.114,78.784,57.3z"/>
					<path fill="#AA7959" d="M81.447,62.345c-0.055-0.448-0.119-0.902-0.198-1.357c0.101,0.45,0.19,0.899,0.265,1.35
						C81.479,62.256,81.465,62.333,81.447,62.345z"/>
					<polygon fill="#AA7959" points="80.747,66.835 80.744,66.522 80.795,67.328 					"/>
					<path fill="#AA7959" d="M80.247,57.622l0.336,0.955c-0.077-0.185-0.159-0.366-0.251-0.544
						C80.32,57.92,80.292,57.78,80.247,57.622z"/>
					<path fill="#AA7959" d="M77.789,52.986c-0.258-0.384-0.515-0.757-0.771-1.104c0.33,0.421,0.65,0.87,0.953,1.317
						C77.885,53.108,77.816,53.038,77.789,52.986z"/>
				</g>
			</g>
		</g>
	</g>
</g>
<g opacity="0.8">
	<g>
		<g>
			<g>
				<g>
					<g opacity="0.8">
						<g>
							<path fill="#424E32" d="M26.542,66.477c-0.033,1.488,0.122,2.828,0.444,4.157c0.465,2.056,0.659,4.005,1.504,6.11
								c0.405,1.044,0.889,1.964,1.463,2.89c0.987,1.973,2.479,3.979,4.431,5.6c0.191,0.195,0.763,0.773,0.91,0.453
								c1.801,1.643,3.859,3.021,6.172,3.74c0.951,0.33,1.871,0.926,2.869,1.156c1.621,0.316,3.169,0.943,4.809,1.059
								c0.232-0.035,0.73-0.166,0.917-0.137c2.227,0.477,4.319-0.178,6.306-0.732c0.794-0.189,1.387-0.41,2.142-0.576
								c0.031-0.162,0.215-0.188,0.413-0.295l2.135-0.473c0.912-0.207,1.787-0.457,1.967-0.43c0.089,0.008-1.373,0.746-2.929,1.289
								c-1.551,0.555-3.175,0.914-3.102,0.984c0.084,0.033,1.169-0.174,2.254-0.492c1.088-0.307,2.164-0.736,2.349-0.781
								c-3.583,1.793-6.19,2.281-7.646,2.6c-1.48,0.277-1.892,0.33-1.617,0.34c0.271-0.004,1.222-0.08,2.395-0.307
								c1.174-0.219,2.562-0.604,3.727-1.045c0.76-0.152,1.752-0.678,3.13-1.213c-0.76,0.449-2.36,1.469-2.787,1.592
								c-1.899,0.668-1.57,0.842-3.869,1.113c-0.946,0.088-2.227,0.275-3.495,0.377c-1.266,0.105-2.514,0.133-3.34,0.086
								c0.895-0.137,2.887-0.582,4.106-0.551c-1.337-0.143-2.093-0.014-2.888,0.125c-0.791,0.133-1.625,0.291-3.022-0.002
								c-0.261-0.049-0.57-0.066-0.906-0.09c-0.303-0.104-0.59-0.195-0.943-0.328c-2.256-0.59-4.292-1.076-6.335-2.186
								c0.182,0.08,0.222,0.289,0.397,0.395c1.703,1.129,3.456,1.381,5.472,1.996c0.384,0.146,0.992,0.035,1.409,0.123
								c0.853,0.162,1.584,0.459,2.385,0.65c-1.645,0.002-3.539-0.449-5.232-0.939c-0.358-0.08-0.83-0.066-1.133-0.072
								c0.771,0.289,1.563,0.531,2.366,0.742c1.416,0.328,3.097,0.447,4.655,0.467c1.561,0.033,2.996-0.012,4.034,0.188l0.245-0.059
								c0.032,0.018,0.074,0.027,0.122,0.033c0.401-0.016,0.881-0.027,1.325,0.051l-1.113,0.031
								c-2.903,0.658-6.276,0.037-9.382-0.588c-0.708-0.102-1.743-0.717-2.43-0.877c-2.012-0.533-3.976-1.535-5.649-2.814
								c-3.052-2.246-5.553-5.125-7.264-8.314c-1.721-3.189-2.657-6.663-2.876-10.062c-0.038-0.153-0.08-0.305-0.109-0.458
								l-0.06,0.218c-0.002-0.15,0.008-0.303,0.013-0.453c-0.174-0.85-0.235-1.709-0.136-2.563c0.081-0.354,0.068,0.604,0.23,0.849
								l0-0.382l0.155,0.055c-0.051-0.141,0.028-0.235,0.07-0.342c0.199,1.832,0.587,3.648,1.133,5.421
								c0.121-0.261-0.06-0.774-0.102-1.032c-0.204-0.576-0.386-1.164-0.435-1.725c-0.354-1.522-0.184-3.171-0.143-4.65
								c0.052-0.277,0.11-0.551,0.184-0.815C26.347,65.241,26.592,65.942,26.542,66.477z M34.457,87.914
								c-0.392-0.404-0.736-0.834-1.083-1.281l-0.414-0.414c-0.167-0.174-0.365-0.34-0.577-0.504
								c-0.682-0.795-1.307-1.619-1.872-2.48c0.438,0.969,1.006,1.939,1.935,2.887c-2.51-2.355-3.701-5.191-4.644-8.046
								c-0.35-0.839-0.682-1.694-0.981-2.58l-0.675-1.818c0.763,3.954,2.318,7.88,4.93,11.269c2.588,3.387,6.26,6.121,10.443,7.678
								C38.921,91.332,36.531,89.877,34.457,87.914z M35.413,88.324c0.909,0.648,1.867,1.207,2.845,1.686
								c2.602,1.416,5.764,2.387,7.72,2.252c-2.558-0.33-5.205-1.025-7.72-2.252c1.182,0.609,1.359,0.668,0.826,0.404
								c-0.531-0.262-1.766-0.873-3.261-1.85C35.744,88.537,35.594,88.443,35.413,88.324z"/>
							<path fill="#424E32" d="M25.829,75.559c-0.19-1.219-0.334-2.443-0.353-3.649c-0.111,0.486-0.229,0.93-0.248,1.495
								c0.01,1.518,0.562,3.105,1.018,4.621c1.264,4.392,4.265,8.619,8.426,11.507c0.197,0.152,0.64,0.484,1.028,0.641
								C30.457,86.539,26.93,81.262,25.829,75.559z"/>
							<path fill="#424E32" d="M42.977,93.775l2.685,0.539c-0.757-0.314-1.807-0.594-2.645-0.857
								c-1.193-0.314-2.371-0.701-3.499-1.172C40.594,92.881,41.737,93.398,42.977,93.775z"/>
							<path fill="#424E32" d="M35.7,90.174l0.634,0.434c0.99,0.652,2.058,1.207,3.184,1.678c-1.135-0.631-2.192-1.344-3.24-2.102
								C36.2,90.324,35.971,90.287,35.7,90.174z"/>
						</g>
					</g>
				</g>
			</g>
		</g>
	</g>
	<g>
		<g>
			<g>
				<g>
					<g>
						<path fill="#424E32" d="M52.411,89.695c0.441-0.01,0.884-0.037,1.305-0.066l1.391-0.123c0.934-0.082,1.849-0.166,2.742-0.268
							c1.782-0.205,3.473-0.492,4.966-0.955c-1.193,0.369-2.46,0.627-3.764,0.82c1.949-0.299,3.545-0.58,5.337-1.168
							c-0.463,0.363-1.692,0.627-1.944,0.885c-2.28,0.609-4.737,0.791-7.23,0.887c-1.295,0.059-2.398,0.076-3.576-0.023
							c-1.158-0.09-2.293-0.271-3.392-0.531C50.065,89.027,51.104,89.699,52.411,89.695z"/>
						<path fill="#424E32" d="M68.483,85.4c-0.292,0.324-0.587,0.629-0.91,0.9C67.906,85.998,68.197,85.672,68.483,85.4z"/>
						<path fill="#424E32" d="M27.204,72.567c-0.231-0.533-0.439-1.08-0.614-1.616L27.204,72.567z"/>
						<path fill="#424E32" d="M46.055,89.891c-0.292-0.047-0.584-0.105-0.877-0.18c-2.132-0.748-4.164-1.844-6.029-3.227
							C41.2,87.986,43.701,88.996,46.055,89.891z"/>
						<path fill="#424E32" d="M48.361,90.83c2.313,0.383,4.681,0.473,6.947,0.457C53.047,91.346,50.703,91.27,48.361,90.83z"/>
						<path fill="#424E32" d="M24.144,54.512c-0.04,0-0.054-0.055-0.057-0.131c0.011-0.076,0.015-0.147,0.01-0.209
							c0.165-0.494,0.347-0.98,0.537-1.463c0.096-0.172,0.203-0.645,0.431-0.957l0.352-0.59c-0.087,0.221-0.083,0.372-0.219,0.628
							c-0.44,0.836-0.494,1.049-0.667,1.396C24.383,53.52,24.257,53.88,24.144,54.512z"/>
						<path fill="#424E32" d="M27.45,73.164l0.042,0.049l0.253,0.532l0.017,0.07C27.649,73.604,27.55,73.384,27.45,73.164z"/>
						<path fill="#424E32" d="M23.801,55.787c-0.073,0.005-0.147,0.01-0.222,0.085c0.156-0.568,0.324-1.132,0.514-1.688
							c-0.004,0.072-0.008,0.141-0.006,0.197C24.028,54.768,23.81,55.342,23.801,55.787z"/>
						<path fill="#424E32" d="M23.197,69.118c0.085,0.371,0.305,0.665,0.384,0.828c0.143,0.972,0.329,1.943,0.661,3.06
							c0.094,0.157,0.229,0.514,0.427,0.82c0.023,0.219,0.059,0.451,0.113,0.691c-0.956-2.37-1.647-4.913-1.981-7.589
							C22.917,67.641,23.05,68.367,23.197,69.118z"/>
						<path fill="#424E32" d="M60.038,35.241c-3.11-0.541-6.841-1.043-9.889-0.281c1.811-0.097,3.963-0.066,5.702,0.182
							c1.741,0.239,3.054,0.658,3.252,1.009c0.197,0.359-0.97,0.137-2.554-0.063c-1.582-0.214-3.601-0.343-4.969-0.216l0.73,0.088
							c-0.363-0.048-0.73-0.089-1.045,0.01c0.732,0.064,2.132,0.144,2.526,0.358l-0.631,0.156c0.908,0.213,2.191,0.376,3.448,0.643
							c1.257,0.257,2.484,0.615,3.285,1.029c-3.977-1.658-9.5-1.947-14.771-0.352c-5.289,1.532-10.188,4.957-13.274,9.188
							c-0.842,1.209-1.545,2.442-2.043,3.742l-0.819,2.094c-0.128,0.338-0.371,0.827-0.366,0.906l-0.212,0.915
							c-0.576,2.646-0.656,5.254-0.358,7.684c0.054,0.918,0.136,3.118,0.396,4.686c0.601,2.736,1.66,5.375,3.178,7.674
							c1.512,2.501,3.252,4.808,5.334,6.89c2.129,2.105,4.447,3.941,7.236,5.104c0.55,0.234,1.165,0.615,1.293,0.844
							c0.131,0.217-0.258,0.34-1.709-0.178c-2.426-0.834-4.661-2.258-6.683-4.082c0.353,0.064,1.274,1,1.82,1.232
							c-1.464-1.311-2.638-2.457-3.935-3.859c0.867,0.943,1.792,1.824,2.775,2.654c-2.46-2.063-4.758-4.792-6.559-7.787
							c-0.638-1.127-0.573-2.361-1.623-3.856c1.375,4.294,3.962,8.459,7.522,11.616c-0.01-0.002-0.02-0.006-0.028-0.006
							c1.622,1.42,3.108,2.541,4.866,3.508c-0.555-0.275-1.117-0.576-1.559-0.906c2.345,1.756,5.05,2.91,7.885,3.469
							c-2.035-0.209-4.097-0.799-6.043-1.742c-1.958-0.941-3.762-2.221-5.452-3.729c-3.372-2.973-6.018-6.702-7.808-10.579
							c0.323,1.171,0.996,2.421,1.725,3.575c0.729,1.159,1.508,2.228,2.01,3.179c-2.457-3.108-4.277-6.745-5.216-10.671
							c0.096,0.284,0.204,0.558,0.318,0.828c-0.492-2.443-1.078-5.037-1.034-7.529l0.024-0.665l-0.024,0.665
							c-0.054,2.277,0.195,4.533,0.716,6.701c-0.332-0.969-0.56-2.041-0.696-3.332c-0.042,0.713,0.074,1.73,0.252,2.739
							c0.299,1.31,0.696,2.597,1.165,3.844c-0.772-1.911-1.39-3.856-1.844-5.688c0.322,2.808,1.229,5.624,2.438,8.21
							c-0.722-1.395-1.334-2.848-1.822-4.34c-0.723-2.537-1.094-5.184-1.102-7.854l0.021,0.305l-0.018-0.607
							c0.007-1.043,0.076-2.091,0.198-3.137l0.261-2.795l0.099-0.461c-0.006,0.305,0.02,0.456,0.182-0.092l0.55-1.781l0.292-0.912
							c0.068-0.275,0.212-0.49,0.374-0.832c0.602-1.23,1.097-2.543,1.89-3.653c0.421-0.594,0.912-1.438,1.511-2.313
							c0.208-0.203,0.281-0.337,0.329-0.472l0.411-0.557l1.09-1.291c-0.378,0.401-0.744,0.84-1.09,1.291
							c-0.132,0.166-0.267,0.328-0.39,0.498c0.047-0.146,0.096-0.303,0.294-0.547c-1.267,1.489-2.41,3.135-3.253,4.972l-0.667,1.395
							c-0.206,0.466-0.522,0.957-0.668,1.354c-0.34,0.953-0.628,1.944-0.854,2.941l0.048-0.75c-0.059,0.403-0.105,0.807-0.147,1.211
							c-0.266,1.297-0.434,2.613-0.483,3.934c-0.009-0.395-0.026-0.764-0.065-1.093c-0.443,3.761,0,7.633,1.188,11.247
							c0.973,3.433,2.574,6.668,4.689,9.523c-1.019-1.628-2.018-3.351-2.868-5.183c2.464,4.775,6.164,8.843,10.473,12.019
							c-0.932-0.344-2.088-1.047-2.745-1.229c-0.074,0.145,1.301,1.281,0.433,0.707c-3.223-2.064-4.727-4.418-6.31-5.15
							c-0.177-0.053,0.251,0.9,0.661,1.723c0.404,0.824,0.766,1.531,0.213,1.055c-0.875-0.84-2.342-2.459-3.664-4.416
							c-0.352-0.584-0.712-1.19-1.066-1.83c-0.031-0.087-0.144-0.199-0.281-0.345c-1.271-2.229-2.131-4.542-2.482-5.853
							c-0.132-0.486-0.256-0.97-0.365-1.456c-0.027-0.263-0.021-0.493,0.007-0.678c-0.125-0.29-0.235-0.588-0.327-0.89
							c-0.237-1.313-0.388-2.623-0.468-3.928c0.012-0.73,0.06-1.455,0.112-2.17c-0.05,0.016-0.116,0.133-0.167-0.005
							c0.013-1.634,0.151-3.255,0.411-4.851c0.164-0.639,0.369-1.213,0.611-1.702c-0.026-0.918,0.262-2.273,0.832-3.856
							c0.059-0.144,0.088-0.304,0.175-0.434l0.189-0.341l0.228-0.431l0.47-0.951l0.958-1.998L26.67,48.13
							c0.717-1.33,1.5-2.486,2.412-3.646c0.183-0.162,0.363-0.312,0.545-0.438c0.169-0.325,0.416-0.612,0.505-0.772
							c0.813-0.829,1.575-1.448,2.356-2.029c0.107-0.143,0.257-0.478,0.545-0.723c0.586-0.477,1.159-0.929,1.729-1.356
							c0.686-0.477,1.399-0.926,2.138-1.346c2.49-1.411,5.13-2.404,7.801-3.033c0.1,0.031,0.139,0.093,0.179,0.155
							c0.384-0.205,0.979-0.279,1.337-0.416c-0.065,0.04-0.103,0.078-0.083,0.112c1.189-0.396,1.459-0.265,2.566-0.392
							c0.248-0.039,0.47-0.146,0.714-0.198l0.369-0.028c1.29,0.163,2.52-0.031,3.925-0.028c1.398,0.073,2.786,0.241,4.153,0.495
							C58.947,34.688,59.326,34.97,60.038,35.241z"/>
						<path fill="#424E32" d="M25.575,50.88c0.579-1.024,1.141-2.217,1.941-3.403C26.723,48.793,26.364,49.995,25.575,50.88z"/>
						<path fill="#424E32" d="M32.053,85.129c0.274,0.477,0.643,0.967,1.079,1.463c-2.521-2.381-4.714-5.105-6.465-8.183
							l0.012-0.012c0.729,1.214,1.638,2.687,2.614,3.947C30.261,83.607,31.285,84.658,32.053,85.129z"/>
						<path fill="#424E32" d="M24.086,54.381c-0.002-0.057,0.001-0.125,0.006-0.197l0.004-0.012
							C24.102,54.234,24.098,54.305,24.086,54.381z"/>
						<path fill="#424E32" d="M38.619,87.199l0.25,0.18c-0.663-0.412-1.306-0.859-1.927-1.338L38.619,87.199z"/>
						<path fill="#424E32" d="M46.13,90.914c1.556,0.393,3.151,0.617,4.749,0.691c2.055,0.197,4.083,0.076,6.014,0.104
							c-1.781,0.107-3.583,0.254-5.402,0.133C49.681,91.732,47.878,91.426,46.13,90.914z"/>
						<path fill="#424E32" d="M37,89.592c0.565,0.463,1.146,0.932,1.759,1.369c-0.641-0.393-1.259-0.807-1.859-1.236
							C37.042,89.764,36.983,89.643,37,89.592z"/>
						<polygon fill="#424E32" points="33.572,83.025 33.907,83.369 32.962,82.563 						"/>
						<path fill="#424E32" d="M43.944,93.461c-0.527-0.189-1.042-0.398-1.55-0.613c0.316,0.094,0.634,0.174,0.961,0.229
							C43.498,93.207,43.701,93.334,43.944,93.461z"/>
						<path fill="#424E32" d="M52.431,94.771l1.118-0.008l1.06-0.037c-0.39,0.041-0.845,0.072-1.309,0.094
							c-0.44,0.02-0.883,0.027-1.323,0.029C52.178,94.801,52.336,94.756,52.431,94.771z"/>
					</g>
				</g>
			</g>
		</g>
		<g>
			<g>
				<g>
					<g>
						<polygon fill="#424E32" points="35.399,40.688 35.615,40.541 35.601,40.527 						"/>
						<path fill="#424E32" d="M35.324,41.026l0.067-0.046c-0.011,0-0.015-0.003-0.022-0.004L35.324,41.026z"/>
						<path fill="#424E32" d="M35.6,40.527c-0.056-0.049-0.188-0.049-0.115-0.181l0.49-0.315c0.102-0.112-0.042-0.066-0.063-0.1
							c0.123-0.079,0.246-0.158,0.236-0.174c0.052-0.094-0.097-0.04-0.344,0.105C35.376,40.376,34.138,41.364,35.6,40.527z"/>
						<path fill="#424E32" d="M34.749,41.313l0.617-0.436c0.039-0.082,0.102-0.18,0.013-0.173
							C35.076,40.958,34.897,41.12,34.749,41.313z"/>
						<path fill="#424E32" d="M40.183,89.953c0.006-0.01,0.021-0.008,0.123,0.072L40.183,89.953c-0.007,0.01-0.009,0.027-0.068,0
							l1.459,0.762l0.214,0.039c-1.247-0.627-2.433-1.359-3.434-1.922C39.024,89.287,39.512,89.559,40.183,89.953z"/>
						<path fill="#424E32" d="M41.939,90.699l0.126,0.063C41.959,90.689,41.945,90.688,41.939,90.699z"/>
						<path fill="#424E32" d="M25.177,72.954c-0.334-0.805-0.647-1.506-0.931-2.234c0.52,1.57,1.192,3.121,1.804,4.214
							C25.735,74.288,25.443,73.628,25.177,72.954z"/>
						<path fill="#424E32" d="M23.177,66.963c0.109,1.1,0.347,1.982,0.62,2.801c-0.23-0.846-0.422-1.699-0.558-2.56L23.177,66.963z"
							/>
						<path fill="#424E32" d="M23.488,68.149c0.181,0.987,0.458,1.793,0.758,2.57C23.952,69.833,23.698,68.949,23.488,68.149z"/>
						<path fill="#424E32" d="M34.255,83.754l0.934,0.771l0.355,0.186l-0.081-0.074c-0.495-0.402-0.983-0.826-1.465-1.271
							l-0.574-0.473C33.697,83.186,33.973,83.475,34.255,83.754z"/>
						<path fill="#424E32" d="M35.189,84.525C34.438,84.148,35.819,85.072,35.189,84.525L35.189,84.525z"/>
						<polygon fill="#424E32" points="31.479,82.461 31.415,82.387 31.219,82.18 						"/>
						<path fill="#424E32" d="M27.469,75.705c0.267,0.483,0.551,0.958,0.848,1.413c-0.597-0.948-1.141-1.939-1.592-2.763
							c0.061,0.126,0.101,0.263,0.164,0.388C27.048,74.977,27.27,75.333,27.469,75.705z"/>
						<path fill="#424E32" d="M34.698,85.494c-1.171-0.998-2.27-2.041-3.283-3.107c-1.958-2.254-3.596-4.631-4.915-6.879
							c-0.591-0.985-1.271-2.419-1.818-3.909c-0.557-1.49-0.977-3.031-1.302-4.168c0.03,0.251,0.066,0.49,0.109,0.719l-0.249-0.944
							c-0.583-3.845-0.312-7.723,0.792-11.528c0.161-0.564,0.248-1,0.44-1.556c0.194-0.563,0.407-1.109,0.628-1.649
							c-0.003-0.004-0.01,0.001-0.021,0.014c0.923-2.24,2.091-4.343,3.573-6.387c0.706-0.951,1.502-1.834,2.335-2.674
							c0.316-0.313,0.365-0.263,0.595-0.45c0.922-0.743,1.646-1.254,2.724-2.014l0.035,0.047c0.156-0.128,0.304-0.233,0.43-0.312
							c-0.391,0.542-1.588,1.565-0.166,0.675l0,0l-0.192,0.169l-0.022,0.017l0.002,0c-0.295,0.258-0.453,0.442-0.595,0.638
							c0.195-0.157,0.387-0.317,0.59-0.465c-0.021,0.05-0.029,0.09,0.008,0.097l-0.043,0.052l-0.162,0.125
							c-0.019,0.035-0.03,0.063-0.035,0.086c-0.463,0.467-1.199,1.177-0.998,1.108c0.144-0.065,0.467-0.413,0.874-0.764l0.096-0.053
							c-0.535,0.458,0.086,0.106-0.229,0.386c-0.43,0.36-0.838,0.744-1.244,1.13c-1.645,1.578-2.87,3.085-4.035,4.994l-0.154,0.25
							c-0.557,0.93-1.041,1.831-1.513,2.78l0.057-0.207c-0.393,0.759-0.724,1.551-1.005,2.359c-0.665,1.99-1.106,4.042-1.371,6.246
							c-0.273,2.307-0.225,4.58,0.175,6.882c-0.19-0.938-0.304-1.893-0.344-2.882c-0.017-0.444-0.005-0.887-0.007-1.316
							c-0.009,0.445-0.018,0.883,0.007,1.316c0.021,1.709,0.263,3.455,0.751,4.686c0.018,0.141-0.001,0.146,0.032,0.279
							c0.232,0.936,0.506,1.865,0.868,2.614c0.018-0.007,0.162,0.382,0.151,0.237c0.311,0.766,0.694,1.652,1.094,2.376
							c0.168,0.315,0.363,0.616,0.572,0.909c1.484,2.55,3.284,4.875,5.515,7.123c0.549,0.563,1.192,1.201,1.775,1.742
							c-0.901-0.748-1.787-1.576-2.636-2.469c-0.779-0.906-1.484-1.801-2.119-2.502l-0.425-0.504
							c0.798,1.063,1.652,2.071,2.544,3.006c0.459,0.533,0.942,1.072,1.44,1.576l-0.033-0.027c-0.408-0.379-0.812-0.77-1.207-1.176
							l-1.936-2.246l-0.218-0.24l-0.432-0.5c0.502,0.652,1.023,1.283,1.562,1.887c0.334,0.377,0.677,0.742,1.023,1.1l0.632,0.703
							l-0.079-0.063c-0.205-0.184-0.896-0.605-0.66-0.258c1.42,1.611,3.771,3.488,3.767,3.488c0.029,0.074-0.682-0.451-1.359-1.02
							c-0.682-0.563-1.326-1.172-1.284-1.115l0.426,0.449l-0.438-0.357c-0.311-0.283-0.686-0.697-0.905-0.877
							c-0.757-0.633-1.467-1.506-2.221-2.34c-0.481-0.516-1.049-1.146-1.591-1.802c-0.032,0.021-0.255-0.341-0.208-0.202
							c-0.448-0.661-0.927-1.45-1.198-1.689l-0.032-0.049c-0.028-0.049-0.074-0.115-0.125-0.185
							c-0.644-1.168-1.157-1.951-1.718-3.035c-0.177-0.379-0.344-0.771-0.503-1.18c0.103,0.267,0.246,0.672,0.376,0.928l0.126,0.252
							c0.458,0.984,0.971,1.883,1.51,2.757l0.208,0.278l0.107,0.195l0.049,0.038c0.543,0.817,1.167,1.732,1.697,2.377
							c0.958,1.242,1.988,2.561,3.068,3.742c-0.566-0.563-1.107-1.133-1.625-1.709c0.636,0.73,1.27,1.389,1.902,2.008l0.28,0.293
							l0.598,0.604l-0.539-0.572c0.384,0.361,0.771,0.711,1.16,1.045c2.116,1.877,4.473,3.604,6.949,5.016l-0.202-0.031
							c-1.207-0.666-2.351-1.432-3.323-2.018c0.645,0.471,1.119,0.756,1.767,1.168c-0.007,0.01-0.009,0.027-0.067-0.002l1.414,0.803
							c-0.181-0.043-0.379-0.102-0.577-0.162c-0.265-0.111-0.625-0.336-0.995-0.551c-1.563-0.979-2.938-2.049-4.326-3.221
							c-1.204-1.082-2.334-2.24-3.377-3.436C32.554,83.613,33.614,84.602,34.698,85.494z M32.204,43.275l-0.311,0.331l0.058-0.038
							C32.053,43.473,32.141,43.365,32.204,43.275z M29.88,45.717c0.657-0.74,1.505-1.73,2.414-2.609
							c0.001-0.009,0.001-0.016-0.002-0.019C31.499,43.792,30.628,44.769,29.88,45.717z M27.234,48.717l0.018-0.017l-0.009-0.003
							L27.234,48.717z M23.696,65.701c-0.192-1.135-0.215-2.577-0.148-4.013c0.029-0.431-0.01-0.867,0.061-1.441
							c0.074-0.717,0.101-1.151,0.189-1.724l-0.116,0.421c0.194-0.994,0.209-1.586,0.5-2.56c-0.021-0.005-0.021-0.155,0.021-0.296
							c0.178-0.705,0.437-1.386,0.599-1.944c0.225-0.692,0.496-1.366,0.699-1.914c0.061-0.133,0.118-0.427,0.23-0.696
							c0.147-0.324,0.293-0.651,0.458-0.968l-0.034,0.032c-0.139,0.255-0.262,0.523-0.377,0.795
							c-0.346,0.807-0.707,1.764-0.981,2.594c-0.714,2.068-1.098,4.084-1.289,6.102c-0.027,0.434-0.048,0.869-0.055,1.303
							c-0.038,1.3-0.045,2.889,0.148,3.74C23.63,65.274,23.648,65.56,23.696,65.701z M24.716,67.167
							c-0.301-1.424-0.41-3.062-0.341-4.444c0.014-0.557,0.06-1.634,0.113-2.508c0.058-0.872,0.098-1.544-0.067-1.287
							c0.071,0.722-0.245,3.015-0.192,5.037C24.255,65.987,24.571,67.68,24.716,67.167z M29.225,77.666
							c-0.337-0.47-0.652-0.933-0.976-1.504C28.562,76.671,28.887,77.172,29.225,77.666z M25.802,72.766
							c0.799,1.651,1.718,3.392,2.754,4.895c0.787,1.156,1.616,2.464,2.515,3.359l0.046-0.037l-0.103-0.096
							c-0.296-0.391-0.512-0.723-0.743-1.063l0.047,0.055l-0.076-0.098c-0.154-0.227-0.32-0.457-0.519-0.717l-0.282-0.359
							c-1.015-1.419-1.932-2.969-2.715-4.351c-0.47-0.86-0.882-1.603-1.271-2.513C25.548,72.108,25.679,72.511,25.802,72.766z"/>
						<path fill="#424E32" d="M32.863,83.641c0.439,0.424,0.89,0.842,1.353,1.254c0.365,0.309,0.731,0.611,1.106,0.9
							c1.759,1.414,3.875,3,6.022,4.115c0.09-0.016,0.125-0.063,0.079-0.158c-2.247-1.311-4.428-2.777-6.347-4.557l-0.05-0.037
							c-0.913-0.66-2.174-1.979-3.161-2.977c-1.01-0.982-1.907-2.074-2.784-3.183C30.237,80.684,31.501,82.162,32.863,83.641z"/>
						<path fill="#424E32" d="M23.797,69.764c0.153,0.553,0.325,1.104,0.515,1.65c0.545,1.518,1.159,2.809,1.87,4.072
							c-0.485-0.946-0.925-1.924-1.304-2.936C24.48,71.545,24.115,70.697,23.797,69.764z"/>
						<path fill="#424E32" d="M26.78,76.498c-0.209-0.338-0.407-0.673-0.598-1.011c0.721,1.4,1.546,2.729,2.448,3.994
							c1.518,2.057,3.235,3.953,5.139,5.631l0.645,0.566c-3.479-3.197-6.268-7.026-8.248-10.541l-0.116-0.204
							c0.846,1.725,1.847,3.344,2.964,4.864C28.213,78.74,27.467,77.639,26.78,76.498z"/>
						<polygon fill="#424E32" points="32.441,83.227 32.718,83.525 33.057,83.85 32.863,83.641 						"/>
						<path fill="#424E32" d="M30.271,79.824l-0.029-0.043c-0.271-0.348-0.54-0.707-0.801-1.076
							c-0.381-0.495-0.76-1.028-1.124-1.588C28.958,78.143,29.656,79.117,30.271,79.824z"/>
						<polygon fill="#424E32" points="28.554,76.367 28.283,75.89 28.131,75.689 28.316,76.03 						"/>
						<path fill="#424E32" d="M25.22,69.004c0.641,2.354,1.584,4.457,2.716,6.416l0.194,0.269c-0.716-1.337-1.356-2.697-1.93-3.966
							c-0.111-0.251-0.3-0.623-0.384-0.885c-0.414-1.232-0.76-2.424-1.003-3.638c0.105,0.581,0.235,1.165,0.395,1.755L25.22,69.004z
							"/>
					</g>
				</g>
			</g>
		</g>
		<g>
			<g>
				<g>
					<g>
						<path fill="#424E32" d="M45.314,31.934c3.315-0.672,6.802-0.609,9.838-0.044c-1.217-0.219-2.449-0.357-3.686-0.41
							c1.853,0.084,3.41,0.337,5.23,0.817c-0.562-0.088-1.748-0.363-2.054-0.332c-4.44-0.764-9.081-0.401-13.277,0.916
							C42.978,32.173,44.11,32.17,45.314,31.934z"/>
						<path fill="#424E32" d="M61.394,33.945c-0.42-0.163-0.823-0.335-1.232-0.481C60.6,33.613,61.019,33.787,61.394,33.945z"/>
						<path fill="#424E32" d="M23.694,49.959l-0.542,1.397C23.313,50.891,23.5,50.424,23.694,49.959z"/>
						<path fill="#424E32" d="M39.797,33.968l-0.735,0.336c-1.886,0.773-3.73,1.716-5.532,2.792
							C35.482,35.918,37.628,34.721,39.797,33.968z"/>
						<path fill="#424E32" d="M41.929,33.389c1.97-0.642,4.06-1.02,6.019-1.117C45.991,32.389,43.938,32.758,41.929,33.389z"/>
						<path fill="#424E32" d="M21.806,64.89c0.014-0.01,0.029,0.027,0.044,0.083c0.009,0.059,0.021,0.111,0.033,0.154
							c0.058,0.804,0.149,1.604,0.273,2.399c-0.046-0.194-0.104-0.374-0.137-0.575C21.906,66.067,21.948,65.875,21.806,64.89z"/>
						<polygon fill="#424E32" points="23.914,49.443 23.927,49.391 24.127,48.918 24.157,48.865 						"/>
						<path fill="#424E32" d="M21.745,63.867c0.027-0.018,0.055-0.036,0.075-0.106c0.008,0.453,0.031,0.906,0.063,1.357
							l-0.033-0.145C21.8,64.674,21.796,64.201,21.745,63.867z"/>
						<path fill="#424E32" d="M23.495,53.761c0.089-0.278,0.114-0.543,0.148-0.677c0.28-0.705,0.585-1.398,0.943-2.217l0.231-0.668
							l0.268-0.458c-0.808,1.786-1.509,3.671-2.084,5.652C23.147,54.86,23.306,54.317,23.495,53.761z"/>
						<path fill="#424E32" d="M42.574,91.93c-2.583-0.674-5.294-2.158-7.51-3.496c1.23,0.898,2.804,1.813,4.149,2.461
							c1.344,0.652,2.441,1.072,2.622,1.258c0.183,0.186-0.842-0.104-2.148-0.666c-1.307-0.561-2.858-1.436-3.881-2.076l0.52,0.375
							c-0.265-0.18-0.519-0.377-0.778-0.5c0.507,0.393,1.567,1.051,1.849,1.283l-0.533-0.221c0.673,0.48,1.709,1.072,2.795,1.57
							c1.083,0.506,2.206,0.928,2.992,1.232c-3.867-1.332-8.146-3.713-11.788-7.168c-3.662-3.414-6.671-7.827-8.453-12.378
							c-2.043-5.062-2.904-10.23-2.38-15.123c0.102-0.914,0.589-3.051,1.077-4.531c0.759-2.655,1.765-5.228,2.96-7.698
							c1.332-2.6,2.958-5.048,5.158-7.155c0.548-0.527,1.148-1.018,1.79-1.474c0.646-0.451,1.24-0.82,1.883-1.22
							c1.271-0.779,2.596-1.524,3.999-2.208c1.127-0.54,2.774-1.003,0.031,0.33c-1.113,0.59-2.207,1.224-3.28,1.893
							c-1.066,0.682-2.132,1.331-3.18,2.181c0.177-0.262,1.245-0.984,1.677-1.312c-1.642,0.966-2.9,2.106-4.108,3.522
							c0.81-0.959,1.708-1.861,2.727-2.655c-2.545,1.995-4.603,4.829-6.185,7.801c-0.58,1.084-1.296,1.947-1.823,3.623
							c0.898-2.002,1.959-3.969,3.214-5.84c1.26-1.864,2.715-3.646,4.499-5.14l-0.014,0.02c0.398-0.329,0.813-0.64,1.223-0.915
							c0.401-0.263,0.793-0.527,1.194-0.774c0.795-0.504,1.604-0.973,2.449-1.439l-1.504,0.874c2.443-1.377,4.963-2.571,7.615-3.431
							c-3.698,1.374-7.313,3.298-10.685,5.783c-1.646,1.335-2.989,2.962-4.149,4.655c-1.157,1.699-2.12,3.487-2.919,5.288
							c1.019-1.961,2.336-4.617,3.644-6.076c-2.135,2.93-3.771,6.192-5.044,9.665l0.246-0.774c-0.892,2.122-1.51,4.51-1.929,6.777
							l-0.111,0.61l0.111-0.61c0.399-2.083,0.984-4.081,1.683-6.003c-0.284,0.895-0.591,1.842-0.917,2.987l0.821-2.362
							c0.391-1.152,0.836-2.285,1.323-3.386c-0.739,1.71-1.321,3.458-1.729,5.091c0.752-2.406,1.708-4.824,2.869-7.071
							c-0.617,1.245-1.163,2.522-1.653,3.817c-0.853,2.163-1.545,4.413-2.002,6.747l0.047-0.269l-0.096,0.533
							c-0.175,0.913-0.285,1.853-0.333,2.79c-0.041,0.844-0.013,1.673,0.059,2.491l0.021,0.416
							c-0.037-0.262-0.067-0.389-0.057,0.121c0.056,2.178,0.566,4.49,1.188,6.899c0.161,0.634,0.449,1.47,0.811,2.349
							c0.077,0.247,0.137,0.369,0.199,0.476l0.25,0.567c0.2,0.464,0.411,0.925,0.64,1.365l-0.64-1.365l-0.222-0.521
							c0.069,0.111,0.145,0.228,0.253,0.484c-1.342-3.206-2.217-6.754-2.42-10.376l0.096,0.647
							c-0.047-0.354-0.086-0.707-0.117-1.063c-0.05-1.17-0.029-2.344,0.063-3.514c-0.015,0.351-0.023,0.676-0.006,0.961
							c0.216-3.336,1.117-6.594,2.269-9.74c1.164-2.92,2.615-5.7,4.437-8.211c-1.037,1.313-1.959,2.812-2.784,4.394
							c1.057-2.121,2.298-4.168,3.829-5.999c0.77-0.909,1.604-1.772,2.543-2.514c0.947-0.743,1.964-1.341,2.979-1.948
							c-0.687,0.513-1.634,1.203-2.003,1.601c0.052,0.02,1.333-0.789,0.613-0.279c-2.574,1.859-4.004,3.702-4.542,4.896
							c-0.036,0.124,0.527-0.485,1.046-0.965c0.521-0.48,0.983-0.842,0.634-0.409c-0.597,0.712-1.61,2.048-2.543,3.614
							c-0.281,0.444-0.56,0.913-0.834,1.409c-0.039,0.059-0.08,0.172-0.133,0.313c-0.929,1.75-1.656,3.499-2.049,4.47l-0.42,1.082
							c-0.083,0.184-0.161,0.34-0.233,0.457l-0.18,0.709c-0.329,0.978-0.613,1.957-0.852,2.938c-0.15,0.541-0.297,1.083-0.416,1.624
							c0.022-0.008,0.063-0.092,0.065,0.017c-0.243,1.228-0.337,2.445-0.364,3.696l-0.096,1.384c0.112,0.674,0.21,1.786,0.388,2.995
							c0.179,1.209,0.444,2.511,0.754,3.555l0.005-0.004c0.29,1.055,0.644,2.104,1.052,3.145l0.142,0.51l0.321,0.63
							c0.34,0.825,0.641,1.519,0.963,2.206c0.08,0.113,0.249,0.317,0.396,0.57c0.279,0.516,0.576,0.999,0.872,1.467
							c0.343,0.552,0.702,1.103,1.082,1.648c1.28,1.834,2.717,3.518,4.293,5.031c0.037,0.063,0.03,0.096,0.025,0.129
							c0.275,0.201,0.616,0.535,0.862,0.717c-0.05-0.029-0.085-0.045-0.088-0.027c0.801,0.604,0.905,0.773,1.613,1.332
							c0.166,0.117,0.337,0.205,0.504,0.314l0.24,0.174c0.771,0.68,1.661,1.186,2.664,1.717c0.988,0.559,2.011,1.059,3.066,1.482
							C41.681,91.523,41.987,91.703,42.574,91.93z"/>
						<path fill="#424E32" d="M22.202,67.817c0.171,1.039,0.401,2.065,0.677,3.08C22.556,69.815,22.27,68.837,22.202,67.817z"/>
						<path fill="#424E32" d="M30.317,41.383l1.042-0.848c-1.911,1.706-3.458,3.895-4.786,6.246l-0.007,0
							c0.516-0.955,1.231-2.067,1.942-3.044C29.215,42.754,29.926,41.923,30.317,41.383z"/>
						<path fill="#424E32" d="M21.85,64.973l0.033,0.145l0,0.01C21.871,65.084,21.859,65.032,21.85,64.973z"/>
						<path fill="#424E32" d="M33.698,37.412l0.229-0.138c-0.57,0.363-1.135,0.736-1.694,1.119
							C32.67,38.074,33.173,37.741,33.698,37.412z"/>
						<path fill="#424E32" d="M40.221,34.221c1.284-0.501,2.602-0.923,3.942-1.248c1.733-0.381,3.474-0.584,5.13-0.563
							C46.219,32.49,43.154,33.134,40.221,34.221z"/>
						<path fill="#424E32" d="M34.332,38.378c0.487-0.268,0.984-0.532,1.488-0.781c-0.495,0.269-0.977,0.555-1.458,0.84
							C34.442,38.364,34.352,38.389,34.332,38.378z"/>
						<path fill="#424E32" d="M29.315,40.963l0.28-0.304c-0.227,0.271-0.458,0.539-0.669,0.822
							C28.997,41.374,29.184,41.133,29.315,40.963z"/>
						<path fill="#424E32" d="M39.67,35.762l-1.127,0.478l0.64-0.341C39.316,35.873,39.48,35.819,39.67,35.762z"/>
						<path fill="#424E32" d="M45.704,33.927c0.546-0.099,1.079-0.171,1.591-0.228c-0.632,0.086-1.279,0.191-1.913,0.321
							C45.522,33.968,45.634,33.933,45.704,33.927z"/>
					</g>
				</g>
			</g>
		</g>
	</g>
</g>
<g>
	<g>
		<path opacity="0.85" fill="#3D4D21" d="M98.461,85.318c0.355,0.299,0.532,0.709,0.532,1.232c0,0.522-0.177,0.932-0.532,1.229
			c-0.354,0.296-0.845,0.444-1.47,0.444h-1.315v1.547h-0.519v-4.899h1.834C97.616,84.871,98.106,85.02,98.461,85.318z M98.091,87.45
			c0.256-0.212,0.385-0.513,0.385-0.899c0-0.396-0.129-0.701-0.385-0.914c-0.257-0.212-0.628-0.318-1.113-0.318h-1.302v2.45h1.302
			C97.463,87.769,97.834,87.662,98.091,87.45z"/>
		<path opacity="0.85" fill="#3D4D21" d="M101.063,86.25c0.231-0.127,0.517-0.189,0.857-0.189v0.482l-0.119-0.006
			c-0.387,0-0.69,0.118-0.91,0.356c-0.219,0.237-0.328,0.571-0.328,1.001v1.876h-0.497v-3.683h0.476v0.722
			C100.657,86.563,100.832,86.375,101.063,86.25z"/>
		<path opacity="0.85" fill="#3D4D21" d="M105.35,86.421c0.257,0.241,0.385,0.597,0.385,1.067v2.282h-0.476v-0.574
			c-0.112,0.191-0.276,0.341-0.493,0.448c-0.218,0.107-0.476,0.161-0.774,0.161c-0.41,0-0.737-0.099-0.979-0.294
			c-0.243-0.196-0.364-0.455-0.364-0.777c0-0.313,0.113-0.564,0.34-0.756s0.587-0.287,1.081-0.287h1.169v-0.225
			c0-0.316-0.088-0.559-0.266-0.724s-0.437-0.249-0.777-0.249c-0.233,0-0.457,0.039-0.672,0.115
			c-0.215,0.078-0.398,0.184-0.553,0.319l-0.224-0.371c0.187-0.159,0.41-0.281,0.672-0.368c0.261-0.086,0.536-0.129,0.826-0.129
			C104.725,86.061,105.093,86.181,105.35,86.421z M104.79,89.221c0.2-0.128,0.35-0.313,0.447-0.557v-0.602h-1.154
			c-0.63,0-0.945,0.219-0.945,0.658c0,0.215,0.082,0.384,0.245,0.508c0.163,0.123,0.392,0.186,0.686,0.186
			C104.349,89.414,104.589,89.35,104.79,89.221z"/>
		<path opacity="0.85" fill="#3D4D21" d="M109.578,89.771l-1.169-1.54l-1.176,1.54h-0.561l1.456-1.89l-1.386-1.793h0.56l1.106,1.442
			l1.105-1.442h0.547l-1.387,1.793l1.471,1.89H109.578z"/>
		<path opacity="0.85" fill="#3D4D21" d="M111.11,85.179c-0.069-0.07-0.104-0.154-0.104-0.253c0-0.093,0.035-0.174,0.104-0.244
			c0.07-0.07,0.157-0.105,0.26-0.105s0.188,0.034,0.259,0.102c0.07,0.068,0.104,0.148,0.104,0.242c0,0.102-0.034,0.188-0.104,0.259
			c-0.07,0.069-0.156,0.104-0.259,0.104S111.181,85.248,111.11,85.179z M111.118,86.088h0.497v3.683h-0.497V86.088z"/>
		<path opacity="0.85" fill="#3D4D21" d="M113.277,89.676c-0.272-0.086-0.486-0.194-0.641-0.325l0.225-0.392
			c0.153,0.121,0.348,0.221,0.581,0.297c0.233,0.077,0.476,0.115,0.728,0.115c0.336,0,0.585-0.053,0.746-0.157
			c0.16-0.104,0.241-0.253,0.241-0.444c0-0.135-0.045-0.242-0.133-0.318c-0.089-0.077-0.201-0.135-0.336-0.176
			c-0.136-0.039-0.315-0.078-0.539-0.115c-0.299-0.056-0.539-0.113-0.722-0.172c-0.182-0.058-0.337-0.156-0.465-0.297
			c-0.129-0.141-0.192-0.334-0.192-0.581c0-0.308,0.128-0.56,0.385-0.756s0.613-0.294,1.071-0.294c0.237,0,0.476,0.031,0.714,0.094
			c0.237,0.063,0.434,0.146,0.588,0.249l-0.217,0.399c-0.304-0.211-0.665-0.315-1.085-0.315c-0.318,0-0.557,0.056-0.718,0.168
			s-0.242,0.259-0.242,0.441c0,0.14,0.046,0.252,0.137,0.336s0.204,0.146,0.34,0.186c0.135,0.04,0.322,0.081,0.56,0.122
			c0.294,0.057,0.53,0.112,0.707,0.168c0.178,0.057,0.329,0.152,0.455,0.287c0.126,0.136,0.189,0.322,0.189,0.561
			c0,0.322-0.135,0.577-0.402,0.766c-0.269,0.189-0.641,0.284-1.117,0.284C113.836,89.806,113.551,89.762,113.277,89.676z"/>
		<path opacity="0.85" fill="#3D4D21" d="M119.431,85.137c-0.11,0.117-0.165,0.289-0.165,0.518v0.434h1.134v0.42h-1.119v3.263
			h-0.497v-3.263h-0.658v-0.42h0.658v-0.455c0-0.336,0.097-0.602,0.29-0.797c0.193-0.196,0.468-0.295,0.822-0.295
			c0.141,0,0.275,0.021,0.406,0.061c0.131,0.039,0.24,0.096,0.329,0.171l-0.168,0.371c-0.145-0.122-0.327-0.183-0.546-0.183
			C119.702,84.961,119.54,85.02,119.431,85.137z"/>
		<path opacity="0.85" fill="#3D4D21" d="M124.536,86.088v3.683h-0.476v-0.672c-0.131,0.224-0.311,0.397-0.539,0.521
			s-0.49,0.186-0.784,0.186c-0.48,0-0.859-0.134-1.138-0.403c-0.277-0.268-0.416-0.66-0.416-1.179v-2.136h0.497v2.086
			c0,0.389,0.096,0.682,0.287,0.883c0.19,0.201,0.464,0.301,0.818,0.301c0.388,0,0.693-0.117,0.917-0.354
			c0.225-0.235,0.336-0.563,0.336-0.983v-1.933H124.536z M122.027,85.27c-0.059-0.057-0.088-0.129-0.088-0.217
			c0-0.084,0.029-0.155,0.088-0.214c0.058-0.058,0.129-0.087,0.213-0.087c0.079,0,0.149,0.029,0.21,0.087
			c0.061,0.059,0.091,0.13,0.091,0.214s-0.029,0.154-0.087,0.213c-0.059,0.059-0.13,0.088-0.214,0.088S122.085,85.326,122.027,85.27
			z M123.272,85.266c-0.058-0.059-0.087-0.129-0.087-0.213s0.03-0.155,0.091-0.214c0.061-0.058,0.131-0.087,0.21-0.087
			c0.084,0,0.155,0.029,0.214,0.087c0.058,0.059,0.087,0.13,0.087,0.214c0,0.088-0.029,0.16-0.087,0.217
			c-0.059,0.057-0.13,0.084-0.214,0.084S123.331,85.324,123.272,85.266z"/>
		<path opacity="0.85" fill="#3D4D21" d="M127.074,86.25c0.231-0.127,0.517-0.189,0.857-0.189v0.482l-0.119-0.006
			c-0.387,0-0.69,0.118-0.91,0.356c-0.219,0.237-0.328,0.571-0.328,1.001v1.876h-0.497v-3.683h0.476v0.722
			C126.669,86.563,126.844,86.375,127.074,86.25z"/>
		<path opacity="0.85" fill="#3D4D21" d="M134.581,89.322v0.448h-3.465v-4.899h3.36v0.447h-2.842v1.743h2.533v0.44h-2.533v1.82
			H134.581z"/>
		<path opacity="0.85" fill="#3D4D21" d="M136.838,86.25c0.231-0.127,0.517-0.189,0.857-0.189v0.482l-0.119-0.006
			c-0.387,0-0.69,0.118-0.91,0.356c-0.219,0.237-0.328,0.571-0.328,1.001v1.876h-0.497v-3.683h0.476v0.722
			C136.433,86.563,136.607,86.375,136.838,86.25z"/>
		<path opacity="0.85" fill="#3D4D21" d="M142.112,86.088v3.234c0,0.625-0.152,1.089-0.458,1.39
			c-0.306,0.302-0.767,0.452-1.383,0.452c-0.341,0-0.664-0.051-0.97-0.15c-0.306-0.102-0.554-0.24-0.745-0.417l0.252-0.378
			c0.178,0.158,0.394,0.282,0.647,0.371c0.255,0.088,0.521,0.133,0.802,0.133c0.467,0,0.81-0.109,1.029-0.326
			c0.219-0.217,0.329-0.554,0.329-1.011v-0.47c-0.154,0.234-0.356,0.411-0.606,0.533c-0.249,0.121-0.525,0.182-0.829,0.182
			c-0.346,0-0.659-0.076-0.941-0.229c-0.282-0.15-0.504-0.363-0.665-0.637c-0.161-0.272-0.241-0.582-0.241-0.928
			c0-0.345,0.08-0.652,0.241-0.924c0.161-0.27,0.382-0.48,0.661-0.629c0.28-0.15,0.596-0.225,0.945-0.225
			c0.313,0,0.595,0.063,0.847,0.189c0.252,0.125,0.455,0.308,0.609,0.545v-0.707H142.112z M140.951,89.018
			c0.214-0.113,0.381-0.273,0.5-0.479c0.119-0.206,0.179-0.439,0.179-0.701c0-0.261-0.06-0.492-0.179-0.695
			s-0.284-0.362-0.497-0.477c-0.212-0.114-0.454-0.172-0.725-0.172c-0.266,0-0.505,0.057-0.717,0.168
			c-0.213,0.112-0.379,0.271-0.497,0.477c-0.119,0.205-0.179,0.438-0.179,0.699c0,0.262,0.06,0.495,0.179,0.701
			c0.118,0.205,0.284,0.365,0.497,0.479c0.212,0.115,0.451,0.172,0.717,0.172C140.496,89.189,140.736,89.133,140.951,89.018z"/>
		<path opacity="0.85" fill="#3D4D21" d="M144.198,89.564c-0.285-0.162-0.509-0.385-0.672-0.669
			c-0.164-0.284-0.245-0.606-0.245-0.966s0.081-0.682,0.245-0.967c0.163-0.284,0.387-0.506,0.672-0.664
			c0.284-0.158,0.604-0.238,0.959-0.238s0.674,0.08,0.959,0.238c0.284,0.158,0.507,0.38,0.668,0.664
			c0.161,0.285,0.242,0.607,0.242,0.967s-0.081,0.682-0.242,0.966s-0.384,0.507-0.668,0.669c-0.285,0.16-0.604,0.241-0.959,0.241
			S144.482,89.725,144.198,89.564z M145.86,89.186c0.208-0.119,0.37-0.287,0.486-0.507c0.117-0.22,0.176-0.47,0.176-0.749
			c0-0.28-0.059-0.529-0.176-0.749c-0.116-0.22-0.278-0.389-0.486-0.508c-0.208-0.118-0.442-0.179-0.703-0.179
			c-0.262,0-0.496,0.061-0.704,0.179c-0.207,0.119-0.371,0.288-0.489,0.508c-0.119,0.22-0.179,0.469-0.179,0.749
			c0,0.279,0.06,0.529,0.179,0.749c0.118,0.22,0.282,0.388,0.489,0.507c0.208,0.119,0.442,0.18,0.704,0.18
			C145.418,89.365,145.652,89.305,145.86,89.186z"/>
		<path opacity="0.85" fill="#3D4D21" d="M150.127,89.547c-0.093,0.084-0.209,0.148-0.347,0.191
			c-0.138,0.045-0.281,0.067-0.43,0.067c-0.346,0-0.612-0.093-0.799-0.28c-0.187-0.187-0.279-0.45-0.279-0.791v-2.227h-0.658v-0.42
			h0.658v-0.805h0.497v0.805h1.119v0.42h-1.119v2.199c0,0.219,0.055,0.386,0.164,0.5s0.268,0.172,0.473,0.172
			c0.103,0,0.202-0.017,0.298-0.049c0.095-0.033,0.178-0.08,0.248-0.141L150.127,89.547z"/>
		<path opacity="0.85" fill="#3D4D21" d="M154.155,86.463c0.272,0.269,0.409,0.659,0.409,1.173v2.135h-0.497v-2.086
			c0-0.383-0.096-0.675-0.287-0.875s-0.464-0.302-0.819-0.302c-0.396,0-0.71,0.119-0.941,0.354c-0.23,0.236-0.346,0.563-0.346,0.977
			v1.933h-0.497v-5.194h0.497v2.156c0.135-0.215,0.321-0.381,0.56-0.497s0.511-0.175,0.819-0.175
			C153.515,86.061,153.882,86.195,154.155,86.463z"/>
		<path opacity="0.85" fill="#3D4D21" d="M159.283,88.084h-3.08c0.027,0.383,0.175,0.691,0.44,0.928
			c0.267,0.234,0.603,0.354,1.008,0.354c0.229,0,0.439-0.041,0.631-0.123c0.19-0.082,0.356-0.202,0.496-0.361l0.28,0.322
			c-0.163,0.196-0.367,0.346-0.612,0.448s-0.515,0.154-0.809,0.154c-0.378,0-0.713-0.081-1.005-0.241
			c-0.291-0.162-0.519-0.385-0.682-0.669c-0.164-0.284-0.245-0.606-0.245-0.966s0.078-0.682,0.234-0.967
			c0.156-0.284,0.371-0.506,0.644-0.664c0.273-0.158,0.58-0.238,0.921-0.238s0.646,0.08,0.917,0.238s0.483,0.379,0.637,0.661
			c0.154,0.282,0.231,0.605,0.231,0.97L159.283,88.084z M156.612,86.827c-0.24,0.226-0.377,0.521-0.409,0.886h2.61
			c-0.032-0.364-0.169-0.66-0.409-0.886c-0.24-0.227-0.54-0.34-0.899-0.34C157.15,86.487,156.853,86.601,156.612,86.827z"/>
		<path opacity="0.85" fill="#3D4D21" d="M161.449,86.25c0.231-0.127,0.517-0.189,0.857-0.189v0.482l-0.119-0.006
			c-0.387,0-0.69,0.118-0.91,0.356c-0.219,0.237-0.328,0.571-0.328,1.001v1.876h-0.497v-3.683h0.476v0.722
			C161.044,86.563,161.219,86.375,161.449,86.25z"/>
		<path opacity="0.85" fill="#3D4D21" d="M165.736,86.421c0.257,0.241,0.385,0.597,0.385,1.067v2.282h-0.476v-0.574
			c-0.112,0.191-0.276,0.341-0.493,0.448c-0.218,0.107-0.476,0.161-0.774,0.161c-0.41,0-0.737-0.099-0.979-0.294
			c-0.243-0.196-0.364-0.455-0.364-0.777c0-0.313,0.113-0.564,0.34-0.756s0.587-0.287,1.081-0.287h1.169v-0.225
			c0-0.316-0.088-0.559-0.266-0.724s-0.437-0.249-0.777-0.249c-0.233,0-0.457,0.039-0.672,0.115
			c-0.215,0.078-0.398,0.184-0.553,0.319l-0.224-0.371c0.187-0.159,0.41-0.281,0.672-0.368c0.261-0.086,0.536-0.129,0.826-0.129
			C165.111,86.061,165.479,86.181,165.736,86.421z M165.177,89.221c0.2-0.128,0.35-0.313,0.447-0.557v-0.602h-1.154
			c-0.63,0-0.945,0.219-0.945,0.658c0,0.215,0.082,0.384,0.245,0.508c0.163,0.123,0.392,0.186,0.686,0.186
			C164.735,89.414,164.976,89.35,165.177,89.221z"/>
		<path opacity="0.85" fill="#3D4D21" d="M170.455,86.295c0.279,0.156,0.499,0.377,0.657,0.662c0.159,0.284,0.238,0.608,0.238,0.973
			c0,0.369-0.079,0.695-0.238,0.98c-0.158,0.284-0.376,0.504-0.654,0.66c-0.277,0.157-0.591,0.235-0.941,0.235
			c-0.299,0-0.568-0.062-0.809-0.186s-0.438-0.305-0.591-0.542v2.051h-0.497v-5.041h0.476v0.729c0.149-0.242,0.347-0.43,0.592-0.561
			c0.245-0.13,0.521-0.195,0.829-0.195C169.862,86.061,170.175,86.139,170.455,86.295z M170.182,89.186
			c0.21-0.119,0.375-0.287,0.493-0.507c0.119-0.22,0.179-0.47,0.179-0.749c0-0.28-0.06-0.529-0.179-0.746
			c-0.118-0.217-0.283-0.386-0.493-0.508c-0.21-0.121-0.443-0.182-0.7-0.182c-0.261,0-0.495,0.061-0.703,0.182
			c-0.208,0.122-0.371,0.291-0.49,0.508s-0.179,0.466-0.179,0.746c0,0.279,0.06,0.529,0.179,0.749s0.282,0.388,0.49,0.507
			s0.442,0.18,0.703,0.18C169.738,89.365,169.972,89.305,170.182,89.186z"/>
		<path opacity="0.85" fill="#3D4D21" d="M172.505,85.179c-0.069-0.07-0.104-0.154-0.104-0.253c0-0.093,0.035-0.174,0.104-0.244
			c0.07-0.07,0.157-0.105,0.26-0.105s0.188,0.034,0.259,0.102c0.07,0.068,0.104,0.148,0.104,0.242c0,0.102-0.034,0.188-0.104,0.259
			c-0.07,0.069-0.156,0.104-0.259,0.104S172.575,85.248,172.505,85.179z M172.513,86.088h0.497v3.683h-0.497V86.088z"/>
		<path opacity="0.85" fill="#3D4D21" d="M177.749,88.084h-3.08c0.027,0.383,0.175,0.691,0.44,0.928
			c0.267,0.234,0.603,0.354,1.008,0.354c0.229,0,0.439-0.041,0.631-0.123c0.19-0.082,0.356-0.202,0.496-0.361l0.28,0.322
			c-0.163,0.196-0.367,0.346-0.612,0.448s-0.515,0.154-0.809,0.154c-0.378,0-0.713-0.081-1.005-0.241
			c-0.291-0.162-0.519-0.385-0.682-0.669c-0.164-0.284-0.245-0.606-0.245-0.966s0.078-0.682,0.234-0.967
			c0.156-0.284,0.371-0.506,0.644-0.664c0.273-0.158,0.58-0.238,0.921-0.238s0.646,0.08,0.917,0.238s0.483,0.379,0.637,0.661
			c0.154,0.282,0.231,0.605,0.231,0.97L177.749,88.084z M175.078,86.827c-0.24,0.226-0.377,0.521-0.409,0.886h2.61
			c-0.032-0.364-0.169-0.66-0.409-0.886c-0.24-0.227-0.54-0.34-0.899-0.34C175.616,86.487,175.318,86.601,175.078,86.827z"/>
		<path opacity="0.85" fill="#3D4D21" d="M184.216,86.088v3.683h-0.476v-0.672c-0.131,0.224-0.311,0.397-0.539,0.521
			s-0.49,0.186-0.784,0.186c-0.48,0-0.859-0.134-1.138-0.403c-0.277-0.268-0.416-0.66-0.416-1.179v-2.136h0.497v2.086
			c0,0.389,0.096,0.682,0.287,0.883c0.19,0.201,0.464,0.301,0.818,0.301c0.388,0,0.693-0.117,0.917-0.354
			c0.225-0.235,0.336-0.563,0.336-0.983v-1.933H184.216z"/>
		<path opacity="0.85" fill="#3D4D21" d="M188.734,86.463c0.272,0.269,0.409,0.659,0.409,1.173v2.135h-0.497v-2.086
			c0-0.383-0.096-0.675-0.287-0.875s-0.464-0.302-0.819-0.302c-0.396,0-0.71,0.119-0.941,0.354c-0.23,0.236-0.346,0.563-0.346,0.977
			v1.933h-0.497v-3.683h0.476v0.68c0.136-0.225,0.323-0.398,0.563-0.521s0.52-0.186,0.837-0.186
			C188.094,86.061,188.461,86.195,188.734,86.463z"/>
		<path opacity="0.85" fill="#3D4D21" d="M194.016,84.576v5.194h-0.476v-0.728c-0.149,0.247-0.347,0.436-0.592,0.566
			s-0.521,0.196-0.829,0.196c-0.346,0-0.658-0.079-0.938-0.238c-0.279-0.159-0.499-0.38-0.658-0.665
			c-0.158-0.285-0.237-0.609-0.237-0.973c0-0.364,0.079-0.688,0.237-0.973c0.159-0.285,0.379-0.506,0.658-0.662
			c0.28-0.156,0.593-0.234,0.938-0.234c0.299,0,0.567,0.063,0.809,0.186c0.24,0.123,0.438,0.305,0.591,0.543v-2.213H194.016z
			 M192.857,89.186c0.208-0.119,0.371-0.287,0.49-0.507s0.179-0.47,0.179-0.749c0-0.28-0.06-0.529-0.179-0.749
			s-0.282-0.389-0.49-0.508c-0.208-0.118-0.439-0.179-0.696-0.179c-0.262,0-0.496,0.061-0.704,0.179
			c-0.207,0.119-0.371,0.288-0.489,0.508c-0.119,0.22-0.179,0.469-0.179,0.749c0,0.279,0.06,0.529,0.179,0.749
			c0.118,0.22,0.282,0.388,0.489,0.507c0.208,0.119,0.442,0.18,0.704,0.18C192.418,89.365,192.649,89.305,192.857,89.186z"/>
		<path opacity="0.85" fill="#3D4D21" d="M201.729,84.871v4.899h-0.427l-3.149-3.976v3.976h-0.519v-4.899h0.427l3.157,3.976v-3.976
			H201.729z"/>
		<path opacity="0.85" fill="#3D4D21" d="M206.574,88.084h-3.08c0.027,0.383,0.175,0.691,0.44,0.928
			c0.267,0.234,0.603,0.354,1.008,0.354c0.229,0,0.439-0.041,0.631-0.123c0.19-0.082,0.356-0.202,0.496-0.361l0.28,0.322
			c-0.163,0.196-0.367,0.346-0.612,0.448s-0.515,0.154-0.809,0.154c-0.378,0-0.713-0.081-1.005-0.241
			c-0.291-0.162-0.519-0.385-0.682-0.669c-0.164-0.284-0.245-0.606-0.245-0.966s0.078-0.682,0.234-0.967
			c0.156-0.284,0.371-0.506,0.644-0.664c0.273-0.158,0.58-0.238,0.921-0.238s0.646,0.08,0.917,0.238s0.483,0.379,0.637,0.661
			c0.154,0.282,0.231,0.605,0.231,0.97L206.574,88.084z M203.903,86.827c-0.24,0.226-0.377,0.521-0.409,0.886h2.61
			c-0.032-0.364-0.169-0.66-0.409-0.886c-0.24-0.227-0.54-0.34-0.899-0.34C204.441,86.487,204.144,86.601,203.903,86.827z"/>
		<path opacity="0.85" fill="#3D4D21" d="M211.061,86.088v3.683h-0.476v-0.672c-0.131,0.224-0.311,0.397-0.539,0.521
			s-0.49,0.186-0.784,0.186c-0.48,0-0.859-0.134-1.138-0.403c-0.277-0.268-0.416-0.66-0.416-1.179v-2.136h0.497v2.086
			c0,0.389,0.096,0.682,0.287,0.883c0.19,0.201,0.464,0.301,0.818,0.301c0.388,0,0.693-0.117,0.917-0.354
			c0.225-0.235,0.336-0.563,0.336-0.983v-1.933H211.061z"/>
		<path opacity="0.85" fill="#3D4D21" d="M213.598,86.25c0.231-0.127,0.517-0.189,0.857-0.189v0.482l-0.119-0.006
			c-0.387,0-0.69,0.118-0.91,0.356c-0.219,0.237-0.328,0.571-0.328,1.001v1.876h-0.497v-3.683h0.476v0.722
			C213.192,86.563,213.367,86.375,213.598,86.25z"/>
		<path opacity="0.85" fill="#3D4D21" d="M216.01,89.564c-0.285-0.162-0.509-0.385-0.672-0.669
			c-0.164-0.284-0.245-0.606-0.245-0.966s0.081-0.682,0.245-0.967c0.163-0.284,0.387-0.506,0.672-0.664
			c0.284-0.158,0.604-0.238,0.959-0.238s0.674,0.08,0.959,0.238c0.284,0.158,0.507,0.38,0.668,0.664
			c0.161,0.285,0.242,0.607,0.242,0.967s-0.081,0.682-0.242,0.966s-0.384,0.507-0.668,0.669c-0.285,0.16-0.604,0.241-0.959,0.241
			S216.294,89.725,216.01,89.564z M217.672,89.186c0.208-0.119,0.37-0.287,0.486-0.507c0.117-0.22,0.176-0.47,0.176-0.749
			c0-0.28-0.059-0.529-0.176-0.749c-0.116-0.22-0.278-0.389-0.486-0.508c-0.208-0.118-0.442-0.179-0.703-0.179
			c-0.262,0-0.496,0.061-0.704,0.179c-0.207,0.119-0.371,0.288-0.489,0.508c-0.119,0.22-0.179,0.469-0.179,0.749
			c0,0.279,0.06,0.529,0.179,0.749c0.118,0.22,0.282,0.388,0.489,0.507c0.208,0.119,0.442,0.18,0.704,0.18
			C217.229,89.365,217.464,89.305,217.672,89.186z"/>
		<path opacity="0.85" fill="#3D4D21" d="M220.73,85.137c-0.11,0.117-0.165,0.289-0.165,0.518v0.434h1.134v0.42h-1.119v3.263h-0.497
			v-3.263h-0.658v-0.42h0.658v-0.455c0-0.336,0.097-0.602,0.29-0.797c0.193-0.196,0.468-0.295,0.822-0.295
			c0.141,0,0.275,0.021,0.406,0.061c0.131,0.039,0.24,0.096,0.329,0.171l-0.168,0.371c-0.145-0.122-0.327-0.183-0.546-0.183
			C221.002,84.961,220.84,85.02,220.73,85.137z"/>
		<path opacity="0.85" fill="#3D4D21" d="M225.662,88.084h-3.08c0.027,0.383,0.175,0.691,0.44,0.928
			c0.267,0.234,0.603,0.354,1.008,0.354c0.229,0,0.439-0.041,0.631-0.123c0.19-0.082,0.356-0.202,0.496-0.361l0.28,0.322
			c-0.163,0.196-0.367,0.346-0.612,0.448s-0.515,0.154-0.809,0.154c-0.378,0-0.713-0.081-1.005-0.241
			c-0.291-0.162-0.519-0.385-0.682-0.669c-0.164-0.284-0.245-0.606-0.245-0.966s0.078-0.682,0.234-0.967
			c0.156-0.284,0.371-0.506,0.644-0.664c0.273-0.158,0.58-0.238,0.921-0.238s0.646,0.08,0.917,0.238s0.483,0.379,0.637,0.661
			c0.154,0.282,0.231,0.605,0.231,0.97L225.662,88.084z M222.991,86.827c-0.24,0.226-0.377,0.521-0.409,0.886h2.61
			c-0.032-0.364-0.169-0.66-0.409-0.886c-0.24-0.227-0.54-0.34-0.899-0.34C223.529,86.487,223.231,86.601,222.991,86.827z"/>
		<path opacity="0.85" fill="#3D4D21" d="M230.036,88.084h-3.08c0.027,0.383,0.175,0.691,0.44,0.928
			c0.267,0.234,0.603,0.354,1.008,0.354c0.229,0,0.439-0.041,0.631-0.123c0.19-0.082,0.356-0.202,0.496-0.361l0.28,0.322
			c-0.163,0.196-0.367,0.346-0.612,0.448s-0.515,0.154-0.809,0.154c-0.378,0-0.713-0.081-1.005-0.241
			c-0.291-0.162-0.519-0.385-0.682-0.669c-0.164-0.284-0.245-0.606-0.245-0.966s0.078-0.682,0.234-0.967
			c0.156-0.284,0.371-0.506,0.644-0.664c0.273-0.158,0.58-0.238,0.921-0.238s0.646,0.08,0.917,0.238s0.483,0.379,0.637,0.661
			c0.154,0.282,0.231,0.605,0.231,0.97L230.036,88.084z M227.365,86.827c-0.24,0.226-0.377,0.521-0.409,0.886h2.61
			c-0.032-0.364-0.169-0.66-0.409-0.886c-0.24-0.227-0.54-0.34-0.899-0.34C227.903,86.487,227.605,86.601,227.365,86.827z"/>
		<path opacity="0.85" fill="#3D4D21" d="M234.564,84.576v5.194h-0.476v-0.728c-0.149,0.247-0.347,0.436-0.592,0.566
			s-0.521,0.196-0.829,0.196c-0.346,0-0.658-0.079-0.938-0.238c-0.279-0.159-0.499-0.38-0.658-0.665
			c-0.158-0.285-0.237-0.609-0.237-0.973c0-0.364,0.079-0.688,0.237-0.973c0.159-0.285,0.379-0.506,0.658-0.662
			c0.28-0.156,0.593-0.234,0.938-0.234c0.299,0,0.567,0.063,0.809,0.186c0.24,0.123,0.438,0.305,0.591,0.543v-2.213H234.564z
			 M233.406,89.186c0.208-0.119,0.371-0.287,0.49-0.507s0.179-0.47,0.179-0.749c0-0.28-0.06-0.529-0.179-0.749
			s-0.282-0.389-0.49-0.508c-0.208-0.118-0.439-0.179-0.696-0.179c-0.262,0-0.496,0.061-0.704,0.179
			c-0.207,0.119-0.371,0.288-0.489,0.508c-0.119,0.22-0.179,0.469-0.179,0.749c0,0.279,0.06,0.529,0.179,0.749
			c0.118,0.22,0.282,0.388,0.489,0.507c0.208,0.119,0.442,0.18,0.704,0.18C232.967,89.365,233.198,89.305,233.406,89.186z"/>
		<path opacity="0.85" fill="#3D4D21" d="M238.934,86.295c0.279,0.156,0.499,0.377,0.657,0.662c0.159,0.284,0.238,0.608,0.238,0.973
			c0,0.363-0.079,0.688-0.238,0.973c-0.158,0.285-0.378,0.506-0.657,0.665c-0.28,0.159-0.593,0.238-0.938,0.238
			c-0.308,0-0.584-0.065-0.829-0.196s-0.442-0.319-0.592-0.566v0.728h-0.476v-5.194h0.497v2.213c0.153-0.238,0.351-0.42,0.591-0.543
			s0.51-0.186,0.809-0.186C238.341,86.061,238.653,86.139,238.934,86.295z M238.66,89.186c0.21-0.119,0.375-0.287,0.493-0.507
			c0.119-0.22,0.179-0.47,0.179-0.749c0-0.28-0.06-0.529-0.179-0.749c-0.118-0.22-0.283-0.389-0.493-0.508
			c-0.21-0.118-0.443-0.179-0.7-0.179c-0.261,0-0.495,0.061-0.703,0.179c-0.208,0.119-0.371,0.288-0.49,0.508
			s-0.179,0.469-0.179,0.749c0,0.279,0.06,0.529,0.179,0.749s0.282,0.388,0.49,0.507s0.442,0.18,0.703,0.18
			C238.217,89.365,238.45,89.305,238.66,89.186z"/>
		<path opacity="0.85" fill="#3D4D21" d="M243.364,86.421c0.257,0.241,0.385,0.597,0.385,1.067v2.282h-0.476v-0.574
			c-0.112,0.191-0.276,0.341-0.493,0.448c-0.218,0.107-0.476,0.161-0.774,0.161c-0.41,0-0.737-0.099-0.979-0.294
			c-0.243-0.196-0.364-0.455-0.364-0.777c0-0.313,0.113-0.564,0.34-0.756s0.587-0.287,1.081-0.287h1.169v-0.225
			c0-0.316-0.088-0.559-0.266-0.724s-0.437-0.249-0.777-0.249c-0.233,0-0.457,0.039-0.672,0.115
			c-0.215,0.078-0.398,0.184-0.553,0.319l-0.224-0.371c0.187-0.159,0.41-0.281,0.672-0.368c0.261-0.086,0.536-0.129,0.826-0.129
			C242.739,86.061,243.107,86.181,243.364,86.421z M242.805,89.221c0.2-0.128,0.35-0.313,0.447-0.557v-0.602h-1.154
			c-0.63,0-0.945,0.219-0.945,0.658c0,0.215,0.082,0.384,0.245,0.508c0.163,0.123,0.392,0.186,0.686,0.186
			C242.363,89.414,242.604,89.35,242.805,89.221z"/>
		<path opacity="0.85" fill="#3D4D21" d="M245.811,89.567c-0.287-0.159-0.512-0.382-0.675-0.669
			c-0.164-0.287-0.245-0.609-0.245-0.969s0.081-0.682,0.245-0.967c0.163-0.284,0.388-0.506,0.675-0.664s0.613-0.238,0.977-0.238
			c0.317,0,0.601,0.063,0.851,0.186s0.447,0.305,0.592,0.543l-0.371,0.252c-0.121-0.183-0.275-0.318-0.462-0.41
			c-0.187-0.091-0.39-0.137-0.609-0.137c-0.266,0-0.505,0.061-0.717,0.179c-0.213,0.119-0.379,0.288-0.497,0.508
			c-0.119,0.22-0.179,0.469-0.179,0.749c0,0.285,0.06,0.535,0.179,0.752c0.118,0.217,0.284,0.385,0.497,0.504
			c0.212,0.119,0.451,0.18,0.717,0.18c0.22,0,0.423-0.045,0.609-0.134s0.341-0.224,0.462-0.405l0.371,0.252
			c-0.145,0.237-0.343,0.418-0.595,0.542s-0.535,0.186-0.848,0.186C246.424,89.806,246.098,89.727,245.811,89.567z"/>
		<path opacity="0.85" fill="#3D4D21" d="M250.658,87.922l-0.867,0.799v1.05h-0.497v-5.194h0.497v3.521l2.197-2.01h0.616
			l-1.575,1.506l1.723,2.177h-0.609L250.658,87.922z"/>
	</g>
</g>
<g>
</g>
</svg>
