<?xml version="1.0" encoding="utf-8"?>
<!-- Generator: Adobe Illustrator 15.1.0, SVG Export Plug-In . SVG Version: 6.00 Build 0)  -->
<!DOCTYPE svg PUBLIC "-//W3C//DTD SVG 1.1//EN" "http://www.w3.org/Graphics/SVG/1.1/DTD/svg11.dtd">
<svg version="1.1" id="Ebene_1" xmlns="http://www.w3.org/2000/svg" xmlns:xlink="http://www.w3.org/1999/xlink" x="0px" y="0px"
	 width="120px" height="120px" viewBox="0 0 120 120" enable-background="new 0 0 120 120" xml:space="preserve">
<ellipse opacity="0.01" fill="#F1F5FC" cx="56.556" cy="56.484" rx="35.758" ry="36.97"/>
<g>
	<g>
		<g>
			<g>
				<g>
					<g>
						<g>
							<g opacity="0.8">
								<g>
									<path fill="#AA7959" d="M85.92,58.124c-0.03,1.684-0.077,3.192-0.15,4.752c-0.182,2.425-0.985,4.521-1.881,6.879
										c-0.469,1.165-0.925,2.229-1.469,3.322c-1.271,2.116-2.862,4.281-4.727,6.31c-0.218,0.203-0.895,0.757-0.599,0.934
										c-2.059,1.768-4.287,3.084-6.44,4.456c-0.931,0.553-2.063,0.782-3.032,1.22c-1.574,0.773-3.319,0.949-4.953,1.342
										c-0.216,0.105-0.686,0.369-0.886,0.385c-2.349,0.075-4.453,0.726-6.738,0.801c-0.887-0.004-1.583-0.003-2.424-0.146
										c-0.1,0.135-0.298,0.076-0.547,0.085c-0.323-0.045-1.358-0.346-2.313-0.728c-0.959-0.375-1.829-0.844-1.949-0.985
										c-0.06-0.076,1.597,0.499,3.315,0.813c1.716,0.332,3.459,0.414,3.404,0.316c-0.076-0.049-1.217-0.148-2.376-0.348
										c-1.161-0.189-2.329-0.501-2.513-0.576c4.113,0.688,6.682,0.284,8.119,0.083c1.442-0.246,1.807-0.396,1.55-0.369
										c-0.509,0.065-3.597,0.538-6.089,0.442c-0.752-0.137-1.882-0.064-3.342-0.451c0.905,0.14,2.763-0.043,3.171-0.026
										c1.94-0.003,1.651-0.224,3.812-0.144c0.887,0.014,2.091-0.155,3.228-0.426c1.141-0.266,2.212-0.63,2.921-0.86
										c-0.672,0.452-2.393,1.365-3.581,1.401c1.285,0.019,1.981-0.295,2.653-0.631c0.674-0.354,1.331-0.732,2.58-1.077
										c0.23-0.071,0.485-0.196,0.754-0.342c0.285-0.056,0.549-0.129,0.885-0.208c2.009-0.757,3.557-1.845,5.341-2.924
										c-0.146,0.107-0.334,0.029-0.498,0.11c-1.655,0.712-2.823,1.739-4.621,2.389c-0.351,0.097-0.738,0.506-1.106,0.633
										c-0.739,0.277-1.46,0.313-2.185,0.412c1.348-0.559,2.964-1.071,4.361-1.759c0.282-0.161,0.562-0.474,0.739-0.67
										c-0.642,0.303-1.291,0.592-1.953,0.861c-1.138,0.51-2.451,1.146-3.756,1.598c-1.302,0.446-2.587,0.704-3.515,0.562
										l-0.211,0.07c-0.029-0.016-0.067-0.024-0.109-0.028c-0.352,0.037-0.777,0.038-1.162-0.056
										c0.324-0.004,0.648-0.004,0.973-0.021c2.465-0.691,5.325-1.056,7.788-2.288c0.524-0.294,1.554-0.453,2.057-0.809
										l4.604-2.842c2.693-1.787,5.054-4.173,6.91-6.975c1.859-2.8,3.228-5.998,4.08-9.368l0.035-0.479l-0.118,0.195l0.135-0.438
										c0.072-0.882,0.153-1.744,0.346-2.609c0.122-0.354,0.006,0.627,0.116,0.903l0.056-0.394l0.145,0.078
										c-0.029-0.153,0.063-0.242,0.119-0.349c-0.025,1.956-0.191,3.929-0.594,5.876c0.242-0.184,0.309-0.774,0.388-1.046
										c0.06-0.661,0.099-1.317,0.228-1.91c0.119-1.665,0.52-3.395,0.533-5.035c0.042-0.304,0.09-0.607,0.152-0.905
										C85.672,56.766,85.95,57.499,85.92,58.124z M75.023,79.148c0.435-0.282,0.881-0.541,1.325-0.843l0.407-0.378
										c0.169-0.156,0.325-0.348,0.47-0.558c0.725-0.682,1.415-1.404,2.064-2.178c-0.793,0.683-1.597,1.358-2.455,2.241
										c2.081-2.372,4.067-4.438,5.601-7.174c0.385-0.851,0.723-1.739,1.001-2.668c0.179-0.659,0.303-1.316,0.392-1.97
										c-1.174,4.004-3.309,7.596-6.032,10.44c-2.721,2.875-5.981,4.968-9.502,6.582C70.703,81.848,72.886,80.657,75.023,79.148z
										 M74.465,79.941c-0.808,0.662-1.63,1.283-2.465,1.866c-2.335,1.528-5.106,2.689-6.682,3.698
										c2.3-0.945,4.529-2.206,6.682-3.698c-1.054,0.665-1.212,0.737-0.726,0.467c0.478-0.286,1.579-0.958,2.868-2.026
										C74.188,80.184,74.312,80.074,74.465,79.941z"/>
									<path fill="#AA7959" d="M82.586,67.075c0.523-1.078,0.949-2.227,1.347-3.385c-0.278,0.426-0.546,0.789-0.808,1.278
										c-0.632,1.327-1.029,2.855-1.745,4.157c-2.025,3.726-4.614,7.096-7.884,9.782c-0.17,0.122-0.541,0.394-0.774,0.654
										C77.171,76.55,80.343,72.201,82.586,67.075z"/>
									<path fill="#AA7959" d="M66.683,82.662c-0.683,0.354-1.384,0.684-2.089,0.898c0.688-0.052,1.565-0.344,2.252-0.624
										c0.947-0.437,1.867-0.93,2.757-1.445L66.683,82.662z"/>
									<path fill="#AA7959" d="M72.722,79.563c-0.174,0.124-0.356,0.236-0.538,0.352c-0.832,0.526-1.691,1.063-2.581,1.577
										c1.012-0.422,2.011-0.876,2.962-1.44C72.464,79.924,72.562,79.75,72.722,79.563z"/>
								</g>
							</g>
						</g>
					</g>
				</g>
			</g>
			<g>
				<g>
					<g>
						<g>
							<polygon fill="#AA7959" points="82,55.254 81.998,55.056 81.949,55.061 							"/>
							<path fill="#AA7959" d="M82.589,55.441v-0.064c-0.014,0.008-0.026,0.009-0.04,0.013L82.589,55.441z"/>
							<path fill="#AA7959" d="M81.948,55.061c-0.179,0.021-0.356,0.106-0.537,0.014l-0.021-0.419
								c-0.104-0.099-0.195,0.012-0.293,0.017c-0.006-0.103-0.011-0.205-0.059-0.202c-0.133-0.063-0.211,0.063-0.232,0.256
								C81.389,55.116,81.577,56.332,81.948,55.061z"/>
							<path fill="#AA7959" d="M82.344,55.939c0.008-0.197,0.002-0.392,0-0.588c-0.113-0.06-0.227-0.139-0.338-0.078
								C82.092,55.571,82.191,55.754,82.344,55.939z"/>
							<path fill="#AA7959" d="M52.55,84.808c-0.002,0.029-0.013,0.045-0.116-0.005L52.55,84.808
								c0.003-0.028-0.002-0.069,0.052-0.084c-0.409,0.035-0.887,0.061-1.35,0.049l-0.181,0.146c1.146,0.04,2.291,0.099,3.23-0.133
								C53.644,84.764,53.187,84.829,52.55,84.808z"/>
							<path fill="#AA7959" d="M50.965,85.208l-0.117-0.005C50.95,85.253,50.962,85.238,50.965,85.208z"/>
							<path fill="#AA7959" d="M69.418,79.572c0.534-0.443,0.942-0.954,1.315-1.451c-0.945,0.9-2.006,1.755-2.713,2.467
								L69.418,79.572z"/>
							<path fill="#AA7959" d="M72.449,75.75c-0.621,0.502-1.025,1.012-1.396,1.546c0.458-0.444,0.902-0.896,1.322-1.368
								L72.449,75.75z"/>
							<path fill="#AA7959" d="M72.023,76.585c-0.537,0.5-0.906,1.017-1.29,1.536C71.235,77.633,71.692,77.117,72.023,76.585z"/>
							<path fill="#AA7959" d="M59.907,87.892c-0.569,0.207-0.919,0.294-1.117,0.324c-0.084,0.074-0.196,0.167-0.349,0.28
								l0.104-0.006c0.596-0.125,1.207-0.262,1.826-0.42c0.249-0.097,0.484-0.2,0.676-0.315L59.907,87.892z"/>
							<path fill="#AA7959" d="M58.79,88.216C59.5,87.579,58.016,88.332,58.79,88.216L58.79,88.216z"/>
							<polygon fill="#AA7959" points="61.865,84.645 61.941,84.624 62.152,84.532 							"/>
							<path fill="#AA7959" d="M68.385,83.102l-1.159,0.841c0.815-0.542,1.597-1.124,2.17-1.698
								c-0.098,0.068-0.225,0.096-0.322,0.163C68.932,82.622,68.688,82.904,68.385,83.102z"/>
							<path fill="#AA7959" d="M58.358,85.623c1.268-0.201,2.487-0.528,3.583-0.999c2.323-0.615,4.311-1.92,5.816-3.408
								c0.655-0.672,1.643-1.469,2.593-2.332c0.954-0.854,1.728-1.749,2.083-2.642c-0.146,0.115-0.286,0.226-0.41,0.343
								c0.14-0.221,0.262-0.435,0.352-0.657c1.885-2.103,3.419-4.466,4.784-7.06c0.194-0.391,0.219-0.742,0.399-1.136
								c0.185-0.398,0.351-0.798,0.512-1.197c-0.009-0.005-0.021-0.005-0.036,0.002c0.646-1.664,1.122-3.367,1.403-5.172
								c0.158-0.837,0.367-1.66,0.495-2.489c0.045-0.311,0.243-0.284,0.317-0.486c0.351-0.804,0.599-1.425,0.723-2.366l0.146,0.003
								c-0.015-0.146-0.006-0.277,0.007-0.382c0.55,0.443,0.694,1.687,1.117,0.408h0.001l0.044,0.2l-0.001,0.021l0.006-0.001
								c0.078,0.308,0.152,0.5,0.304,0.695l0.031-0.599c0.067,0.04,0.136,0.067,0.204,0.049l0.038,0.055l-0.01,0.165
								c0.036,0.031,0.073,0.055,0.109,0.071c0.19,0.541,0.211,1.4,0.431,1.258c0.11-0.116,0.069-0.521,0.028-0.975
								c0.02-0.026,0.038-0.056,0.054-0.087c0.015,0.596,0.342,0.021,0.369,0.383c-0.039,0.479-0.033,0.962-0.096,1.439
								c-0.253,1.941-0.572,3.553-0.98,5.438l-0.06,0.246c-0.216,0.911-0.511,1.745-0.876,2.583l-0.021-0.203
								c-0.298,0.672-0.592,1.342-0.832,2.041c-0.576,1.717-1.282,3.419-2.33,5.072c-1.111,1.722-2.282,3.329-3.686,4.934
								l1.602-2.07c0.267-0.292,0.505-0.604,0.738-0.904c-0.263,0.296-0.494,0.606-0.738,0.904c-1,1.149-2.144,2.188-2.757,3.307
								c-0.125,0.054-0.156,0.017-0.251,0.098c-0.693,0.574-1.397,1.036-1.851,1.612c0.03,0.039-0.261,0.252-0.106,0.261
								c-0.551,0.466-1.238,0.957-1.789,1.451c-0.246,0.205-0.457,0.461-0.666,0.733c-1.046,0.838-2.164,1.655-3.454,2.381
								c-1.283,0.727-2.755,1.337-4.31,1.741c-0.774,0.19-1.669,0.298-2.434,0.354c1.113-0.247,2.287-0.541,3.456-0.95
								c1.17-0.242,2.275-0.647,3.015-1.248l0.523-0.385c-1.103,0.647-2.31,1.207-3.538,1.633c-0.69,0.146-1.399,0.239-2.08,0.329
								l0.04-0.016c0.525-0.136,1.057-0.287,1.586-0.46c1.027-0.19,2.013-0.503,2.742-0.983c0.091-0.06,0.179-0.122,0.262-0.187
								l0.526-0.372c-0.684,0.385-1.403,0.732-2.14,1.033c-0.458,0.188-0.924,0.356-1.391,0.509
								c-0.301,0.056-0.607,0.104-0.91,0.145l0.088-0.053c0.264-0.092,0.864-0.807,0.449-0.87c-1.949,0.451-4.623,0.707-4.617,0.654
								c-0.063-0.097,0.714-0.219,1.494-0.362c0.78-0.141,1.56-0.315,1.495-0.334L59.4,86.795c0.169-0.056,0.334-0.116,0.484-0.181
								c0.362-0.092,0.863-0.119,1.092-0.262c0.797-0.438,1.782-0.589,2.643-1.108c0.527-0.345,1.116-0.81,1.661-1.301
								c-0.043-0.087,0.295-0.203,0.145-0.236c0.59-0.3,1.253-0.69,1.345-1.082l0.036-0.031c0.039-0.024,0.087-0.072,0.136-0.128
								c0.954-0.534,1.435-1.192,2.131-1.916c0.263-0.217,0.533-0.433,0.821-0.644c-0.188,0.139-0.499,0.303-0.659,0.478
								l-0.162,0.166l-1.95,1.676c-0.042,0.061-0.11,0.158-0.181,0.24l-0.161,0.086l-0.011,0.073
								c-0.613,0.538-1.39,1.016-1.956,1.436c-1.111,0.711-2.493,1.084-3.806,1.299c0.637-0.204,1.246-0.452,1.818-0.736
								c-0.727,0.323-1.443,0.577-2.154,0.792l-0.334,0.052l-0.701,0.094c0.221-0.004,0.44-0.017,0.658-0.034
								c-0.428,0.121-0.856,0.229-1.28,0.33c-2.364,0.428-4.842,0.434-7.222,0.231c0.05-0.057,0.107-0.112,0.17-0.168
								c1.151,0.034,2.307,0.082,3.255-0.161c-0.664-0.014-1.126,0.056-1.768,0.039c0.001-0.027-0.003-0.068,0.051-0.084
								c-0.412,0.039-0.893,0.067-1.358,0.059c0.155-0.118,0.329-0.235,0.501-0.353c0.24-0.086,0.591-0.069,0.944-0.104
								c1.52-0.023,2.953,0.031,4.426-0.158c1.314-0.046,2.618-0.188,3.851-0.514C60.673,85.09,59.509,85.374,58.358,85.623z
								 M81.865,58.413l0.026,0.359l0.042-0.048C81.946,58.616,81.914,58.503,81.865,58.413z M81.375,60.996
								c0.25-0.739,0.319-1.766,0.357-2.739c-0.013-0.007-0.025-0.012-0.037-0.013C81.558,59.045,81.516,60.058,81.375,60.996z
								 M79.603,63.678l0.021-0.013l-0.021-0.005L79.603,63.678z M74.249,76.215c0.439-0.833,1.168-1.695,1.754-2.672
								c0.197-0.277,0.233-0.665,0.486-1.037c0.271-0.497,0.372-0.831,0.562-1.241L76.792,71.5c0.454-0.643,0.427-1.174,0.883-1.811
								c-0.043-0.023-0.076-0.167-0.023-0.265c0.216-0.512,0.556-0.965,0.653-1.411c0.197-0.521,0.416-1.031,0.5-1.477
								c0.042-0.103-0.011-0.363,0.026-0.585l0.247-0.768l-0.048,0.017c-0.08,0.203-0.149,0.413-0.202,0.631
								c-0.155,0.647-0.365,1.399-0.608,2.019c-0.613,1.544-1.212,2.989-1.912,4.398c-0.14,0.31-0.261,0.633-0.411,0.938
								c-0.428,0.94-1.253,1.86-1.447,2.594C74.409,75.897,74.255,76.064,74.249,76.215z M74.843,78.646
								c0.792-1.059,1.653-2.189,2.426-3.125c0.638-0.758,1.894-3.261,1.119-3.163c0.154,0.782-0.94,2.46-2.052,3.8
								C75.231,77.502,74.146,78.535,74.843,78.646z M67.085,85.412c0.436-0.327,0.841-0.647,1.346-0.962
								C67.998,84.779,67.551,85.102,67.085,85.412z M70.338,80.914c-1.038,1.179-2.379,2.165-3.653,3.112
								c-0.992,0.737-2.318,1.082-3.271,1.756l0.047,0.139l0.104-0.087c0.429-0.118,0.79-0.176,1.15-0.282l-0.055,0.037l0.1-0.052
								c0.24-0.072,0.478-0.174,0.729-0.334l0.338-0.241c1.359-0.776,2.636-1.697,3.569-2.718c0.603-0.596,1.032-1.21,1.607-1.818
								C70.814,80.565,70.5,80.735,70.338,80.914z"/>
							<path fill="#AA7959" d="M60.532,85.503c-0.495,0.14-1.002,0.26-1.518,0.354l-1.19,0.272
								c-1.911,0.345-4.142,0.163-6.175,0.166c-0.068,0.141-0.084,0.286-0.019,0.442c2.207,0.278,4.445,0.124,6.733,0.077
								l0.053-0.019c0.952-0.342,2.566-0.435,3.708-0.991c1.117-0.583,2.206-1.113,3.156-1.861
								C63.762,84.706,62.216,85.323,60.532,85.503z"/>
							<path fill="#AA7959" d="M71.053,77.296c-0.315,0.288-0.592,0.553-0.957,0.862l-2.613,2.416l2.048-1.5
								C70.201,78.519,70.64,77.876,71.053,77.296z"/>
							<path fill="#AA7959" d="M66.797,81.202l0.686-0.628c-1.003,0.72-1.996,1.4-3.019,1.973c-1.632,1.038-3.43,1.703-5.413,2.135
								c-0.225,0.048-0.45,0.086-0.675,0.119c1.88-0.085,3.713-0.417,5.332-1.151c1.621-0.724,3.029-1.773,4.18-2.927l0.133-0.135
								c-1.239,0.891-2.461,1.739-3.74,2.419C65.158,82.484,65.993,81.874,66.797,81.202z"/>
							<polygon fill="#AA7959" points="61.008,85.359 60.672,85.415 60.294,85.526 60.532,85.503 							"/>
							<path fill="#AA7959" d="M64.714,85.552l0.045-0.015c0.358-0.182,0.716-0.374,1.067-0.575l1.399-1.02
								C66.348,84.531,65.428,85.06,64.714,85.552z"/>
							<polygon fill="#AA7959" points="68.387,84.952 68.816,84.685 68.962,84.486 68.657,84.669 							"/>
							<path fill="#AA7959" d="M73.815,80.075c-0.383,0.403-0.813,0.783-1.195,1.144l-1.14,1.028
								c-0.761,0.678-1.524,1.34-2.328,1.983l-0.19,0.256c1.182-0.724,2.235-1.558,3.052-2.497c0.164-0.182,0.363-0.514,0.554-0.656
								c0.906-0.739,1.704-1.617,2.403-2.494c-0.361,0.398-0.725,0.808-1.122,1.203L73.815,80.075z"/>
						</g>
					</g>
				</g>
			</g>
			<g>
				<g>
					<g>
						<g>
							<g>
								<path fill="#AA7959" d="M63.604,86.204c-2.648,0.815-5.506,1.042-8.04,0.76c1.014,0.106,2.035,0.138,3.051,0.09
									c-1.522,0.059-2.821-0.035-4.341-0.356c0.468,0.039,1.458,0.2,1.708,0.144c3.688,0.343,7.449-0.318,10.769-1.721
									C65.506,85.861,64.565,85.913,63.604,86.204z"/>
								<path fill="#AA7959" d="M50.361,85.458c0.347,0.135,0.683,0.268,1.022,0.382C51.02,85.726,50.67,85.591,50.361,85.458z"/>
								<path fill="#AA7959" d="M80.405,70.056l0.454-1.133C80.729,69.302,80.569,69.68,80.405,70.056z"/>
								<path fill="#AA7959" d="M67.897,84.022l0.564-0.342c1.465-0.791,2.874-1.732,4.21-2.812
									C71.231,82.053,69.604,83.241,67.897,84.022z"/>
								<path fill="#AA7959" d="M66.204,84.646c-1.547,0.679-3.212,1.154-4.798,1.363C62.988,85.782,64.623,85.314,66.204,84.646z"
									/>
								<path fill="#AA7959" d="M81.938,57.876c-0.015,0.007-0.027-0.023-0.038-0.069c-0.006-0.048-0.014-0.091-0.023-0.127
									c-0.006-0.656-0.034-1.311-0.084-1.963c0.026,0.161,0.067,0.309,0.086,0.474C81.916,56.915,81.859,57.069,81.938,57.876z"/>
								<polygon fill="#AA7959" points="80.219,70.473 80.208,70.515 80.039,70.897 80.013,70.94 								"/>
								<path fill="#AA7959" d="M81.944,58.71c-0.028,0.013-0.056,0.027-0.08,0.083c0.01-0.369,0.016-0.738,0.012-1.106l0.023,0.119
									C81.931,58.052,81.905,58.437,81.944,58.71z"/>
								<path fill="#AA7959" d="M80.397,66.901c-0.069,0.225-0.085,0.44-0.108,0.549c-0.235,0.563-0.494,1.115-0.798,1.767
									l-0.188,0.539l-0.233,0.358c0.685-1.422,1.261-2.93,1.727-4.526C80.684,66.02,80.553,66.456,80.397,66.901z"/>
								<path fill="#AA7959" d="M66.983,34.902c2.104,0.514,4.258,1.8,6.002,2.962c-0.946-0.794-2.193-1.588-3.271-2.143
									c-1.075-0.561-1.967-0.911-2.108-1.082c-0.145-0.171,0.699,0.052,1.758,0.534c1.063,0.472,2.298,1.242,3.107,1.803
									l-0.405-0.334c0.204,0.166,0.406,0.332,0.612,0.443c-0.391-0.351-1.229-0.933-1.448-1.141l0.437,0.186
									c-1.035-0.904-3.392-1.953-4.703-2.43c3.204,1.099,6.652,3.229,9.385,6.299c2.758,3.037,4.811,6.892,5.914,10.718
									c1.29,4.263,1.709,8.48,1.342,12.434c-0.068,0.745-0.461,2.517-0.867,3.728c-0.614,2.188-1.483,4.296-2.504,6.305
									c-2.29,4.227-5.594,7.724-9.9,10.54c-0.877,0.549-2.197,1.045-0.087-0.314c1.698-1.193,3.304-2.538,4.771-4.025
									c-0.11,0.233-0.863,0.889-1.171,1.241c1.176-1.003,2.079-1.917,3.045-3.087c-0.642,0.783-1.321,1.533-2.04,2.246
									c1.797-1.78,3.558-3.984,4.908-6.397c0.497-0.874,1.146-1.547,1.578-2.93c-1.551,3.261-3.729,6.311-6.32,8.927l0.009-0.018
									c-1.151,1.174-2.291,2.141-3.575,3.075l1.131-0.878c-1.841,1.395-3.8,2.588-5.891,3.508
									c2.889-1.426,5.671-3.401,8.059-5.795c2.391-2.387,4.372-5.196,5.738-8.118c-0.89,1.575-2.011,3.719-3.104,4.878
									c1.765-2.356,3.224-4.962,4.288-7.799l-0.202,0.634c0.768-1.723,1.253-3.688,1.581-5.544l0.087-0.498l-0.087,0.498
									c-0.314,1.706-0.79,3.345-1.379,4.91c0.235-0.73,0.484-1.507,0.753-2.442l-0.69,1.924c-0.328,0.939-0.702,1.861-1.121,2.752
									c0.633-1.385,1.111-2.814,1.436-4.149c-0.624,1.96-1.434,3.924-2.434,5.728c0.525-1.004,0.993-2.035,1.404-3.087
									c0.722-1.753,1.294-3.588,1.645-5.496l-0.033,0.219l0.072-0.436c0.131-0.746,0.229-1.503,0.294-2.266
									c0.052-0.685,0.05-1.361,0.013-2.029l-0.001-0.338c0.026,0.214,0.052,0.318,0.062-0.096
									c0.058-1.773-0.246-3.675-0.563-5.677c-0.082-0.527-0.257-1.225-0.487-1.965c-0.037-0.208-0.083-0.31-0.128-0.4L81.731,50
									c-0.126-0.392-0.26-0.783-0.415-1.157L81.731,50l0.14,0.439c-0.051-0.094-0.103-0.194-0.175-0.41
									c0.834,2.708,1.287,5.636,1.312,8.587l-0.061-0.53c0.022,0.289,0.05,0.578,0.062,0.869c-0.003,0.953-0.05,1.907-0.14,2.858
									c0.014-0.285,0.024-0.55,0.011-0.783c-0.226,2.705-0.874,5.382-1.861,7.933c-0.982,2.37-2.263,4.58-3.776,6.599
									c0.865-1.051,1.663-2.241,2.372-3.512c-1.802,3.419-4.293,6.508-7.335,8.888c0.486-0.506,1.152-1.189,1.387-1.57
									c-0.057-0.019-0.979,0.792-0.472,0.287c1.807-1.866,3.059-3.259,3.438-4.29c0.074-0.177-1.974,1.84-1.436,1.081
									c0.477-0.602,1.308-1.693,2.092-2.945c0.24-0.353,0.477-0.727,0.708-1.121c0.034-0.047,0.066-0.139,0.11-0.253
									c0.786-1.394,1.4-2.788,1.728-3.564l0.353-0.864c0.07-0.147,0.139-0.271,0.202-0.363l0.139-0.573
									c0.269-0.785,0.502-1.577,0.689-2.365c0.128-0.434,0.242-0.872,0.341-1.311c-0.021,0.007-0.061,0.073-0.065-0.015
									c0.182-1.002,0.289-2.011,0.347-3.02c0.045-0.409,0.092-0.786,0.146-1.122c-0.141-1.101-0.197-3.645-0.587-5.379
									l-0.006,0.004c-0.162-0.874-0.369-1.747-0.62-2.619l-0.063-0.426c-0.097-0.205-0.17-0.429-0.219-0.531
									c-0.205-0.693-0.387-1.279-0.583-1.862c-0.058-0.097-0.188-0.271-0.286-0.486c-0.185-0.438-0.377-0.854-0.583-1.252
									c-0.227-0.474-0.471-0.945-0.732-1.414c-0.875-1.582-1.895-3.05-3.056-4.375c-0.021-0.057-0.01-0.086,0.001-0.116
									c-0.216-0.173-0.461-0.47-0.653-0.626c0.04,0.026,0.069,0.039,0.075,0.023c-0.613-0.528-0.679-0.679-1.217-1.167
									c-0.126-0.106-0.263-0.18-0.395-0.272l-0.183-0.155c-0.571-0.604-1.28-1.033-2.069-1.493
									c-0.775-0.486-1.592-0.906-2.438-1.261C67.7,35.249,67.458,35.089,66.983,34.902z"/>
								<path fill="#AA7959" d="M81.771,55.479c-0.072-0.853-0.184-1.7-0.331-2.542C81.627,53.835,81.8,54.645,81.771,55.479z"/>
								<path fill="#AA7959" d="M74.726,76.868c-0.262,0.215-0.544,0.468-0.844,0.744c1.495-1.548,2.804-3.265,3.926-5.145
									l0.007,0.002C76.966,74.016,75.335,75.947,74.726,76.868z"/>
								<path fill="#AA7959" d="M81.899,57.807l-0.023-0.119V57.68C81.886,57.715,81.894,57.759,81.899,57.807z"/>
								<path fill="#AA7959" d="M72.458,80.584l-0.167,0.139c0.413-0.363,0.825-0.729,1.222-1.112
									C73.206,79.927,72.843,80.258,72.458,80.584z"/>
								<path fill="#AA7959" d="M67.501,83.793c-0.995,0.516-2.026,0.968-3.087,1.337c-1.373,0.449-2.771,0.729-4.114,0.834
									C62.781,85.668,65.217,84.915,67.501,83.793z"/>
								<path fill="#AA7959" d="M71.697,79.714c-0.355,0.269-0.729,0.521-1.104,0.771c0.363-0.267,0.719-0.54,1.063-0.824
									C71.605,79.729,71.678,79.704,71.697,79.714z"/>
								<polygon fill="#AA7959" points="75.697,77.306 75.478,77.561 75.998,76.871 								"/>
								<path fill="#AA7959" d="M67.699,82.298c0.292-0.15,0.575-0.314,0.858-0.477l-0.474,0.339
									C67.979,82.189,67.847,82.236,67.699,82.298z"/>
								<path fill="#AA7959" d="M63.028,84.258c-0.431,0.117-0.851,0.221-1.257,0.3c0.5-0.117,1.009-0.252,1.505-0.408
									C63.168,84.203,63.084,84.247,63.028,84.258z"/>
							</g>
						</g>
					</g>
				</g>
				<g>
					<g>
						<g>
							<g>
								<path fill="#AA7959" d="M82.21,70.945c-0.138,0.138-0.218,0.219-0.354,0.332c-0.36,0.487-1.004,1.42-1.268,1.572
									c-0.024-0.042,0.308-0.882,0.4-1.006c0.863-1.345,1.449-1.837,2.235-3.449c0.082-0.138,0.177-0.693,0.284-1.216
									l-0.153,0.306c0.165-0.718,0.574-1.775,0.734-2.66c-0.079,0.177-0.08,0.177-0.14,0.277c0.356-0.646,0.625-2.157,0.757-3.259
									l0.135-0.52c0.082-1.015,0.208-1.991,0.133-3.207c-0.041-1.016-0.021-2.484-0.232-3.819
									c-0.258-2.299-0.749-4.884-1.802-6.743c-0.175-0.308-0.428-0.916-0.605-1.49c-0.809-1.072-1.985-3.188-3.12-4.594
									c-0.41-0.513-0.621-0.918-0.739-1.172c-1.263-1.209-2.728-2.366-4.237-3.377c-1.938-1.283-4.035-2.306-6.457-3.177
									c-0.334-0.119-0.999-0.267-1.348-0.307L66,33.257c-1.462-0.33-2.845-0.386-4.129-0.514c-1.767-0.162-1.969-0.417-2.19-0.702
									c1.92-0.234,3.973-0.646,6.879,0.253c0.785,0.266,2.018,0.525,3.019,0.872c0.861,0.261,1.687,0.788,2.457,0.98
									c0.921,0.667,3.127,2.171,4.65,3.365c0.108,0.122-0.045,0.022,0.154,0.221c2.218,1.603,4.198,4.038,5.761,6.753
									c0.816,1.36,1.502,3.099,2.168,4.93c0.076,0.168,0.241,0.984,0.379,1.492l0.19,0.519c0.307,1.344,0.574,2.914,0.559,3.911
									c0.021,1.172,0.082,2.224,0.006,3.231c-0.086,1.506-0.27,3.976-0.734,5.192c-0.059,0.152-0.145,0.668-0.23,0.999
									l-0.185,0.447c-0.088,0.328-0.035,0.575-0.135,0.901c-0.613,2.124-1.758,4.651-2.538,5.42
									C82.148,71.36,82.428,70.724,82.21,70.945z"/>
								<path fill="#AA7959" d="M76.588,77.633c0.031-0.091-0.213,0.121-0.354,0.264c0.16-0.088,0.28-0.115,0.577-0.353
									l-0.436,0.396c-0.155,0.291,0.446-0.374,0.22-0.104c-0.246,0.215-0.445,0.374-0.367,0.228
									c0.058-0.017,0.147-0.124,0.297-0.249c-0.027-0.074-0.277,0.119-0.438,0.206c0.222-0.21,0.453-0.409,0.669-0.626
									L76.588,77.633z"/>
								<path fill="#AA7959" d="M78.102,76.237l-0.138,0.137c-0.024,0.093,0.122-0.023,0.267-0.145
									c-0.607,0.569-0.104-0.086-0.493,0.229C77.753,76.495,78.126,76.145,78.102,76.237z"/>
								<path fill="#AA7959" d="M77.51,77.171c-0.312,0.195-0.524,0.503-0.657,0.485c0.249-0.196,0.5-0.393,0.743-0.599
									L77.51,77.171z"/>
								<path fill="#AA7959" d="M81.247,72.133c0.109-0.262,0.061-0.127,0.292-0.526l-0.332,0.577L81.247,72.133z"/>
								<path fill="#AA7959" d="M85.088,59.422c-0.081,0.372-0.162,0.671-0.233,1.261C84.91,60.084,85.062,59.547,85.088,59.422z"/>
								<path fill="#AA7959" d="M85.135,53.447c0.038,0.011,0.02-0.188,0.076,0.085c0,0.128-0.114-0.033-0.001,0.385L85.135,53.447z
									"/>
								<path fill="#AA7959" d="M85.236,52.925l0.018-0.28C85.243,52.643,85.231,52.751,85.236,52.925z"/>
								<polygon fill="#AA7959" points="82.575,68.887 82.609,68.857 82.632,68.768 								"/>
								<path fill="#AA7959" d="M82.969,68.075l-0.303,0.554l-0.034,0.139C82.81,68.391,82.812,68.547,82.969,68.075z"/>
								<path fill="#AA7959" d="M82.669,68.809l-0.06,0.049c-0.155,0.525-0.371,0.686-0.675,1.396
									C82.246,69.778,82.493,69.24,82.669,68.809z"/>
								<path fill="#AA7959" d="M82.491,69.42l-0.051,0.218c-0.09,0.173-0.116,0.143-0.129,0.127l-0.158,0.374
									c0,0.185,0.541-0.951,0.67-1.254L82.491,69.42z"/>
								<polygon fill="#AA7959" points="81.214,73.166 81.222,73.15 81.212,73.167 								"/>
								<path fill="#AA7959" d="M81.988,72.219l-0.081-0.112c-0.262,0.479-0.385,0.521-0.686,1.044l-0.008,0.016
									C81.437,73.053,81.688,72.542,81.988,72.219z"/>
								<path fill="#AA7959" d="M83.347,67.428c-0.183,0.499-0.328,0.869-0.325,1.049l0.382-0.91
									C83.219,67.898,83.362,67.524,83.347,67.428z"/>
								<path fill="#AA7959" d="M83.839,66.722l-0.143,0.45l0.106-0.184C83.793,66.966,83.802,66.88,83.839,66.722z"/>
								<path fill="#AA7959" d="M83.803,66.988c0.012,0.025,0.052-0.033,0.11-0.2L83.803,66.988z"/>
								<path fill="#AA7959" d="M83.583,67.914c0.183-0.252,0.083-0.266,0.273-0.76C83.783,67.086,83.683,67.663,83.583,67.914z"/>
								<polygon fill="#AA7959" points="84.307,65.826 84.417,65.678 84.341,65.613 								"/>
								<path fill="#AA7959" d="M84.737,61.891c0.007,0.511,0.124-0.279,0.176-0.32L84.737,61.891z"/>
								<path fill="#AA7959" d="M84.656,65.315l-0.122,0.139l0.021,0.097c-0.033,0.132-0.086,0.334-0.154,0.438
									C84.465,66.125,84.574,65.565,84.656,65.315z"/>
								<line fill="#AA7959" x1="84.9" y1="63.252" x2="85.049" y2="62.756"/>
								<path fill="#AA7959" d="M84.609,66.586c0.031,0.027,0.363-0.683,0.075,0.152c0.116-0.32,0.238-0.792,0.222-0.474
									c0.157-0.529-0.075-0.066-0.015-0.429C84.857,66.139,84.708,66.338,84.609,66.586z"/>
								<path fill="#AA7959" d="M85.051,65.318c0.091-0.252,0.189-0.57,0.193-0.728C85.177,64.858,85.054,65.075,85.051,65.318z"/>
								<polygon fill="#AA7959" points="85.317,65.131 85.148,65.481 85.298,65.277 								"/>
								<line fill="#AA7959" x1="85.532" y1="59.728" x2="85.413" y2="59.734"/>
								<path fill="#AA7959" d="M85.663,63.571l-0.188,0.96l0.231-0.851c0.047-0.537-0.032-0.287-0.133,0.08
									C85.605,63.661,85.636,63.585,85.663,63.571z"/>
								<path fill="#AA7959" d="M85.3,64.555l-0.034,0.293c0.018,0.015,0.122-0.411,0.216-0.777
									C85.409,64.313,85.339,64.53,85.3,64.555z"/>
								<path fill="#AA7959" d="M85.481,64.07l0.092-0.31L85.481,64.07z"/>
								<path fill="#AA7959" d="M85.533,57.39l-0.016,0.876C85.552,57.94,85.552,57.668,85.533,57.39z"/>
								<path fill="#AA7959" d="M85.894,62.886l0.023-0.138l-0.082-0.056C85.805,62.976,85.877,62.874,85.894,62.886z"/>
								<path fill="#AA7959" d="M86.238,61.746c0.085-0.246,0.09-0.769,0.098-0.982c-0.092,0.312-0.131,0.664-0.202,1.066
									C86.208,61.428,86.204,61.724,86.238,61.746z"/>
								<path fill="#AA7959" d="M86.484,60.558l-0.092,0.837C86.514,61.244,86.461,60.912,86.484,60.558z"/>
								<path fill="#AA7959" d="M86.539,59.204c-0.006-0.076-0.036-0.02-0.046-0.169c-0.044,0.122-0.038,0.41-0.062,0.615
									L86.539,59.204z"/>
								<path fill="#AA7959" d="M84.491,66.066c0.067-0.237,0.123-0.451,0.171-0.658l-0.327,0.944
									C84.389,66.261,84.443,66.171,84.491,66.066z"/>
								<path fill="#AA7959" d="M63.927,33.083c1.014-0.028,2.859,0.356,3.854,0.661c1.63,0.514,3.672,1.201,5.423,2.22
									l-0.033,0.023c1.329,0.843,3.027,1.988,4.275,3.202l-0.035-0.102c-0.208-0.206-0.491-0.466-0.279-0.36
									c0.277,0.277,0.633,0.665,0.69,0.771l0.261,0.165c0.144,0.209-0.109,0.165,0.393,0.636c0.415,0.182,0.915,1.245,1.091,1.138
									c0.077,0.288,0.557,0.736,0.748,1.021l-0.058-0.245c0.382,0.607,0.628,1.246,0.83,1.524c0.485,0.728,1.078,1.776,1.52,2.626
									c-0.003,0.24-0.438-0.9-0.271-0.298c1.006,1.554,1.586,4.061,2.109,6.168c-0.002-0.063-0.031-0.256,0.015-0.121
									c0,0.436,0.199,0.982,0.248,1.694c0.062-0.11-0.078-1.033-0.138-1.357c0.218,0.178-0.005,0.184,0.196,1.057
									c0.001-0.063,0-0.191,0.019-0.185c0.169,0.874-0.052,0.362,0.065,1.036l0.01-0.38c0.078,0.663,0.057,0.207,0.18,0.954
									c-0.109-0.101-0.148,0.271-0.141,0.467c0.053,0.084,0.072,0.803,0.157,0.707c-0.15,0.919,0.106,1.162-0.081,2.012
									c0.076,0.371,0.096-0.357,0.166-0.325c0.055,0.898-0.104,0.287-0.137,0.607c0.039,0.283,0.019,1.439-0.105,1.93l0.069,0.039
									c-0.137,0.758-0.333,2.001-0.49,2.266c0.051,0.327,0.156-0.266,0.229-0.792c0.069-0.101,0.028,0.449-0.038,0.699
									c0.022-0.13,0.075-0.168,0.064-0.322c0.069-0.027-0.031,0.346-0.037,0.488c-0.183,0.907,0.02-0.356-0.086,0.015
									c-0.029,0.345-0.216,1.188-0.053,0.854c-0.15,0.724-0.16,0.262-0.277,0.627c0.187-0.543,0.085-0.766,0.245-1.171
									c-0.007-0.152-0.044-0.104-0.106,0.073c-0.077,0.607-0.429,1.716-0.329,1.718l-0.14,0.277l-0.008,0.307l-0.05,0.115
									c0.173-0.249,0.367-0.798,0.506-0.999c0.054-0.034-0.054,0.345-0.101,0.545l-0.121,0.137
									c-0.154,0.503,0.043,0.431-0.191,1.119c0.033-0.461-0.389,0.718-0.63,1.159c-0.016,0.582,0.161-0.015,0.146,0.487
									c-0.187,0.503-0.454,1.293-0.779,1.856c0.629-1.412-0.42,0.628,0.02-0.529c-0.118,0.23-0.188,0.432-0.298,0.674
									c-0.216,0.12,0.055-0.398-0.19-0.128l0.044,0.143c-0.229,0.297-0.415,0.445-0.772,1.061c0.001,0.098-0.119,0.44-0.298,0.705
									c-0.115,0.049-0.161,0.084-0.502,0.646c-0.497,1.193,0.882-0.957,1.131-1.122c0.869-1.632,1.339-1.49,2.252-3.661
									c0.059-0.372,0.012-0.253,0.189-0.928c-0.005-0.507-0.434,0.939-0.694,1.298c0.051-0.211,0.101-0.42,0.188-0.592
									l-0.176,0.172c0.31-1.055,0.355-0.511,0.595-1.451l-0.035,0.213l0.124-0.543l-0.054,0.116
									c0.091-0.329,0.033-0.452,0.206-0.945l-0.044,0.439c0.023-0.298,0.171-0.339,0.234-0.758
									c-0.015,0.237,0.024,0.319-0.013,0.46c0.201-0.593,0.337-1.137,0.45-1.668c0.297-1.836,0.51-3.62,0.614-5.409l-0.039,0.214
									c-0.023-0.319,0.017-0.521,0.064-0.71l0.03-1.004c-0.048-0.729-0.115-1.31-0.207-2.2c0.049-0.046,0.074,0.009,0.092,0.118
									c-0.049-0.318-0.092-0.509-0.109-0.189c-0.085-0.547-0.065-0.8-0.132-1.206c0.088,0.301,0.156,0.606,0.234,0.912
									c-0.021-0.396-0.128-0.367-0.177-0.896c-0.172-0.819-0.028,0.379-0.129,0.286l-0.045-0.333l-0.051,0.37
									c-0.085-0.729-0.069-1.105-0.065-1.424l0.063,0.527c0.164,0.168-0.157-0.869-0.144-1.117l0.023,0.068
									c-0.184-0.8-0.018,0.186-0.164-0.351c-0.042-0.325-0.09-0.65-0.146-0.975l-0.035,0.184c-0.194-0.537-0.4-1.633-0.724-2.531
									c-0.172-0.514-0.515-1.152-0.819-1.773c0.036,0.125,0.128,0.375,0.07,0.312c-0.162-0.376-0.568-1.172-0.346-0.93
									l-0.33-0.484c-0.097-0.184-0.169-0.333-0.215-0.458l0.044,0.157l-0.373-0.592c0.021-0.002-0.078-0.242,0.104,0.052
									c-0.31-0.725-0.986-1.457-1.679-2.447l0.252,0.265c-0.483-0.534-0.41-0.679-0.951-1.25l0.062,0.177
									c-0.378-0.417-1.033-1.252-0.887-1.169c-0.169,0.053-0.188-0.266-0.527-0.414l-0.138-0.348
									c-0.29-0.225-0.563-0.454-0.441-0.233c-0.369-0.441-0.712-0.758-1.021-0.894c-0.003,0-0.008-0.002-0.014-0.006l-0.012-0.005
									l0.002-0.001c-0.104-0.071-0.514-0.447-0.368-0.237c-1.019-0.807-0.446-0.547-1.457-1.268l-0.104,0.06
									c-0.766-0.562-1.616-0.964-2.272-1.247l-0.039-0.125c-0.441-0.208,0.041,0.12-0.642-0.21
									c-0.087-0.063-0.159-0.131-0.132-0.145c-0.664-0.324-1.53-0.784-2.577-1.176c0.015-0.014,0.157,0.018,0.229,0.038
									c-0.454-0.166-1.196-0.383-1.743-0.509c-1.182-0.523-2.992-1.035-4.72-1.167c-1.345,0.093-2.201,0.365-2.319,0.625
									C61,32.53,62.296,32.706,63.927,33.083z"/>
							</g>
						</g>
					</g>
				</g>
				<g>
					<g>
						<g>
							<g>
								<g opacity="0.85">
									<g>
										<path fill="#AA7959" d="M77.98,49.642l0.153,0.546c-0.011-0.096-0.013-0.194,0-0.299
											C78.123,49.762,78.057,49.715,77.98,49.642z"/>
										<polygon fill="#AA7959" points="78.271,50.694 78.294,50.792 78.336,50.869 										"/>
										<path fill="#AA7959" d="M78.578,51.633c-0.023-0.174-0.08-0.332-0.135-0.485C78.461,51.292,78.509,51.45,78.578,51.633z"
											/>
										<path fill="#AA7959" d="M78.438,50.856c-0.02,0.068-0.048,0.106-0.1,0.017l-0.002-0.003l0.107,0.279
											C78.43,51.042,78.429,50.943,78.438,50.856z"/>
										<path fill="#AA7959" d="M78.438,50.856c0.018-0.065,0.025-0.165,0.036-0.201C78.457,50.715,78.444,50.783,78.438,50.856z"
											/>
										<path fill="#AA7959" d="M79.321,50.883c0.053,0.093-0.187,0.129-0.083,0.312c0.178,0.444,0.377,0.819,0.466,1.257
											c0.092,0.19-0.109,0.555-0.019,0.742c0.151,0.453,0.642,1.624,0.527,0.91c-0.201-1.073-0.399-1.758-0.667-2.697
											c-0.282-0.747-0.596-1.445-0.933-2.18c-0.083-0.209-0.133-0.414-0.186-0.62l0.176,0.86
											C78.657,49.88,79.109,50.263,79.321,50.883z"/>
										<path fill="#AA7959" d="M76.525,45.721l0.207,0.229c0.037,0.475,0.295,0.862,0.538,1.265l0.029-0.238
											c-0.121-0.239-0.197-0.238-0.146-0.002c-0.092-0.551-0.286-1.032-0.553-1.487C76.559,45.546,76.489,45.574,76.525,45.721z
											"/>
										<polygon fill="#AA7959" points="76.445,45.22 76.602,45.487 76.615,45.467 76.445,45.208 										"/>
										<path fill="#AA7959" d="M79.209,53.652c0.225,1.306,0.328,2.552,0.347,3.769c0.05,0.092,0.105,0.156,0.081,0.283
											c-0.039,0.096-0.063,0.192-0.077,0.287l-0.013,0.531l0.019,0.188l0.001,0.005c0.027,0.1,0.064,0.071,0.1,0.009
											c0.025-0.069,0.056-0.132,0.088-0.186l-0.088,0.186c-0.03,0.084-0.055,0.177-0.069,0.286
											c0.011,0.162,0.012,0.333-0.008,0.507c-0.021-0.196-0.015-0.363,0.008-0.507l-0.031-0.3l-0.021-0.086
											c-0.006,0.405-0.04,0.807-0.065,1.209l0.008,0.254c0.012,0.293,0.023,0.587-0.104,0.757l-0.026,0.214l0.026-0.039
											l-0.031,0.078l-0.126,0.906c0.019,0.2,0.048,0.41,0.055,0.618l-0.146,0.187c0.048,0.091,0.066,0.214,0.063,0.354
											c0.098-0.152,0.203-0.288,0.269-0.422c0.146-0.19-0.178-0.49,0.079-0.703c-0.257,0.213,0.067,0.513-0.079,0.703
											c-0.065,0.134-0.171,0.27-0.269,0.422c-0.006,0.292-0.104,0.657-0.283,0.93c-0.021-0.385,0.117-0.677,0.283-0.93
											c0.003-0.141-0.016-0.264-0.063-0.354l0.146-0.187c-0.007-0.208-0.036-0.418-0.055-0.618
											c-0.093,0.589-0.205,1.181-0.332,1.782c-0.881,3.843-2.194,7.305-4.526,10.647c-1.278,1.812-2.673,3.427-4.22,4.765
											c-3.032,2.661-6.274,4.633-10.425,5.182c-1.562,0.247-4.429,0.969-5.964,1.25c-1.987,0.747-0.758,1.579-0.646,1.62
											c1.433,0.638,2.348,0.014,5.071-0.077c-1.836,0.117,1.168-0.81,2.997-0.768c1.34,0.06,2.855-0.422,4.329-1.188
											c1.483-0.752,2.891-1.789,4.226-2.697c0.668-0.459,1.289-1.057,1.984-1.718c1.88-1.653,3.304-3.581,4.558-5.599
											c1.276-2.063,2.274-4.307,3.143-6.744c0.438-1.305,0.526-2.531,0.643-3.671c0.129-0.824,0.395-1.684,0.476-2.36
											c0.134-1.062,0.123-1.989,0.046-2.868c0.008,0.98,0.014,1.701-0.084,2.793c-0.082,0.726-0.231-0.542-0.264-1.022
											c-0.03-0.207,0.26-0.506,0.218-0.717c0.035-0.447-0.056-0.863-0.108-1.342c-0.047-0.206,0.195-0.177,0.169-0.281
											c-0.048-0.658-0.36-1.153-0.312-1.568l0.067-0.88c0.002-0.176,0.006-0.352-0.021-0.536l-0.093-0.348
											c-0.064,0.101-0.151,0.143-0.238,0.181l0.025-0.586l-0.025,0.586c0.087-0.039,0.174-0.081,0.238-0.181
											c-0.212-0.84-0.478-1.793-0.744-2.666l-0.019,0.016c0.12,0.517,0.185,1.033,0.106,1.595
											c0.022-0.242,0.093-0.222,0.141,0.045l-0.093,0.22c-0.121-0.46-0.259-0.909-0.161-1.376l-0.13-0.283
											c0.005-0.152,0.08-0.159,0.137-0.202l-0.078-0.303C79.246,52.947,79.215,53.652,79.209,53.652z"/>
										<path fill="#AA7959" d="M79.59,59.022l-0.019-0.252c-0.006,0.339-0.041,0.677-0.061,1.016
											C79.634,59.611,79.612,59.316,79.59,59.022z"/>
									</g>
								</g>
							</g>
						</g>
					</g>
				</g>
			</g>
		</g>
		<path fill="none" stroke="#2F4409" stroke-width="0.25" d="M86.673,65.389"/>
	</g>
	<g>
		<g>
			<g>
				<g>
					<path fill="#AA7959" d="M78.984,45.609c-1.254-1.805-2.802-3.432-4.371-4.705c0.626,0.51,1.228,1.049,1.8,1.618
						c-0.859-0.85-1.617-1.536-2.571-2.33c0.335,0.178,0.928,0.721,1.125,0.79c2.279,1.921,4.104,4.341,5.296,6.942
						C79.589,47.002,79.443,46.279,78.984,45.609z"/>
					<path fill="#AA7959" d="M71.15,38.282c0.257,0.155,0.512,0.3,0.753,0.457C71.642,38.579,71.376,38.433,71.15,38.282z"/>
					<path fill="#AA7959" d="M82.099,64.524c-0.088,0.339-0.19,0.675-0.3,0.996L82.099,64.524z"/>
					<path fill="#AA7959" d="M81.221,48.829c0.088,0.159,0.166,0.323,0.239,0.493c0.488,1.293,0.866,2.649,1.08,4.054
						C82.291,51.846,81.752,50.281,81.221,48.829z"/>
					<path fill="#AA7959" d="M80.733,47.401c-0.664-1.254-1.423-2.482-2.206-3.588C79.323,44.908,80.076,46.117,80.733,47.401z"/>
					<path fill="#AA7959" d="M77.932,74.523c0.016,0.005,0.008,0.033-0.01,0.072c-0.023,0.038-0.042,0.073-0.056,0.104
						c-0.38,0.458-0.77,0.906-1.174,1.339c0.09-0.117,0.157-0.239,0.253-0.354C77.377,75.194,77.526,75.137,77.932,74.523z"/>
					<polygon fill="#AA7959" points="82.207,64.151 82.21,64.114 82.291,63.769 82.307,63.729 					"/>
					<path fill="#AA7959" d="M78.391,73.923c0.03,0.007,0.061,0.014,0.108-0.015c-0.201,0.27-0.417,0.526-0.628,0.786l0.051-0.099
						C78.04,74.406,78.278,74.148,78.391,73.923z"/>
					<path fill="#AA7959" d="M82.31,67.36c0.081-0.2,0.1-0.399,0.119-0.5c0.236-0.508,0.461-1.023,0.687-1.647
						c0.016-0.103,0.078-0.312,0.109-0.516c0.057-0.109,0.116-0.229,0.168-0.358c-0.402,1.404-0.934,2.798-1.583,4.184L82.31,67.36z
						"/>
					<path fill="#AA7959" d="M55.485,86.031c1.879-0.079,4.082-0.247,5.824-0.876c-1.053,0.23-2.317,0.439-3.362,0.516
						c-1.046,0.071-1.866,0.042-2.027-0.081c-0.161-0.12,0.561-0.144,1.526-0.223c0.965-0.074,2.178-0.222,2.983-0.425l-0.439,0.042
						c0.219-0.021,0.439-0.042,0.623-0.112c-0.439,0.049-1.28,0.169-1.532,0.122l0.37-0.128c-1.117,0.042-3.17,0.216-4.262,0.021
						c2.652,0.271,5.922-0.186,9.052-1.445c3.143-1.237,6.11-3.229,8.525-5.438c2.68-2.508,4.598-5.383,5.908-8.225
						c0.271-0.524,0.935-1.776,1.347-2.704c0.668-1.665,1.181-3.39,1.439-5.124c0.638-3.655,0.738-7.352-0.503-11.107
						c-0.255-0.732-0.408-1.851,0.32-0.026c0.577,1.522,0.927,3.158,1.05,4.816c-0.091-0.186-0.117-0.977-0.231-1.333
						c0.113,1.215,0.146,2.221,0.133,3.417c0.016-0.798-0.016-1.595-0.095-2.386c0.194,1.98,0.072,4.2-0.309,6.361
						c-0.146,0.795-0.551,1.412-0.701,2.546c0.924-2.703,1.414-5.673,1.203-8.605l0.008,0.015c-0.11-1.304-0.294-2.477-0.607-3.697
						c0.111,0.375,0.209,0.764,0.265,1.105c-0.288-1.816-0.875-3.558-1.681-5.19c1.281,2.233,2.071,4.917,2.272,7.658
						c0.212,2.744-0.132,5.52-0.784,8.075c0.536-1.404,0.675-3.386,0.917-4.66c-0.179,2.42-0.758,4.818-1.667,7.137
						c0.056-0.177,0.112-0.349,0.158-0.523c-0.605,1.419-1.207,2.953-1.979,4.292l-0.209,0.357l0.209-0.357
						c0.712-1.226,1.319-2.486,1.821-3.769c-0.19,0.603-0.454,1.223-0.798,1.947c0.228-0.372,0.502-0.938,0.756-1.513
						c0.3-0.769,0.58-1.545,0.815-2.327c-0.351,1.214-0.756,2.395-1.164,3.47c0.748-1.552,1.326-3.24,1.744-4.921
						c-0.204,0.93-0.458,1.85-0.764,2.751c-0.544,1.504-1.228,2.966-2.017,4.388l0.086-0.166l-0.178,0.326
						c-0.311,0.554-0.641,1.102-0.991,1.64l-0.892,1.455l-0.166,0.232c0.086-0.161,0.116-0.246-0.097,0.028
						c-0.937,1.147-1.879,2.466-3.155,3.6c-0.333,0.298-0.757,0.724-1.225,1.173c-0.145,0.103-0.207,0.172-0.257,0.241l-0.31,0.289
						l-0.782,0.672c0.263-0.21,0.521-0.444,0.782-0.672l0.287-0.259c-0.052,0.074-0.105,0.154-0.248,0.281
						c1.824-1.532,3.546-3.336,5.004-5.354l-0.225,0.392l0.391-0.624c0.468-0.653,0.899-1.333,1.305-2.025
						c-0.107,0.214-0.215,0.41-0.293,0.592c1.24-1.928,2.247-4.021,2.979-6.209c0.741-2.03,1.248-4.132,1.452-6.265
						c-0.171,1.143-0.392,2.327-0.688,3.514c0.705-3.176,0.821-6.479,0.28-9.679c0.2,0.558,0.372,1.35,0.527,1.707
						c0.054-0.028-0.062-1.085,0.05-0.477c0.442,2.232,0.201,3.863,0.452,4.807c0.098,0.195,0.492-2.385,0.521-1.55
						c0.024,0.706-0.013,1.971-0.191,3.322c-0.073,0.386-0.134,0.789-0.222,1.202c-0.017,0.05-0.017,0.14-0.019,0.253
						c-0.276,1.449-0.69,2.793-0.966,3.518c-0.097,0.271-0.204,0.535-0.311,0.799c-0.068,0.134-0.135,0.244-0.196,0.326
						c-0.046,0.174-0.1,0.346-0.157,0.517c-0.3,0.699-0.632,1.374-0.969,2.038l-0.649,1.054c0.021,0.002,0.077-0.043,0.057,0.035
						c-0.455,0.813-0.947,1.597-1.465,2.359c-0.229,0.297-0.455,0.559-0.678,0.772c-0.423,0.928-1.962,2.666-3.076,3.815
						l0.006,0.003c-0.566,0.574-1.154,1.138-1.777,1.677l-0.329,0.21c-0.132,0.157-0.299,0.291-0.366,0.369
						c-0.518,0.404-0.979,0.713-1.446,1.013c-0.072,0.072-0.191,0.231-0.363,0.36l-1.033,0.711
						c-0.401,0.257-0.813,0.509-1.237,0.749c-1.425,0.817-2.906,1.479-4.409,2.018c-0.056-0.002-0.077-0.025-0.1-0.047
						c-0.22,0.12-0.556,0.213-0.757,0.308c0.036-0.023,0.058-0.043,0.047-0.055c-0.677,0.277-0.825,0.265-1.46,0.422
						c-0.141,0.043-0.266,0.108-0.403,0.157l-0.212,0.048c-0.749,0.063-1.451,0.276-2.266,0.41
						c-0.814,0.113-1.634,0.183-2.453,0.214C56.185,86.147,55.933,86.07,55.485,86.031z"/>
					<path fill="#AA7959" d="M76.547,76.197c-0.533,0.561-1.076,1.105-1.645,1.621C75.493,77.241,75.959,76.671,76.547,76.197z"/>
					<path fill="#AA7959" d="M84.314,56.962c0.054-0.311,0.081-0.663,0.083-1.046c0.105,2.013-0.054,4.019-0.428,6.015l-0.007,0.001
						C84.267,60.337,84.532,57.982,84.314,56.962z"/>
					<path fill="#AA7959" d="M77.922,74.596l-0.051,0.099L77.866,74.7C77.88,74.669,77.898,74.634,77.922,74.596z"/>
					<path fill="#AA7959" d="M82.894,53.329l-0.029-0.183c0.094,0.459,0.182,0.921,0.243,1.389L82.894,53.329z"/>
					<path fill="#AA7959" d="M81.492,48.483c-0.398-0.874-0.847-1.728-1.362-2.537c-0.625-1.065-1.319-2.064-2.03-2.988
						C79.503,44.604,80.644,46.475,81.492,48.483z"/>
					<path fill="#AA7959" d="M84.027,53.103c-0.048-0.414-0.109-0.833-0.176-1.253c0.088,0.416,0.176,0.83,0.242,1.246
						C84.061,53.02,84.046,53.091,84.027,53.103z"/>
					<path fill="#AA7959" d="M83.298,57.244l-0.006-0.289c0.023,0.246,0.042,0.493,0.052,0.741
						C83.331,57.605,83.321,57.392,83.298,57.244z"/>
					<path fill="#AA7959" d="M82.929,48.741c0.106,0.295,0.219,0.585,0.309,0.882c-0.069-0.171-0.145-0.338-0.234-0.501
						C82.994,49.019,82.968,48.889,82.929,48.741z"/>
					<path fill="#AA7959" d="M80.661,44.464c-0.234-0.356-0.474-0.699-0.709-1.021c0.305,0.388,0.603,0.802,0.877,1.217
						C80.749,44.577,80.686,44.512,80.661,44.464z"/>
				</g>
			</g>
		</g>
	</g>
</g>
<g>
	<g>
		<g>
			<g>
				<g>
					<g opacity="0.8">
						<g>
							<path fill="#424E32" d="M33.693,56.906c-0.039,1.357,0.101,2.581,0.4,3.791c0.428,1.872,0.571,3.658,1.333,5.585
								c0.364,0.955,0.803,1.797,1.326,2.644c0.882,1.811,2.235,3.653,4.021,5.137c0.172,0.181,0.69,0.716,0.842,0.399
								c1.633,1.516,3.508,2.797,5.631,3.441c0.871,0.3,1.705,0.868,2.621,1.076c1.486,0.279,2.899,0.883,4.402,0.984
								c0.213-0.036,0.671-0.171,0.841-0.142c2.039,0.465,3.957-0.181,5.768-0.705c0.726-0.179,1.265-0.386,1.956-0.537
								c0.024-0.16,0.193-0.182,0.372-0.283l1.956-0.416c0.836-0.18,1.641-0.396,1.809-0.365c0.083,0.012-1.252,0.69-2.676,1.191
								c-1.418,0.512-2.904,0.847-2.836,0.919c0.077,0.033,1.072-0.156,2.065-0.449c0.997-0.282,1.98-0.677,2.151-0.717
								c-3.27,1.677-5.663,2.15-7,2.457c-1.359,0.27-1.738,0.324-1.485,0.335c0.501,0.032,3.493-0.407,5.619-1.288
								c0.698-0.139,1.603-0.641,2.866-1.134c-0.692,0.423-2.149,1.401-2.542,1.518c-1.741,0.633-1.437,0.809-3.553,1.057
								c-0.87,0.081-2.049,0.261-3.216,0.363c-1.166,0.107-2.317,0.145-3.079,0.104c0.829-0.146,2.664-0.602,3.785-0.568
								c-1.23-0.143-1.924-0.011-2.658,0.133c-0.729,0.139-1.5,0.303-2.787,0.029c-0.24-0.045-0.526-0.059-0.836-0.076
								c-0.278-0.099-0.542-0.185-0.867-0.312c-2.078-0.544-3.959-0.975-5.84-2.004c0.167,0.074,0.199,0.277,0.36,0.376
								c1.562,1.063,3.188,1.269,5.045,1.843c0.354,0.138,0.918,0.017,1.302,0.097c0.786,0.148,1.458,0.436,2.195,0.619
								c-1.519,0.018-3.266-0.403-4.829-0.852c-0.331-0.073-0.77-0.048-1.052-0.047c0.711,0.268,1.442,0.492,2.184,0.688
								c1.308,0.3,2.863,0.394,4.301,0.401c1.441,0.021,2.764-0.027,3.721,0.174l0.226-0.059c0.029,0.018,0.068,0.027,0.113,0.033
								c0.37-0.016,0.813-0.024,1.223,0.056l-1.028,0.027c-2.679,0.648-5.794,0.054-8.664-0.509
								c-0.656-0.089-1.606-0.677-2.242-0.818c-1.863-0.48-3.675-1.412-5.212-2.609c-2.806-2.095-5.095-4.772-6.644-7.727
								c-1.559-2.954-2.385-6.159-2.545-9.285c-0.035-0.14-0.074-0.279-0.101-0.419l-0.063,0.201c0-0.139,0.012-0.279,0.019-0.417
								c-0.159-0.779-0.212-1.568-0.104-2.352c0.083-0.325,0.063,0.553,0.221,0.776l0.003-0.35l0.154,0.048
								c-0.049-0.127,0.031-0.215,0.074-0.313c0.182,1.677,0.539,3.338,1.037,4.96c0.126-0.244-0.041-0.713-0.077-0.949
								c-0.19-0.526-0.36-1.063-0.399-1.576c-0.327-1.392-0.141-2.903-0.095-4.254c0.053-0.253,0.112-0.503,0.186-0.745
								C33.502,55.777,33.745,56.418,33.693,56.906z M40.735,76.655c-0.356-0.378-0.667-0.782-0.979-1.202l-0.378-0.383
								c-0.152-0.162-0.334-0.314-0.531-0.464c-0.62-0.737-1.187-1.503-1.698-2.302c0.384,0.906,0.892,1.813,1.742,2.69
								c-2.309-2.172-3.357-4.818-4.186-7.451c-0.315-0.772-0.615-1.558-0.886-2.37l-0.622-1.666
								c0.666,3.633,2.05,7.264,4.427,10.411c2.354,3.146,5.729,5.701,9.588,7.146C44.824,79.849,42.629,78.489,40.735,76.655z
								 M41.625,77.021c0.834,0.599,1.716,1.114,2.616,1.554c2.391,1.308,5.304,2.207,7.109,2.044
								c-2.354-0.288-4.793-0.916-7.109-2.044c1.086,0.563,1.25,0.616,0.76,0.373c-0.488-0.242-1.623-0.808-2.998-1.707
								C41.929,77.215,41.792,77.13,41.625,77.021z"/>
							<path fill="#424E32" d="M32.836,65.261c-0.156-1.127-0.271-2.257-0.268-3.367c-0.121,0.45-0.246,0.861-0.277,1.385
								c-0.022,1.403,0.483,2.866,0.885,4.27c1.11,4.069,3.864,8,7.705,10.678c0.181,0.143,0.589,0.453,0.95,0.594
								C37.002,75.432,33.775,70.529,32.836,65.261z"/>
							<path fill="#424E32" d="M48.544,82.179l2.484,0.491c-0.697-0.302-1.667-0.563-2.44-0.809
								c-1.102-0.289-2.191-0.644-3.233-1.079C46.343,81.342,47.398,81.829,48.544,82.179z"/>
							<path fill="#424E32" d="M41.832,78.819l0.584,0.404c0.912,0.609,1.898,1.122,2.938,1.559
								c-1.045-0.593-2.015-1.265-2.978-1.974C42.298,78.949,42.083,78.92,41.832,78.819z"/>
						</g>
					</g>
				</g>
			</g>
		</g>
	</g>
	<g>
		<g>
			<g>
				<g>
					<g>
						<path fill="#424E32" d="M57.265,78.091c0.403-0.011,0.807-0.037,1.188-0.063l1.275-0.116l2.514-0.247
							c1.631-0.188,3.175-0.452,4.532-0.874c-1.085,0.337-2.241,0.574-3.433,0.752c1.782-0.274,3.237-0.527,4.868-1.053
							c-0.415,0.344-1.538,0.574-1.763,0.825c-2.08,0.556-4.33,0.718-6.619,0.799c-1.193,0.052-2.194,0.063-3.27-0.033
							c-1.056-0.087-2.09-0.256-3.091-0.498C55.131,77.428,56.069,78.095,57.265,78.091z"/>
						<path fill="#424E32" d="M71.932,74.212c-0.264,0.293-0.531,0.569-0.823,0.815C71.408,74.752,71.67,74.455,71.932,74.212z"/>
						<path fill="#424E32" d="M34.111,62.508c-0.214-0.489-0.407-0.99-0.568-1.483L34.111,62.508z"/>
						<path fill="#424E32" d="M51.443,78.358c-0.269-0.039-0.537-0.091-0.806-0.157c-1.952-0.688-3.81-1.697-5.514-2.969
							C47,76.613,49.294,77.522,51.443,78.358z"/>
						<path fill="#424E32" d="M53.549,79.254c2.122,0.349,4.292,0.438,6.375,0.439C57.846,79.734,55.697,79.659,53.549,79.254z"/>
						<path fill="#424E32" d="M31.12,45.875c-0.04,0-0.055-0.052-0.059-0.123c0.009-0.071,0.012-0.137,0.005-0.194
							c0.155-0.457,0.325-0.906,0.502-1.352c0.089-0.157,0.195-0.613,0.405-0.895l0.329-0.545c-0.077,0.201-0.068,0.341-0.197,0.584
							c-0.109,0.167-0.195,0.324-0.25,0.481l-0.092,0.214L31.7,44.178l-0.225,0.471C31.339,44.957,31.221,45.29,31.12,45.875z"/>
						<path fill="#424E32" d="M34.338,63.056l0.04,0.044l0.235,0.488l0.015,0.064C34.522,63.459,34.431,63.258,34.338,63.056z"/>
						<path fill="#424E32" d="M30.802,47.054c-0.073,0.003-0.147,0.006-0.22,0.076c0.146-0.526,0.304-1.047,0.481-1.56
							c-0.003,0.067-0.005,0.13-0.002,0.183C31.01,46.111,30.803,46.642,30.802,47.054z"/>
						<path fill="#424E32" d="M30.202,59.389c0.08,0.344,0.293,0.614,0.369,0.764c0.125,0.902,0.291,1.802,0.595,2.838
							c0.089,0.145,0.214,0.474,0.403,0.756c0.018,0.203,0.048,0.421,0.094,0.645c-0.884-2.195-1.522-4.551-1.828-7.03
							C29.943,58.023,30.067,58.694,30.202,59.389z"/>
						<path fill="#424E32" d="M64.282,28.16c-2.864-0.487-6.299-0.985-9.103-0.253c1.668-0.074,3.647-0.045,5.246,0.193
							c1.602,0.227,2.804,0.636,2.982,0.977c0.176,0.357-0.896,0.158-2.347-0.033c-1.45-0.198-3.303-0.331-4.558-0.213l0.67,0.089
							c-0.333-0.044-0.67-0.089-0.959,0.004c0.673,0.078,1.957,0.149,2.317,0.37c-0.193,0.045-0.386,0.099-0.578,0.156
							c0.832,0.218,2.005,0.37,3.154,0.63c1.148,0.249,2.266,0.592,2.993,0.983c-3.615-1.572-8.683-1.864-13.507-0.4
							c-4.843,1.405-9.315,4.552-12.133,8.419c-0.764,1.111-1.404,2.235-1.851,3.425l-0.742,1.93
							c-0.12,0.318-0.335,0.759-0.326,0.829c0,0.047-0.049,0.225-0.083,0.374l-0.101,0.454c-0.506,2.423-0.551,4.804-0.252,7.014
							c0.057,0.835,0.127,2.836,0.359,4.263c0.556,2.489,1.53,4.887,2.929,6.966c1.386,2.268,2.966,4.364,4.857,6.262
							c1.938,1.921,4.038,3.591,6.566,4.64c0.498,0.212,1.05,0.569,1.162,0.792c0.113,0.213-0.246,0.342-1.568-0.122
							c-2.215-0.74-4.254-2.031-6.104-3.698c0.333,0.046,1.17,0.91,1.674,1.111c-1.33-1.205-2.397-2.254-3.582-3.53
							c0.792,0.859,1.636,1.66,2.534,2.417c-2.247-1.879-4.339-4.368-5.989-7.093c-0.584-1.028-0.474-2.175-1.466-3.521
							c1.234,3.918,3.577,7.734,6.829,10.615c-0.009-0.001-0.019-0.004-0.026-0.004c1.485,1.296,2.836,2.318,4.438,3.199
							c-0.507-0.249-1.02-0.521-1.421-0.824c2.129,1.613,4.594,2.669,7.177,3.181c-3.743-0.327-7.47-2.193-10.509-4.966
							c-3.085-2.72-5.5-6.133-7.147-9.674c0.556,2.192,2.501,4.465,3.399,6.192c-2.25-2.846-3.913-6.177-4.765-9.771
							c0.09,0.26,0.19,0.509,0.298,0.755c-0.431-2.238-0.982-4.605-0.938-6.886l0.023-0.607l-0.023,0.607
							c-0.055,2.083,0.167,4.147,0.64,6.131c-0.31-0.885-0.519-1.866-0.64-3.047c-0.05,0.653,0.051,1.585,0.21,2.51
							c0.273,1.199,0.636,2.379,1.064,3.521c-0.708-1.75-1.283-3.529-1.711-5.206c0.285,2.577,1.115,5.159,2.219,7.535
							c-0.664-1.279-1.228-2.61-1.677-3.98c-0.659-2.329-0.994-4.757-0.997-7.205l0.02,0.28l-0.017-0.557
							c0.007-0.957,0.072-1.917,0.185-2.876l0.224-2.566l0.09-0.422c0,0.28,0.029,0.42,0.179-0.082l0.51-1.631l0.267-0.837
							c0.061-0.248,0.192-0.447,0.339-0.759c0.553-1.133,1.004-2.341,1.743-3.349c0.395-0.539,0.833-1.318,1.383-2.12
							c0.19-0.187,0.258-0.308,0.3-0.434l0.372-0.514l0.999-1.183c-0.354,0.361-0.676,0.775-0.999,1.183l-0.354,0.458
							c0.042-0.135,0.082-0.283,0.26-0.51c-1.154,1.372-2.218,2.869-2.989,4.556l-0.613,1.282c-0.189,0.429-0.48,0.878-0.614,1.242
							c-0.311,0.87-0.576,1.783-0.783,2.697l0.034-0.691c-0.049,0.371-0.088,0.743-0.124,1.114
							c-0.243,1.189-0.395,2.398-0.438,3.609c-0.012-0.363-0.031-0.702-0.073-1.004c-0.409,3.452,0.002,7.005,1.097,10.319
							c0.886,3.152,2.349,6.126,4.287,8.751c-0.923-1.504-1.833-3.089-2.61-4.771c2.267,4.376,5.661,8.104,9.605,11.029
							c-0.865-0.299-1.935-0.936-2.553-1.083c-0.076,0.14,1.187,1.189,0.384,0.666c-2.986-1.877-4.351-4.061-5.857-4.696
							c-0.17-0.043,0.21,0.847,0.575,1.618c0.359,0.773,0.681,1.438,0.166,1.002c-0.813-0.772-2.173-2.267-3.399-4.075
							c-0.324-0.541-0.657-1.103-0.984-1.694c-0.028-0.081-0.135-0.183-0.266-0.315c-1.178-2.063-1.975-4.203-2.296-5.416
							c-0.121-0.451-0.235-0.899-0.334-1.349c-0.022-0.244-0.013-0.458,0.019-0.63c-0.12-0.268-0.225-0.542-0.312-0.821
							c-0.217-1.215-0.354-2.429-0.426-3.636c0.016-0.676,0.065-1.347,0.119-2.007c-0.05,0.014-0.116,0.122-0.167-0.005
							c0.014-1.513,0.143-3.012,0.384-4.487c0.156-0.591,0.353-1.121,0.587-1.571c-0.039-0.857,0.219-2.096,0.755-3.583
							c0.055-0.132,0.08-0.279,0.161-0.4l0.178-0.319l0.21-0.396l0.431-0.869l0.884-1.843l-0.016-0.004
							c0.678-1.229,1.391-2.304,2.237-3.378c0.174-0.147,0.346-0.28,0.516-0.396c0.147-0.309,0.38-0.57,0.461-0.72
							c0.748-0.772,1.471-1.327,2.19-1.868c0.097-0.134,0.234-0.444,0.497-0.677c0.544-0.438,1.07-0.862,1.6-1.253
							c0.632-0.444,1.295-0.855,1.979-1.243c2.307-1.295,4.745-2.217,7.216-2.781c0.093,0.032,0.131,0.095,0.17,0.157
							c0.351-0.202,0.904-0.253,1.231-0.391c-0.06,0.04-0.094,0.078-0.075,0.111c1.097-0.373,1.348-0.238,2.369-0.354
							c0.229-0.035,0.434-0.135,0.658-0.187l0.34-0.027c1.193,0.179,2.325-0.007,3.621-0.007c1.29,0.071,2.568,0.234,3.828,0.476
							C63.281,27.625,63.629,27.895,64.282,28.16z"/>
						<path fill="#424E32" d="M32.449,42.51c0.537-0.933,1.054-2.033,1.81-3.128C33.514,40.6,33.197,41.712,32.449,42.51z"/>
						<path fill="#424E32" d="M38.405,74.202c0.247,0.448,0.582,0.906,0.982,1.369c-2.331-2.204-4.361-4.727-5.981-7.576
							l0.012-0.012c0.676,1.123,1.515,2.487,2.418,3.654C36.732,72.809,37.683,73.777,38.405,74.202z"/>
						<path fill="#424E32" d="M31.061,45.752c-0.003-0.052-0.001-0.116,0.002-0.183l0.003-0.011
							C31.073,45.616,31.07,45.682,31.061,45.752z"/>
						<path fill="#424E32" d="M44.594,75.949l0.229,0.165c-0.61-0.376-1.202-0.785-1.774-1.224L44.594,75.949z"/>
						<path fill="#424E32" d="M51.491,79.376c1.431,0.357,2.897,0.563,4.365,0.628c1.888,0.187,3.753,0.082,5.528,0.121
							c-1.637,0.097-3.292,0.228-4.966,0.113C54.753,80.134,53.097,79.85,51.491,79.376z"/>
						<path fill="#424E32" d="M42.974,78.341c0.521,0.432,1.057,0.871,1.623,1.281c-0.594-0.364-1.167-0.749-1.723-1.148
							C43.008,78.508,42.956,78.39,42.974,78.341z"/>
						<polygon fill="#424E32" points="39.949,72.125 40.257,72.44 39.381,71.707 						"/>
						<path fill="#424E32" d="M49.404,81.951c-0.489-0.176-0.967-0.371-1.438-0.573c0.295,0.086,0.591,0.157,0.896,0.205
							C48.992,81.71,49.179,81.831,49.404,81.951z"/>
						<path fill="#424E32" d="M57.282,83.166l1.037-0.006l0.982-0.032c-0.358,0.038-0.782,0.068-1.213,0.089
							c-0.408,0.018-0.818,0.026-1.228,0.027C57.048,83.195,57.194,83.15,57.282,83.166z"/>
					</g>
				</g>
			</g>
		</g>
		<g>
			<g>
				<g>
					<g>
						<polygon fill="#424E32" points="41.611,33.188 41.81,33.052 41.796,33.039 						"/>
						<path fill="#424E32" d="M41.553,33.515l0.062-0.043c-0.01,0-0.014-0.003-0.021-0.005L41.553,33.515z"/>
						<path fill="#424E32" d="M41.795,33.038c-0.055-0.05-0.179-0.055-0.116-0.181l0.452-0.291c0.092-0.105-0.042-0.066-0.063-0.099
							c0.113-0.073,0.227-0.146,0.216-0.162c0.046-0.09-0.093-0.043-0.321,0.09C41.579,32.884,40.443,33.799,41.795,33.038z"/>
						<path fill="#424E32" d="M41.02,33.772l0.567-0.4c0.034-0.079,0.089-0.172,0.006-0.168
							C41.316,33.438,41.153,33.59,41.02,33.772z"/>
						<path fill="#424E32" d="M46.018,78.502c0.006-0.01,0.02-0.01,0.112,0.066L46.018,78.502c-0.007,0.009-0.009,0.027-0.064,0.003
							l1.344,0.695l0.2,0.032c-1.147-0.575-2.237-1.249-3.162-1.759C44.951,77.893,45.401,78.139,46.018,78.502z"/>
						<path fill="#424E32" d="M47.639,79.173l0.116,0.059C47.659,79.163,47.646,79.163,47.639,79.173z"/>
						<path fill="#424E32" d="M32.203,62.88l-0.868-2.052c0.483,1.444,1.104,2.872,1.672,3.874
							C32.717,64.108,32.448,63.501,32.203,62.88z"/>
						<path fill="#424E32" d="M30.331,57.372c0.098,1.014,0.321,1.828,0.578,2.58c-0.213-0.779-0.392-1.565-0.518-2.358
							L30.331,57.372z"/>
						<path fill="#424E32" d="M30.627,58.462c0.167,0.91,0.427,1.651,0.708,2.365C31.062,60.011,30.825,59.199,30.627,58.462z"/>
						<path fill="#424E32" d="M40.64,72.729l0.861,0.702l0.332,0.163l-0.074-0.067c-0.455-0.366-0.905-0.754-1.348-1.16
							l-0.531-0.427C40.128,72.208,40.381,72.475,40.64,72.729z"/>
						<path fill="#424E32" d="M41.501,73.432C40.8,73.101,42.079,73.931,41.501,73.432L41.501,73.432z"/>
						<polygon fill="#424E32" points="38.023,71.606 37.964,71.539 37.784,71.35 						"/>
						<path fill="#424E32" d="M34.377,65.376c0.246,0.443,0.507,0.879,0.782,1.296c-0.549-0.869-1.05-1.777-1.468-2.531
							c0.056,0.115,0.091,0.241,0.149,0.356C33.988,64.711,34.195,65.036,34.377,65.376z"/>
						<path fill="#424E32" d="M40.992,74.384c-1.079-0.913-2.092-1.869-3.028-2.845c-1.8-2.07-3.308-4.253-4.532-6.314
							c-0.549-0.903-1.177-2.221-1.685-3.592c-0.516-1.37-0.908-2.787-1.22-3.832c0.027,0.23,0.06,0.451,0.1,0.662l-0.236-0.869
							c-0.542-3.543-0.296-7.117,0.722-10.625c0.148-0.521,0.224-0.923,0.401-1.436c0.179-0.519,0.375-1.022,0.578-1.521
							c-0.003-0.003-0.01,0.001-0.02,0.013c0.849-2.067,1.923-4.006,3.286-5.894c0.65-0.877,1.385-1.691,2.153-2.466
							c0.292-0.289,0.341-0.238,0.555-0.409c0.855-0.68,1.526-1.146,2.521-1.844l0.035,0.047c0.144-0.119,0.28-0.216,0.396-0.288
							c-0.351,0.515-1.448,1.46-0.132,0.651l0,0l-0.176,0.156l-0.021,0.016l0.002,0c-0.271,0.24-0.413,0.411-0.541,0.595
							c0.179-0.145,0.356-0.292,0.542-0.428c-0.018,0.048-0.024,0.087,0.012,0.094l-0.039,0.049l-0.149,0.114
							c-0.017,0.033-0.026,0.06-0.03,0.083c-0.422,0.435-1.096,1.089-0.906,1.031c0.134-0.057,0.429-0.378,0.802-0.703l0.089-0.047
							c-0.49,0.422,0.086,0.106-0.202,0.365c-0.395,0.331-0.769,0.684-1.14,1.039c-1.51,1.448-2.634,2.833-3.699,4.586l-0.141,0.23
							c-0.509,0.854-0.953,1.681-1.388,2.551l0.05-0.191c-0.362,0.696-0.666,1.423-0.921,2.165
							c-0.604,1.829-1.002,3.712-1.244,5.733c-0.249,2.116-0.202,4.201,0.17,6.31c-0.178-0.858-0.286-1.733-0.323-2.641
							c-0.016-0.407-0.004-0.813-0.006-1.207c-0.009,0.409-0.017,0.81,0.006,1.207c0.019,1.568,0.239,3.168,0.701,4.292
							c0.015,0.13-0.004,0.135,0.026,0.257c0.213,0.857,0.463,1.71,0.8,2.395c0.019-0.007,0.15,0.349,0.143,0.217
							c0.286,0.7,0.637,1.513,1.006,2.174c0.156,0.289,0.337,0.563,0.532,0.83c1.367,2.332,3.024,4.457,5.073,6.51
							c0.505,0.514,1.093,1.1,1.627,1.595c-0.829-0.682-1.644-1.438-2.425-2.252c-0.712-0.83-1.359-1.649-1.947-2.288l-0.393-0.46
							c0.734,0.973,1.52,1.894,2.34,2.748c0.42,0.49,0.862,0.983,1.319,1.445l-0.031-0.025c-0.375-0.345-0.747-0.701-1.109-1.072
							c-0.644-0.733-1.235-1.458-1.778-2.056l-0.201-0.218l-0.4-0.456c0.462,0.596,0.941,1.173,1.438,1.726
							c0.308,0.343,0.623,0.678,0.942,1.004l0.579,0.646l-0.073-0.057c-0.188-0.168-0.836-0.541-0.624-0.22
							c1.304,1.479,3.464,3.194,3.459,3.194c0.024,0.07-0.63-0.407-1.253-0.927c-0.627-0.515-1.22-1.071-1.183-1.018l0.39,0.413
							l-0.405-0.326c-0.287-0.258-0.63-0.64-0.833-0.802c-0.702-0.575-1.351-1.378-2.048-2.14c-0.446-0.471-0.972-1.046-1.475-1.645
							c-0.032,0.021-0.236-0.313-0.195-0.183c-0.412-0.607-0.851-1.333-1.109-1.548l-0.03-0.044
							c-0.026-0.045-0.068-0.105-0.115-0.17c-0.591-1.073-1.07-1.789-1.591-2.783c-0.164-0.349-0.318-0.709-0.463-1.085
							c0.094,0.245,0.224,0.619,0.346,0.854l0.118,0.231c0.423,0.904,0.898,1.728,1.396,2.529l0.195,0.254l0.099,0.18l0.046,0.034
							c0.503,0.749,1.078,1.589,1.569,2.179c0.885,1.139,1.828,2.35,2.82,3.436c-0.521-0.514-1.021-1.036-1.5-1.563
							c0.587,0.669,1.171,1.271,1.754,1.838l0.258,0.27l0.548,0.554l-0.494-0.527c0.354,0.331,0.71,0.651,1.069,0.956
							c1.949,1.719,4.114,3.301,6.386,4.599l-0.188-0.023c-1.108-0.611-2.159-1.313-3.057-1.845c0.592,0.432,1.029,0.691,1.625,1.07
							c-0.007,0.009-0.01,0.026-0.063,0.001l1.301,0.733c-0.168-0.037-0.353-0.087-0.536-0.139c-0.245-0.1-0.577-0.307-0.917-0.502
							c-1.438-0.896-2.7-1.882-3.979-2.955c-1.105-0.995-2.145-2.061-3.103-3.159C39.015,72.664,39.993,73.568,40.992,74.384z
							 M38.671,35.569l-0.284,0.306l0.055-0.034C38.535,35.754,38.616,35.654,38.671,35.569z M36.532,37.815
							c0.607-0.679,1.384-1.593,2.219-2.404c0.001-0.008,0-0.015-0.002-0.018C38.018,36.041,37.219,36.941,36.532,37.815z
							 M34.07,40.56l0.017-0.016l-0.009-0.003L34.07,40.56z M30.859,56.203c-0.185-1.042-0.206-2.37-0.147-3.691
							c0.027-0.396-0.015-0.798,0.05-1.326c0.066-0.661,0.088-1.061,0.168-1.588l-0.11,0.387c0.18-0.915,0.185-1.461,0.456-2.358
							c-0.02-0.005-0.023-0.145,0.015-0.273c0.163-0.649,0.403-1.276,0.55-1.792c0.206-0.638,0.455-1.259,0.64-1.764
							c0.056-0.123,0.104-0.395,0.207-0.645c0.135-0.299,0.269-0.6,0.42-0.892l-0.032,0.028c-0.128,0.236-0.242,0.483-0.347,0.733
							c-0.316,0.746-0.645,1.628-0.896,2.393c-0.655,1.906-1.002,3.764-1.172,5.622c-0.023,0.4-0.039,0.8-0.044,1.199
							c-0.028,1.197-0.037,2.66,0.152,3.442C30.795,55.811,30.812,56.074,30.859,56.203z M31.865,57.542
							c-0.283-1.304-0.386-2.807-0.322-4.075l0.097-2.302c0.048-0.8,0.077-1.418-0.083-1.185c0.083,0.666-0.208,2.77-0.158,4.625
							C31.423,56.462,31.714,58.015,31.865,57.542z M36.025,67.152c-0.311-0.429-0.602-0.852-0.898-1.375
							C35.415,66.244,35.714,66.702,36.025,67.152z M32.827,62.688c0.744,1.513,1.589,3.109,2.545,4.484
							c0.726,1.06,1.48,2.265,2.315,3.078l0.046-0.036l-0.095-0.088c-0.271-0.359-0.467-0.665-0.678-0.978l0.043,0.05l-0.07-0.089
							c-0.141-0.208-0.292-0.42-0.477-0.657l-0.261-0.329c-0.934-1.3-1.776-2.72-2.505-3.983c-0.436-0.788-0.821-1.467-1.183-2.3
							C32.594,62.084,32.713,62.455,32.827,62.688z"/>
						<path fill="#424E32" d="M39.309,72.678c0.405,0.389,0.82,0.772,1.247,1.148c0.336,0.282,0.674,0.559,1.02,0.823
							c1.621,1.292,3.562,2.749,5.534,3.771c0.085-0.02,0.12-0.067,0.079-0.158c-2.059-1.207-4.064-2.546-5.824-4.182l-0.046-0.033
							c-0.845-0.599-2-1.811-2.911-2.723c-0.935-0.896-1.761-1.896-2.573-2.909C36.896,69.963,38.06,71.318,39.309,72.678z"/>
						<path fill="#424E32" d="M30.909,59.952c0.142,0.509,0.3,1.016,0.477,1.519c0.505,1.397,1.076,2.584,1.734,3.744
							c-0.447-0.87-0.853-1.77-1.201-2.701C31.55,61.59,31.207,60.809,30.909,59.952z"/>
						<path fill="#424E32" d="M33.674,66.144c-0.193-0.31-0.376-0.618-0.555-0.929c0.665,1.289,1.426,2.511,2.257,3.674
							c1.401,1.887,2.986,3.629,4.742,5.165l0.594,0.52c-3.197-2.941-5.758-6.461-7.598-9.684l-0.107-0.188
							c0.779,1.587,1.703,3.074,2.732,4.471C35,68.203,34.31,67.191,33.674,66.144z"/>
						<polygon fill="#424E32" points="38.919,72.299 39.174,72.574 39.486,72.87 39.309,72.678 						"/>
						<path fill="#424E32" d="M36.96,69.149l-0.027-0.039c-0.249-0.318-0.497-0.647-0.737-0.986
							c-0.352-0.452-0.702-0.939-1.037-1.452C35.749,67.611,36.39,68.505,36.96,69.149z"/>
						<polygon fill="#424E32" points="35.418,65.959 35.17,65.521 35.028,65.339 35.197,65.651 						"/>
						<path fill="#424E32" d="M32.339,59.223c0.594,2.156,1.464,4.081,2.507,5.872l0.182,0.244c-0.656-1.226-1.244-2.47-1.778-3.63
							c-0.104-0.229-0.281-0.567-0.358-0.807c-0.381-1.128-0.703-2.219-0.93-3.331c0.098,0.533,0.218,1.067,0.366,1.606
							L32.339,59.223z"/>
					</g>
				</g>
			</g>
		</g>
		<g>
			<g>
				<g>
					<g>
						<path fill="#424E32" d="M50.733,25.121c3.052-0.622,6.264-0.564,9.061-0.044c-1.121-0.201-2.256-0.328-3.395-0.375
							c1.707,0.076,3.141,0.311,4.816,0.757c-0.519-0.076-1.61-0.333-1.893-0.298c-4.087-0.703-8.36-0.376-12.226,0.83
							C48.577,25.323,49.625,25.339,50.733,25.121z"/>
						<path fill="#424E32" d="M65.536,26.98c-0.387-0.149-0.758-0.309-1.134-0.442C64.805,26.675,65.191,26.834,65.536,26.98z"/>
						<path fill="#424E32" d="M30.882,41.74l-0.496,1.285C30.532,42.596,30.704,42.167,30.882,41.74z"/>
						<path fill="#424E32" d="M45.666,27.025l-0.674,0.312c-1.735,0.709-3.431,1.574-5.088,2.562
							C41.699,28.817,43.669,27.71,45.666,27.025z"/>
						<path fill="#424E32" d="M47.63,26.505c1.811-0.59,3.732-0.935,5.533-1.018C51.364,25.589,49.477,25.927,47.63,26.505z"/>
						<path fill="#424E32" d="M29.221,55.45c0.014-0.009,0.029,0.025,0.043,0.076c0.009,0.054,0.02,0.102,0.032,0.142
							c0.051,0.736,0.134,1.47,0.245,2.199c-0.043-0.178-0.099-0.342-0.129-0.526C29.311,56.528,29.355,56.352,29.221,55.45z"/>
						<polygon fill="#424E32" points="31.083,41.265 31.095,41.217 31.278,40.783 31.306,40.733 						"/>
						<path fill="#424E32" d="M29.166,54.512c0.028-0.016,0.055-0.033,0.075-0.097c0.006,0.415,0.026,0.83,0.055,1.243l-0.032-0.133
							C29.217,55.251,29.216,54.818,29.166,54.512z"/>
						<path fill="#424E32" d="M30.788,45.262c0.082-0.255,0.1-0.5,0.13-0.623c0.26-0.645,0.542-1.279,0.872-2.028l0.208-0.615
							l0.25-0.417c-0.741,1.636-1.384,3.363-1.913,5.178C30.468,46.268,30.614,45.771,30.788,45.262z"/>
						<path fill="#424E32" d="M48.234,80.271c-2.372-0.614-4.854-1.988-6.894-3.204c1.126,0.828,2.57,1.67,3.804,2.269
							c1.232,0.603,2.238,0.994,2.401,1.174c0.165,0.18-0.778-0.085-1.978-0.604c-1.201-0.517-2.624-1.324-3.564-1.913l0.476,0.35
							c-0.242-0.169-0.475-0.351-0.714-0.462c0.464,0.365,1.437,0.973,1.693,1.192l-0.493-0.199
							c0.616,0.449,1.567,0.997,2.565,1.461c0.995,0.469,2.028,0.862,2.75,1.15c-3.556-1.251-7.486-3.447-10.836-6.624
							c-3.367-3.142-6.14-7.195-7.782-11.382c-1.886-4.655-2.697-9.407-2.233-13.924c0.091-0.842,0.542-2.811,0.991-4.174
							c0.696-2.446,1.619-4.815,2.713-7.094c1.223-2.398,2.723-4.655,4.756-6.602c0.506-0.486,1.062-0.941,1.656-1.363
							c0.599-0.417,1.143-0.755,1.736-1.124c1.17-0.717,2.39-1.403,3.683-2.033c1.039-0.498,2.563-0.907,0.039,0.326
							c-1.023,0.546-2.029,1.132-3.016,1.749c-0.98,0.629-1.959,1.225-2.928,2.012c0.16-0.247,1.149-0.912,1.543-1.216
							c-1.515,0.887-2.681,1.942-3.794,3.248c0.747-0.885,1.575-1.718,2.516-2.452c-2.351,1.845-4.246,4.456-5.7,7.194
							c-0.534,0.999-1.211,1.784-1.684,3.333c1.685-3.655,3.851-7.312,7.119-10.106l-0.013,0.019
							c0.367-0.304,0.75-0.591,1.128-0.845l1.099-0.712c0.731-0.464,1.476-0.895,2.254-1.324l-1.384,0.805
							c2.251-1.262,4.57-2.36,7.012-3.15c-3.402,1.275-6.722,3.044-9.826,5.333c-3.008,2.505-5.021,5.864-6.504,9.152
							c0.946-1.799,2.146-4.249,3.359-5.585c-1.964,2.695-3.469,5.694-4.643,8.887l0.224-0.713c-0.827,1.949-1.39,4.147-1.777,6.233
							l-0.103,0.562l0.103-0.562c0.37-1.917,0.91-3.753,1.554-5.521c-0.259,0.823-0.541,1.694-0.842,2.748l0.762-2.169
							c0.36-1.06,0.769-2.102,1.218-3.113c-0.679,1.573-1.211,3.181-1.582,4.683c0.695-2.209,1.574-4.432,2.644-6.496
							c-0.566,1.145-1.067,2.318-1.517,3.509c-0.786,1.987-1.424,4.054-1.846,6.199l0.043-0.247l-0.088,0.49
							c-0.162,0.839-0.263,1.703-0.308,2.565c-0.037,0.775-0.009,1.538,0.06,2.29l0.019,0.382c-0.036-0.24-0.065-0.356-0.057,0.111
							c0.045,2.003,0.524,4.128,1.087,6.344c0.146,0.584,0.412,1.352,0.746,2.159c0.07,0.228,0.126,0.34,0.184,0.437l0.23,0.521
							c0.184,0.426,0.378,0.85,0.59,1.254l-0.59-1.254l-0.205-0.479c0.065,0.102,0.136,0.207,0.236,0.443
							c-1.232-2.947-2.034-6.208-2.222-9.537l0.093,0.595c-0.044-0.324-0.082-0.649-0.112-0.977
							c-0.047-1.075-0.028-2.154,0.055-3.229c-0.012,0.322-0.019,0.621,0,0.883c0.2-3.067,1.026-6.06,2.083-8.952
							c1.072-2.683,2.408-5.235,4.083-7.542c-0.957,1.203-1.807,2.58-2.566,4.033c0.97-1.95,2.11-3.833,3.517-5.515
							c0.708-0.836,1.475-1.629,2.34-2.311c0.872-0.684,1.807-1.232,2.74-1.788c-0.627,0.477-1.495,1.116-1.829,1.489
							c0.05,0.022,1.228-0.719,0.568-0.249c-2.354,1.716-3.674,3.398-4.146,4.51c-0.03,0.116,0.493-0.438,0.974-0.873
							c0.483-0.435,0.912-0.76,0.594-0.363c-0.544,0.653-1.47,1.877-2.323,3.312c-0.258,0.407-0.514,0.836-0.765,1.291
							c-0.036,0.054-0.072,0.158-0.119,0.288c-0.85,1.604-1.517,3.207-1.878,4.096l-0.387,0.99
							c-0.077,0.169-0.151,0.311-0.219,0.418l-0.162,0.65c-0.302,0.896-0.564,1.793-0.783,2.692
							c-0.14,0.495-0.277,0.991-0.388,1.487c0.022-0.007,0.062-0.083,0.065,0.016c-0.223,1.123-0.31,2.236-0.335,3.382l-0.098,1.267
							c0.187,1.23,0.446,4.085,1.054,5.999l0.005-0.004c0.265,0.967,0.589,1.928,0.963,2.882l0.125,0.469l0.298,0.576
							c0.31,0.757,0.583,1.394,0.875,2.025c0.075,0.104,0.234,0.287,0.369,0.52c0.255,0.473,0.527,0.916,0.799,1.345
							c0.314,0.505,0.642,1.011,0.99,1.51c1.171,1.683,2.485,3.229,3.927,4.619c0.032,0.06,0.025,0.091,0.018,0.122
							c0.255,0.184,0.565,0.492,0.792,0.657c-0.047-0.027-0.08-0.041-0.083-0.024c0.736,0.552,0.829,0.71,1.476,1.224
							c0.152,0.108,0.311,0.187,0.464,0.286l0.22,0.161c0.701,0.632,1.52,1.092,2.438,1.58c0.905,0.515,1.841,0.976,2.809,1.366
							C47.418,79.889,47.696,80.059,48.234,80.271z"/>
						<path fill="#424E32" d="M29.583,58.132c0.154,0.952,0.363,1.893,0.613,2.824C29.9,59.963,29.634,59.068,29.583,58.132z"/>
						<path fill="#424E32" d="M37.031,33.923l0.959-0.767c-1.744,1.555-3.161,3.559-4.377,5.712l-0.007-0.001
							c0.472-0.875,1.128-1.893,1.779-2.787C36.03,35.181,36.679,34.421,37.031,33.923z"/>
						<path fill="#424E32" d="M29.264,55.525l0.032,0.133l0,0.009C29.284,55.627,29.273,55.579,29.264,55.525z"/>
						<path fill="#424E32" d="M40.073,30.213l0.21-0.126c-0.523,0.335-1.041,0.678-1.554,1.03
							C39.129,30.822,39.59,30.516,40.073,30.213z"/>
						<path fill="#424E32" d="M46.067,27.287c1.179-0.461,2.389-0.85,3.621-1.148c1.592-0.349,3.191-0.532,4.712-0.507
							C51.577,25.703,48.762,26.291,46.067,27.287z"/>
						<path fill="#424E32" d="M40.704,31.181c0.447-0.244,0.904-0.483,1.368-0.71c-0.453,0.246-0.896,0.507-1.336,0.769
							C40.807,31.171,40.724,31.192,40.704,31.181z"/>
						<path fill="#424E32" d="M36.051,33.479l0.257-0.279c-0.207,0.25-0.418,0.497-0.611,0.758
							C35.761,33.858,35.931,33.636,36.051,33.479z"/>
						<path fill="#424E32" d="M45.6,28.794l-1.033,0.436l0.584-0.316C45.274,28.893,45.425,28.846,45.6,28.794z"/>
						<path fill="#424E32" d="M51.121,27.114c0.499-0.09,0.987-0.156,1.455-0.207c-0.579,0.079-1.169,0.176-1.749,0.295
							C50.955,27.153,51.057,27.119,51.121,27.114z"/>
					</g>
				</g>
			</g>
		</g>
	</g>
</g>
</svg>
